<svg width="40" height="40" viewBox="0 0 40 40" fill="none" xmlns="http://www.w3.org/2000/svg">
<g id="ani_img_profile">
<g clip-path="url(#clip0_6016_615)">
<rect width="40" height="40" rx="20" fill="#E9E3F8"/>
<g id="person">
<mask id="mask0_6016_615" style="mask-type:alpha" maskUnits="userSpaceOnUse" x="9" y="7" width="59" height="59">
<rect id="Bounding box" x="9.21045" y="7.89526" width="57.8947" height="57.8947" fill="#D9D9D9"/>
</mask>
<g mask="url(#mask0_6016_615)">
<path id="person_2" d="M19.6551 19.2637C18.4603 19.2637 17.4374 18.8271 16.5866 17.9538C15.7357 17.0806 15.3103 16.0308 15.3103 14.8046C15.3103 13.5783 15.7357 12.5285 16.5866 11.6553C17.4374 10.782 18.4603 10.3454 19.6551 10.3454C20.8499 10.3454 21.8727 10.782 22.7236 11.6553C23.5744 12.5285 23.9999 13.5783 23.9999 14.8046C23.9999 16.0308 23.5744 17.0806 22.7236 17.9538C21.8727 18.8271 20.8499 19.2637 19.6551 19.2637ZM10.3447 28.9661V26.1338C10.3447 25.5099 10.5099 24.932 10.8401 24.4004C11.1703 23.8687 11.6116 23.46 12.1638 23.1741C13.3909 22.5567 14.6287 22.0936 15.8772 21.7849C17.1258 21.4762 18.3851 21.3219 19.6551 21.3219C20.9251 21.3219 22.1844 21.4762 23.4329 21.7849C24.6815 22.0936 25.9193 22.5567 27.1463 23.1741C27.6986 23.46 28.1398 23.8687 28.47 24.4004C28.8003 24.932 28.9654 25.5099 28.9654 26.1338V28.9661H10.3447Z" fill="#F7F5FC"/>
</g>
</g>
</g>
</g>
<defs>
<clipPath id="clip0_6016_615">
<rect width="40" height="40" rx="20" fill="white"/>
</clipPath>
</defs>
</svg>
