<svg width="149" height="119" viewBox="0 0 149 119" fill="none" xmlns="http://www.w3.org/2000/svg">
<path id="Vector" d="M15.6893 51.9383C18.9659 54.3665 25.4019 57.8237 29.5361 59.4575C33.219 60.8476 37.8135 60.9379 45.5945 56.1899C52.9422 51.5231 60.1183 47.434 71.2662 42.3069C80.1033 38.281 88.2272 34.1559 92.7225 29.9133C95.4937 27.2595 97.2087 22.0963 97.3532 19.0994C97.4976 16.1026 98.3371 9.63051 101.217 8.05988C103.338 6.89544 104.854 8.17722 106.425 11.0567C107.589 13.178 109.765 13.6113 111.769 12.51C113.014 11.824 114.251 10.822 114.829 9.21529C115.605 6.19137 114.432 1.9669 116.932 0.603883C120.055 -1.10215 125.047 4.76516 127.033 8.38484C132.566 18.5037 133.694 21.4554 134.922 30.5181C135.31 34.201 139.778 47.9846 141.538 52.7056C142.811 56.226 145.998 62.9237 147.099 65.2436C148.489 68.3758 148.661 71.3636 145.835 72.4287C142.315 73.7105 135.68 66.6246 133.306 67.9245C131.681 68.8091 137.955 76.4185 136.005 78.7835C134.796 80.4173 130.887 81.5817 126.563 76.6442C123.639 73.3765 119.378 70.0277 114.793 68.4751C108.727 66.2816 104.493 65.6678 86.7288 77.9892C71.6905 88.1712 72.7737 93.4157 76.6551 103.462C77.7022 105.972 78.8034 109.754 76.9259 110.783C72.8007 113.04 68.0166 104.293 66.1481 105.322C63.404 106.829 69.6053 116.091 65.4801 118.347C64.3608 118.961 61.8785 119.178 59.3872 115.513C57.4374 112.841 48.7628 100.547 44.06 94.0385C39.9077 88.5232 34.1668 81.5998 32.9843 80.6249C26.9906 75.3082 23.1362 74.4958 15.5809 68.4029C9.46992 63.4653 -4.0971 46.3869 2.86243 41.6028C7.65557 38.4977 9.0547 46.9827 15.6712 51.9564L15.6893 51.9383ZM103.798 18.9821L102.381 13.4307C101.848 14.532 101.388 15.7596 101.677 16.8969C101.903 17.9079 103.148 18.6932 103.789 18.9821H103.798ZM111.516 29.5252C113.718 28.8121 115.027 29.7148 115.307 31.9985C115.443 34.0295 112.653 34.2642 112.003 35.7536C110.947 38.281 112.103 38.2991 113.736 37.7304C115.813 37.0805 116.065 36.9451 116.815 36.5299C115.849 34.4628 117.582 33.19 117.41 30.2022C117.239 27.2144 115.443 26.8984 109.918 27.4852C107.057 27.5935 107.337 31.6555 108.492 33.7858C108.916 31.6013 110.008 30.0307 111.516 29.5342V29.5252ZM121.996 8.05085C121.743 6.39898 120.642 5.86641 119.866 5.64074C119.983 8.81811 121.12 10.3075 122.086 10.5873C122.122 9.75688 122.068 8.48413 121.987 8.04182L121.996 8.05085ZM127.971 29.9404C128.712 29.2093 129.569 26.6276 128.486 24.9487C126.536 22.2768 122.889 21.8435 122.781 24.0099C124.28 23.1885 125.859 24.5967 126.518 25.2105C127.511 26.1312 127.61 28.9926 125.616 30.0848C126.329 30.5091 127.051 30.9243 127.971 29.9314V29.9404Z" fill="#BDB1DB"/>
</svg>
