<svg width="24" height="24" viewBox="0 0 24 24" fill="none" xmlns="http://www.w3.org/2000/svg">
<g id="memberMaster">
<g id="Group">
<path id="Vector" d="M16.9423 15.8029H7.0751C6.77447 15.8029 6.53076 16.0466 6.53076 16.3472V17.1594C6.53076 17.46 6.77447 17.7038 7.0751 17.7038H16.9423C17.2429 17.7038 17.4866 17.46 17.4866 17.1594V16.3472C17.4866 16.0466 17.2429 15.8029 16.9423 15.8029Z" fill="#6139D1"/>
<path id="Vector_2" d="M17.9446 9.9016C17.8323 9.9016 17.72 9.95344 17.6336 10.0312L15.6636 11.7506C15.5081 11.8889 15.2921 11.8629 15.1538 11.6901L12.363 8.01802C12.1816 7.78473 11.8273 7.78473 11.6545 8.01802L8.86372 11.6901C8.73412 11.8629 8.51811 11.8889 8.35395 11.7506L6.38397 10.0312C6.29756 9.95344 6.18524 9.9016 6.07292 9.9016C5.80507 9.9016 5.63226 10.1176 5.69274 10.4719L6.47037 14.7401C6.51357 14.9648 6.66909 15.1203 6.85054 15.1203H17.167C17.3485 15.1203 17.5126 14.9648 17.5472 14.7401L18.3248 10.4719C18.3853 10.1262 18.2125 9.9016 17.9446 9.9016Z" fill="#6139D1"/>
<path id="Vector_3" d="M12.0087 7.16264C12.4955 7.16264 12.8901 6.76806 12.8901 6.28133C12.8901 5.7946 12.4955 5.40002 12.0087 5.40002C11.522 5.40002 11.1274 5.7946 11.1274 6.28133C11.1274 6.76806 11.522 7.16264 12.0087 7.16264Z" fill="#6139D1"/>
<path id="Vector_4" d="M5.54249 9.36807C5.96401 9.1247 6.10844 8.5857 5.86507 8.16418C5.6217 7.74266 5.08271 7.59823 4.66118 7.8416C4.23966 8.08496 4.09524 8.62396 4.3386 9.04549C4.58197 9.46701 5.12097 9.61143 5.54249 9.36807Z" fill="#6139D1"/>
<path id="Vector_5" d="M19.6576 9.04778C19.9009 8.62626 19.7565 8.08726 19.335 7.84389C18.9134 7.60052 18.3744 7.74495 18.1311 8.16647C17.8877 8.58799 18.0321 9.12699 18.4537 9.37036C18.8752 9.61373 19.4142 9.4693 19.6576 9.04778Z" fill="#6139D1"/>
</g>
</g>
</svg>
