<svg width="72" height="72" viewBox="0 0 72 72" fill="none" xmlns="http://www.w3.org/2000/svg">
<g id="ani_img_profile">
<rect width="72" height="72" rx="36" fill="#E9E3F8"/>
<g id="person">
<mask id="mask0_4780_43302" style="mask-type:alpha" maskUnits="userSpaceOnUse" x="9" y="7" width="59" height="59">
<rect id="Bounding box" x="9.21045" y="7.89526" width="57.8947" height="57.8947" fill="#D9D9D9"/>
</mask>
<g mask="url(#mask0_4780_43302)">
<path id="person_2" d="M35.3795 34.6747C33.2288 34.6747 31.3877 33.8888 29.8561 32.317C28.3246 30.7451 27.5588 28.8556 27.5588 26.6483C27.5588 24.441 28.3246 22.5514 29.8561 20.9796C31.3877 19.4078 33.2288 18.6218 35.3795 18.6218C37.5301 18.6218 39.3712 19.4078 40.9028 20.9796C42.4344 22.5514 43.2001 24.441 43.2001 26.6483C43.2001 28.8556 42.4344 30.7451 40.9028 32.317C39.3712 33.8888 37.5301 34.6747 35.3795 34.6747ZM18.6208 52.1391V47.041C18.6208 45.9178 18.9181 44.8778 19.5125 43.9208C20.1069 42.9638 20.9012 42.228 21.8952 41.7135C24.1039 40.6021 26.332 39.7686 28.5794 39.2129C30.8267 38.6573 33.0934 38.3794 35.3795 38.3794C37.6655 38.3794 39.9322 38.6573 42.1796 39.2129C44.427 39.7686 46.655 40.6021 48.8637 41.7135C49.8578 42.228 50.652 42.9638 51.2464 43.9208C51.8409 44.8778 52.1381 45.9178 52.1381 47.041V52.1391H18.6208Z" fill="#F7F5FC"/>
</g>
</g>
</g>
</svg>
