<svg width="22" height="22" viewBox="0 0 22 22" fill="none" xmlns="http://www.w3.org/2000/svg">
<path d="M1 11C1 5.47715 5.47715 1 11 1C16.5228 1 21 5.47715 21 11C21 16.5228 16.5228 21 11 21C5.47715 21 1 16.5228 1 11Z" fill="white" stroke="#6139D1" stroke-width="2" stroke-linecap="round" stroke-linejoin="round"/>
<path fill-rule="evenodd" clip-rule="evenodd" d="M10.9944 5.98804C10.4421 5.98804 9.99438 6.40843 9.99438 6.927C9.99438 7.44558 10.4421 7.86597 10.9944 7.86597H11.0054C11.5577 7.86597 12.0054 7.44558 12.0054 6.927C12.0054 6.40843 11.5577 5.98804 11.0054 5.98804H10.9944ZM11.8694 11.0585C11.8694 10.6047 11.4776 10.2369 10.9944 10.2369C10.5111 10.2369 10.1194 10.6047 10.1194 11.0585V15.1899C10.1194 15.6437 10.5111 16.0115 10.9944 16.0115C11.4776 16.0115 11.8694 15.6437 11.8694 15.1899V11.0585Z" fill="#6139D1"/>
</svg>
