<svg width="54" height="54" viewBox="0 0 54 54" fill="none" xmlns="http://www.w3.org/2000/svg">
<mask id="mask0_4296_190127" style="mask-type:alpha" maskUnits="userSpaceOnUse" x="12" y="12" width="30" height="30">
<rect x="12" y="12" width="30" height="30" fill="#D9D9D9"/>
</mask>
<g mask="url(#mask0_4296_190127)">
<path d="M15.7494 35.75C15.0619 35.75 14.4733 35.5052 13.9838 35.0156C13.4942 34.526 13.2494 33.9375 13.2494 33.25V20.75C13.2494 20.0625 13.4942 19.474 13.9838 18.9844C14.4733 18.4948 15.0619 18.25 15.7494 18.25H28.2494C28.9369 18.25 29.5254 18.4948 30.015 18.9844C30.5046 19.474 30.7494 20.0625 30.7494 20.75V33.25C30.7494 33.9375 30.5046 34.526 30.015 35.0156C29.5254 35.5052 28.9369 35.75 28.2494 35.75H15.7494ZM34.4994 25.75C34.1452 25.75 33.8483 25.6302 33.6088 25.3906C33.3692 25.151 33.2494 24.8542 33.2494 24.5V19.5C33.2494 19.1458 33.3692 18.849 33.6088 18.6094C33.8483 18.3698 34.1452 18.25 34.4994 18.25H39.4994C39.8536 18.25 40.1504 18.3698 40.39 18.6094C40.6296 18.849 40.7494 19.1458 40.7494 19.5V24.5C40.7494 24.8542 40.6296 25.151 40.39 25.3906C40.1504 25.6302 39.8536 25.75 39.4994 25.75H34.4994ZM35.7494 23.25H38.2494V20.75H35.7494V23.25ZM15.7494 33.25H28.2494V20.75H15.7494V33.25ZM16.9994 30.75H26.9994L23.7181 26.375L21.3744 29.5L19.6556 27.2188L16.9994 30.75ZM34.4994 35.75C34.1452 35.75 33.8483 35.6302 33.6088 35.3906C33.3692 35.151 33.2494 34.8542 33.2494 34.5V29.5C33.2494 29.1458 33.3692 28.849 33.6088 28.6094C33.8483 28.3698 34.1452 28.25 34.4994 28.25H39.4994C39.8536 28.25 40.1504 28.3698 40.39 28.6094C40.6296 28.849 40.7494 29.1458 40.7494 29.5V34.5C40.7494 34.8542 40.6296 35.151 40.39 35.3906C40.1504 35.6302 39.8536 35.75 39.4994 35.75H34.4994ZM35.7494 33.25H38.2494V30.75H35.7494V33.25Z" fill="#747474"/>
</g>
</svg>
