<svg width="77" height="77" viewBox="0 0 77 77" fill="none" xmlns="http://www.w3.org/2000/svg">
<g clip-path="url(#clip0_349_19562)">
<rect x="0.551758" y="0.839844" width="76" height="76" rx="38" fill="#E4E4FF"/>
<mask id="mask0_349_19562" style="mask-type:alpha" maskUnits="userSpaceOnUse" x="0" y="0" width="75" height="78">
<rect x="0.551758" y="0.839844" width="74.0117" height="76.8584" fill="#D9D9D9"/>
</mask>
<g mask="url(#mask0_349_19562)">
<path d="M38.5572 38.515C36.3464 38.515 34.4539 37.6761 32.8795 35.9982C31.3052 34.3203 30.518 32.3032 30.518 29.947C30.518 27.5908 31.3052 25.5737 32.8795 23.8958C34.4539 22.2179 36.3464 21.3789 38.5572 21.3789C40.7679 21.3789 42.6605 22.2179 44.2348 23.8958C45.8092 25.5737 46.5963 27.5908 46.5963 29.947C46.5963 32.3032 45.8092 34.3203 44.2348 35.9982C42.6605 37.6761 40.7679 38.515 38.5572 38.515ZM21.3303 57.1578V51.7157C21.3303 50.5168 21.6358 49.4066 22.2469 48.385C22.8579 47.3634 23.6743 46.578 24.6961 46.0288C26.9666 44.8424 29.2569 43.9526 31.567 43.3595C33.8772 42.7663 36.2072 42.4697 38.5572 42.4697C40.9071 42.4697 43.2371 42.7663 45.5473 43.3595C47.8574 43.9526 50.1477 44.8424 52.4182 46.0288C53.44 46.578 54.2564 47.3634 54.8675 48.385C55.4785 49.4066 55.784 50.5168 55.784 51.7157V57.1578H21.3303Z" fill="white"/>
</g>
</g>
<defs>
<clipPath id="clip0_349_19562">
<rect x="0.551758" y="0.839844" width="76" height="76" rx="38" fill="white"/>
</clipPath>
</defs>
</svg>
