<svg width="77" height="77" viewBox="0 0 77 77" fill="none" xmlns="http://www.w3.org/2000/svg">
<g id="textWriterprofileSvg">
<g clip-path="url(#clip0_349_20553)">
<rect x="0.913086" y="0.0927734" width="76" height="76" rx="38" fill="#E9E3F8"/>
<mask id="mask0_349_20553" style="mask-type:alpha" maskUnits="userSpaceOnUse" x="0" y="0" width="77" height="77">
<rect id="Bounding box" x="0.913086" y="0.0927734" width="76" height="76.8584" fill="#D9D9D9"/>
</mask>
<g mask="url(#mask0_349_20553)">
<path id="person" d="M38.9183 37.768C36.7075 37.768 34.815 36.929 33.2406 35.2511C31.6663 33.5732 30.8791 31.5561 30.8791 29.1999C30.8791 26.8437 31.6663 24.8266 33.2406 23.1487C34.815 21.4708 36.7075 20.6318 38.9183 20.6318C41.129 20.6318 43.0216 21.4708 44.5959 23.1487C46.1703 24.8266 46.9575 26.8437 46.9575 29.1999C46.9575 31.5561 46.1703 33.5732 44.5959 35.2511C43.0216 36.929 41.129 37.768 38.9183 37.768ZM21.6914 56.4107V50.9686C21.6914 49.7697 21.9969 48.6595 22.608 47.6379C23.219 46.6164 24.0354 45.8309 25.0573 45.2817C27.3277 44.0953 29.618 43.2056 31.9282 42.6124C34.2383 42.0192 36.5684 41.7227 38.9183 41.7227C41.2682 41.7227 43.5982 42.0192 45.9084 42.6124C48.2186 43.2056 50.5089 44.0953 52.7793 45.2817C53.8011 45.8309 54.6176 46.6164 55.2286 47.6379C55.8396 48.6595 56.1452 49.7697 56.1452 50.9686V56.4107H21.6914Z" fill="#F7F5FC"/>
</g>
</g>
</g>
<defs>
<clipPath id="clip0_349_20553">
<rect x="0.913086" y="0.0927734" width="76" height="76" rx="38" fill="white"/>
</clipPath>
</defs>
</svg>
