<svg width="32" height="32" viewBox="0 0 32 32" fill="none" xmlns="http://www.w3.org/2000/svg">
<rect width="32" height="32" rx="7" fill="white"/>
<path d="M16.875 20.375V15.125C16.875 14.8929 16.9672 14.6704 17.1313 14.5063C17.2954 14.3422 17.5179 14.25 17.75 14.25C17.9821 14.25 18.2046 14.3422 18.3687 14.5063C18.5328 14.6704 18.625 14.8929 18.625 15.125V20.375C18.625 20.6071 18.5328 20.8296 18.3687 20.9937C18.2046 21.1578 17.9821 21.25 17.75 21.25C17.5179 21.25 17.2954 21.1578 17.1313 20.9937C16.9672 20.8296 16.875 20.6071 16.875 20.375ZM14.25 21.25C14.4821 21.25 14.7046 21.1578 14.8687 20.9937C15.0328 20.8296 15.125 20.6071 15.125 20.375V15.125C15.125 14.8929 15.0328 14.6704 14.8687 14.5063C14.7046 14.3422 14.4821 14.25 14.25 14.25C14.0179 14.25 13.7954 14.3422 13.6313 14.5063C13.4672 14.6704 13.375 14.8929 13.375 15.125V20.375C13.375 20.6071 13.4672 20.8296 13.6313 20.9937C13.7954 21.1578 14.0179 21.25 14.25 21.25ZM23.875 11.625C23.875 11.8571 23.7828 12.0796 23.6187 12.2437C23.4546 12.4078 23.2321 12.5 23 12.5H22.125V22.0725C22.125 22.7687 21.8484 23.4364 21.3562 23.9287C20.8639 24.4209 20.1962 24.6975 19.5 24.6975H12.5C11.8038 24.6975 11.1361 24.4209 10.6438 23.9287C10.1516 23.4364 9.875 22.7687 9.875 22.0725V12.5H9C8.76794 12.5 8.54538 12.4078 8.38128 12.2437C8.21719 12.0796 8.125 11.8571 8.125 11.625C8.125 11.3929 8.21719 11.1704 8.38128 11.0063C8.54538 10.8422 8.76794 10.75 9 10.75H12.5V9.875C12.5 9.17881 12.7766 8.51113 13.2688 8.01884C13.7611 7.52656 14.4288 7.25 15.125 7.25H16.875C17.5712 7.25 18.2389 7.52656 18.7312 8.01884C19.2234 8.51113 19.5 9.17881 19.5 9.875V10.75H23C23.2321 10.75 23.4546 10.8422 23.6187 11.0063C23.7828 11.1704 23.875 11.3929 23.875 11.625ZM14.25 10.75H17.75V9.875C17.75 9.64294 17.6578 9.42038 17.4937 9.25628C17.3296 9.09219 17.1071 9 16.875 9H15.125C14.8929 9 14.6704 9.09219 14.5063 9.25628C14.3422 9.42038 14.25 9.64294 14.25 9.875V10.75ZM20.375 12.5H11.625V22.0725C11.625 22.3046 11.7172 22.5271 11.8813 22.6912C12.0454 22.8553 12.2679 22.9475 12.5 22.9475H19.5C19.7321 22.9475 19.9546 22.8553 20.1187 22.6912C20.2828 22.5271 20.375 22.3046 20.375 22.0725V12.5Z" fill="#6139D1"/>
</svg>
