<svg width="21" height="21" viewBox="0 0 21 21" fill="none" xmlns="http://www.w3.org/2000/svg">
<mask id="mask0_2243_6046" style="mask-type:alpha" maskUnits="userSpaceOnUse" x="0" y="0" width="21" height="21">
<rect x="0.103516" y="0.5" width="20" height="20" rx="0.833333" fill="#D9D9D9"/>
</mask>
<g mask="url(#mask0_2243_6046)">
<path d="M10.6605 17.6469C10.3439 17.9307 9.86448 17.9307 9.54792 17.6469L8.89587 17.0623C7.4931 15.7984 6.33337 14.7082 5.41671 13.7915C4.50004 12.8748 3.77087 12.0519 3.22921 11.3228C2.68754 10.5936 2.30907 9.92345 2.09379 9.31234C1.87851 8.70123 1.77087 8.07623 1.77087 7.43734C1.77087 6.13178 2.20837 5.0415 3.08337 4.1665C3.95837 3.2915 5.04865 2.854 6.35421 2.854C7.07643 2.854 7.76393 3.00678 8.41671 3.31234C8.77185 3.47858 9.10028 3.68181 9.40198 3.92205C9.80394 4.24212 10.4045 4.24212 10.8064 3.92205C11.1081 3.68181 11.4366 3.47858 11.7917 3.31234C12.4445 3.00678 13.132 2.854 13.8542 2.854C15.1598 2.854 16.25 3.2915 17.125 4.1665C18 5.0415 18.4375 6.13178 18.4375 7.43734C18.4375 8.07623 18.3299 8.70123 18.1146 9.31234C17.8993 9.92345 17.5209 10.5936 16.9792 11.3228C16.4375 12.0519 15.7084 12.8748 14.7917 13.7915C13.875 14.7082 12.7153 15.7984 11.3125 17.0623L10.6605 17.6469ZM9.54926 15.396C9.86429 15.6812 10.3441 15.6812 10.6592 15.396C11.7451 14.4131 12.6573 13.5554 13.3959 12.8228C14.257 11.9686 14.9375 11.2255 15.4375 10.5936C15.9375 9.96164 16.2848 9.39914 16.4792 8.90609C16.6737 8.41303 16.7709 7.92345 16.7709 7.43734C16.7709 6.604 16.4931 5.90956 15.9375 5.354C15.382 4.79845 14.6875 4.52067 13.8542 4.52067C13.2014 4.52067 12.5973 4.7047 12.0417 5.07275C11.666 5.32164 11.3697 5.61657 11.1528 5.95754C10.9651 6.2527 10.6632 6.479 10.3134 6.479H9.89502C9.54519 6.479 9.24333 6.2527 9.05557 5.95754C8.83867 5.61657 8.54238 5.32164 8.16671 5.07275C7.61115 4.7047 7.00699 4.52067 6.35421 4.52067C5.52087 4.52067 4.82643 4.79845 4.27087 5.354C3.71532 5.90956 3.43754 6.604 3.43754 7.43734C3.43754 7.92345 3.53476 8.41303 3.72921 8.90609C3.92365 9.39914 4.27087 9.96164 4.77087 10.5936C5.27087 11.2255 5.95143 11.9686 6.81254 12.8228C7.5511 13.5554 8.46334 14.4131 9.54926 15.396Z" fill="white"/>
</g>
</svg>
