<svg width="21" height="21" viewBox="0 0 21 21" fill="none" xmlns="http://www.w3.org/2000/svg">
<mask id="mask0_2243_11252" style="mask-type:alpha" maskUnits="userSpaceOnUse" x="0" y="0" width="21" height="21">
<rect x="0.103516" y="0.5" width="20" height="20" rx="0.833333" fill="#D9D9D9"/>
</mask>
<g mask="url(#mask0_2243_11252)">
<path d="M10.6605 17.6469C10.3439 17.9307 9.86445 17.9307 9.54789 17.6469L8.89584 17.0623C7.49307 15.7984 6.33334 14.7082 5.41668 13.7915C4.50001 12.8748 3.77084 12.0519 3.22918 11.3228C2.68751 10.5936 2.30904 9.92345 2.09376 9.31234C1.87848 8.70123 1.77084 8.07623 1.77084 7.43734C1.77084 6.13178 2.20834 5.0415 3.08334 4.1665C3.95834 3.2915 5.04862 2.854 6.35418 2.854C7.0764 2.854 7.7639 3.00678 8.41668 3.31234C8.77182 3.47858 9.10025 3.68181 9.40195 3.92205C9.80391 4.24212 10.4044 4.24212 10.8064 3.92205C11.1081 3.68181 11.4365 3.47858 11.7917 3.31234C12.4445 3.00678 13.132 2.854 13.8542 2.854C15.1597 2.854 16.25 3.2915 17.125 4.1665C18 5.0415 18.4375 6.13178 18.4375 7.43734C18.4375 8.07623 18.3299 8.70123 18.1146 9.31234C17.8993 9.92345 17.5208 10.5936 16.9792 11.3228C16.4375 12.0519 15.7083 12.8748 14.7917 13.7915C13.875 14.7082 12.7153 15.7984 11.3125 17.0623L10.6605 17.6469ZM9.54923 15.396C9.86425 15.6812 10.3441 15.6812 10.6591 15.396C11.745 14.4131 12.6573 13.5554 13.3958 12.8228C14.257 11.9686 14.9375 11.2255 15.4375 10.5936C15.9375 9.96164 16.2847 9.39914 16.4792 8.90609C16.6736 8.41303 16.7708 7.92345 16.7708 7.43734C16.7708 6.604 16.4931 5.90956 15.9375 5.354C15.382 4.79845 14.6875 4.52067 13.8542 4.52067C13.2014 4.52067 12.5972 4.7047 12.0417 5.07275C11.666 5.32164 11.3697 5.61657 11.1528 5.95754C10.9651 6.2527 10.6632 6.479 10.3134 6.479H9.89499C9.54516 6.479 9.2433 6.2527 9.05554 5.95754C8.83864 5.61657 8.54235 5.32164 8.16668 5.07275C7.61112 4.7047 7.00695 4.52067 6.35418 4.52067C5.52084 4.52067 4.8264 4.79845 4.27084 5.354C3.71529 5.90956 3.43751 6.604 3.43751 7.43734C3.43751 7.92345 3.53473 8.41303 3.72918 8.90609C3.92362 9.39914 4.27084 9.96164 4.77084 10.5936C5.27084 11.2255 5.9514 11.9686 6.81251 12.8228C7.55107 13.5554 8.46331 14.4131 9.54923 15.396Z" fill="#6139D1"/>
</g>
</svg>
