<svg width="21" height="20" viewBox="0 0 21 20" fill="none" xmlns="http://www.w3.org/2000/svg">
<mask id="mask0_1255_4049" style="mask-type:alpha" maskUnits="userSpaceOnUse" x="0" y="0" width="21" height="20">
<rect x="0.103516" width="20" height="20" fill="#D9D9D9"/>
</mask>
<g mask="url(#mask0_1255_4049)">
<path d="M10.1035 16.6666C9.64518 16.6666 9.25282 16.5034 8.92643 16.177C8.60004 15.8506 8.43684 15.4583 8.43684 14.9999C8.43684 14.5416 8.60004 14.1492 8.92643 13.8228C9.25282 13.4964 9.64518 13.3333 10.1035 13.3333C10.5618 13.3333 10.9542 13.4964 11.2806 13.8228C11.607 14.1492 11.7702 14.5416 11.7702 14.9999C11.7702 15.4583 11.607 15.8506 11.2806 16.177C10.9542 16.5034 10.5618 16.6666 10.1035 16.6666ZM10.1035 11.6666C9.64518 11.6666 9.25282 11.5034 8.92643 11.177C8.60004 10.8506 8.43684 10.4583 8.43684 9.99992C8.43684 9.54158 8.60004 9.14922 8.92643 8.82284C9.25282 8.49645 9.64518 8.33325 10.1035 8.33325C10.5618 8.33325 10.9542 8.49645 11.2806 8.82284C11.607 9.14922 11.7702 9.54158 11.7702 9.99992C11.7702 10.4583 11.607 10.8506 11.2806 11.177C10.9542 11.5034 10.5618 11.6666 10.1035 11.6666ZM10.1035 6.66659C9.64518 6.66659 9.25282 6.50339 8.92643 6.177C8.60004 5.85061 8.43684 5.45825 8.43684 4.99992C8.43684 4.54159 8.60004 4.14922 8.92643 3.82284C9.25282 3.49645 9.64518 3.33325 10.1035 3.33325C10.5618 3.33325 10.9542 3.49645 11.2806 3.82284C11.607 4.14922 11.7702 4.54159 11.7702 4.99992C11.7702 5.45825 11.607 5.85061 11.2806 6.177C10.9542 6.50339 10.5618 6.66659 10.1035 6.66659Z" fill="#747474"/>
</g>
</svg>
