<svg width="26" height="26" viewBox="0 0 26 26" fill="none" xmlns="http://www.w3.org/2000/svg">
<rect x="0.691406" y="0.539062" width="24.9237" height="24.9231" rx="4.1539" fill="white"/>
<mask id="mask0_1198_31059" style="mask-type:alpha" maskUnits="userSpaceOnUse" x="4" y="4" width="18" height="18">
<rect x="4.8457" y="4.69336" width="16.6158" height="16.6154" fill="#D9D9D9"/>
</mask>
<g mask="url(#mask0_1198_31059)">
<path d="M8.30469 19.232V17.8474H17.9972V19.232H8.30469ZM13.151 16.4628C11.9855 16.4628 11.0798 16.0994 10.4336 15.3724C9.78742 14.6455 9.46433 13.682 9.46433 12.482V6.77051H11.2471V12.5859C11.2471 13.232 11.4086 13.757 11.7317 14.1609C12.0548 14.5647 12.5279 14.7667 13.151 14.7667C13.7741 14.7667 14.2471 14.5647 14.5702 14.1609C14.8933 13.757 15.0549 13.232 15.0549 12.5859V6.77051H16.8376V12.482C16.8376 13.682 16.5145 14.6455 15.8683 15.3724C15.2222 16.0994 14.3164 16.4628 13.151 16.4628Z" fill="#6139D1"/>
</g>
</svg>
