<svg width="26" height="26" viewBox="0 0 26 26" fill="none" xmlns="http://www.w3.org/2000/svg">
<rect x="0.65625" y="0.500977" width="25" height="24.9994" rx="4.16662" fill="#E9E3F8"/>
<mask id="mask0_1198_31049" style="mask-type:alpha" maskUnits="userSpaceOnUse" x="4" y="4" width="18" height="18">
<rect x="4.82227" y="4.66797" width="16.6667" height="16.6663" fill="#D9D9D9"/>
</mask>
<g mask="url(#mask0_1198_31049)">
</g>
<g clip-path="url(#clip0_1198_31049)">
<path d="M7.84311 7.04648C7.98139 6.96291 8.13486 6.9082 8.27314 6.9082C8.58616 6.9082 8.71988 7.08295 8.71988 7.39293V9.95638C8.71988 10.1813 8.50715 10.2952 8.31417 10.2952C8.12119 10.2952 7.90541 10.1828 7.90541 9.95638V7.79713L7.52097 8.03114C7.47995 8.05545 7.39941 8.06913 7.36294 8.06913C7.17148 8.06913 7.0332 7.87311 7.0332 7.68924C7.0332 7.58439 7.10766 7.47651 7.22163 7.40965L7.84311 7.04648Z" fill="black"/>
<path d="M7.4997 14.5629C6.9785 14.5629 6.90708 14.1207 7.27481 13.753L7.7717 13.2515C8.15614 12.8625 8.37343 12.6544 8.37343 12.279C8.37343 12.0785 8.25643 11.9204 7.98899 11.9204C7.834 11.9204 7.74282 12.0329 7.69724 12.1423C7.6395 12.2806 7.53921 12.3474 7.3751 12.3474C7.21099 12.3474 7.0332 12.2471 7.0332 12.0131C7.0332 11.9296 7.07119 11.7958 7.11678 11.7244C7.30064 11.4403 7.62278 11.2686 8.06041 11.2686C8.76243 11.2686 9.1803 11.6576 9.1803 12.2335C9.1803 12.8094 8.86272 13.1102 8.47524 13.5068L8.11663 13.87H8.98884C9.18942 13.87 9.29427 14.0493 9.29427 14.2286C9.29427 14.3958 9.19854 14.5629 8.9934 14.5629H7.4997Z" fill="black"/>
<path d="M7.59914 17.9404C7.68727 18.0954 7.81187 18.2032 8.05804 18.2032C8.3042 18.2032 8.49262 18.0908 8.49262 17.8477C8.49262 17.6045 8.27533 17.4845 7.92128 17.4845H7.70398C7.52468 17.4845 7.44566 17.3006 7.44566 17.1502C7.44566 16.9998 7.52468 16.825 7.70398 16.825H7.90456C8.20087 16.825 8.40145 16.7369 8.40145 16.4695C8.40145 16.2613 8.22214 16.1686 8.055 16.1686C7.88785 16.1686 7.74957 16.2522 7.66296 16.3813C7.5961 16.4816 7.50797 16.4983 7.42439 16.4983C7.22837 16.4983 7.06122 16.3692 7.06122 16.1731C7.06122 16.085 7.09921 15.9817 7.15239 15.9057C7.3317 15.655 7.67359 15.5137 8.08387 15.5137C8.69776 15.5137 9.18249 15.8267 9.18249 16.3783C9.18249 16.6837 9.0199 16.9633 8.71903 17.1001C9.0822 17.2171 9.2919 17.5058 9.2919 17.8933C9.2919 18.5026 8.74942 18.8703 8.07627 18.8703C7.5338 18.8703 7.15391 18.6621 7.00348 18.3111C6.99132 18.2777 6.97461 18.1987 6.97461 18.1653C6.97461 17.9434 7.1372 17.8142 7.34234 17.8142C7.43047 17.8142 7.54747 17.8401 7.60066 17.9388L7.59914 17.9404Z" fill="black"/>
<path d="M18.5759 9.19759H11.2077C10.7853 9.19759 10.4434 8.8557 10.4434 8.43327C10.4434 8.01084 10.7853 7.66895 11.2077 7.66895H18.5759C18.9983 7.66895 19.3402 8.01084 19.3402 8.43327C19.3402 8.8557 18.9983 9.19759 18.5759 9.19759Z" fill="black"/>
<path d="M18.5759 13.7201H11.2077C10.7853 13.7201 10.4434 13.3782 10.4434 12.9557C10.4434 12.5333 10.7853 12.1914 11.2077 12.1914H18.5759C18.9983 12.1914 19.3402 12.5333 19.3402 12.9557C19.3402 13.3782 18.9983 13.7201 18.5759 13.7201Z" fill="black"/>
<path d="M18.5759 18.2415H11.2077C10.7853 18.2415 10.4434 17.8996 10.4434 17.4772C10.4434 17.0548 10.7853 16.7129 11.2077 16.7129H18.5759C18.9983 16.7129 19.3402 17.0548 19.3402 17.4772C19.3402 17.8996 18.9983 18.2415 18.5759 18.2415Z" fill="black"/>
</g>
<defs>
<clipPath id="clip0_1198_31049">
<rect width="12.3659" height="11.9633" fill="white" transform="translate(6.97266 6.9082)"/>
</clipPath>
</defs>
</svg>
