<svg width="26" height="25" viewBox="0 0 26 25" fill="none" xmlns="http://www.w3.org/2000/svg">
<rect x="0.824219" y="0.00195312" width="24.9232" height="24.9231" rx="4.15386" fill="white"/>
<mask id="mask0_1198_31114" style="mask-type:alpha" maskUnits="userSpaceOnUse" x="4" y="4" width="18" height="17">
<rect x="4.97852" y="4.15527" width="16.6155" height="16.6154" fill="#D9D9D9"/>
</mask>
<g mask="url(#mask0_1198_31114)">
<path d="M11.2144 17.3094V15.9248H19.5221V17.3094H11.2144ZM11.2144 13.1556V11.771H19.5221V13.1556H11.2144ZM11.2144 9.00173V7.61711H19.5221V9.00173H11.2144ZM8.44517 18.0017C8.0644 18.0017 7.73843 17.8662 7.46728 17.595C7.19612 17.3238 7.06055 16.9979 7.06055 16.6171C7.06055 16.2363 7.19612 15.9104 7.46728 15.6392C7.73843 15.3681 8.0644 15.2325 8.44517 15.2325C8.82594 15.2325 9.1519 15.3681 9.42306 15.6392C9.69421 15.9104 9.82979 16.2363 9.82979 16.6171C9.82979 16.9979 9.69421 17.3238 9.42306 17.595C9.1519 17.8662 8.82594 18.0017 8.44517 18.0017ZM8.44517 13.8479C8.0644 13.8479 7.73843 13.7123 7.46728 13.4412C7.19612 13.17 7.06055 12.844 7.06055 12.4633C7.06055 12.0825 7.19612 11.7565 7.46728 11.4854C7.73843 11.2142 8.0644 11.0787 8.44517 11.0787C8.82594 11.0787 9.1519 11.2142 9.42306 11.4854C9.69421 11.7565 9.82979 12.0825 9.82979 12.4633C9.82979 12.844 9.69421 13.17 9.42306 13.4412C9.1519 13.7123 8.82594 13.8479 8.44517 13.8479ZM8.44517 9.69404C8.0644 9.69404 7.73843 9.55846 7.46728 9.28731C7.19612 9.01615 7.06055 8.69019 7.06055 8.30942C7.06055 7.92865 7.19612 7.60269 7.46728 7.33154C7.73843 7.06038 8.0644 6.9248 8.44517 6.9248C8.82594 6.9248 9.1519 7.06038 9.42306 7.33154C9.69421 7.60269 9.82979 7.92865 9.82979 8.30942C9.82979 8.69019 9.69421 9.01615 9.42306 9.28731C9.1519 9.55846 8.82594 9.69404 8.44517 9.69404Z" fill="#010101"/>
</g>
</svg>
