<svg width="26" height="26" viewBox="0 0 26 26" fill="none" xmlns="http://www.w3.org/2000/svg">
<rect x="0.550781" y="0.963867" width="25" height="24.9999" rx="4.16666" fill="#E9E3F8"/>
<mask id="mask0_1235_31160" style="mask-type:alpha" maskUnits="userSpaceOnUse" x="4" y="5" width="18" height="17">
<rect x="4.7168" y="5.13086" width="16.6667" height="16.6666" fill="#D9D9D9"/>
</mask>
<g mask="url(#mask0_1235_31160)">
</g>
<g clip-path="url(#clip0_1235_31160)">
<path d="M12.1445 14.7793V18.2325C12.1445 18.7586 12.598 19.0217 13.1104 19.0217C13.5933 19.0217 14.0762 18.7586 14.0762 18.2325V14.7793H12.1463H12.1445Z" fill="#6139D1"/>
<path d="M9.08013 9.63392H12.1438V11.7941H14.0738V9.63392H17.1963C17.6931 9.63392 17.9562 9.22369 17.9562 8.78577C17.9562 8.34785 17.6775 7.9082 17.1963 7.9082H9.06455C8.56779 7.9082 8.30469 8.31843 8.30469 8.75635C8.30469 9.19427 8.58163 9.63392 9.08013 9.63392Z" fill="#6139D1"/>
<path d="M19.0204 12.6826H7.09126C6.69781 12.6826 6.49023 12.9732 6.49023 13.301C6.49023 13.6101 6.69781 13.91 7.09126 13.91H19.0204C19.4139 13.91 19.6106 13.6101 19.6106 13.2917C19.6106 12.9732 19.4139 12.6826 19.0204 12.6826Z" fill="#6139D1"/>
</g>
<defs>
<clipPath id="clip0_1235_31160">
<rect width="14.6625" height="11.1141" fill="white" transform="translate(5.71875 7.90723)"/>
</clipPath>
</defs>
</svg>
