<svg width="26" height="25" viewBox="0 0 26 25" fill="none" xmlns="http://www.w3.org/2000/svg">
<rect x="0.5" width="25" height="25" rx="4.16667" fill="#E9E3F8"/>
<mask id="mask0_1235_31152" style="mask-type:alpha" maskUnits="userSpaceOnUse" x="4" y="4" width="18" height="17">
<rect x="4.66602" y="4.16699" width="16.6667" height="16.6658" fill="#D9D9D9"/>
</mask>
<g mask="url(#mask0_1235_31152)">
</g>
<g clip-path="url(#clip0_1235_31152)">
<path d="M8.68164 8.45506C8.68164 7.38291 9.31028 7 10.3779 7H12.9854C15.5465 7 16.6791 7.94161 16.6791 9.72041C16.6791 10.7943 16.097 11.8525 14.8713 12.1467C16.2234 12.4269 17.3226 13.2641 17.3226 14.8375C17.3226 16.6911 16.0821 18 13.4262 18H10.3314C9.13731 18 8.68164 17.5736 8.68164 16.4266V8.45506ZM10.7089 11.5584H12.7046C13.8205 11.5584 14.6853 11.1616 14.6853 10.0146C14.6853 9.04335 13.9786 8.61693 12.6897 8.61693H11.1813C10.7889 8.61693 10.7108 8.76313 10.7108 9.04335V11.5584H10.7089ZM13.0338 16.3813C14.3543 16.3813 15.1875 15.7791 15.1875 14.7052C15.1875 13.5582 14.3078 13.0587 12.9724 13.0587H10.7089V15.8818C10.7089 16.2647 10.8038 16.3813 11.1795 16.3813H13.0338Z" fill="#6139D1"/>
</g>
<defs>
<clipPath id="clip0_1235_31152">
<rect width="8.64286" height="11" fill="white" transform="translate(8.67773 7)"/>
</clipPath>
</defs>
</svg>
