<svg width="26" height="26" viewBox="0 0 26 26" fill="none" xmlns="http://www.w3.org/2000/svg">
<rect x="0.804688" y="0.500977" width="25" height="24.9994" rx="4.16662" fill="#E9E3F8"/>
<mask id="mask0_1235_31156" style="mask-type:alpha" maskUnits="userSpaceOnUse" x="4" y="4" width="18" height="18">
<rect x="4.9707" y="4.66797" width="16.6667" height="16.6663" fill="#D9D9D9"/>
</mask>
<g mask="url(#mask0_1235_31156)">
</g>
<g clip-path="url(#clip0_1235_31156)">
<path d="M9.51562 12.9883V7.45997C9.51562 6.98796 9.935 6.75195 10.407 6.75195C10.8519 6.75195 11.2712 6.98796 11.2712 7.45997V12.6742C11.2712 14.7049 12.0709 15.2295 13.2883 15.2295C14.5057 15.2295 15.3971 14.7184 15.3971 12.6878V7.45997C15.3971 6.98796 15.8029 6.75195 16.2359 6.75195C16.6688 6.75195 17.0882 6.98796 17.0882 7.45997V12.9357C17.0882 15.5946 15.5822 16.8001 13.2883 16.8001C10.9945 16.8001 9.51562 15.6217 9.51562 12.9883Z" fill="#6139D1"/>
<path d="M19.4708 17.7695C19.8783 17.7695 20.0804 18.0538 20.0804 18.3671C20.0804 18.6804 19.8766 18.973 19.4708 18.973H7.14491C6.73739 18.973 6.52344 18.679 6.52344 18.3754C6.52344 18.0538 6.73739 17.7695 7.14491 17.7695H19.4708Z" fill="#6139D1"/>
</g>
<defs>
<clipPath id="clip0_1235_31156">
<rect width="13.5576" height="12.4981" fill="white" transform="translate(6.52344 6.75293)"/>
</clipPath>
</defs>
</svg>
