<svg width="26" height="26" viewBox="0 0 26 26" fill="none" xmlns="http://www.w3.org/2000/svg">
<rect x="0.447266" y="0.500977" width="25" height="24.9994" rx="4.16662" fill="#E9E3F8"/>
<mask id="mask0_1524_18521" style="mask-type:alpha" maskUnits="userSpaceOnUse" x="4" y="4" width="18" height="18">
<rect x="4.61328" y="4.66797" width="16.6667" height="16.6663" fill="#D9D9D9"/>
</mask>
<g mask="url(#mask0_1524_18521)">
<path d="M9.0837 18.1516C8.5758 18.1516 8.16406 17.7398 8.16406 17.2319V17.2319C8.16406 16.724 8.5758 16.3123 9.08371 16.3123H11.107L13.3142 9.69085H11.2909C10.783 9.69085 10.3713 9.27911 10.3713 8.77121V8.77121C10.3713 8.2633 10.783 7.85156 11.2909 7.85156H16.8089C17.3168 7.85156 17.7286 8.2633 17.7286 8.77121V8.77121C17.7286 9.27911 17.3168 9.69085 16.8089 9.69085H15.1535L12.9463 16.3123H14.6017C15.1096 16.3123 15.5214 16.724 15.5214 17.2319V17.2319C15.5214 17.7398 15.1096 18.1516 14.6017 18.1516H9.0837Z" fill="#6139D1"/>
</g>
</svg>
