<svg width="26" height="26" viewBox="0 0 26 26" fill="none" xmlns="http://www.w3.org/2000/svg">
<rect x="0.847656" y="0.539062" width="24.9237" height="24.9231" rx="4.1539" fill="white"/>
<mask id="mask0_1198_31019" style="mask-type:alpha" maskUnits="userSpaceOnUse" x="5" y="4" width="17" height="18">
<rect x="5.00195" y="4.69336" width="16.6158" height="16.6154" fill="#D9D9D9"/>
</mask>
<g mask="url(#mask0_1198_31019)">
<path d="M8.94453 17.1553L10.5369 14.3861C9.77532 14.3861 9.12338 14.115 8.58106 13.5727C8.03874 13.0303 7.76758 12.3784 7.76758 11.6169C7.76758 10.8553 8.03874 10.2034 8.58106 9.66112C9.12338 9.11881 9.77532 8.84766 10.5369 8.84766C11.2984 8.84766 11.9504 9.11881 12.4927 9.66112C13.035 10.2034 13.3062 10.8553 13.3062 11.6169C13.3062 11.8823 13.2744 12.1275 13.211 12.3525C13.1475 12.5775 13.0523 12.7938 12.9254 13.0015L10.5369 17.1553H8.94453ZM15.1755 17.1553L16.7678 14.3861C16.0062 14.3861 15.3543 14.115 14.812 13.5727C14.2697 13.0303 13.9985 12.3784 13.9985 11.6169C13.9985 10.8553 14.2697 10.2034 14.812 9.66112C15.3543 9.11881 16.0062 8.84766 16.7678 8.84766C17.5294 8.84766 18.1813 9.11881 18.7236 9.66112C19.2659 10.2034 19.5371 10.8553 19.5371 11.6169C19.5371 11.8823 19.5054 12.1275 19.4419 12.3525C19.3784 12.5775 19.2832 12.7938 19.1563 13.0015L16.7678 17.1553H15.1755ZM10.5369 12.6553C10.8253 12.6553 11.0705 12.5544 11.2725 12.3525C11.4744 12.1505 11.5754 11.9053 11.5754 11.6169C11.5754 11.3284 11.4744 11.0832 11.2725 10.8813C11.0705 10.6794 10.8253 10.5784 10.5369 10.5784C10.2484 10.5784 10.0032 10.6794 9.80128 10.8813C9.59935 11.0832 9.49839 11.3284 9.49839 11.6169C9.49839 11.9053 9.59935 12.1505 9.80128 12.3525C10.0032 12.5544 10.2484 12.6553 10.5369 12.6553ZM16.7678 12.6553C17.0563 12.6553 17.3015 12.5544 17.5034 12.3525C17.7053 12.1505 17.8063 11.9053 17.8063 11.6169C17.8063 11.3284 17.7053 11.0832 17.5034 10.8813C17.3015 10.6794 17.0563 10.5784 16.7678 10.5784C16.4793 10.5784 16.2341 10.6794 16.0322 10.8813C15.8303 11.0832 15.7293 11.3284 15.7293 11.6169C15.7293 11.9053 15.8303 12.1505 16.0322 12.3525C16.2341 12.5544 16.4793 12.6553 16.7678 12.6553Z" fill="#6139D1"/>
</g>
</svg>
