<svg width="26" height="26" viewBox="0 0 26 26" fill="none" xmlns="http://www.w3.org/2000/svg">
<rect x="0.539062" y="0.539062" width="24.9237" height="24.9231" rx="4.1539" fill="#E9E3F8"/>
<mask id="mask0_1198_31069" style="mask-type:alpha" maskUnits="userSpaceOnUse" x="4" y="4" width="18" height="18">
<rect x="4.69336" y="4.69336" width="16.6158" height="16.6154" fill="#D9D9D9"/>
</mask>
<g mask="url(#mask0_1198_31069)">
<path d="M8.15234 19.232V17.8474H17.8449V19.232H8.15234ZM12.9986 16.4628C11.8332 16.4628 10.9274 16.0994 10.2812 15.3724C9.63507 14.6455 9.31199 13.682 9.31199 12.482V6.77051H11.0947V12.5859C11.0947 13.232 11.2563 13.757 11.5794 14.1609C11.9024 14.5647 12.3755 14.7667 12.9986 14.7667C13.6217 14.7667 14.0948 14.5647 14.4179 14.1609C14.741 13.757 14.9025 13.232 14.9025 12.5859V6.77051H16.6852V12.482C16.6852 13.682 16.3622 14.6455 15.716 15.3724C15.0698 16.0994 14.164 16.4628 12.9986 16.4628Z" fill="#010101"/>
</g>
</svg>
