<svg width="26" height="26" viewBox="0 0 26 26" fill="none" xmlns="http://www.w3.org/2000/svg">
<rect x="0.113281" y="0.963867" width="25" height="24.9999" rx="4.16666" fill="white"/>
<mask id="mask0_1198_31104" style="mask-type:alpha" maskUnits="userSpaceOnUse" x="4" y="5" width="17" height="17">
<rect x="4.2793" y="5.13086" width="16.6667" height="16.6666" fill="#D9D9D9"/>
</mask>
<g mask="url(#mask0_1198_31104)">
</g>
<g clip-path="url(#clip0_1198_31104)">
<path d="M11.707 14.7793V18.2325C11.707 18.7586 12.1605 19.0217 12.6729 19.0217C13.1558 19.0217 13.6387 18.7586 13.6387 18.2325V14.7793H11.7088H11.707Z" fill="#6139D1"/>
<path d="M8.64263 9.63392H11.7063V11.7941H13.6363V9.63392H16.7588C17.2556 9.63392 17.5187 9.22369 17.5187 8.78577C17.5187 8.34785 17.24 7.9082 16.7588 7.9082H8.62705C8.13029 7.9082 7.86719 8.31843 7.86719 8.75635C7.86719 9.19427 8.14413 9.63392 8.64263 9.63392Z" fill="#6139D1"/>
<path d="M18.5829 12.6826H6.65376C6.26031 12.6826 6.05273 12.9732 6.05273 13.301C6.05273 13.6101 6.26031 13.91 6.65376 13.91H18.5829C18.9764 13.91 19.1731 13.6101 19.1731 13.2917C19.1731 12.9732 18.9764 12.6826 18.5829 12.6826Z" fill="#6139D1"/>
</g>
<defs>
<clipPath id="clip0_1198_31104">
<rect width="14.6625" height="11.1141" fill="white" transform="translate(5.28125 7.90723)"/>
</clipPath>
</defs>
</svg>
