<svg width="26" height="26" viewBox="0 0 26 26" fill="none" xmlns="http://www.w3.org/2000/svg">
<rect x="0.960938" y="0.963867" width="25" height="24.9999" rx="4.16666" fill="#E9E3F8"/>
<mask id="mask0_1198_31119" style="mask-type:alpha" maskUnits="userSpaceOnUse" x="5" y="5" width="17" height="17">
<rect x="5.12695" y="5.13086" width="16.6667" height="16.6666" fill="#D9D9D9"/>
</mask>
<g mask="url(#mask0_1198_31119)">
</g>
<g clip-path="url(#clip0_1198_31119)">
<path d="M12.5547 14.7793V18.2325C12.5547 18.7586 13.0082 19.0217 13.5205 19.0217C14.0035 19.0217 14.4864 18.7586 14.4864 18.2325V14.7793H12.5564H12.5547Z" fill="black"/>
<path d="M9.49029 9.63392H12.554V11.7941H14.484V9.63392H17.6065C18.1033 9.63392 18.3664 9.22369 18.3664 8.78577C18.3664 8.34785 18.0877 7.9082 17.6065 7.9082H9.47471C8.97794 7.9082 8.71484 8.31843 8.71484 8.75635C8.71484 9.19427 8.99179 9.63392 9.49029 9.63392Z" fill="black"/>
<path d="M19.4306 12.6826H7.50142C7.10796 12.6826 6.90039 12.9732 6.90039 13.301C6.90039 13.6101 7.10796 13.91 7.50142 13.91H19.4306C19.824 13.91 20.0208 13.6101 20.0208 13.2917C20.0208 12.9732 19.824 12.6826 19.4306 12.6826Z" fill="black"/>
</g>
<defs>
<clipPath id="clip0_1198_31119">
<rect width="14.6625" height="11.1141" fill="white" transform="translate(6.12891 7.90723)"/>
</clipPath>
</defs>
</svg>
