<svg width="26" height="26" viewBox="0 0 26 26" fill="none" xmlns="http://www.w3.org/2000/svg">
<rect x="0.5" y="0.500977" width="25" height="24.9994" rx="4.16662" fill="#E9E3F8"/>
<mask id="mask0_1198_31069" style="mask-type:alpha" maskUnits="userSpaceOnUse" x="4" y="4" width="18" height="18">
<rect x="4.66602" y="4.66797" width="16.6667" height="16.6663" fill="#D9D9D9"/>
</mask>
<g mask="url(#mask0_1198_31069)">
</g>
<g clip-path="url(#clip0_1198_31069)">
<path d="M9.21094 12.9883V7.45997C9.21094 6.98796 9.63032 6.75195 10.1023 6.75195C10.5472 6.75195 10.9666 6.98796 10.9666 7.45997V12.6742C10.9666 14.7049 11.7663 15.2295 12.9836 15.2295C14.201 15.2295 15.0924 14.7184 15.0924 12.6878V7.45997C15.0924 6.98796 15.4982 6.75195 15.9312 6.75195C16.3641 6.75195 16.7835 6.98796 16.7835 7.45997V12.9357C16.7835 15.5946 15.2775 16.8001 12.9836 16.8001C10.6898 16.8001 9.21094 15.6217 9.21094 12.9883Z" fill="#010101"/>
<path d="M19.1661 17.7695C19.5736 17.7695 19.7757 18.0538 19.7757 18.3671C19.7757 18.6804 19.5719 18.973 19.1661 18.973H6.84022C6.4327 18.973 6.21875 18.679 6.21875 18.3754C6.21875 18.0538 6.4327 17.7695 6.84022 17.7695H19.1661Z" fill="#010101"/>
</g>
<defs>
<clipPath id="clip0_1198_31069">
<rect width="13.5576" height="12.4981" fill="white" transform="translate(6.21875 6.75293)"/>
</clipPath>
</defs>
</svg>
