<svg width="26" height="26" viewBox="0 0 26 26" fill="none" xmlns="http://www.w3.org/2000/svg">
<rect x="0.542969" y="0.539062" width="24.9237" height="24.9231" rx="4.1539" fill="white"/>
<mask id="mask0_1198_31089" style="mask-type:alpha" maskUnits="userSpaceOnUse" x="4" y="4" width="18" height="18">
<rect x="4.69727" y="4.69336" width="16.6158" height="16.6154" fill="#D9D9D9"/>
</mask>
<g mask="url(#mask0_1198_31089)">
<path d="M6.7793 19.9243V18.8858H8.51011V18.3666H7.47162V17.3281H8.51011V16.8089H6.7793V15.7704H8.85627C9.05243 15.7704 9.21686 15.8368 9.34955 15.9695C9.48225 16.1022 9.5486 16.2666 9.5486 16.4627V17.155C9.5486 17.3512 9.48225 17.5156 9.34955 17.6483C9.21686 17.781 9.05243 17.8474 8.85627 17.8474C9.05243 17.8474 9.21686 17.9137 9.34955 18.0464C9.48225 18.1791 9.5486 18.3435 9.5486 18.5397V19.232C9.5486 19.4281 9.48225 19.5925 9.34955 19.7252C9.21686 19.8579 9.05243 19.9243 8.85627 19.9243H6.7793ZM6.7793 15.0781V13.1743C6.7793 12.9781 6.84564 12.8137 6.97834 12.681C7.11104 12.5483 7.27546 12.482 7.47162 12.482H8.51011V11.9627H6.7793V10.9243H8.85627C9.05243 10.9243 9.21686 10.9906 9.34955 11.1233C9.48225 11.256 9.5486 11.4204 9.5486 11.6166V12.8281C9.5486 13.0243 9.48225 13.1887 9.34955 13.3214C9.21686 13.4541 9.05243 13.5204 8.85627 13.5204H7.81778V14.0397H9.5486V15.0781H6.7793ZM7.81778 10.232V7.11659H6.7793V6.07812H8.85627V10.232H7.81778ZM10.9332 17.8474V16.4627H19.2411V17.8474H10.9332ZM10.9332 13.6935V12.3089H19.2411V13.6935H10.9332ZM10.9332 9.53966V8.15505H19.2411V9.53966H10.9332Z" fill="#010101"/>
</g>
</svg>
