<svg width="26" height="26" viewBox="0 0 26 26" fill="none" xmlns="http://www.w3.org/2000/svg">
<rect x="0.347656" y="0.500977" width="25" height="24.9994" rx="4.16662" fill="white"/>
<mask id="mask0_1198_31064" style="mask-type:alpha" maskUnits="userSpaceOnUse" x="4" y="4" width="18" height="18">
<rect x="4.51367" y="4.66797" width="16.6667" height="16.6663" fill="#D9D9D9"/>
</mask>
<g mask="url(#mask0_1198_31064)">
</g>
<g clip-path="url(#clip0_1198_31064)">
<path d="M9.05859 12.9883V7.45997C9.05859 6.98796 9.47797 6.75195 9.94998 6.75195C10.3948 6.75195 10.8142 6.98796 10.8142 7.45997V12.6742C10.8142 14.7049 11.6139 15.2295 12.8313 15.2295C14.0487 15.2295 14.9401 14.7184 14.9401 12.6878V7.45997C14.9401 6.98796 15.3459 6.75195 15.7788 6.75195C16.2118 6.75195 16.6312 6.98796 16.6312 7.45997V12.9357C16.6312 15.5946 15.1251 16.8001 12.8313 16.8001C10.5375 16.8001 9.05859 15.6217 9.05859 12.9883Z" fill="#010101"/>
<path d="M19.0137 17.7695C19.4213 17.7695 19.6233 18.0538 19.6233 18.3671C19.6233 18.6804 19.4196 18.973 19.0137 18.973H6.68788C6.28036 18.973 6.06641 18.679 6.06641 18.3754C6.06641 18.0538 6.28036 17.7695 6.68788 17.7695H19.0137Z" fill="#010101"/>
</g>
<defs>
<clipPath id="clip0_1198_31064">
<rect width="13.5576" height="12.4981" fill="white" transform="translate(6.06641 6.75293)"/>
</clipPath>
</defs>
</svg>
