<svg width="26" height="26" viewBox="0 0 26 26" fill="none" xmlns="http://www.w3.org/2000/svg">
<rect x="0.371094" y="0.500977" width="25" height="24.9994" rx="4.16662" fill="white"/>
<mask id="mask0_1198_30994" style="mask-type:alpha" maskUnits="userSpaceOnUse" x="4" y="4" width="18" height="18">
<rect x="4.53711" y="4.66797" width="16.6667" height="16.6663" fill="#D9D9D9"/>
</mask>
<g mask="url(#mask0_1198_30994)">
<path d="M9.00753 18.1516C8.49963 18.1516 8.08789 17.7398 8.08789 17.2319V17.2319C8.08789 16.724 8.49963 16.3123 9.00753 16.3123H11.0308L13.238 9.69085H11.2147C10.7068 9.69085 10.2951 9.27911 10.2951 8.77121V8.77121C10.2951 8.2633 10.7068 7.85156 11.2147 7.85156H16.7328C17.2407 7.85156 17.6524 8.2633 17.6524 8.77121V8.77121C17.6524 9.27911 17.2407 9.69085 16.7328 9.69085H15.0773L12.8702 16.3123H14.5256C15.0335 16.3123 15.4452 16.724 15.4452 17.2319V17.2319C15.4452 17.7398 15.0335 18.1516 14.5256 18.1516H9.00753Z" fill="#6139D1"/>
</g>
</svg>
