<svg width="26" height="25" viewBox="0 0 26 25" fill="none" xmlns="http://www.w3.org/2000/svg">
<rect x="0.976562" y="0.00195312" width="24.9232" height="24.9231" rx="4.15386" fill="#E9E3F8"/>
<mask id="mask0_1198_31099" style="mask-type:alpha" maskUnits="userSpaceOnUse" x="5" y="4" width="17" height="17">
<rect x="5.13086" y="4.15527" width="16.6155" height="16.6154" fill="#D9D9D9"/>
</mask>
<g mask="url(#mask0_1198_31099)">
<path d="M11.3668 17.3094V15.9248H19.6745V17.3094H11.3668ZM11.3668 13.1556V11.771H19.6745V13.1556H11.3668ZM11.3668 9.00173V7.61711H19.6745V9.00173H11.3668ZM8.59751 18.0017C8.21674 18.0017 7.89078 17.8662 7.61962 17.595C7.34847 17.3238 7.21289 16.9979 7.21289 16.6171C7.21289 16.2363 7.34847 15.9104 7.61962 15.6392C7.89078 15.3681 8.21674 15.2325 8.59751 15.2325C8.97828 15.2325 9.30425 15.3681 9.5754 15.6392C9.84656 15.9104 9.98214 16.2363 9.98214 16.6171C9.98214 16.9979 9.84656 17.3238 9.5754 17.595C9.30425 17.8662 8.97828 18.0017 8.59751 18.0017ZM8.59751 13.8479C8.21674 13.8479 7.89078 13.7123 7.61962 13.4412C7.34847 13.17 7.21289 12.844 7.21289 12.4633C7.21289 12.0825 7.34847 11.7565 7.61962 11.4854C7.89078 11.2142 8.21674 11.0787 8.59751 11.0787C8.97828 11.0787 9.30425 11.2142 9.5754 11.4854C9.84656 11.7565 9.98214 12.0825 9.98214 12.4633C9.98214 12.844 9.84656 13.17 9.5754 13.4412C9.30425 13.7123 8.97828 13.8479 8.59751 13.8479ZM8.59751 9.69404C8.21674 9.69404 7.89078 9.55846 7.61962 9.28731C7.34847 9.01615 7.21289 8.69019 7.21289 8.30942C7.21289 7.92865 7.34847 7.60269 7.61962 7.33154C7.89078 7.06038 8.21674 6.9248 8.59751 6.9248C8.97828 6.9248 9.30425 7.06038 9.5754 7.33154C9.84656 7.60269 9.98214 7.92865 9.98214 8.30942C9.98214 8.69019 9.84656 9.01615 9.5754 9.28731C9.30425 9.55846 8.97828 9.69404 8.59751 9.69404Z" fill="#010101"/>
</g>
</svg>
