<svg width="26" height="26" viewBox="0 0 26 26" fill="none" xmlns="http://www.w3.org/2000/svg">
<rect x="0.808594" y="0.500977" width="25" height="24.9994" rx="4.16662" fill="white"/>
<mask id="mask0_1198_31079" style="mask-type:alpha" maskUnits="userSpaceOnUse" x="4" y="4" width="18" height="18">
<rect x="4.97461" y="4.66797" width="16.6667" height="16.6663" fill="#D9D9D9"/>
</mask>
<g mask="url(#mask0_1198_31079)">
</g>
<g clip-path="url(#clip0_1198_31079)">
<path d="M7.99546 7.04648C8.13373 6.96291 8.28721 6.9082 8.42548 6.9082C8.73851 6.9082 8.87223 7.08295 8.87223 7.39293V9.95638C8.87223 10.1813 8.65949 10.2952 8.46651 10.2952C8.27353 10.2952 8.05776 10.1828 8.05776 9.95638V7.79713L7.67332 8.03114C7.63229 8.05545 7.55175 8.06913 7.51529 8.06913C7.32382 8.06913 7.18555 7.87311 7.18555 7.68924C7.18555 7.58439 7.26 7.47651 7.37397 7.40965L7.99546 7.04648Z" fill="#826CE8"/>
<path d="M7.65204 14.5629C7.13084 14.5629 7.05943 14.1207 7.42715 13.753L7.92404 13.2515C8.30848 12.8625 8.52577 12.6544 8.52577 12.279C8.52577 12.0785 8.40877 11.9204 8.14133 11.9204C7.98634 11.9204 7.89517 12.0329 7.84958 12.1423C7.79184 12.2806 7.69155 12.3474 7.52744 12.3474C7.36333 12.3474 7.18555 12.2471 7.18555 12.0131C7.18555 11.9296 7.22354 11.7958 7.26912 11.7244C7.45298 11.4403 7.77513 11.2686 8.21275 11.2686C8.91477 11.2686 9.33265 11.6576 9.33265 12.2335C9.33265 12.8094 9.01506 13.1102 8.62758 13.5068L8.26897 13.87H9.14118C9.34176 13.87 9.44661 14.0493 9.44661 14.2286C9.44661 14.3958 9.35088 14.5629 9.14574 14.5629H7.65204Z" fill="#826CE8"/>
<path d="M7.75148 17.9404C7.83961 18.0954 7.96422 18.2032 8.21038 18.2032C8.45654 18.2032 8.64497 18.0908 8.64497 17.8477C8.64497 17.6045 8.42767 17.4845 8.07362 17.4845H7.85633C7.67702 17.4845 7.59801 17.3006 7.59801 17.1502C7.59801 16.9998 7.67702 16.825 7.85633 16.825H8.05691C8.35322 16.825 8.55379 16.7369 8.55379 16.4695C8.55379 16.2613 8.37449 16.1686 8.20734 16.1686C8.04019 16.1686 7.90191 16.2522 7.8153 16.3813C7.74844 16.4816 7.66031 16.4983 7.57673 16.4983C7.38071 16.4983 7.21357 16.3692 7.21357 16.1731C7.21357 16.085 7.25155 15.9817 7.30474 15.9057C7.48404 15.655 7.82594 15.5137 8.23621 15.5137C8.8501 15.5137 9.33483 15.8267 9.33483 16.3783C9.33483 16.6837 9.17224 16.9633 8.87138 17.1001C9.23454 17.2171 9.44424 17.5058 9.44424 17.8933C9.44424 18.5026 8.90177 18.8703 8.22861 18.8703C7.68614 18.8703 7.30626 18.6621 7.15582 18.3111C7.14367 18.2777 7.12695 18.1987 7.12695 18.1653C7.12695 17.9434 7.28954 17.8142 7.49468 17.8142C7.58281 17.8142 7.69982 17.8401 7.753 17.9388L7.75148 17.9404Z" fill="#826CE8"/>
<path d="M18.7282 9.19759H11.36C10.9376 9.19759 10.5957 8.8557 10.5957 8.43327C10.5957 8.01084 10.9376 7.66895 11.36 7.66895H18.7282C19.1507 7.66895 19.4926 8.01084 19.4926 8.43327C19.4926 8.8557 19.1507 9.19759 18.7282 9.19759Z" fill="#6139D1"/>
<path d="M18.7282 13.7201H11.36C10.9376 13.7201 10.5957 13.3782 10.5957 12.9557C10.5957 12.5333 10.9376 12.1914 11.36 12.1914H18.7282C19.1507 12.1914 19.4926 12.5333 19.4926 12.9557C19.4926 13.3782 19.1507 13.7201 18.7282 13.7201Z" fill="#6139D1"/>
<path d="M18.7282 18.2415H11.36C10.9376 18.2415 10.5957 17.8996 10.5957 17.4772C10.5957 17.0548 10.9376 16.7129 11.36 16.7129H18.7282C19.1507 16.7129 19.4926 17.0548 19.4926 17.4772C19.4926 17.8996 19.1507 18.2415 18.7282 18.2415Z" fill="#6139D1"/>
</g>
<defs>
<clipPath id="clip0_1198_31079">
<rect width="12.3659" height="11.9633" fill="white" transform="translate(7.125 6.9082)"/>
</clipPath>
</defs>
</svg>
