<svg width="26" height="26" viewBox="0 0 26 26" fill="none" xmlns="http://www.w3.org/2000/svg">
<rect x="0.503906" y="0.500977" width="25" height="24.9994" rx="4.16662" fill="white"/>
<mask id="mask0_1198_31034" style="mask-type:alpha" maskUnits="userSpaceOnUse" x="4" y="4" width="18" height="18">
<rect x="4.66992" y="4.66797" width="16.6667" height="16.6663" fill="#D9D9D9"/>
</mask>
<g mask="url(#mask0_1198_31034)">
</g>
<g clip-path="url(#clip0_1198_31034)">
<path d="M10.3027 16.853C8.92787 16.853 7.98828 15.7673 7.98828 14.4664V14.0563C7.98828 12.2714 9.00171 10.1723 11.0506 9.25624C12.2557 8.72517 12.7381 10.3419 11.8943 10.7992C11.412 11.0411 10.8086 11.6916 10.5682 12.3672C11.7733 12.4631 12.5448 13.4042 12.5448 14.5371C12.5448 15.8145 11.5314 16.8515 10.3027 16.8515V16.853ZM15.7768 16.853C14.402 16.853 13.4624 15.7673 13.4624 14.4664V14.0563C13.4624 12.2714 14.4758 10.1738 16.5247 9.25781C17.7298 8.72674 18.2122 10.3435 17.3684 10.8007C16.8861 11.0427 16.2827 11.6932 16.0423 12.3688C17.2474 12.4647 18.0189 13.4058 18.0189 14.5387C18.0189 15.816 17.0055 16.853 15.7768 16.853Z" fill="black"/>
</g>
<defs>
<clipPath id="clip0_1198_31034">
<rect width="10.0306" height="7.70208" fill="white" transform="translate(7.98828 9.15039)"/>
</clipPath>
</defs>
</svg>
