<svg width="12" height="8" viewBox="0 0 12 8" fill="none" xmlns="http://www.w3.org/2000/svg">
<path d="M3.30268 7.70266C1.92787 7.70266 0.988281 6.61695 0.988281 5.31598V4.9059C0.988281 3.121 2.00171 1.02186 4.05057 0.105845C5.25569 -0.425225 5.73806 1.19155 4.89431 1.64878C4.41195 1.89074 3.80861 2.54122 3.56821 3.21684C4.77333 3.31269 5.5448 4.25384 5.5448 5.38669C5.5448 6.66408 4.53136 7.70108 3.30268 7.70108V7.70266ZM8.77678 7.70266C7.40197 7.70266 6.46238 6.61695 6.46238 5.31598V4.9059C6.46238 3.121 7.47582 1.02343 9.52468 0.107416C10.7298 -0.423654 11.2122 1.19312 10.3684 1.65035C9.88606 1.89231 9.28271 2.54279 9.04231 3.21842C10.2474 3.31426 11.0189 4.25542 11.0189 5.38826C11.0189 6.66566 10.0055 7.70266 8.77678 7.70266Z"/>
</svg>
