<svg width="14" height="13" viewBox="0 0 14 13" fill="none" xmlns="http://www.w3.org/2000/svg">
<path d="M1.69077 1.09824C1.82905 1.01466 1.98252 0.959961 2.1208 0.959961C2.43382 0.959961 2.56754 1.13471 2.56754 1.44469V4.00814C2.56754 4.23303 2.35481 4.347 2.16182 4.347C1.96884 4.347 1.75307 4.23455 1.75307 4.00814V1.84889L1.36863 2.08289C1.3276 2.10721 1.24707 2.12088 1.2106 2.12088C1.01914 2.12088 0.880859 1.92486 0.880859 1.741C0.880859 1.63615 0.955316 1.52827 1.06928 1.46141L1.69077 1.09824Z"/>
<path d="M1.34736 8.61466C0.826156 8.61466 0.754738 8.17247 1.12246 7.80475L1.61935 7.3033C2.00379 6.9143 2.22109 6.70613 2.22109 6.3308C2.22109 6.13022 2.10408 5.97219 1.83664 5.97219C1.68165 5.97219 1.59048 6.08464 1.54489 6.19404C1.48715 6.33232 1.38686 6.39918 1.22275 6.39918C1.05864 6.39918 0.880859 6.29889 0.880859 6.06488C0.880859 5.98131 0.918848 5.84759 0.964434 5.77617C1.1483 5.49202 1.47044 5.32031 1.90806 5.32031C2.61009 5.32031 3.02796 5.70931 3.02796 6.28522C3.02796 6.86112 2.71038 7.16198 2.32289 7.55858L1.96429 7.92175H2.8365C3.03707 7.92175 3.14192 8.10106 3.14192 8.28036C3.14192 8.44751 3.04619 8.61466 2.84106 8.61466H1.34736Z"/>
<path d="M1.44679 11.9921C1.53493 12.1471 1.65953 12.255 1.90569 12.255C2.15186 12.255 2.34028 12.1426 2.34028 11.8994C2.34028 11.6563 2.12298 11.5363 1.76893 11.5363H1.55164C1.37234 11.5363 1.29332 11.3524 1.29332 11.202C1.29332 11.0515 1.37234 10.8768 1.55164 10.8768H1.75222C2.04853 10.8768 2.24911 10.7887 2.24911 10.5212C2.24911 10.313 2.0698 10.2203 1.90265 10.2203C1.7355 10.2203 1.59723 10.3039 1.51061 10.4331C1.44375 10.5334 1.35562 10.5501 1.27205 10.5501C1.07603 10.5501 0.908879 10.4209 0.908879 10.2249C0.908879 10.1368 0.946867 10.0334 1.00005 9.95747C1.17936 9.70675 1.52125 9.56543 1.93152 9.56543C2.54541 9.56543 3.03015 9.87845 3.03015 10.43C3.03015 10.7355 2.86756 11.0151 2.56669 11.1518C2.92986 11.2688 3.13955 11.5575 3.13955 11.945C3.13955 12.5543 2.59708 12.9221 1.92393 12.9221C1.38145 12.9221 1.00157 12.7139 0.851137 12.3629C0.83898 12.3295 0.822266 12.2504 0.822266 12.217C0.822266 11.9952 0.984856 11.866 1.18999 11.866C1.27813 11.866 1.39513 11.8918 1.44831 11.9906L1.44679 11.9921Z"/>
<path d="M12.4235 3.24935H5.05534C4.63291 3.24935 4.29102 2.90746 4.29102 2.48503C4.29102 2.0626 4.63291 1.7207 5.05534 1.7207H12.4235C12.846 1.7207 13.1879 2.0626 13.1879 2.48503C13.1879 2.90746 12.846 3.24935 12.4235 3.24935Z"/>
<path d="M12.4235 7.77181H5.05534C4.63291 7.77181 4.29102 7.42992 4.29102 7.00749C4.29102 6.58506 4.63291 6.24316 5.05534 6.24316H12.4235C12.846 6.24316 13.1879 6.58506 13.1879 7.00749C13.1879 7.42992 12.846 7.77181 12.4235 7.77181Z"/>
<path d="M12.4235 12.2933H5.05534C4.63291 12.2933 4.29102 11.9514 4.29102 11.529C4.29102 11.1065 4.63291 10.7646 5.05534 10.7646H12.4235C12.846 10.7646 13.1879 11.1065 13.1879 11.529C13.1879 11.9514 12.846 12.2933 12.4235 12.2933Z"/>
</svg>
