<svg width="26" height="25" viewBox="0 0 26 25" fill="none" xmlns="http://www.w3.org/2000/svg">
<rect x="0.128906" y="0.00195312" width="24.9232" height="24.9231" rx="4.15386" fill="white"/>
<mask id="mask0_1198_31109" style="mask-type:alpha" maskUnits="userSpaceOnUse" x="4" y="4" width="17" height="17">
<rect x="4.2832" y="4.15527" width="16.6155" height="16.6154" fill="#D9D9D9"/>
</mask>
<g mask="url(#mask0_1198_31109)">
<path d="M10.5191 17.3094V15.9248H18.8268V17.3094H10.5191ZM10.5191 13.1556V11.771H18.8268V13.1556H10.5191ZM10.5191 9.00173V7.61711H18.8268V9.00173H10.5191ZM7.74986 18.0017C7.36909 18.0017 7.04312 17.8662 6.77197 17.595C6.50081 17.3238 6.36523 16.9979 6.36523 16.6171C6.36523 16.2363 6.50081 15.9104 6.77197 15.6392C7.04312 15.3681 7.36909 15.2325 7.74986 15.2325C8.13063 15.2325 8.45659 15.3681 8.72775 15.6392C8.9989 15.9104 9.13448 16.2363 9.13448 16.6171C9.13448 16.9979 8.9989 17.3238 8.72775 17.595C8.45659 17.8662 8.13063 18.0017 7.74986 18.0017ZM7.74986 13.8479C7.36909 13.8479 7.04312 13.7123 6.77197 13.4412C6.50081 13.17 6.36523 12.844 6.36523 12.4633C6.36523 12.0825 6.50081 11.7565 6.77197 11.4854C7.04312 11.2142 7.36909 11.0787 7.74986 11.0787C8.13063 11.0787 8.45659 11.2142 8.72775 11.4854C8.9989 11.7565 9.13448 12.0825 9.13448 12.4633C9.13448 12.844 8.9989 13.17 8.72775 13.4412C8.45659 13.7123 8.13063 13.8479 7.74986 13.8479ZM7.74986 9.69404C7.36909 9.69404 7.04312 9.55846 6.77197 9.28731C6.50081 9.01615 6.36523 8.69019 6.36523 8.30942C6.36523 7.92865 6.50081 7.60269 6.77197 7.33154C7.04312 7.06038 7.36909 6.9248 7.74986 6.9248C8.13063 6.9248 8.45659 7.06038 8.72775 7.33154C8.9989 7.60269 9.13448 7.92865 9.13448 8.30942C9.13448 8.69019 8.9989 9.01615 8.72775 9.28731C8.45659 9.55846 8.13063 9.69404 7.74986 9.69404Z" fill="#6139D1"/>
</g>
</svg>
