<svg width="55" height="55" viewBox="0 0 55 55" fill="none" xmlns="http://www.w3.org/2000/svg">
<rect x="0.78125" y="0.594727" width="54" height="54" rx="27" fill="white"/>
<mask id="mask0_1002_26455" style="mask-type:alpha" maskUnits="userSpaceOnUse" x="12" y="12" width="31" height="31">
<rect x="12.7812" y="12.5947" width="30" height="30" fill="#D9D9D9"/>
</mask>
<g mask="url(#mask0_1002_26455)">
<path d="M16.5303 36.3447C15.8428 36.3447 15.2542 36.0999 14.7646 35.6104C14.2751 35.1208 14.0303 34.5322 14.0303 33.8447V21.3447C14.0303 20.6572 14.2751 20.0687 14.7646 19.5791C15.2542 19.0895 15.8428 18.8447 16.5303 18.8447H29.0303C29.7178 18.8447 30.3063 19.0895 30.7959 19.5791C31.2855 20.0687 31.5303 20.6572 31.5303 21.3447V33.8447C31.5303 34.5322 31.2855 35.1208 30.7959 35.6104C30.3063 36.0999 29.7178 36.3447 29.0303 36.3447H16.5303ZM35.2803 26.3447C34.9261 26.3447 34.6292 26.2249 34.3896 25.9854C34.1501 25.7458 34.0303 25.4489 34.0303 25.0947V20.0947C34.0303 19.7406 34.1501 19.4437 34.3896 19.2041C34.6292 18.9645 34.9261 18.8447 35.2803 18.8447H40.2803C40.6344 18.8447 40.9313 18.9645 41.1709 19.2041C41.4105 19.4437 41.5303 19.7406 41.5303 20.0947V25.0947C41.5303 25.4489 41.4105 25.7458 41.1709 25.9854C40.9313 26.2249 40.6344 26.3447 40.2803 26.3447H35.2803ZM36.5303 23.8447H39.0303V21.3447H36.5303V23.8447ZM16.5303 33.8447H29.0303V21.3447H16.5303V33.8447ZM17.7803 31.3447H27.7803L24.499 26.9697L22.1553 30.0947L20.4365 27.8135L17.7803 31.3447ZM35.2803 36.3447C34.9261 36.3447 34.6292 36.2249 34.3896 35.9854C34.1501 35.7458 34.0303 35.4489 34.0303 35.0947V30.0947C34.0303 29.7406 34.1501 29.4437 34.3896 29.2041C34.6292 28.9645 34.9261 28.8447 35.2803 28.8447H40.2803C40.6344 28.8447 40.9313 28.9645 41.1709 29.2041C41.4105 29.4437 41.5303 29.7406 41.5303 30.0947V35.0947C41.5303 35.4489 41.4105 35.7458 41.1709 35.9854C40.9313 36.2249 40.6344 36.3447 40.2803 36.3447H35.2803ZM36.5303 33.8447H39.0303V31.3447H36.5303V33.8447Z" fill="#010101"/>
</g>
</svg>
