<svg width="15" height="11" viewBox="0 0 15 11" fill="none" xmlns="http://www.w3.org/2000/svg">
<path fill-rule="evenodd" clip-rule="evenodd" d="M0.46875 0.957167C0.46875 0.545575 0.802411 0.211914 1.214 0.211914H13.3611C13.7727 0.211914 14.1064 0.545575 14.1064 0.957167C14.1064 1.36876 13.7727 1.70242 13.3611 1.70242H1.214C0.802411 1.70242 0.46875 1.36876 0.46875 0.957167ZM0.46875 9.99721C0.46875 9.58561 0.802411 9.25195 1.214 9.25195H13.3611C13.7727 9.25195 14.1064 9.58561 14.1064 9.99721C14.1064 10.4088 13.7727 10.7425 13.3611 10.7425H1.214C0.802411 10.7425 0.46875 10.4088 0.46875 9.99721ZM1.214 3.22559C0.802411 3.22559 0.46875 3.55925 0.46875 3.97084C0.46875 4.38243 0.802411 4.71609 1.214 4.71609H8.39526C8.80685 4.71609 9.14051 4.38243 9.14051 3.97084C9.14051 3.55925 8.80685 3.22559 8.39526 3.22559H1.214ZM0.46875 6.98353C0.46875 6.57194 0.802411 6.23828 1.214 6.23828H8.39526C8.80685 6.23828 9.14051 6.57194 9.14051 6.98353C9.14051 7.39513 8.80685 7.72879 8.39526 7.72879H1.214C0.802411 7.72879 0.46875 7.39513 0.46875 6.98353ZM11.9328 7.02152L11.226 6.3584V6.35991C10.7528 5.91682 10.7528 5.16479 11.226 4.72171L11.9328 4.05859C12.6502 3.38492 13.8242 3.89432 13.8242 4.87694V6.20317C13.8242 7.18579 12.6502 7.69368 11.9328 7.02152Z" />
</svg>
