<svg width="26" height="26" viewBox="0 0 26 26" fill="none" xmlns="http://www.w3.org/2000/svg">
<rect x="0.960938" y="0.500977" width="25" height="24.9994" rx="4.16662" fill="#E9E3F8"/>
<mask id="mask0_1602_20488" style="mask-type:alpha" maskUnits="userSpaceOnUse" x="5" y="4" width="17" height="18">
<rect x="5.12695" y="4.66797" width="16.6667" height="16.6663" fill="#D9D9D9"/>
</mask>
<g mask="url(#mask0_1602_20488)">
</g>
<g clip-path="url(#clip0_1602_20488)">
<path d="M8.1478 7.04648C8.28608 6.96291 8.43955 6.9082 8.57783 6.9082C8.89085 6.9082 9.02457 7.08295 9.02457 7.39293V9.95638C9.02457 10.1813 8.81184 10.2952 8.61886 10.2952C8.42588 10.2952 8.2101 10.1828 8.2101 9.95638V7.79713L7.82566 8.03114C7.78463 8.05545 7.7041 8.06913 7.66763 8.06913C7.47617 8.06913 7.33789 7.87311 7.33789 7.68924C7.33789 7.58439 7.41235 7.47651 7.52631 7.40965L8.1478 7.04648Z" fill="#826CE8"/>
<path d="M7.80439 14.5629C7.28319 14.5629 7.21177 14.1207 7.5795 13.753L8.07638 13.2515C8.46082 12.8625 8.67812 12.6544 8.67812 12.279C8.67812 12.0785 8.56111 11.9204 8.29368 11.9204C8.13868 11.9204 8.04751 12.0329 8.00193 12.1423C7.94418 12.2806 7.84389 12.3474 7.67979 12.3474C7.51568 12.3474 7.33789 12.2471 7.33789 12.0131C7.33789 11.9296 7.37588 11.7958 7.42146 11.7244C7.60533 11.4403 7.92747 11.2686 8.36509 11.2686C9.06712 11.2686 9.48499 11.6576 9.48499 12.2335C9.48499 12.8094 9.16741 13.1102 8.77993 13.5068L8.42132 13.87H9.29353C9.49411 13.87 9.59895 14.0493 9.59895 14.2286C9.59895 14.3958 9.50322 14.5629 9.29809 14.5629H7.80439Z" fill="#826CE8"/>
<path d="M7.90382 17.9404C7.99196 18.0954 8.11656 18.2032 8.36272 18.2032C8.60889 18.2032 8.79731 18.0908 8.79731 17.8477C8.79731 17.6045 8.58002 17.4845 8.22597 17.4845H8.00867C7.82937 17.4845 7.75035 17.3006 7.75035 17.1502C7.75035 16.9998 7.82937 16.825 8.00867 16.825H8.20925C8.50556 16.825 8.70614 16.7369 8.70614 16.4695C8.70614 16.2613 8.52683 16.1686 8.35968 16.1686C8.19254 16.1686 8.05426 16.2522 7.96764 16.3813C7.90079 16.4816 7.81265 16.4983 7.72908 16.4983C7.53306 16.4983 7.36591 16.3692 7.36591 16.1731C7.36591 16.085 7.4039 15.9817 7.45708 15.9057C7.63639 15.655 7.97828 15.5137 8.38856 15.5137C9.00245 15.5137 9.48718 15.8267 9.48718 16.3783C9.48718 16.6837 9.32459 16.9633 9.02372 17.1001C9.38689 17.2171 9.59658 17.5058 9.59658 17.8933C9.59658 18.5026 9.05411 18.8703 8.38096 18.8703C7.83848 18.8703 7.4586 18.6621 7.30817 18.3111C7.29601 18.2777 7.2793 18.1987 7.2793 18.1653C7.2793 17.9434 7.44189 17.8142 7.64702 17.8142C7.73516 17.8142 7.85216 17.8401 7.90534 17.9388L7.90382 17.9404Z" fill="#826CE8"/>
<path d="M18.8806 9.19759H11.5124C11.0899 9.19759 10.748 8.8557 10.748 8.43327C10.748 8.01084 11.0899 7.66895 11.5124 7.66895H18.8806C19.303 7.66895 19.6449 8.01084 19.6449 8.43327C19.6449 8.8557 19.303 9.19759 18.8806 9.19759Z" fill="#6139D1"/>
<path d="M18.8806 13.7201H11.5124C11.0899 13.7201 10.748 13.3782 10.748 12.9557C10.748 12.5333 11.0899 12.1914 11.5124 12.1914H18.8806C19.303 12.1914 19.6449 12.5333 19.6449 12.9557C19.6449 13.3782 19.303 13.7201 18.8806 13.7201Z" fill="#6139D1"/>
<path d="M18.8806 18.2415H11.5124C11.0899 18.2415 10.748 17.8996 10.748 17.4772C10.748 17.0548 11.0899 16.7129 11.5124 16.7129H18.8806C19.303 16.7129 19.6449 17.0548 19.6449 17.4772C19.6449 17.8996 19.303 18.2415 18.8806 18.2415Z" fill="#6139D1"/>
</g>
<defs>
<clipPath id="clip0_1602_20488">
<rect width="12.3659" height="11.9633" fill="white" transform="translate(7.27734 6.9082)"/>
</clipPath>
</defs>
</svg>
