<svg width="26" height="26" viewBox="0 0 26 26" fill="none" xmlns="http://www.w3.org/2000/svg">
<rect x="0.695312" y="0.539062" width="24.9237" height="24.9231" rx="4.1539" fill="#E9E3F8"/>
<mask id="mask0_1198_31049" style="mask-type:alpha" maskUnits="userSpaceOnUse" x="4" y="4" width="18" height="18">
<rect x="4.84961" y="4.69336" width="16.6158" height="16.6154" fill="#D9D9D9"/>
</mask>
<g mask="url(#mask0_1198_31049)">
<path d="M6.93164 19.9243V18.8858H8.66245V18.3666H7.62397V17.3281H8.66245V16.8089H6.93164V15.7704H9.00861C9.20477 15.7704 9.3692 15.8368 9.5019 15.9695C9.63459 16.1022 9.70094 16.2666 9.70094 16.4627V17.155C9.70094 17.3512 9.63459 17.5156 9.5019 17.6483C9.3692 17.781 9.20477 17.8474 9.00861 17.8474C9.20477 17.8474 9.3692 17.9137 9.5019 18.0464C9.63459 18.1791 9.70094 18.3435 9.70094 18.5397V19.232C9.70094 19.4281 9.63459 19.5925 9.5019 19.7252C9.3692 19.8579 9.20477 19.9243 9.00861 19.9243H6.93164ZM6.93164 15.0781V13.1743C6.93164 12.9781 6.99799 12.8137 7.13068 12.681C7.26338 12.5483 7.42781 12.482 7.62397 12.482H8.66245V11.9627H6.93164V10.9243H9.00861C9.20477 10.9243 9.3692 10.9906 9.5019 11.1233C9.63459 11.256 9.70094 11.4204 9.70094 11.6166V12.8281C9.70094 13.0243 9.63459 13.1887 9.5019 13.3214C9.3692 13.4541 9.20477 13.5204 9.00861 13.5204H7.97013V14.0397H9.70094V15.0781H6.93164ZM7.97013 10.232V7.11659H6.93164V6.07812H9.00861V10.232H7.97013ZM11.0856 17.8474V16.4627H19.3935V17.8474H11.0856ZM11.0856 13.6935V12.3089H19.3935V13.6935H11.0856ZM11.0856 9.53966V8.15505H19.3935V9.53966H11.0856Z" fill="#010101"/>
</g>
</svg>
