<svg width="9" height="11" viewBox="0 0 9 11" fill="none" xmlns="http://www.w3.org/2000/svg">
<path d="M0.0703125 1.45506C0.0703125 0.382911 0.698952 0 1.76652 0H4.37407C6.93513 0 8.06779 0.941614 8.06779 2.72041C8.06779 3.7943 7.48565 4.85253 6.25999 5.14668C7.61212 5.4269 8.71131 6.26408 8.71131 7.8375C8.71131 9.69114 7.47077 11 4.81486 11H1.72003C0.525983 11 0.0703125 10.5736 0.0703125 9.42658V1.45506ZM2.09758 4.55839H4.09323C5.20916 4.55839 6.074 4.16155 6.074 3.01456C6.074 2.04335 5.36725 1.61693 4.07835 1.61693H2.56999C2.17756 1.61693 2.09944 1.76313 2.09944 2.04335V4.55839H2.09758ZM4.42243 9.38133C5.74294 9.38133 6.57617 8.77911 6.57617 7.70522C6.57617 6.55823 5.69645 6.0587 4.36105 6.0587H2.09758V8.8818C2.09758 9.26471 2.19243 9.38133 2.56813 9.38133H4.42243Z"/>
</svg>
