<svg width="26" height="26" viewBox="0 0 26 26" fill="none" xmlns="http://www.w3.org/2000/svg">
<rect x="0.808594" y="0.500977" width="25" height="24.9994" rx="4.16662" fill="white"/>
<mask id="mask0_1198_31019" style="mask-type:alpha" maskUnits="userSpaceOnUse" x="4" y="4" width="18" height="18">
<rect x="4.97461" y="4.66797" width="16.6667" height="16.6663" fill="#D9D9D9"/>
</mask>
<g mask="url(#mask0_1198_31019)">
</g>
<g clip-path="url(#clip0_1198_31019)">
<path d="M10.6074 16.853C9.23255 16.853 8.29297 15.7673 8.29297 14.4664V14.0563C8.29297 12.2714 9.3064 10.1723 11.3553 9.25624C12.5604 8.72517 13.0427 10.3419 12.199 10.7992C11.7166 11.0411 11.1133 11.6916 10.8729 12.3672C12.078 12.4631 12.8495 13.4042 12.8495 14.5371C12.8495 15.8145 11.8361 16.8515 10.6074 16.8515V16.853ZM16.0815 16.853C14.7067 16.853 13.7671 15.7673 13.7671 14.4664V14.0563C13.7671 12.2714 14.7805 10.1738 16.8294 9.25781C18.0345 8.72674 18.5168 10.3435 17.6731 10.8007C17.1907 11.0427 16.5874 11.6932 16.347 12.3688C17.5521 12.4647 18.3236 13.4058 18.3236 14.5387C18.3236 15.816 17.3102 16.853 16.0815 16.853Z" fill="#6139D1"/>
</g>
<defs>
<clipPath id="clip0_1198_31019">
<rect width="10.0306" height="7.70208" fill="white" transform="translate(8.29297 9.15039)"/>
</clipPath>
</defs>
</svg>
