<svg width="26" height="26" viewBox="0 0 26 26" fill="none" xmlns="http://www.w3.org/2000/svg">
<rect x="0.847656" y="0.539062" width="24.9237" height="24.9231" rx="4.1539" fill="white"/>
<mask id="mask0_1198_31079" style="mask-type:alpha" maskUnits="userSpaceOnUse" x="5" y="4" width="17" height="18">
<rect x="5.00195" y="4.69336" width="16.6158" height="16.6154" fill="#D9D9D9"/>
</mask>
<g mask="url(#mask0_1198_31079)">
<path d="M7.08398 19.9243V18.8858H8.8148V18.3666H7.77631V17.3281H8.8148V16.8089H7.08398V15.7704H9.16096C9.35712 15.7704 9.52154 15.8368 9.65424 15.9695C9.78694 16.1022 9.85328 16.2666 9.85328 16.4627V17.155C9.85328 17.3512 9.78694 17.5156 9.65424 17.6483C9.52154 17.781 9.35712 17.8474 9.16096 17.8474C9.35712 17.8474 9.52154 17.9137 9.65424 18.0464C9.78694 18.1791 9.85328 18.3435 9.85328 18.5397V19.232C9.85328 19.4281 9.78694 19.5925 9.65424 19.7252C9.52154 19.8579 9.35712 19.9243 9.16096 19.9243H7.08398ZM7.08398 15.0781V13.1743C7.08398 12.9781 7.15033 12.8137 7.28303 12.681C7.41572 12.5483 7.58015 12.482 7.77631 12.482H8.8148V11.9627H7.08398V10.9243H9.16096C9.35712 10.9243 9.52154 10.9906 9.65424 11.1233C9.78694 11.256 9.85328 11.4204 9.85328 11.6166V12.8281C9.85328 13.0243 9.78694 13.1887 9.65424 13.3214C9.52154 13.4541 9.35712 13.5204 9.16096 13.5204H8.12247V14.0397H9.85328V15.0781H7.08398ZM8.12247 10.232V7.11659H7.08398V6.07812H9.16096V10.232H8.12247ZM11.2379 17.8474V16.4627H19.5458V17.8474H11.2379ZM11.2379 13.6935V12.3089H19.5458V13.6935H11.2379ZM11.2379 9.53966V8.15505H19.5458V9.53966H11.2379Z" fill="#6139D1"/>
</g>
</svg>
