<svg width="24" height="24" viewBox="0 0 26 26" fill="none" xmlns="http://www.w3.org/2000/svg">
<rect x="0.347656" y="0.500977" width="25" height="24.9991" rx="4.16667" fill="white"/>
<mask id="mask0_1198_31014" style="mask-type:alpha" maskUnits="userSpaceOnUse" x="4" y="4" width="18" height="18">
<rect x="4.51367" y="4.66797" width="16.6667" height="16.6658" fill="#D9D9D9"/>
</mask>
<g mask="url(#mask0_1198_31014)">
</g>
<g clip-path="url(#clip0_1198_31014)">
<path d="M8.5293 8.95604C8.5293 7.88389 9.15794 7.50098 10.2255 7.50098H12.8331C15.3941 7.50098 16.5268 8.44259 16.5268 10.2214C16.5268 11.2953 15.9446 12.3535 14.719 12.6477C16.0711 12.9279 17.1703 13.7651 17.1703 15.3385C17.1703 17.1921 15.9298 18.501 13.2738 18.501H10.179C8.98497 18.501 8.5293 18.0746 8.5293 16.9276V8.95604ZM10.5566 12.0594H12.5522C13.6681 12.0594 14.533 11.6625 14.533 10.5155C14.533 9.54433 13.8262 9.11791 12.5373 9.11791H11.029C10.6365 9.11791 10.5584 9.26411 10.5584 9.54433V12.0594H10.5566ZM12.8814 16.8823C14.2019 16.8823 15.0352 16.2801 15.0352 15.2062C15.0352 14.0592 14.1554 13.5597 12.82 13.5597H10.5566V16.3828C10.5566 16.7657 10.6514 16.8823 11.0271 16.8823H12.8814Z" fill="#010101"/>
</g>
<defs>
<clipPath id="clip0_1198_31014">
<rect width="8.64286" height="11" fill="white" transform="translate(8.52539 7.50098)"/>
</clipPath>
</defs>
</svg>
