<svg width="26" height="26" viewBox="0 0 26 26" fill="none" xmlns="http://www.w3.org/2000/svg">
<rect x="0.0664062" y="0.500977" width="25" height="24.9994" rx="4.16662" fill="white"/>
<mask id="mask0_1198_31009" style="mask-type:alpha" maskUnits="userSpaceOnUse" x="4" y="4" width="17" height="18">
<rect x="4.23242" y="4.66797" width="16.6667" height="16.6663" fill="#D9D9D9"/>
</mask>
<g mask="url(#mask0_1198_31009)">
<path d="M8.7048 18.1516C8.19689 18.1516 7.78516 17.7398 7.78516 17.2319V17.2319C7.78516 16.724 8.19689 16.3123 8.7048 16.3123H10.7281L12.9353 9.69085H10.912C10.4041 9.69085 9.99235 9.27911 9.99235 8.77121V8.77121C9.99235 8.2633 10.4041 7.85156 10.912 7.85156H16.43C16.9379 7.85156 17.3497 8.2633 17.3497 8.77121V8.77121C17.3497 9.27911 16.9379 9.69085 16.43 9.69085H14.7746L12.5674 16.3123H14.2228C14.7307 16.3123 15.1425 16.724 15.1425 17.2319V17.2319C15.1425 17.7398 14.7307 18.1516 14.2228 18.1516H8.7048Z" fill="#010101"/>
</g>
</svg>
