<svg width="26" height="26" viewBox="0 0 26 26" fill="none" xmlns="http://www.w3.org/2000/svg">
<rect x="0.386719" y="0.539062" width="24.9237" height="24.9231" rx="4.1539" fill="white"/>
<mask id="mask0_1198_31064" style="mask-type:alpha" maskUnits="userSpaceOnUse" x="4" y="4" width="18" height="18">
<rect x="4.54102" y="4.69336" width="16.6158" height="16.6154" fill="#D9D9D9"/>
</mask>
<g mask="url(#mask0_1198_31064)">
<path d="M8 19.232V17.8474H17.6925V19.232H8ZM12.8463 16.4628C11.6809 16.4628 10.7751 16.0994 10.1289 15.3724C9.48273 14.6455 9.15964 13.682 9.15964 12.482V6.77051H10.9424V12.5859C10.9424 13.232 11.1039 13.757 11.427 14.1609C11.7501 14.5647 12.2232 14.7667 12.8463 14.7667C13.4694 14.7667 13.9425 14.5647 14.2655 14.1609C14.5886 13.757 14.7502 13.232 14.7502 12.5859V6.77051H16.5329V12.482C16.5329 13.682 16.2098 14.6455 15.5636 15.3724C14.9175 16.0994 14.0117 16.4628 12.8463 16.4628Z" fill="#010101"/>
</g>
</svg>
