<svg width="26" height="26" viewBox="0 0 26 26" fill="none" xmlns="http://www.w3.org/2000/svg">
<rect x="0.65625" y="0.500977" width="25" height="24.9994" rx="4.16662" fill="#E9E3F8"/>
<mask id="mask0_1198_31024" style="mask-type:alpha" maskUnits="userSpaceOnUse" x="4" y="4" width="18" height="18">
<rect x="4.82227" y="4.66797" width="16.6667" height="16.6663" fill="#D9D9D9"/>
</mask>
<g mask="url(#mask0_1198_31024)">
</g>
<g clip-path="url(#clip0_1198_31024)">
<path d="M10.455 16.853C9.08021 16.853 8.14062 15.7673 8.14062 14.4664V14.0563C8.14062 12.2714 9.15406 10.1723 11.2029 9.25624C12.408 8.72517 12.8904 10.3419 12.0467 10.7992C11.5643 11.0411 10.961 11.6916 10.7206 12.3672C11.9257 12.4631 12.6971 13.4042 12.6971 14.5371C12.6971 15.8145 11.6837 16.8515 10.455 16.8515V16.853ZM15.9291 16.853C14.5543 16.853 13.6147 15.7673 13.6147 14.4664V14.0563C13.6147 12.2714 14.6282 10.1738 16.677 9.25781C17.8821 8.72674 18.3645 10.3435 17.5208 10.8007C17.0384 11.0427 16.4351 11.6932 16.1947 12.3688C17.3998 12.4647 18.1712 13.4058 18.1712 14.5387C18.1712 15.816 17.1578 16.853 15.9291 16.853Z" fill="black"/>
</g>
<defs>
<clipPath id="clip0_1198_31024">
<rect width="10.0306" height="7.70208" fill="white" transform="translate(8.14062 9.15039)"/>
</clipPath>
</defs>
</svg>
