<svg width="55" height="55" viewBox="0 0 55 55" fill="none" xmlns="http://www.w3.org/2000/svg">
<rect x="0.546875" y="0.925781" width="53" height="53" rx="26.5" fill="white"/>
<rect x="0.546875" y="0.925781" width="53" height="53" rx="26.5" stroke="white"/>
<mask id="mask0_567_30802" style="mask-type:alpha" maskUnits="userSpaceOnUse" x="12" y="12" width="31" height="31">
<rect x="12.0469" y="12.4258" width="30" height="30" fill="#D9D9D9"/>
</mask>
<g mask="url(#mask0_567_30802)">
<path d="M15.7963 36.1758C15.1088 36.1758 14.5202 35.931 14.0306 35.4414C13.5411 34.9518 13.2963 34.3633 13.2963 33.6758V21.1758C13.2963 20.4883 13.5411 19.8997 14.0306 19.4102C14.5202 18.9206 15.1088 18.6758 15.7963 18.6758H28.2963C28.9838 18.6758 29.5723 18.9206 30.0619 19.4102C30.5515 19.8997 30.7963 20.4883 30.7963 21.1758V33.6758C30.7963 34.3633 30.5515 34.9518 30.0619 35.4414C29.5723 35.931 28.9838 36.1758 28.2963 36.1758H15.7963ZM34.5463 26.1758C34.1921 26.1758 33.8952 26.056 33.6556 25.8164C33.4161 25.5768 33.2963 25.2799 33.2963 24.9258V19.9258C33.2963 19.5716 33.4161 19.2747 33.6556 19.0352C33.8952 18.7956 34.1921 18.6758 34.5463 18.6758H39.5463C39.9004 18.6758 40.1973 18.7956 40.4369 19.0352C40.6765 19.2747 40.7963 19.5716 40.7963 19.9258V24.9258C40.7963 25.2799 40.6765 25.5768 40.4369 25.8164C40.1973 26.056 39.9004 26.1758 39.5463 26.1758H34.5463ZM35.7963 23.6758H38.2963V21.1758H35.7963V23.6758ZM15.7963 33.6758H28.2963V21.1758H15.7963V33.6758ZM17.0463 31.1758H27.0463L23.765 26.8008L21.4213 29.9258L19.7025 27.6445L17.0463 31.1758ZM34.5463 36.1758C34.1921 36.1758 33.8952 36.056 33.6556 35.8164C33.4161 35.5768 33.2963 35.2799 33.2963 34.9258V29.9258C33.2963 29.5716 33.4161 29.2747 33.6556 29.0352C33.8952 28.7956 34.1921 28.6758 34.5463 28.6758H39.5463C39.9004 28.6758 40.1973 28.7956 40.4369 29.0352C40.6765 29.2747 40.7963 29.5716 40.7963 29.9258V34.9258C40.7963 35.2799 40.6765 35.5768 40.4369 35.8164C40.1973 36.056 39.9004 36.1758 39.5463 36.1758H34.5463ZM35.7963 33.6758H38.2963V31.1758H35.7963V33.6758Z" fill="#010101"/>
</g>
</svg>
