<svg width="25" height="24" viewBox="0 0 25 24" fill="none" xmlns="http://www.w3.org/2000/svg">
<rect x="0.847656" width="24" height="23.9991" rx="4" fill="white"/>
<mask id="mask0_1198_31014" style="mask-type:alpha" maskUnits="userSpaceOnUse" x="4" y="4" width="17" height="16">
<rect x="4.84766" y="4" width="16" height="15.9991" fill="#D9D9D9"/>
</mask>
<g mask="url(#mask0_1198_31014)">
<path d="M9.38281 16.6658V7.33301H13.0661C13.7884 7.33301 14.455 7.55522 15.0661 7.99964C15.6773 8.44406 15.9828 9.06069 15.9828 9.84954C15.9828 10.4162 15.855 10.8523 15.5995 11.1578C15.3439 11.4633 15.105 11.6828 14.8828 11.8161C15.1606 11.9383 15.4689 12.1661 15.8078 12.4994C16.1467 12.8327 16.3161 13.3327 16.3161 13.9993C16.3161 14.9882 15.955 15.6798 15.2328 16.0742C14.5106 16.4686 13.8328 16.6658 13.1995 16.6658H9.38281ZM11.3995 14.7993H13.1328C13.6661 14.7993 13.9911 14.6632 14.1078 14.391C14.2245 14.1188 14.2828 13.9215 14.2828 13.7993C14.2828 13.6771 14.2245 13.4799 14.1078 13.2077C13.9911 12.9355 13.6495 12.7994 13.0828 12.7994H11.3995V14.7993ZM11.3995 10.9995H12.9495C13.3161 10.9995 13.5828 10.905 13.7495 10.7162C13.9161 10.5273 13.9995 10.3162 13.9995 10.0829C13.9995 9.81621 13.905 9.59955 13.7161 9.4329C13.5273 9.26624 13.2828 9.18291 12.9828 9.18291H11.3995V10.9995Z" fill="#010101"/>
</g>
</svg>
