<svg width="14" height="14" viewBox="0 0 14 14" fill="none" xmlns="http://www.w3.org/2000/svg">
<path d="M3.05859 7.12111V1.59278C3.05859 1.12077 3.47797 0.884766 3.94998 0.884766C4.39483 0.884766 4.81421 1.12077 4.81421 1.59278V6.807C4.81421 8.83767 5.61391 9.36232 6.8313 9.36232C8.04868 9.36232 8.94008 8.85125 8.94008 6.82058V1.59278C8.94008 1.12077 9.34587 0.884766 9.77883 0.884766C10.2118 0.884766 10.6312 1.12077 10.6312 1.59278V7.06847C10.6312 9.72736 9.12515 10.9329 6.8313 10.9329C4.53745 10.9329 3.05859 9.75453 3.05859 7.12111Z"/>
<path d="M13.0137 11.9023C13.4213 11.9023 13.6233 12.1866 13.6233 12.4999C13.6233 12.8132 13.4196 13.1058 13.0137 13.1058H0.687879C0.280356 13.1058 0.0664062 12.8118 0.0664062 12.5082C0.0664062 12.1866 0.280356 11.9023 0.687879 11.9023H13.0137Z"/>
</svg>
