<svg width="25" height="24" viewBox="0 0 25 24" fill="none" xmlns="http://www.w3.org/2000/svg">
<rect x="0.152344" width="24" height="24" rx="4" fill="white"/>
<mask id="mask0_1198_30989" style="mask-type:alpha" maskUnits="userSpaceOnUse" x="4" y="4" width="17" height="16">
<rect x="4.15234" y="4" width="16" height="15.9991" fill="#D9D9D9"/>
</mask>
<g mask="url(#mask0_1198_30989)">
<path d="M8.6875 16.6658V7.33301H12.3708C13.0931 7.33301 13.7597 7.55522 14.3708 7.99964C14.9819 8.44406 15.2875 9.06069 15.2875 9.84954C15.2875 10.4162 15.1597 10.8523 14.9042 11.1578C14.6486 11.4633 14.4097 11.6828 14.1875 11.8161C14.4653 11.9383 14.7736 12.1661 15.1125 12.4994C15.4514 12.8327 15.6208 13.3327 15.6208 13.9993C15.6208 14.9882 15.2597 15.6798 14.5375 16.0742C13.8153 16.4686 13.1375 16.6658 12.5042 16.6658H8.6875ZM10.7042 14.7993H12.4375C12.9708 14.7993 13.2958 14.6632 13.4125 14.391C13.5292 14.1188 13.5875 13.9215 13.5875 13.7993C13.5875 13.6771 13.5292 13.4799 13.4125 13.2077C13.2958 12.9355 12.9542 12.7994 12.3875 12.7994H10.7042V14.7993ZM10.7042 10.9995H12.2542C12.6208 10.9995 12.8875 10.905 13.0542 10.7162C13.2208 10.5273 13.3042 10.3162 13.3042 10.0829C13.3042 9.81621 13.2097 9.59955 13.0208 9.4329C12.8319 9.26624 12.5875 9.18291 12.2875 9.18291H10.7042V10.9995Z" fill="#6139D1"/>
</g>
</svg>
