<svg width="55" height="55" viewBox="0 0 55 55" fill="none" xmlns="http://www.w3.org/2000/svg">
<rect x="1" y="1.09473" width="53" height="53" rx="26.5" fill="white"/>
<rect x="1" y="1.09473" width="53" height="53" rx="26.5" stroke="#6139D1"/>
<mask id="mask0_1002_26460" style="mask-type:alpha" maskUnits="userSpaceOnUse" x="12" y="12" width="31" height="31">
<rect x="12.5" y="12.5947" width="30" height="30" fill="#D9D9D9"/>
</mask>
<g mask="url(#mask0_1002_26460)">
<path d="M16.249 36.3447C15.5615 36.3447 14.973 36.0999 14.4834 35.6104C13.9938 35.1208 13.749 34.5322 13.749 33.8447V21.3447C13.749 20.6572 13.9938 20.0687 14.4834 19.5791C14.973 19.0895 15.5615 18.8447 16.249 18.8447H28.749C29.4365 18.8447 30.0251 19.0895 30.5146 19.5791C31.0042 20.0687 31.249 20.6572 31.249 21.3447V33.8447C31.249 34.5322 31.0042 35.1208 30.5146 35.6104C30.0251 36.0999 29.4365 36.3447 28.749 36.3447H16.249ZM34.999 26.3447C34.6449 26.3447 34.348 26.2249 34.1084 25.9854C33.8688 25.7458 33.749 25.4489 33.749 25.0947V20.0947C33.749 19.7406 33.8688 19.4437 34.1084 19.2041C34.348 18.9645 34.6449 18.8447 34.999 18.8447H39.999C40.3532 18.8447 40.6501 18.9645 40.8896 19.2041C41.1292 19.4437 41.249 19.7406 41.249 20.0947V25.0947C41.249 25.4489 41.1292 25.7458 40.8896 25.9854C40.6501 26.2249 40.3532 26.3447 39.999 26.3447H34.999ZM36.249 23.8447H38.749V21.3447H36.249V23.8447ZM16.249 33.8447H28.749V21.3447H16.249V33.8447ZM17.499 31.3447H27.499L24.2178 26.9697L21.874 30.0947L20.1553 27.8135L17.499 31.3447ZM34.999 36.3447C34.6449 36.3447 34.348 36.2249 34.1084 35.9854C33.8688 35.7458 33.749 35.4489 33.749 35.0947V30.0947C33.749 29.7406 33.8688 29.4437 34.1084 29.2041C34.348 28.9645 34.6449 28.8447 34.999 28.8447H39.999C40.3532 28.8447 40.6501 28.9645 40.8896 29.2041C41.1292 29.4437 41.249 29.7406 41.249 30.0947V35.0947C41.249 35.4489 41.1292 35.7458 40.8896 35.9854C40.6501 36.2249 40.3532 36.3447 39.999 36.3447H34.999ZM36.249 33.8447H38.749V31.3447H36.249V33.8447Z" fill="#6139D1"/>
</g>
</svg>
