<svg width="26" height="26" viewBox="0 0 26 26" fill="none" xmlns="http://www.w3.org/2000/svg">
<rect x="0.695312" y="0.539062" width="24.9237" height="24.9231" rx="4.1539" fill="#E9E3F8"/>
<mask id="mask0_1198_31024" style="mask-type:alpha" maskUnits="userSpaceOnUse" x="4" y="4" width="18" height="18">
<rect x="4.84961" y="4.69336" width="16.6158" height="16.6154" fill="#D9D9D9"/>
</mask>
<g mask="url(#mask0_1198_31024)">
<path d="M8.79219 17.1553L10.3845 14.3861C9.62298 14.3861 8.97104 14.115 8.42872 13.5727C7.88639 13.0303 7.61523 12.3784 7.61523 11.6169C7.61523 10.8553 7.88639 10.2034 8.42872 9.66112C8.97104 9.11881 9.62298 8.84766 10.3845 8.84766C11.1461 8.84766 11.798 9.11881 12.3404 9.66112C12.8827 10.2034 13.1538 10.8553 13.1538 11.6169C13.1538 11.8823 13.1221 12.1275 13.0586 12.3525C12.9952 12.5775 12.9 12.7938 12.7731 13.0015L10.3845 17.1553H8.79219ZM15.0231 17.1553L16.6155 14.3861C15.8539 14.3861 15.202 14.115 14.6596 13.5727C14.1173 13.0303 13.8462 12.3784 13.8462 11.6169C13.8462 10.8553 14.1173 10.2034 14.6596 9.66112C15.202 9.11881 15.8539 8.84766 16.6155 8.84766C17.377 8.84766 18.029 9.11881 18.5713 9.66112C19.1136 10.2034 19.3848 10.8553 19.3848 11.6169C19.3848 11.8823 19.353 12.1275 19.2896 12.3525C19.2261 12.5775 19.1309 12.7938 19.004 13.0015L16.6155 17.1553H15.0231ZM10.3845 12.6553C10.673 12.6553 10.9182 12.5544 11.1201 12.3525C11.3221 12.1505 11.423 11.9053 11.423 11.6169C11.423 11.3284 11.3221 11.0832 11.1201 10.8813C10.9182 10.6794 10.673 10.5784 10.3845 10.5784C10.0961 10.5784 9.85087 10.6794 9.64894 10.8813C9.44701 11.0832 9.34605 11.3284 9.34605 11.6169C9.34605 11.9053 9.44701 12.1505 9.64894 12.3525C9.85087 12.5544 10.0961 12.6553 10.3845 12.6553ZM16.6155 12.6553C16.9039 12.6553 17.1491 12.5544 17.3511 12.3525C17.553 12.1505 17.6539 11.9053 17.6539 11.6169C17.6539 11.3284 17.553 11.0832 17.3511 10.8813C17.1491 10.6794 16.9039 10.5784 16.6155 10.5784C16.327 10.5784 16.0818 10.6794 15.8799 10.8813C15.6779 11.0832 15.577 11.3284 15.577 11.6169C15.577 11.9053 15.6779 12.1505 15.8799 12.3525C16.0818 12.5544 16.327 12.6553 16.6155 12.6553Z" fill="#010101"/>
</g>
</svg>
