<svg width="26" height="26" viewBox="0 0 26 26" fill="none" xmlns="http://www.w3.org/2000/svg">
<rect x="0.960938" y="0.500977" width="25" height="24.9994" rx="4.16662" fill="white"/>
<mask id="mask0_1524_18541" style="mask-type:alpha" maskUnits="userSpaceOnUse" x="5" y="4" width="17" height="18">
<rect x="5.12695" y="4.66797" width="16.6667" height="16.6663" fill="#D9D9D9"/>
</mask>
<g mask="url(#mask0_1524_18541)">
</g>
<g clip-path="url(#clip0_1524_18541)">
<path d="M10.7597 16.853C9.3849 16.853 8.44531 15.7673 8.44531 14.4664V14.0563C8.44531 12.2714 9.45874 10.1723 11.5076 9.25624C12.7127 8.72517 13.1951 10.3419 12.3513 10.7992C11.869 11.0411 11.2656 11.6916 11.0252 12.3672C12.2304 12.4631 13.0018 13.4042 13.0018 14.5371C13.0018 15.8145 11.9884 16.8515 10.7597 16.8515V16.853ZM16.2338 16.853C14.859 16.853 13.9194 15.7673 13.9194 14.4664V14.0563C13.9194 12.2714 14.9328 10.1738 16.9817 9.25781C18.1868 8.72674 18.6692 10.3435 17.8254 10.8007C17.3431 11.0427 16.7397 11.6932 16.4993 12.3688C17.7045 12.4647 18.4759 13.4058 18.4759 14.5387C18.4759 15.816 17.4625 16.853 16.2338 16.853Z" fill="#6139D1"/>
</g>
<defs>
<clipPath id="clip0_1524_18541">
<rect width="10.0306" height="7.70208" fill="white" transform="translate(8.44531 9.15039)"/>
</clipPath>
</defs>
</svg>
