<svg width="26" height="26" viewBox="0 0 26 26" fill="none" xmlns="http://www.w3.org/2000/svg">
<rect x="0.808594" y="0.963867" width="25" height="24.9999" rx="4.16666" fill="white"/>
<mask id="mask0_1198_31094" style="mask-type:alpha" maskUnits="userSpaceOnUse" x="4" y="5" width="18" height="17">
<rect x="4.97461" y="5.13086" width="16.6667" height="16.6666" fill="#D9D9D9"/>
</mask>
<g mask="url(#mask0_1198_31094)">
</g>
<g clip-path="url(#clip0_1198_31094)">
<path d="M12.4023 14.7793V18.2325C12.4023 18.7586 12.8558 19.0217 13.3682 19.0217C13.8511 19.0217 14.334 18.7586 14.334 18.2325V14.7793H12.4041H12.4023Z" fill="black"/>
<path d="M9.33795 9.63392H12.4016V11.7941H14.3316V9.63392H17.4542C17.9509 9.63392 18.214 9.22369 18.214 8.78577C18.214 8.34785 17.9354 7.9082 17.4542 7.9082H9.32237C8.8256 7.9082 8.5625 8.31843 8.5625 8.75635C8.5625 9.19427 8.83944 9.63392 9.33795 9.63392Z" fill="black"/>
<path d="M19.2782 12.6826H7.34908C6.95562 12.6826 6.74805 12.9732 6.74805 13.301C6.74805 13.6101 6.95562 13.91 7.34908 13.91H19.2782C19.6717 13.91 19.8684 13.6101 19.8684 13.2917C19.8684 12.9732 19.6717 12.6826 19.2782 12.6826Z" fill="black"/>
</g>
<defs>
<clipPath id="clip0_1198_31094">
<rect width="14.6625" height="11.1141" fill="white" transform="translate(5.97656 7.90723)"/>
</clipPath>
</defs>
</svg>
