<svg width="55" height="55" viewBox="0 0 55 55" fill="none" xmlns="http://www.w3.org/2000/svg">
<rect x="0.21875" y="0.594727" width="54" height="54" rx="27" fill="#F7F5FC"/>
<mask id="mask0_1002_26465" style="mask-type:alpha" maskUnits="userSpaceOnUse" x="12" y="12" width="31" height="31">
<rect x="12.2188" y="12.5947" width="30" height="30" fill="#D9D9D9"/>
</mask>
<g mask="url(#mask0_1002_26465)">
<path d="M15.9678 36.3447C15.2803 36.3447 14.6917 36.0999 14.2021 35.6104C13.7126 35.1208 13.4678 34.5322 13.4678 33.8447V21.3447C13.4678 20.6572 13.7126 20.0687 14.2021 19.5791C14.6917 19.0895 15.2803 18.8447 15.9678 18.8447H28.4678C29.1553 18.8447 29.7438 19.0895 30.2334 19.5791C30.723 20.0687 30.9678 20.6572 30.9678 21.3447V33.8447C30.9678 34.5322 30.723 35.1208 30.2334 35.6104C29.7438 36.0999 29.1553 36.3447 28.4678 36.3447H15.9678ZM34.7178 26.3447C34.3636 26.3447 34.0667 26.2249 33.8271 25.9854C33.5876 25.7458 33.4678 25.4489 33.4678 25.0947V20.0947C33.4678 19.7406 33.5876 19.4437 33.8271 19.2041C34.0667 18.9645 34.3636 18.8447 34.7178 18.8447H39.7178C40.0719 18.8447 40.3688 18.9645 40.6084 19.2041C40.848 19.4437 40.9678 19.7406 40.9678 20.0947V25.0947C40.9678 25.4489 40.848 25.7458 40.6084 25.9854C40.3688 26.2249 40.0719 26.3447 39.7178 26.3447H34.7178ZM35.9678 23.8447H38.4678V21.3447H35.9678V23.8447ZM15.9678 33.8447H28.4678V21.3447H15.9678V33.8447ZM17.2178 31.3447H27.2178L23.9365 26.9697L21.5928 30.0947L19.874 27.8135L17.2178 31.3447ZM34.7178 36.3447C34.3636 36.3447 34.0667 36.2249 33.8271 35.9854C33.5876 35.7458 33.4678 35.4489 33.4678 35.0947V30.0947C33.4678 29.7406 33.5876 29.4437 33.8271 29.2041C34.0667 28.9645 34.3636 28.8447 34.7178 28.8447H39.7178C40.0719 28.8447 40.3688 28.9645 40.6084 29.2041C40.848 29.4437 40.9678 29.7406 40.9678 30.0947V35.0947C40.9678 35.4489 40.848 35.7458 40.6084 35.9854C40.3688 36.2249 40.0719 36.3447 39.7178 36.3447H34.7178ZM35.9678 33.8447H38.4678V31.3447H35.9678V33.8447Z" fill="#6139D1"/>
</g>
</svg>
