<svg width="24" height="24" viewBox="0 0 26 26" fill="none" xmlns="http://www.w3.org/2000/svg">
<rect x="0.5" y="0.5" width="25" height="25" rx="4.16667" fill="#E9E3F8"/>
<mask id="mask0_1198_30999" style="mask-type:alpha" maskUnits="userSpaceOnUse" x="4" y="4" width="18" height="18">
<rect x="4.66602" y="4.66699" width="16.6667" height="16.6658" fill="#D9D9D9"/>
</mask>
<g mask="url(#mask0_1198_30999)">
</g>
<g clip-path="url(#clip0_1198_30999)">
<path d="M8.68164 8.95506C8.68164 7.88291 9.31028 7.5 10.3779 7.5H12.9854C15.5465 7.5 16.6791 8.44161 16.6791 10.2204C16.6791 11.2943 16.097 12.3525 14.8713 12.6467C16.2234 12.9269 17.3226 13.7641 17.3226 15.3375C17.3226 17.1911 16.0821 18.5 13.4262 18.5H10.3314C9.13731 18.5 8.68164 18.0736 8.68164 16.9266V8.95506ZM10.7089 12.0584H12.7046C13.8205 12.0584 14.6853 11.6616 14.6853 10.5146C14.6853 9.54335 13.9786 9.11693 12.6897 9.11693H11.1813C10.7889 9.11693 10.7108 9.26313 10.7108 9.54335V12.0584H10.7089ZM13.0338 16.8813C14.3543 16.8813 15.1875 16.2791 15.1875 15.2052C15.1875 14.0582 14.3078 13.5587 12.9724 13.5587H10.7089V16.3818C10.7089 16.7647 10.8038 16.8813 11.1795 16.8813H13.0338Z" fill="#010101"/>
</g>
<defs>
<clipPath id="clip0_1198_30999">
<rect width="8.64286" height="11" fill="white" transform="translate(8.67773 7.5)"/>
</clipPath>
</defs>
</svg>
