<svg width="26" height="26" viewBox="0 0 26 26" fill="none" xmlns="http://www.w3.org/2000/svg">
<rect x="0.652344" y="0.500977" width="25" height="24.9994" rx="4.16662" fill="white"/>
<mask id="mask0_1198_31059" style="mask-type:alpha" maskUnits="userSpaceOnUse" x="4" y="4" width="18" height="18">
<rect x="4.81836" y="4.66797" width="16.6667" height="16.6663" fill="#D9D9D9"/>
</mask>
<g mask="url(#mask0_1198_31059)">
</g>
<g clip-path="url(#clip0_1198_31059)">
<path d="M9.36328 12.9883V7.45997C9.36328 6.98796 9.78266 6.75195 10.2547 6.75195C10.6995 6.75195 11.1189 6.98796 11.1189 7.45997V12.6742C11.1189 14.7049 11.9186 15.2295 13.136 15.2295C14.3534 15.2295 15.2448 14.7184 15.2448 12.6878V7.45997C15.2448 6.98796 15.6506 6.75195 16.0835 6.75195C16.5165 6.75195 16.9359 6.98796 16.9359 7.45997V12.9357C16.9359 15.5946 15.4298 16.8001 13.136 16.8001C10.8421 16.8001 9.36328 15.6217 9.36328 12.9883Z" fill="#6139D1"/>
<path d="M19.3184 17.7695C19.726 17.7695 19.928 18.0538 19.928 18.3671C19.928 18.6804 19.7243 18.973 19.3184 18.973H6.99257C6.58504 18.973 6.37109 18.679 6.37109 18.3754C6.37109 18.0538 6.58504 17.7695 6.99257 17.7695H19.3184Z" fill="#6139D1"/>
</g>
<defs>
<clipPath id="clip0_1198_31059">
<rect width="13.5576" height="12.4981" fill="white" transform="translate(6.37109 6.75293)"/>
</clipPath>
</defs>
</svg>
