<svg width="14" height="13" viewBox="0 0 14 13" fill="none" xmlns="http://www.w3.org/2000/svg">
<path fill-rule="evenodd" clip-rule="evenodd" d="M1.93192 3.34529C2.60302 3.34529 3.14705 2.80126 3.14705 2.13016C3.14705 1.45907 2.60302 0.915039 1.93192 0.915039C1.26083 0.915039 0.716797 1.45907 0.716797 2.13016C0.716797 2.80126 1.26083 3.34529 1.93192 3.34529ZM5.73743 1.36523C5.31506 1.36523 4.97266 1.70763 4.97266 2.13C4.97266 2.55237 5.31506 2.89477 5.73743 2.89477H13.1041C13.5265 2.89477 13.8689 2.55237 13.8689 2.13C13.8689 1.70763 13.5265 1.36523 13.1041 1.36523H5.73743ZM5.73743 5.88672C5.31506 5.88672 4.97266 6.22912 4.97266 6.65149C4.97266 7.07386 5.31506 7.41626 5.73743 7.41626H13.1041C13.5265 7.41626 13.8689 7.07386 13.8689 6.65149C13.8689 6.22912 13.5265 5.88672 13.1041 5.88672H5.73743ZM4.97266 11.171C4.97266 10.7486 5.31506 10.4062 5.73743 10.4062H13.1041C13.5265 10.4062 13.8689 10.7486 13.8689 11.171C13.8689 11.5934 13.5265 11.9358 13.1041 11.9358H5.73743C5.31506 11.9358 4.97266 11.5934 4.97266 11.171ZM3.14705 6.65067C3.14705 7.32177 2.60302 7.8658 1.93192 7.8658C1.26083 7.8658 0.716797 7.32177 0.716797 6.65067C0.716797 5.97958 1.26083 5.43555 1.93192 5.43555C2.60302 5.43555 3.14705 5.97958 3.14705 6.65067ZM1.93192 12.3853C2.60302 12.3853 3.14705 11.8413 3.14705 11.1702C3.14705 10.4991 2.60302 9.95508 1.93192 9.95508C1.26083 9.95508 0.716797 10.4991 0.716797 11.1702C0.716797 11.8413 1.26083 12.3853 1.93192 12.3853Z"/>
</svg>
