<svg width="26" height="25" viewBox="0 0 26 25" fill="none" xmlns="http://www.w3.org/2000/svg">
<rect x="0.652344" width="25" height="25" rx="4.16667" fill="white"/>
<mask id="mask0_1198_30989" style="mask-type:alpha" maskUnits="userSpaceOnUse" x="4" y="4" width="18" height="17">
<rect x="4.81836" y="4.16699" width="16.6667" height="16.6658" fill="#D9D9D9"/>
</mask>
<g mask="url(#mask0_1198_30989)">
</g>
<g clip-path="url(#clip0_1198_30989)">
<path d="M8.83398 8.45506C8.83398 7.38291 9.46262 7 10.5302 7H13.1377C15.6988 7 16.8315 7.94161 16.8315 9.72041C16.8315 10.7943 16.2493 11.8525 15.0237 12.1467C16.3758 12.4269 17.475 13.2641 17.475 14.8375C17.475 16.6911 16.2344 18 13.5785 18H10.4837C9.28965 18 8.83398 17.5736 8.83398 16.4266V8.45506ZM10.8613 11.5584H12.8569C13.9728 11.5584 14.8377 11.1616 14.8377 10.0146C14.8377 9.04335 14.1309 8.61693 12.842 8.61693H11.3337C10.9412 8.61693 10.8631 8.76313 10.8631 9.04335V11.5584H10.8613ZM13.1861 16.3813C14.5066 16.3813 15.3398 15.7791 15.3398 14.7052C15.3398 13.5582 14.4601 13.0587 13.1247 13.0587H10.8613V15.8818C10.8613 16.2647 10.9561 16.3813 11.3318 16.3813H13.1861Z" fill="#6139D1"/>
</g>
<defs>
<clipPath id="clip0_1198_30989">
<rect width="8.64286" height="11" fill="white" transform="translate(8.83008 7)"/>
</clipPath>
</defs>
</svg>
