<svg width="32" height="32" viewBox="0 0 32 32" fill="none" xmlns="http://www.w3.org/2000/svg">
<rect width="32" height="32" rx="7" fill="white"/>
<path d="M22.3787 9.76996L22.23 9.62121C21.7378 9.12963 21.0706 8.85352 20.375 8.85352C19.6794 8.85352 19.0122 9.12963 18.52 9.62121L10.1287 18.0037C10.0168 18.1175 9.93815 18.2597 9.90124 18.415L9.02624 21.915C8.98458 22.0629 8.98261 22.2191 9.02052 22.3681C9.05844 22.517 9.1349 22.6533 9.24222 22.7633C9.34954 22.8732 9.48393 22.953 9.63188 22.9946C9.77982 23.0361 9.9361 23.038 10.085 23L13.585 22.125C13.7403 22.088 13.8825 22.0094 13.9962 21.8975L22.3787 13.5062C22.8703 13.014 23.1464 12.3468 23.1464 11.6512C23.1464 10.9556 22.8703 10.2884 22.3787 9.79621V9.76996ZM12.9287 20.4625L11.0737 20.9262L11.5375 19.0712L17.295 13.3137L18.6862 14.705L12.9287 20.4625ZM21.145 12.2462L19.92 13.4625L18.5375 12.08L19.7537 10.855C19.8351 10.7729 19.9319 10.7078 20.0385 10.6634C20.1451 10.619 20.2595 10.5961 20.375 10.5961C20.4905 10.5961 20.6049 10.619 20.7115 10.6634C20.8181 10.7078 20.9149 10.7729 20.9962 10.855L21.145 11.0037C21.227 11.085 21.2921 11.1818 21.3365 11.2885C21.3809 11.3951 21.4038 11.5094 21.4038 11.625C21.4038 11.7405 21.3809 11.8548 21.3365 11.9615C21.2921 12.0681 21.227 12.1649 21.145 12.2462V12.2462Z" fill="#6139D1"/>
</svg>
