<svg width="25" height="25" viewBox="0 0 25 25" fill="none" xmlns="http://www.w3.org/2000/svg">
<rect x="1.11621" y="0.756836" width="23" height="23" rx="3.5" fill="white"/>
<rect x="1.11621" y="0.756836" width="23" height="23" rx="3.5" stroke="#D3D3D3"/>
<mask id="mask0_799_55848" style="mask-type:alpha" maskUnits="userSpaceOnUse" x="4" y="4" width="17" height="17">
<rect x="4.61621" y="4.25684" width="16" height="15.9991" fill="#D9D9D9"/>
</mask>
<g mask="url(#mask0_799_55848)">
<path d="M8.22949 7.45698V10.0362C8.22949 10.2929 8.0214 10.501 7.7647 10.501H5.1855C4.92879 10.501 4.7207 10.7091 4.7207 10.9658V17.0541C4.7207 17.3108 4.92879 17.5189 5.1855 17.5189H16.5371C16.7938 17.5189 17.0019 17.3108 17.0019 17.0541V14.4749C17.0019 14.2182 17.21 14.0101 17.4667 14.0101H20.0459C20.3026 14.0101 20.5107 13.802 20.5107 13.5453V7.45698C20.5107 7.20028 20.3026 6.99219 20.0459 6.99219H8.69429C8.43758 6.99219 8.22949 7.20028 8.22949 7.45698Z" fill="#505050"/>
</g>
</svg>
