<svg width="26" height="26" viewBox="0 0 26 26" fill="none" xmlns="http://www.w3.org/2000/svg">
<rect x="0.503906" y="0.500977" width="25" height="24.9994" rx="4.16662" fill="white"/>
<mask id="mask0_1198_31089" style="mask-type:alpha" maskUnits="userSpaceOnUse" x="4" y="4" width="18" height="18">
<rect x="4.66992" y="4.66797" width="16.6667" height="16.6663" fill="#D9D9D9"/>
</mask>
<g mask="url(#mask0_1198_31089)">
</g>
<g clip-path="url(#clip0_1198_31089)">
<path d="M7.69077 7.04648C7.82905 6.96291 7.98252 6.9082 8.1208 6.9082C8.43382 6.9082 8.56754 7.08295 8.56754 7.39293V9.95638C8.56754 10.1813 8.35481 10.2952 8.16182 10.2952C7.96884 10.2952 7.75307 10.1828 7.75307 9.95638V7.79713L7.36863 8.03114C7.3276 8.05545 7.24707 8.06913 7.2106 8.06913C7.01914 8.06913 6.88086 7.87311 6.88086 7.68924C6.88086 7.58439 6.95532 7.47651 7.06928 7.40965L7.69077 7.04648Z" fill="#1C1B1F"/>
<path d="M7.34736 14.5629C6.82616 14.5629 6.75474 14.1207 7.12246 13.753L7.61935 13.2515C8.00379 12.8625 8.22109 12.6544 8.22109 12.279C8.22109 12.0785 8.10408 11.9204 7.83664 11.9204C7.68165 11.9204 7.59048 12.0329 7.54489 12.1423C7.48715 12.2806 7.38686 12.3474 7.22275 12.3474C7.05864 12.3474 6.88086 12.2471 6.88086 12.0131C6.88086 11.9296 6.91885 11.7958 6.96443 11.7244C7.1483 11.4403 7.47044 11.2686 7.90806 11.2686C8.61009 11.2686 9.02796 11.6576 9.02796 12.2335C9.02796 12.8094 8.71038 13.1102 8.32289 13.5068L7.96429 13.87H8.8365C9.03708 13.87 9.14192 14.0493 9.14192 14.2286C9.14192 14.3958 9.04619 14.5629 8.84106 14.5629H7.34736Z" fill="#1C1B1F"/>
<path d="M7.44679 17.9404C7.53493 18.0954 7.65953 18.2032 7.90569 18.2032C8.15186 18.2032 8.34028 18.0908 8.34028 17.8477C8.34028 17.6045 8.12298 17.4845 7.76893 17.4845H7.55164C7.37234 17.4845 7.29332 17.3006 7.29332 17.1502C7.29332 16.9998 7.37234 16.825 7.55164 16.825H7.75222C8.04853 16.825 8.24911 16.7369 8.24911 16.4695C8.24911 16.2613 8.0698 16.1686 7.90265 16.1686C7.7355 16.1686 7.59723 16.2522 7.51061 16.3813C7.44375 16.4816 7.35562 16.4983 7.27205 16.4983C7.07603 16.4983 6.90888 16.3692 6.90888 16.1731C6.90888 16.085 6.94687 15.9817 7.00005 15.9057C7.17936 15.655 7.52125 15.5137 7.93152 15.5137C8.54541 15.5137 9.03015 15.8267 9.03015 16.3783C9.03015 16.6837 8.86756 16.9633 8.56669 17.1001C8.92986 17.2171 9.13955 17.5058 9.13955 17.8933C9.13955 18.5026 8.59708 18.8703 7.92393 18.8703C7.38145 18.8703 7.00157 18.6621 6.85114 18.3111C6.83898 18.2777 6.82227 18.1987 6.82227 18.1653C6.82227 17.9434 6.98486 17.8142 7.18999 17.8142C7.27813 17.8142 7.39513 17.8401 7.44831 17.9388L7.44679 17.9404Z" fill="#1C1B1F"/>
<path d="M18.4235 9.19759H11.0553C10.6329 9.19759 10.291 8.8557 10.291 8.43327C10.291 8.01084 10.6329 7.66895 11.0553 7.66895H18.4235C18.846 7.66895 19.1879 8.01084 19.1879 8.43327C19.1879 8.8557 18.846 9.19759 18.4235 9.19759Z" fill="#010101"/>
<path d="M18.4235 13.7201H11.0553C10.6329 13.7201 10.291 13.3782 10.291 12.9557C10.291 12.5333 10.6329 12.1914 11.0553 12.1914H18.4235C18.846 12.1914 19.1879 12.5333 19.1879 12.9557C19.1879 13.3782 18.846 13.7201 18.4235 13.7201Z" fill="#010101"/>
<path d="M18.4235 18.2415H11.0553C10.6329 18.2415 10.291 17.8996 10.291 17.4772C10.291 17.0548 10.6329 16.7129 11.0553 16.7129H18.4235C18.846 16.7129 19.1879 17.0548 19.1879 17.4772C19.1879 17.8996 18.846 18.2415 18.4235 18.2415Z" fill="#010101"/>
</g>
<defs>
<clipPath id="clip0_1198_31089">
<rect width="12.3659" height="11.9633" fill="white" transform="translate(6.82031 6.9082)"/>
</clipPath>
</defs>
</svg>
