<svg width="24" height="24" viewBox="0 0 24 24" fill="none" xmlns="http://www.w3.org/2000/svg">
<rect width="24" height="24" rx="4" fill="#E9E3F8"/>
<mask id="mask0_1198_30999" style="mask-type:alpha" maskUnits="userSpaceOnUse" x="4" y="4" width="16" height="16">
<rect x="4" y="4" width="16" height="15.9991" fill="#D9D9D9"/>
</mask>
<g mask="url(#mask0_1198_30999)">
<path d="M8.53516 16.6658V7.33301H12.2185C12.9407 7.33301 13.6074 7.55522 14.2185 7.99964C14.8296 8.44406 15.1352 9.06069 15.1352 9.84954C15.1352 10.4162 15.0074 10.8523 14.7518 11.1578C14.4963 11.4633 14.2574 11.6828 14.0352 11.8161C14.3129 11.9383 14.6213 12.1661 14.9602 12.4994C15.299 12.8327 15.4685 13.3327 15.4685 13.9993C15.4685 14.9882 15.1074 15.6798 14.3852 16.0742C13.6629 16.4686 12.9852 16.6658 12.3518 16.6658H8.53516ZM10.5518 14.7993H12.2852C12.8185 14.7993 13.1435 14.6632 13.2602 14.391C13.3768 14.1188 13.4352 13.9215 13.4352 13.7993C13.4352 13.6771 13.3768 13.4799 13.2602 13.2077C13.1435 12.9355 12.8018 12.7994 12.2352 12.7994H10.5518V14.7993ZM10.5518 10.9995H12.1018C12.4685 10.9995 12.7352 10.905 12.9018 10.7162C13.0685 10.5273 13.1518 10.3162 13.1518 10.0829C13.1518 9.81621 13.0574 9.59955 12.8685 9.4329C12.6796 9.26624 12.4352 9.18291 12.1352 9.18291H10.5518V10.9995Z" fill="#010101"/>
</g>
</svg>
