<svg width="24" height="24" viewBox="0 0 24 24" fill="none" xmlns="http://www.w3.org/2000/svg">
<path d="M12.0356 17.6267C12.2541 17.6267 12.4373 17.5528 12.585 17.405C12.7328 17.2572 12.8067 17.0741 12.8067 16.8556C12.8067 16.6372 12.7328 16.454 12.585 16.3062C12.4373 16.1585 12.2541 16.0846 12.0356 16.0846C11.8172 16.0846 11.634 16.1585 11.4862 16.3062C11.3385 16.454 11.2646 16.6372 11.2646 16.8556C11.2646 17.0741 11.3385 17.2572 11.4862 17.405C11.634 17.5528 11.8172 17.6267 12.0356 17.6267ZM11.4092 13.4822H12.6621V5.96442H11.4092V13.4822ZM12.0398 23.3132C10.4805 23.3132 9.01438 23.0173 7.6416 22.4255C6.26883 21.8337 5.07469 21.0305 4.0592 20.016C3.04373 19.0015 2.23982 17.8085 1.64745 16.437C1.05509 15.0655 0.758911 13.6001 0.758911 12.0407C0.758911 10.4813 1.05481 9.01523 1.64661 7.64246C2.23843 6.26968 3.0416 5.07555 4.05613 4.06006C5.07066 3.04459 6.26367 2.24067 7.63515 1.64831C9.00665 1.05595 10.4721 0.759766 12.0314 0.759766C13.5908 0.759766 15.0569 1.05566 16.4297 1.64746C17.8025 2.23928 18.9966 3.04246 20.0121 4.05699C21.0276 5.07152 21.8315 6.26452 22.4238 7.636C23.0162 9.00751 23.3124 10.4729 23.3124 12.0323C23.3124 13.5917 23.0165 15.0578 22.4247 16.4305C21.8329 17.8033 21.0297 18.9974 20.0152 20.0129C19.0006 21.0284 17.8076 21.8323 16.4361 22.4247C15.0646 23.0171 13.5992 23.3132 12.0398 23.3132ZM12.0356 22.0603C14.8339 22.0603 17.2041 21.0892 19.1463 19.1471C21.0884 17.205 22.0594 14.8348 22.0594 12.0365C22.0594 9.2382 21.0884 6.868 19.1463 4.92589C17.2041 2.98379 14.8339 2.01274 12.0356 2.01274C9.23734 2.01274 6.86714 2.98379 4.92504 4.92589C2.98293 6.868 2.01188 9.2382 2.01188 12.0365C2.01188 14.8348 2.98293 17.205 4.92504 19.1471C6.86714 21.0892 9.23734 22.0603 12.0356 22.0603Z" fill="#6139D1"/>
</svg>
