<svg width="26" height="26" viewBox="0 0 26 26" fill="none" xmlns="http://www.w3.org/2000/svg">
<rect x="0.542969" y="0.539062" width="24.9237" height="24.9231" rx="4.1539" fill="white"/>
<mask id="mask0_1198_31034" style="mask-type:alpha" maskUnits="userSpaceOnUse" x="4" y="4" width="18" height="18">
<rect x="4.69727" y="4.69336" width="16.6158" height="16.6154" fill="#D9D9D9"/>
</mask>
<g mask="url(#mask0_1198_31034)">
<path d="M8.63984 17.1553L10.2322 14.3861C9.47063 14.3861 8.81869 14.115 8.27637 13.5727C7.73405 13.0303 7.46289 12.3784 7.46289 11.6169C7.46289 10.8553 7.73405 10.2034 8.27637 9.66112C8.81869 9.11881 9.47063 8.84766 10.2322 8.84766C10.9937 8.84766 11.6457 9.11881 12.188 9.66112C12.7303 10.2034 13.0015 10.8553 13.0015 11.6169C13.0015 11.8823 12.9698 12.1275 12.9063 12.3525C12.8428 12.5775 12.7476 12.7938 12.6207 13.0015L10.2322 17.1553H8.63984ZM14.8708 17.1553L16.4631 14.3861C15.7016 14.3861 15.0496 14.115 14.5073 13.5727C13.965 13.0303 13.6938 12.3784 13.6938 11.6169C13.6938 10.8553 13.965 10.2034 14.5073 9.66112C15.0496 9.11881 15.7016 8.84766 16.4631 8.84766C17.2247 8.84766 17.8766 9.11881 18.4189 9.66112C18.9613 10.2034 19.2324 10.8553 19.2324 11.6169C19.2324 11.8823 19.2007 12.1275 19.1372 12.3525C19.0738 12.5775 18.9786 12.7938 18.8516 13.0015L16.4631 17.1553H14.8708ZM10.2322 12.6553C10.5207 12.6553 10.7659 12.5544 10.9678 12.3525C11.1697 12.1505 11.2707 11.9053 11.2707 11.6169C11.2707 11.3284 11.1697 11.0832 10.9678 10.8813C10.7659 10.6794 10.5207 10.5784 10.2322 10.5784C9.94372 10.5784 9.69852 10.6794 9.49659 10.8813C9.29467 11.0832 9.1937 11.3284 9.1937 11.6169C9.1937 11.9053 9.29467 12.1505 9.49659 12.3525C9.69852 12.5544 9.94372 12.6553 10.2322 12.6553ZM16.4631 12.6553C16.7516 12.6553 16.9968 12.5544 17.1987 12.3525C17.4006 12.1505 17.5016 11.9053 17.5016 11.6169C17.5016 11.3284 17.4006 11.0832 17.1987 10.8813C16.9968 10.6794 16.7516 10.5784 16.4631 10.5784C16.1746 10.5784 15.9294 10.6794 15.7275 10.8813C15.5256 11.0832 15.4246 11.3284 15.4246 11.6169C15.4246 11.9053 15.5256 12.1505 15.7275 12.3525C15.9294 12.5544 16.1746 12.6553 16.4631 12.6553Z" fill="#010101"/>
</g>
</svg>
