<svg width="26" height="26" viewBox="0 0 26 26" fill="none" xmlns="http://www.w3.org/2000/svg">
<rect x="0.21875" y="0.500977" width="25" height="24.9994" rx="4.16662" fill="#E9E3F8"/>
<mask id="mask0_1198_31004" style="mask-type:alpha" maskUnits="userSpaceOnUse" x="4" y="4" width="18" height="18">
<rect x="4.38477" y="4.66797" width="16.6667" height="16.6663" fill="#D9D9D9"/>
</mask>
<g mask="url(#mask0_1198_31004)">
<path d="M8.85519 18.1516C8.34728 18.1516 7.93555 17.7398 7.93555 17.2319V17.2319C7.93555 16.724 8.34729 16.3123 8.85519 16.3123H10.8785L13.0857 9.69085H11.0624C10.5545 9.69085 10.1427 9.27911 10.1427 8.77121V8.77121C10.1427 8.2633 10.5545 7.85156 11.0624 7.85156H16.5804C17.0883 7.85156 17.5001 8.2633 17.5001 8.77121V8.77121C17.5001 9.27911 17.0883 9.69085 16.5804 9.69085H14.925L12.7178 16.3123H14.3732C14.8811 16.3123 15.2929 16.724 15.2929 17.2319V17.2319C15.2929 17.7398 14.8811 18.1516 14.3732 18.1516H8.85519Z" fill="#010101"/>
</g>
</svg>
