<svg width="151" height="119" viewBox="0 0 151 119" fill="none" xmlns="http://www.w3.org/2000/svg">
<g id="editorCatSvg">
<path id="Vector" d="M15.4829 51.9237C18.7595 54.3518 25.1955 57.809 29.3297 59.4428C33.0126 60.8329 37.6071 60.9232 45.3881 56.1752C52.7357 51.5084 59.9119 47.4194 71.0598 42.2923C79.8969 38.2664 88.0208 34.1412 92.5161 29.8987C95.2873 27.2449 97.0023 22.0816 97.1467 19.0848C97.2912 16.088 98.1306 9.61586 101.01 8.04523C103.131 6.88079 104.648 8.16258 106.219 11.0421C107.383 13.1633 109.558 13.5966 111.562 12.4954C112.808 11.8093 114.045 10.8074 114.622 9.20064C115.399 6.17672 114.225 1.95226 116.725 0.589235C119.849 -1.1168 124.84 4.75051 126.826 8.37019C132.36 18.489 133.488 21.4407 134.716 30.5035C135.104 34.1863 139.572 47.97 141.332 52.6909C142.605 56.2113 145.791 62.9091 146.892 65.2289C148.283 68.3611 148.454 71.349 145.629 72.4141C142.108 73.6959 135.474 66.61 133.1 67.9098C131.475 68.7944 137.749 76.4039 135.799 78.7688C134.589 80.4027 130.681 81.5671 126.357 76.6295C123.432 73.3619 119.172 70.013 114.586 68.4604C108.52 66.267 104.287 65.6532 86.5224 77.9745C71.484 88.1565 72.5672 93.401 76.4487 103.448C77.4958 105.957 78.597 109.739 76.7195 110.768C72.5943 113.025 67.8102 104.278 65.9417 105.307C63.1976 106.815 69.3989 116.076 65.2737 118.333C64.1544 118.946 61.6721 119.163 59.1807 115.498C57.231 112.826 48.5564 100.532 43.8535 94.0238C39.7013 88.5086 33.9604 81.5852 32.7779 80.6103C26.7842 75.2936 22.9298 74.4812 15.3745 68.3882C9.2635 63.4507 -4.30352 46.3723 2.65601 41.5882C7.44915 38.483 8.84828 46.968 15.4648 51.9417L15.4829 51.9237ZM103.592 18.9674L102.175 13.4161C101.642 14.5173 101.182 15.7449 101.47 16.8823C101.696 17.8933 102.942 18.6786 103.583 18.9674H103.592ZM111.31 29.5105C113.512 28.7974 114.821 29.7001 115.101 31.9838C115.236 34.0148 112.447 34.2495 111.797 35.7389C110.741 38.2664 111.896 38.2844 113.53 37.7158C115.606 37.0658 115.859 36.9304 116.608 36.5152C115.642 34.4481 117.375 33.1754 117.204 30.1875C117.032 27.1997 115.236 26.8838 109.712 27.4705C106.85 27.5788 107.13 31.6408 108.286 33.7711C108.71 31.5867 109.802 30.016 111.31 29.5196V29.5105ZM121.789 8.0362C121.537 6.38433 120.435 5.85176 119.659 5.62609C119.776 8.80346 120.914 10.2929 121.88 10.5727C121.916 9.74223 121.862 8.46948 121.78 8.02718L121.789 8.0362ZM127.765 29.9258C128.505 29.1946 129.363 26.613 128.28 24.934C126.33 22.2622 122.683 21.8289 122.575 23.9953C124.073 23.1739 125.653 24.582 126.312 25.1958C127.305 26.1165 127.404 28.978 125.409 30.0702C126.122 30.4944 126.844 30.9097 127.765 29.9167V29.9258Z" fill="#BDB1DB"/>
</g>
</svg>
