<svg width="16" height="12" viewBox="0 0 16 12" fill="none" xmlns="http://www.w3.org/2000/svg">
<path fill-rule="evenodd" clip-rule="evenodd" d="M0.986328 1.59437C0.986328 1.18251 1.32021 0.848633 1.73207 0.848633H13.8816C14.2934 0.848633 14.6273 1.18251 14.6273 1.59437C14.6273 2.00623 14.2934 2.34011 13.8816 2.34011H1.73207C1.32021 2.34011 0.986328 2.00623 0.986328 1.59437Z" />
<path fill-rule="evenodd" clip-rule="evenodd" d="M0.986328 10.6373C0.986328 10.2255 1.32021 9.8916 1.73207 9.8916H13.8816C14.2934 9.8916 14.6273 10.2255 14.6273 10.6373C14.6273 11.0492 14.2934 11.3831 13.8816 11.3831H1.73207C1.32021 11.3831 0.986328 11.0492 0.986328 10.6373Z" />
<path fill-rule="evenodd" clip-rule="evenodd" d="M3.46875 4.60999C3.46875 4.19814 3.80263 3.86426 4.21449 3.86426H11.3964C11.8082 3.86426 12.1421 4.19814 12.1421 4.60999C12.1421 5.02185 11.8082 5.35573 11.3964 5.35573H4.21449C3.80263 5.35573 3.46875 5.02185 3.46875 4.60999Z" />
<path fill-rule="evenodd" clip-rule="evenodd" d="M3.46875 7.62269C3.46875 7.21083 3.80263 6.87695 4.21449 6.87695H11.3964C11.8082 6.87695 12.1421 7.21083 12.1421 7.62269C12.1421 8.03455 11.8082 8.36843 11.3964 8.36843H4.21449C3.80263 8.36843 3.46875 8.03455 3.46875 7.62269Z" />
<path d="M12.9758 6.98354L13.7311 7.69151C14.4361 8.35208 15.5899 7.85295 15.5899 6.88727V5.46985C15.5899 4.50417 14.4361 4.00355 13.7311 4.66561L12.9758 5.37358C12.5107 5.80902 12.5107 6.54809 12.9758 6.98354Z" />
</svg>
