<svg width="14" height="12" viewBox="0 0 14 12" fill="none" xmlns="http://www.w3.org/2000/svg">
<path d="M6.40234 7.6709V11.1241C6.40234 11.6502 6.85584 11.9133 7.36819 11.9133C7.85111 11.9133 8.33403 11.6502 8.33403 11.1241V7.6709H6.40408H6.40234Z" />
<path d="M3.33795 2.52552H6.40165V4.68569H8.33161V2.52552H11.4542C11.9509 2.52552 12.214 2.11529 12.214 1.67737C12.214 1.23945 11.9354 0.799805 11.4542 0.799805H3.32237C2.8256 0.799805 2.5625 1.21003 2.5625 1.64795C2.5625 2.08587 2.83944 2.52552 3.33795 2.52552Z"/>
<path d="M13.2782 5.57422H1.34908C0.955619 5.57422 0.748047 5.86481 0.748047 6.19256C0.748047 6.50174 0.955619 6.80162 1.34908 6.80162H13.2782C13.6717 6.80162 13.8684 6.50174 13.8684 6.18328C13.8684 5.86481 13.6717 5.57422 13.2782 5.57422Z"/>
</svg>
