<svg width="11" height="11" viewBox="0 0 11 11" fill="none" xmlns="http://www.w3.org/2000/svg">
<path d="M1.7048 10.7902C1.19689 10.7902 0.785156 10.3785 0.785156 9.87059V9.87059C0.785156 9.36269 1.19689 8.95095 1.7048 8.95095H3.72809L5.93528 2.32952H3.912C3.40409 2.32952 2.99235 1.91778 2.99235 1.40988V1.40988C2.99235 0.901972 3.40409 0.490234 3.912 0.490234H9.43003C9.93794 0.490234 10.3497 0.901972 10.3497 1.40988V1.40988C10.3497 1.91778 9.93794 2.32952 9.43003 2.32952H7.77461L5.56742 8.95095H7.22284C7.73074 8.95095 8.14248 9.36269 8.14248 9.87059V9.87059C8.14248 10.3785 7.73074 10.7902 7.22284 10.7902H1.7048Z"/>
</svg>
