<svg width="316" height="148" viewBox="0 0 316 148" fill="none" xmlns="http://www.w3.org/2000/svg">
<g clip-path="url(#clip0_2813_29461)">
<path d="M32.6216 17L48.9303 47.3112L65.2432 77.6225H32.6216H0L16.3087 47.3112L32.6216 17Z" fill="#E7E2F7"/>
<path d="M65.2432 77.623H0V147.623H65.2432V77.623Z" fill="#E7E2F7"/>
<path d="M177 77.623H65.2432V147.623H177V77.623Z" fill="#D9CEF6"/>
<path d="M65.2437 77.6225L32.6221 17H144.379L177 77.6225H65.2437Z" fill="#D9CEF6"/>
<path d="M110.174 102H87.3086V124.865H110.174V102Z" fill="#C5BBEA"/>
<path d="M44.8249 112.623H20.415V147.623H44.8249V112.623Z" fill="#C5BBEA"/>
<path d="M154.932 102H132.066V124.865H154.932V102Z" fill="#C5BBEA"/>
<path d="M238.485 102.977H228.516V147.878H238.485V102.977Z" fill="#C5BBEA"/>
<path d="M233.498 67.8002C249.459 67.8002 262.398 54.8612 262.398 38.9001C262.398 22.939 249.459 10 233.498 10C217.537 10 204.598 22.939 204.598 38.9001C204.598 54.8612 217.537 67.8002 233.498 67.8002Z" fill="#D9CEF6"/>
<path d="M233.5 116C252.002 116 267 101.002 267 82.5C267 63.9985 252.002 49 233.5 49C214.998 49 200 63.9985 200 82.5C200 101.002 214.998 116 233.5 116Z" fill="#D9CEF6"/>
<path d="M297.528 119.26H291.174V147.878H297.528V119.26Z" fill="#C5BBEA"/>
<path d="M294.353 96.8396C304.526 96.8396 312.773 88.5928 312.773 78.4198C312.773 68.2468 304.526 60 294.353 60C284.18 60 275.934 68.2468 275.934 78.4198C275.934 88.5928 284.18 96.8396 294.353 96.8396Z" fill="#D9CEF6"/>
<path d="M294.352 127.561C306.144 127.561 315.703 118.001 315.703 106.209C315.703 94.4169 306.144 84.8574 294.352 84.8574C282.559 84.8574 273 94.4169 273 106.209C273 118.001 282.559 127.561 294.352 127.561Z" fill="#D9CEF6"/>
<rect x="115" width="21" height="17" fill="#D9CEF6"/>
</g>
<defs>
<clipPath id="clip0_2813_29461">
<rect width="316" height="148" fill="white"/>
</clipPath>
</defs>
</svg>
