<svg width="18" height="18" viewBox="0 0 18 18" fill="none" xmlns="http://www.w3.org/2000/svg">
<g id="faviconMile">
<g id="Group 26">
<path id="Vector" d="M17.5738 13.0533C17.5738 12.1728 16.86 11.459 15.9795 11.459C15.099 11.459 14.3853 12.1728 14.3853 13.0533C14.3853 13.9338 15.099 14.6475 15.9795 14.6475C16.86 14.6475 17.5738 13.9338 17.5738 13.0533Z" fill="#6138CF"/>
<g id="Group 25">
<path id="Vector_2" d="M3.99989 3.52985V6.47004C3.99989 6.76267 3.76267 6.99989 3.47004 6.99989H0.529849C0.237216 6.99989 0 7.2371 0 7.52974V14.4702C0 14.7628 0.237216 15 0.529849 15H13.4703C13.7629 15 14.0001 14.7628 14.0001 14.4702V11.53C14.0001 11.2373 14.2373 11.0001 14.53 11.0001H17.4702C17.7628 11.0001 18 10.7629 18 10.4703V3.52985C18 3.23722 17.7628 3 17.4702 3H4.52974C4.2371 3 3.99989 3.23722 3.99989 3.52985Z" fill="#826CE8"/>
</g>
</g>
</g>
</svg>
