<svg width="201" height="49" viewBox="0 0 201 49" fill="none" xmlns="http://www.w3.org/2000/svg">
<g id="footerLogoSvg">
<g id="logo">
<g id="Group 2">
<g id="Group 26">
<path id="Vector" d="M67.3 40.8193C67.3 37.4932 64.6036 34.7969 61.2775 34.7969C57.9513 34.7969 55.2549 37.4932 55.2549 40.8193C55.2549 44.1455 57.9513 46.8418 61.2775 46.8418C64.6036 46.8418 67.3 44.1455 67.3 40.8193Z" fill="#BCB8C4"/>
<g id="Group 25">
<path id="Vector_2" d="M16.0231 4.84333V15.9501C16.0231 17.0555 15.127 17.9516 14.0216 17.9516H2.91465C1.8092 17.9516 0.913086 18.8477 0.913086 19.9531V46.1709C0.913086 47.2764 1.8092 48.1725 2.91465 48.1725H51.7986C52.9041 48.1725 53.8002 47.2764 53.8002 46.1709V35.0642C53.8002 33.9588 54.6963 33.0627 55.8018 33.0627H66.9087C68.0141 33.0627 68.9102 32.1666 68.9102 31.0611V4.84333C68.9102 3.73789 68.0141 2.8418 66.9087 2.8418H18.0247C16.9192 2.8418 16.0231 3.73789 16.0231 4.84333Z" fill="#BCB8C4"/>
</g>
</g>
</g>
<g id="Group 17">
<path id="Vector_3" d="M80.7739 2.19141H94.679C95.048 2.19141 95.3745 2.42979 95.4856 2.77921L105.466 33.2867C105.573 33.6753 105.675 34.0443 105.769 34.4036L106.667 34.3938C106.758 34.0378 106.856 33.6721 106.961 33.2867L116.5 2.78901C116.611 2.43306 116.938 2.19141 117.31 2.19141H131.14C131.61 2.19141 131.989 2.57021 131.989 3.04046V46.1722C131.989 46.6425 131.61 47.0213 131.14 47.0213H123.358C122.888 47.0213 122.509 46.6425 122.509 46.1722V18.2025C122.509 18.1797 122.509 17.0502 122.509 17.0502H121.275L112.251 46.4172C112.144 46.7764 111.814 47.0213 111.438 47.0213H101.031C100.662 47.0213 100.335 46.7829 100.224 46.4335L90.3615 17.2674H89.3331C89.3331 17.3555 89.3331 18.1797 89.3331 18.2679V46.1722C89.3331 46.6425 88.9543 47.0213 88.484 47.0213H80.7739C80.3036 47.0213 79.9248 46.6425 79.9248 46.1722V3.04046C79.9248 2.57021 80.3036 2.19141 80.7739 2.19141Z" fill="#BCB8C4"/>
<path id="Vector_4" d="M139.928 15.6381H147.517C147.987 15.6381 148.366 16.0169 148.366 16.4872V46.168C148.366 46.6383 147.987 47.0171 147.517 47.0171H139.928C139.457 47.0171 139.079 46.6383 139.079 46.168V16.4872C139.079 16.0169 139.457 15.6381 139.928 15.6381ZM138.471 5.29276C138.471 2.28189 140.584 0.234375 143.722 0.234375C147.553 0.234375 149.992 3.41832 148.559 7.67663C148.203 8.73142 147.011 9.81559 145.936 10.1062C141.619 11.2688 138.471 9.04491 138.471 5.29276Z" fill="#BCB8C4"/>
<path id="Vector_5" d="M156.122 2.19141H163.711C164.181 2.19141 164.56 2.57021 164.56 3.04046V46.1722C164.56 46.6425 164.181 47.0213 163.711 47.0213H156.122C155.651 47.0213 155.272 46.6425 155.272 46.1722V3.04046C155.272 2.57021 155.651 2.19141 156.122 2.19141Z" fill="#BCB8C4"/>
<path id="Vector_6" d="M169.214 31.264C169.214 21.2093 175.873 14.5508 185.353 14.5508C194.833 14.5508 200.914 21.3399 200.914 31.7147V32.6584C200.914 33.1287 200.535 33.5075 200.065 33.5075H179.527C179.031 33.5075 178.629 33.932 178.681 34.4284C179.103 38.3634 181.852 41.1293 185.542 41.1293C188.263 41.1293 190.545 39.7643 191.231 37.2858C191.336 36.9102 191.665 36.6457 192.054 36.6457H199.745C200.267 36.6457 200.675 37.1192 200.584 37.6352C199.49 43.6765 193.932 48.1732 185.542 48.1732C176.066 48.1732 169.211 42.1547 169.211 31.2673L169.214 31.264ZM190.519 27.4204C191.035 27.4204 191.362 27.0219 191.362 26.4538C191.202 23.3382 188.58 21.2093 185.288 21.2093C180.712 21.2093 178.614 24.1388 178.614 26.4258C178.614 26.925 179.027 27.4204 179.573 27.4204H190.519Z" fill="#BCB8C4"/>
</g>
</g>
</g>
</svg>
