<svg width="25" height="25" viewBox="0 0 25 25" fill="none" xmlns="http://www.w3.org/2000/svg">
<path d="M12.9131 9.75438C12.4226 9.75438 11.9431 9.89982 11.5353 10.1723C11.1274 10.4448 10.8096 10.8322 10.6219 11.2853C10.4342 11.7385 10.385 12.2371 10.4807 12.7182C10.5764 13.1993 10.8126 13.6412 11.1595 13.988C11.5063 14.3348 11.9482 14.571 12.4293 14.6667C12.9103 14.7624 13.409 14.7133 13.8621 14.5256C14.3153 14.3379 14.7026 14.02 14.9751 13.6122C15.2476 13.2044 15.3931 12.7249 15.3931 12.2344C15.3931 11.9087 15.3289 11.5862 15.2043 11.2853C15.0797 10.9844 14.897 10.711 14.6667 10.4808C14.4364 10.2505 14.163 10.0678 13.8621 9.94315C13.5613 9.81852 13.2388 9.75438 12.9131 9.75438ZM22.8431 7.30438C22.8378 6.53213 22.6956 5.76695 22.4231 5.04437C22.2224 4.51564 21.9118 4.03547 21.5119 3.63556C21.112 3.23565 20.6318 2.92509 20.1031 2.72438C19.3805 2.45184 18.6153 2.30964 17.8431 2.30437C16.5531 2.23437 16.1731 2.23438 12.9131 2.23438C9.65309 2.23438 9.27309 2.23437 7.98309 2.30437C7.21084 2.30964 6.44566 2.45184 5.72309 2.72438C5.19435 2.92509 4.71418 3.23565 4.31427 3.63556C3.91436 4.03547 3.6038 4.51564 3.40309 5.04437C3.13055 5.76695 2.98835 6.53213 2.98309 7.30438C2.91309 8.59438 2.91309 8.97437 2.91309 12.2344C2.91309 15.4944 2.91309 15.8744 2.98309 17.1644C2.99385 17.9393 3.13586 18.7069 3.40309 19.4344C3.60291 19.9607 3.91321 20.4381 4.31309 20.8344C4.71128 21.2367 5.19248 21.5472 5.72309 21.7444C6.44566 22.0169 7.21084 22.1591 7.98309 22.1644C9.27309 22.2344 9.65309 22.2344 12.9131 22.2344C16.1731 22.2344 16.5531 22.2344 17.8431 22.1644C18.6153 22.1591 19.3805 22.0169 20.1031 21.7444C20.6337 21.5472 21.1149 21.2367 21.5131 20.8344C21.913 20.4381 22.2233 19.9607 22.4231 19.4344C22.6954 18.7083 22.8375 17.9398 22.8431 17.1644C22.9131 15.8744 22.9131 15.4944 22.9131 12.2344C22.9131 8.97437 22.9131 8.59438 22.8431 7.30438ZM20.3031 15.3044C20.271 15.9215 20.1393 16.5293 19.9131 17.1044C19.719 17.5841 19.4304 18.0198 19.0644 18.3857C18.6985 18.7516 18.2628 19.0402 17.7831 19.2344C17.2026 19.448 16.5914 19.5662 15.9731 19.5844H9.85309C9.23482 19.5662 8.62357 19.448 8.04309 19.2344C7.54719 19.0501 7.09936 18.7561 6.73309 18.3744C6.37075 18.0156 6.09093 17.5822 5.91309 17.1044C5.69864 16.5245 5.58369 15.9125 5.57309 15.2944V9.17437C5.58369 8.5562 5.69864 7.94426 5.91309 7.36438C6.09737 6.86848 6.39136 6.42065 6.77309 6.05438C7.13342 5.694 7.56635 5.41447 8.04309 5.23438C8.62357 5.02078 9.23482 4.90258 9.85309 4.88438H15.9731C16.5914 4.90258 17.2026 5.02078 17.7831 5.23438C18.279 5.41866 18.7268 5.71265 19.0931 6.09438C19.4554 6.45312 19.7352 6.88651 19.9131 7.36438C20.1267 7.94486 20.2449 8.55611 20.2631 9.17437V12.2344C20.2631 14.2944 20.3331 14.5044 20.3031 15.2944V15.3044ZM18.7031 7.86438C18.584 7.54136 18.3963 7.24802 18.1529 7.00459C17.9094 6.76116 17.6161 6.57344 17.2931 6.45437C16.8496 6.30063 16.3824 6.22617 15.9131 6.23438H9.91309C9.44135 6.23899 8.97415 6.32701 8.53309 6.49438C8.21501 6.60803 7.92478 6.78809 7.68167 7.02258C7.43856 7.25706 7.24815 7.54061 7.12309 7.85437C6.97786 8.29974 6.90691 8.76597 6.91309 9.23438V15.2344C6.923 15.7056 7.01085 16.1719 7.17309 16.6144C7.29215 16.9374 7.47987 17.2307 7.7233 17.4742C7.96673 17.7176 8.26007 17.9053 8.58309 18.0244C9.00975 18.1813 9.45874 18.2691 9.91309 18.2844H15.9131C16.3848 18.2798 16.852 18.1917 17.2931 18.0244C17.6161 17.9053 17.9094 17.7176 18.1529 17.4742C18.3963 17.2307 18.584 16.9374 18.7031 16.6144C18.8705 16.1733 18.9585 15.7061 18.9631 15.2344V9.23438C18.9634 8.76217 18.8752 8.2941 18.7031 7.85437V7.86438ZM12.9131 16.0544C12.4119 16.0544 11.9157 15.9555 11.4527 15.7634C10.9898 15.5713 10.5694 15.2898 10.2155 14.9349C9.86155 14.5801 9.58111 14.1589 9.39023 13.6955C9.19935 13.2321 9.10177 12.7356 9.10309 12.2344C9.10309 11.4784 9.32738 10.7395 9.74757 10.1111C10.1678 9.48265 10.765 8.99304 11.4636 8.70421C12.1622 8.41538 12.9307 8.34032 13.672 8.48852C14.4133 8.63673 15.0939 9.00154 15.6278 9.53678C16.1616 10.072 16.5246 10.7536 16.6709 11.4953C16.8172 12.2369 16.7401 13.0053 16.4494 13.7032C16.1588 14.401 15.6676 14.9969 15.0381 15.4155C14.4086 15.834 13.669 16.0564 12.9131 16.0544ZM16.9131 9.16438C16.692 9.14098 16.4875 9.0366 16.3388 8.87135C16.1901 8.7061 16.1078 8.49167 16.1078 8.26937C16.1078 8.04708 16.1901 7.83265 16.3388 7.6674C16.4875 7.50215 16.692 7.39777 16.9131 7.37437C17.1341 7.39777 17.3387 7.50215 17.4874 7.6674C17.6361 7.83265 17.7183 8.04708 17.7183 8.26937C17.7183 8.49167 17.6361 8.7061 17.4874 8.87135C17.3387 9.0366 17.1341 9.14098 16.9131 9.16438Z" fill="#A29CAF"/>
</svg>
