<svg width="25" height="25" viewBox="0 0 25 25" fill="none" xmlns="http://www.w3.org/2000/svg">
<g id="footerKakaoSvg">
<path id="Vector" d="M12.9131 3.23438C18.7131 3.23438 23.4141 6.89838 23.4141 11.4194C23.4141 15.9394 18.7131 19.6034 12.9141 19.6034C12.3366 19.6037 11.7598 19.5669 11.1871 19.4934L6.77906 22.3764C6.27806 22.6414 6.10106 22.6124 6.30706 21.9634L7.19906 18.2854C4.31906 16.8254 2.41406 14.2954 2.41406 11.4194C2.41406 6.89938 7.11406 3.23438 12.9141 3.23438M18.8221 11.2944L20.2921 9.87037C20.3769 9.78228 20.4242 9.66471 20.4241 9.54242C20.4239 9.42013 20.3763 9.30267 20.2913 9.21478C20.2062 9.1269 20.0904 9.07545 19.9682 9.07127C19.846 9.06709 19.7269 9.1105 19.6361 9.19238L17.7081 11.0584V9.51637C17.7081 9.39119 17.6583 9.27114 17.5698 9.18262C17.4813 9.0941 17.3612 9.04438 17.2361 9.04438C17.1109 9.04438 16.9908 9.0941 16.9023 9.18262C16.8138 9.27114 16.7641 9.39119 16.7641 9.51637V12.0734C16.7464 12.1463 16.7464 12.2224 16.7641 12.2954V13.7344C16.7641 13.8596 16.8138 13.9796 16.9023 14.0681C16.9908 14.1566 17.1109 14.2064 17.2361 14.2064C17.3612 14.2064 17.4813 14.1566 17.5698 14.0681C17.6583 13.9796 17.7081 13.8596 17.7081 13.7344V12.3714L18.1351 11.9584L19.5631 13.9914C19.5987 14.0421 19.644 14.0854 19.6964 14.1186C19.7487 14.1519 19.8071 14.1745 19.8682 14.1852C19.9293 14.1958 19.992 14.1944 20.0525 14.1809C20.113 14.1673 20.1703 14.142 20.2211 14.1064C20.2718 14.0707 20.3151 14.0254 20.3483 13.9731C20.3816 13.9207 20.4042 13.8623 20.4148 13.8012C20.4255 13.7401 20.4241 13.6775 20.4105 13.6169C20.397 13.5564 20.3717 13.4991 20.3361 13.4484L18.8221 11.2944ZM15.8641 13.2184H14.4041V9.53137C14.3985 9.41008 14.3464 9.29561 14.2585 9.21175C14.1707 9.12789 14.054 9.08109 13.9326 9.08109C13.8111 9.08109 13.6944 9.12789 13.6066 9.21175C13.5188 9.29561 13.4667 9.41008 13.4611 9.53137V13.6904C13.4611 13.9504 13.6711 14.1624 13.9321 14.1624H15.8641C15.9892 14.1624 16.1093 14.1126 16.1978 14.0241C16.2863 13.9356 16.3361 13.8156 16.3361 13.6904C16.3361 13.5652 16.2863 13.4451 16.1978 13.3566C16.1093 13.2681 15.9892 13.2184 15.8641 13.2184ZM10.0071 12.1274L10.7031 10.4194L11.3411 12.1264L10.0071 12.1274ZM12.5301 12.6144L12.5321 12.5984C12.5318 12.4795 12.4864 12.3651 12.4051 12.2784L11.3591 9.47838C11.3152 9.34494 11.2317 9.22807 11.1197 9.14337C11.0076 9.05867 10.8724 9.01018 10.7321 9.00438C10.5907 9.00375 10.4525 9.04619 10.3359 9.12604C10.2192 9.20589 10.1296 9.31937 10.0791 9.45138L8.41706 13.5264C8.36972 13.6423 8.37036 13.7722 8.41884 13.8877C8.46732 14.0031 8.55966 14.0945 8.67556 14.1419C8.79146 14.1892 8.92142 14.1886 9.03685 14.1401C9.15228 14.0916 9.24372 13.9993 9.29106 13.8834L9.62306 13.0704H11.6931L11.9911 13.8704C12.0114 13.9302 12.0435 13.9853 12.0855 14.0324C12.1275 14.0796 12.1786 14.1178 12.2357 14.1449C12.2927 14.172 12.3546 14.1873 12.4177 14.19C12.4808 14.1927 12.5438 14.1827 12.603 14.1607C12.6622 14.1386 12.7163 14.1048 12.7622 14.0614C12.8081 14.018 12.8448 13.9659 12.8702 13.908C12.8956 13.8502 12.9091 13.7879 12.9099 13.7247C12.9107 13.6615 12.8989 13.5989 12.8751 13.5404L12.5301 12.6144ZM9.20706 9.53638C9.20706 9.41137 9.15747 9.29146 9.06917 9.20297C8.98087 9.11448 8.86107 9.06464 8.73606 9.06437H5.49106C5.36588 9.06437 5.24583 9.1141 5.15731 9.20262C5.06879 9.29114 5.01906 9.41119 5.01906 9.53638C5.01906 9.66156 5.06879 9.78161 5.15731 9.87013C5.24583 9.95865 5.36588 10.0084 5.49106 10.0084H6.65106V13.7444C6.65106 13.8696 6.70079 13.9896 6.78931 14.0781C6.87783 14.1666 6.99788 14.2164 7.12306 14.2164C7.24824 14.2164 7.3683 14.1666 7.45682 14.0781C7.54533 13.9896 7.59506 13.8696 7.59506 13.7444V10.0084H8.73506C8.86024 10.0084 8.9803 9.95865 9.06882 9.87013C9.15733 9.78161 9.20706 9.66156 9.20706 9.53638Z" fill="#A29CAF"/>
</g>
</svg>
