<svg width="25" height="25" viewBox="0 0 25 25" fill="none" xmlns="http://www.w3.org/2000/svg">
<g id="footerMailSvg">
<path id="Vector" d="M19.9131 4.23438H5.91309C5.11744 4.23438 4.35437 4.55045 3.79177 5.11305C3.22916 5.67566 2.91309 6.43873 2.91309 7.23438V17.2344C2.91309 18.03 3.22916 18.7931 3.79177 19.3557C4.35437 19.9183 5.11744 20.2344 5.91309 20.2344H19.9131C20.7087 20.2344 21.4718 19.9183 22.0344 19.3557C22.597 18.7931 22.9131 18.03 22.9131 17.2344V7.23438C22.9131 6.43873 22.597 5.67566 22.0344 5.11305C21.4718 4.55045 20.7087 4.23438 19.9131 4.23438ZM19.9131 6.23438L13.4131 10.7044C13.2611 10.7921 13.0886 10.8383 12.9131 10.8383C12.7375 10.8383 12.5651 10.7921 12.4131 10.7044L5.91309 6.23438H19.9131Z" fill="#A29CAF"/>
</g>
</svg>
