<svg width="8" height="10" viewBox="0 0 8 10" fill="none" xmlns="http://www.w3.org/2000/svg">
<path d="M0.967285 9.59211V0.259277H4.65062C5.37284 0.259277 6.03951 0.481488 6.65062 0.925908C7.26173 1.37033 7.56729 1.98696 7.56729 2.77581C7.56729 3.34245 7.43951 3.77853 7.18395 4.08407C6.9284 4.38961 6.68951 4.60904 6.46729 4.74237C6.74506 4.86459 7.0534 5.09235 7.39229 5.42567C7.73118 5.75898 7.90062 6.25896 7.90062 6.92559C7.90062 7.91442 7.53951 8.60605 6.81729 9.00048C6.09506 9.3949 5.41729 9.59211 4.78395 9.59211H0.967285ZM2.98395 7.72554H4.71729C5.25062 7.72554 5.57562 7.58944 5.69229 7.31723C5.80895 7.04502 5.86729 6.84781 5.86729 6.7256C5.86729 6.60338 5.80895 6.40617 5.69229 6.13396C5.57562 5.86175 5.23395 5.72565 4.66729 5.72565H2.98395V7.72554ZM2.98395 3.92575H4.53395C4.90062 3.92575 5.16729 3.83131 5.33395 3.64243C5.50062 3.45355 5.58395 3.24245 5.58395 3.00913C5.58395 2.74248 5.48951 2.52582 5.30062 2.35916C5.11173 2.19251 4.86729 2.10918 4.56729 2.10918H2.98395V3.92575Z" fill="#6139D1"/>
</svg>
