<svg width="8" height="10" viewBox="0 0 8 10" fill='none' xmlns="http://www.w3.org/2000/svg">
<path d="M0.662598 9.59211V0.259277H4.34593C5.06815 0.259277 5.73482 0.481488 6.34593 0.925908C6.95704 1.37033 7.2626 1.98696 7.2626 2.77581C7.2626 3.34245 7.13482 3.77853 6.87927 4.08407C6.62371 4.38961 6.38482 4.60904 6.1626 4.74237C6.44038 4.86459 6.74871 5.09235 7.0876 5.42567C7.42649 5.75898 7.59593 6.25896 7.59593 6.92559C7.59593 7.91442 7.23482 8.60605 6.5126 9.00048C5.79038 9.3949 5.1126 9.59211 4.47926 9.59211H0.662598ZM2.67926 7.72554H4.4126C4.94593 7.72554 5.27093 7.58944 5.3876 7.31723C5.50427 7.04502 5.5626 6.84781 5.5626 6.7256C5.5626 6.60338 5.50427 6.40617 5.3876 6.13396C5.27093 5.86175 4.92927 5.72565 4.3626 5.72565H2.67926V7.72554ZM2.67926 3.92575H4.22926C4.59593 3.92575 4.8626 3.83131 5.02927 3.64243C5.19593 3.45355 5.27927 3.24245 5.27927 3.00913C5.27927 2.74248 5.18482 2.52582 4.99593 2.35916C4.80704 2.19251 4.5626 2.10918 4.2626 2.10918H2.67926V3.92575Z" fill="#010101"/>
</svg>
