<svg width="50" height="50" viewBox="0 0 50 50" fill="none" xmlns="http://www.w3.org/2000/svg">
<g clip-path="url(#clip0_1588_32486)">
<rect width="50" height="50" rx="25" fill="#E9E3F8"/>
<mask id="mask0_1588_32486" style="mask-type:alpha" maskUnits="userSpaceOnUse" x="9" y="7" width="59" height="59">
<rect x="9.21045" y="7.89551" width="57.8947" height="57.8947" fill="#D9D9D9"/>
</mask>
<g mask="url(#mask0_1588_32486)">
<path d="M24.5691 24.0795C23.0756 24.0795 21.797 23.5337 20.7334 22.4422C19.6699 21.3506 19.1381 20.0384 19.1381 18.5056C19.1381 16.9727 19.6699 15.6605 20.7334 14.569C21.797 13.4774 23.0756 12.9316 24.5691 12.9316C26.0626 12.9316 27.3411 13.4774 28.4047 14.569C29.4683 15.6605 30.0001 16.9727 30.0001 18.5056C30.0001 20.0384 29.4683 21.3506 28.4047 22.4422C27.3411 23.5337 26.0626 24.0795 24.5691 24.0795ZM12.9312 36.2075V32.6671C12.9312 31.8872 13.1376 31.165 13.5504 30.5004C13.9632 29.8358 14.5147 29.3248 15.205 28.9675C16.7388 28.1957 18.2861 27.6169 19.8468 27.231C21.4075 26.8452 22.9816 26.6522 24.5691 26.6522C26.1566 26.6522 27.7307 26.8452 29.2914 27.231C30.8521 27.6169 32.3993 28.1957 33.9331 28.9675C34.6235 29.3248 35.175 29.8358 35.5878 30.5004C36.0006 31.165 36.207 31.8872 36.207 32.6671V36.2075H12.9312Z" fill="#F7F5FC"/>
</g>
</g>
<defs>
<clipPath id="clip0_1588_32486">
<rect width="50" height="50" rx="25" fill="white"/>
</clipPath>
</defs>
</svg>
