<svg width="76" height="76" viewBox="0 0 76 76" fill="none" xmlns="http://www.w3.org/2000/svg">
<g filter="url(#filter0_d_708_83806)">
<rect x="8" y="4" width="60" height="60" rx="30" fill="#E9E3F8" shape-rendering="crispEdges"/>
<g clip-path="url(#clip0_708_83806)">
<path fill-rule="evenodd" clip-rule="evenodd" d="M46.1305 25.1586C45.568 24.5962 44.805 24.2803 44.0095 24.2803C43.214 24.2803 42.4511 24.5962 41.8885 25.1586L41.1815 25.8666L46.1315 30.8166L46.8375 30.1096C47.1162 29.8311 47.3372 29.5003 47.488 29.1363C47.6388 28.7723 47.7164 28.3821 47.7164 27.9881C47.7164 27.5941 47.6388 27.204 47.488 26.84C47.3372 26.476 47.1162 26.1452 46.8375 25.8666L46.1305 25.1586ZM44.7165 32.2306L39.7665 27.2806L30.6765 36.3716C30.4776 36.5706 30.3387 36.8215 30.2755 37.0956L29.2465 41.5506C29.2082 41.716 29.2126 41.8884 29.2593 42.0517C29.306 42.2149 29.3935 42.3635 29.5136 42.4836C29.6336 42.6036 29.7823 42.6911 29.9455 42.7379C30.1087 42.7846 30.2811 42.789 30.4465 42.7506L34.9025 41.7226C35.1763 41.6593 35.4269 41.5204 35.6255 41.3216L44.7165 32.2306Z" fill="#6139D1"/>
</g>
</g>
<defs>
<filter id="filter0_d_708_83806" x="0" y="0" width="76" height="76" filterUnits="userSpaceOnUse" color-interpolation-filters="sRGB">
<feFlood flood-opacity="0" result="BackgroundImageFix"/>
<feColorMatrix in="SourceAlpha" type="matrix" values="0 0 0 0 0 0 0 0 0 0 0 0 0 0 0 0 0 0 127 0" result="hardAlpha"/>
<feOffset dy="4"/>
<feGaussianBlur stdDeviation="4"/>
<feComposite in2="hardAlpha" operator="out"/>
<feColorMatrix type="matrix" values="0 0 0 0 0 0 0 0 0 0 0 0 0 0 0 0 0 0 0.16 0"/>
<feBlend mode="normal" in2="BackgroundImageFix" result="effect1_dropShadow_708_83806"/>
<feBlend mode="normal" in="SourceGraphic" in2="effect1_dropShadow_708_83806" result="shape"/>
</filter>
<clipPath id="clip0_708_83806">
<rect width="24" height="24" fill="white" transform="translate(26 22)"/>
</clipPath>
</defs>
</svg>
