<svg width="16" height="16" viewBox="0 0 16 16" fill="none" xmlns="http://www.w3.org/2000/svg">
<g id="groupChatIcn">
<mask id="mask0_7520_2012" style="mask-type:alpha" maskUnits="userSpaceOnUse" x="0" y="0" width="16" height="16">
<rect id="Bounding box" width="16" height="16" fill="#D9D9D9"/>
</mask>
<g mask="url(#mask0_7520_2012)">
<path id="chat_bubble" d="M2.96578 12.5009C2.46181 13.0049 1.6001 12.648 1.6001 11.9353V2.82675C1.6001 2.48942 1.72021 2.20065 1.96043 1.96043C2.20065 1.72021 2.48942 1.6001 2.82675 1.6001H12.64C12.9773 1.6001 13.2661 1.72021 13.5063 1.96043C13.7465 2.20065 13.8666 2.48942 13.8666 2.82675V10.1867C13.8666 10.524 13.7465 10.8128 13.5063 11.053C13.2661 11.2932 12.9773 11.4133 12.64 11.4133H4.38478C4.1726 11.4133 3.96912 11.4976 3.81909 11.6476L2.96578 12.5009Z" fill="#BCBCBC"/>
</g>
</g>
</svg>
