<svg width="24" height="24" viewBox="0 0 24 24" fill="none" xmlns="http://www.w3.org/2000/svg">
<rect x="0.5" y="0.5" width="23" height="23" rx="11.5" fill="#E9E3F8"/>
<rect x="0.5" y="0.5" width="23" height="23" rx="11.5" stroke="#F4F4F4"/>
<path d="M12.0862 11.351C11.3693 11.351 10.7556 11.089 10.2451 10.5651C9.73458 10.0411 9.47932 9.41125 9.47932 8.6755C9.47932 7.93973 9.73458 7.30987 10.2451 6.78593C10.7556 6.26198 11.3693 6 12.0862 6C12.8031 6 13.4168 6.26198 13.9273 6.78593C14.4378 7.30987 14.6931 7.93973 14.6931 8.6755C14.6931 9.41125 14.4378 10.0411 13.9273 10.5651C13.4168 11.089 12.8031 11.351 12.0862 11.351ZM6.5 17.1724V15.473C6.5 15.0987 6.59907 14.752 6.79722 14.433C6.99536 14.114 7.26011 13.8687 7.59146 13.6972C8.32769 13.3268 9.07038 13.0489 9.8195 12.8637C10.5686 12.6785 11.3242 12.5859 12.0862 12.5859C12.8482 12.5859 13.6038 12.6785 14.3529 12.8637C15.102 13.0489 15.8447 13.3268 16.581 13.6972C16.9123 13.8687 17.1771 14.114 17.3752 14.433C17.5733 14.752 17.6724 15.0987 17.6724 15.473V17.1724H6.5Z" fill="#F7F5FC"/>
</svg>
