<svg width="54" height="54" viewBox="0 0 54 54" fill="none" xmlns="http://www.w3.org/2000/svg">
<rect width="54" height="54" rx="27" fill="white"/>
<path d="M28.25 33.25V25.75C28.25 25.4185 28.3817 25.1005 28.6161 24.8661C28.8505 24.6317 29.1685 24.5 29.5 24.5C29.8315 24.5 30.1495 24.6317 30.3839 24.8661C30.6183 25.1005 30.75 25.4185 30.75 25.75V33.25C30.75 33.5815 30.6183 33.8995 30.3839 34.1339C30.1495 34.3683 29.8315 34.5 29.5 34.5C29.1685 34.5 28.8505 34.3683 28.6161 34.1339C28.3817 33.8995 28.25 33.5815 28.25 33.25ZM24.5 34.5C24.8315 34.5 25.1495 34.3683 25.3839 34.1339C25.6183 33.8995 25.75 33.5815 25.75 33.25V25.75C25.75 25.4185 25.6183 25.1005 25.3839 24.8661C25.1495 24.6317 24.8315 24.5 24.5 24.5C24.1685 24.5 23.8505 24.6317 23.6161 24.8661C23.3817 25.1005 23.25 25.4185 23.25 25.75V33.25C23.25 33.5815 23.3817 33.8995 23.6161 34.1339C23.8505 34.3683 24.1685 34.5 24.5 34.5ZM38.25 20.75C38.25 21.0815 38.1183 21.3995 37.8839 21.6339C37.6495 21.8683 37.3315 22 37 22H35.75V35.675C35.75 36.6696 35.3549 37.6234 34.6517 38.3267C33.9484 39.0299 32.9946 39.425 32 39.425H22C21.0054 39.425 20.0516 39.0299 19.3483 38.3267C18.6451 37.6234 18.25 36.6696 18.25 35.675V22H17C16.6685 22 16.3505 21.8683 16.1161 21.6339C15.8817 21.3995 15.75 21.0815 15.75 20.75C15.75 20.4185 15.8817 20.1005 16.1161 19.8661C16.3505 19.6317 16.6685 19.5 17 19.5H22V18.25C22 17.2554 22.3951 16.3016 23.0983 15.5983C23.8016 14.8951 24.7554 14.5 25.75 14.5H28.25C29.2446 14.5 30.1984 14.8951 30.9017 15.5983C31.6049 16.3016 32 17.2554 32 18.25V19.5H37C37.3315 19.5 37.6495 19.6317 37.8839 19.8661C38.1183 20.1005 38.25 20.4185 38.25 20.75ZM24.5 19.5H29.5V18.25C29.5 17.9185 29.3683 17.6005 29.1339 17.3661C28.8995 17.1317 28.5815 17 28.25 17H25.75C25.4185 17 25.1005 17.1317 24.8661 17.3661C24.6317 17.6005 24.5 17.9185 24.5 18.25V19.5ZM33.25 22H20.75V35.675C20.75 36.0065 20.8817 36.3245 21.1161 36.5589C21.3505 36.7933 21.6685 36.925 22 36.925H32C32.3315 36.925 32.6495 36.7933 32.8839 36.5589C33.1183 36.3245 33.25 36.0065 33.25 35.675V22Z" fill="#747474"/>
</svg>
