<svg width="54" height="54" viewBox="0 0 54 54" fill="none" xmlns="http://www.w3.org/2000/svg">
<rect width="54" height="54" rx="27" fill="white"/>
<mask id="mask0_4296_193668" style="mask-type:alpha" maskUnits="userSpaceOnUse" x="12" y="12" width="30" height="30">
<rect x="12" y="12" width="30" height="30" fill="#D9D9D9"/>
</mask>
<g mask="url(#mask0_4296_193668)">
<path d="M15.7494 35.7501C15.0619 35.7501 14.4733 35.5053 13.9837 35.0157C13.4942 34.5262 13.2494 33.9376 13.2494 33.2501V20.7501C13.2494 20.0626 13.4942 19.4741 13.9837 18.9845C14.4733 18.4949 15.0619 18.2501 15.7494 18.2501H28.2494C28.9369 18.2501 29.5254 18.4949 30.015 18.9845C30.5046 19.4741 30.7494 20.0626 30.7494 20.7501V33.2501C30.7494 33.9376 30.5046 34.5262 30.015 35.0157C29.5254 35.5053 28.9369 35.7501 28.2494 35.7501H15.7494ZM34.4994 25.7501C34.1452 25.7501 33.8483 25.6303 33.6087 25.3907C33.3692 25.1512 33.2494 24.8543 33.2494 24.5001V19.5001C33.2494 19.146 33.3692 18.8491 33.6087 18.6095C33.8483 18.3699 34.1452 18.2501 34.4994 18.2501H39.4994C39.8535 18.2501 40.1504 18.3699 40.39 18.6095C40.6296 18.8491 40.7494 19.146 40.7494 19.5001V24.5001C40.7494 24.8543 40.6296 25.1512 40.39 25.3907C40.1504 25.6303 39.8535 25.7501 39.4994 25.7501H34.4994ZM35.7494 23.2501H38.2494V20.7501H35.7494V23.2501ZM15.7494 33.2501H28.2494V20.7501H15.7494V33.2501ZM16.9994 30.7501H26.9994L23.7181 26.3751L21.3744 29.5001L19.6556 27.2189L16.9994 30.7501ZM34.4994 35.7501C34.1452 35.7501 33.8483 35.6303 33.6087 35.3907C33.3692 35.1512 33.2494 34.8543 33.2494 34.5001V29.5001C33.2494 29.146 33.3692 28.8491 33.6087 28.6095C33.8483 28.3699 34.1452 28.2501 34.4994 28.2501H39.4994C39.8535 28.2501 40.1504 28.3699 40.39 28.6095C40.6296 28.8491 40.7494 29.146 40.7494 29.5001V34.5001C40.7494 34.8543 40.6296 35.1512 40.39 35.3907C40.1504 35.6303 39.8535 35.7501 39.4994 35.7501H34.4994ZM35.7494 33.2501H38.2494V30.7501H35.7494V33.2501Z" fill="#747474"/>
</g>
</svg>
