<svg width="288" height="140" viewBox="0 0 288 140" fill="none" xmlns="http://www.w3.org/2000/svg">
<rect width="288" height="140" rx="8" fill="#C5DB8F"/>
<path d="M96.2819 48.3887L97.7835 46.766C99.9148 44.4618 99.9667 41.0434 97.8942 39.1266L92.7529 34.3693C90.6805 32.4526 87.2725 32.764 85.1412 35.0682L83.6396 36.6909L83.6327 36.684L23.957 101.114L36.6063 112.818L96.2819 48.3887Z" fill="#F1F6E2"/>
<path d="M30.2895 106.975L23.9649 101.121L21.4807 110.141L19 119.164L27.8053 115.995L36.6142 112.826L30.2895 106.975Z" fill="#F1F6E2"/>
<path d="M97.8429 50.597L117.82 45.2517C120.674 44.4879 123.61 46.1844 124.374 49.0387L127.735 61.6023C129.594 68.5476 125.464 75.6947 118.519 77.5531L113.368 78.9312C106.423 80.7896 99.276 76.6599 97.4176 69.7146L94.0559 57.151C93.2921 54.2967 94.9886 51.3607 97.8429 50.597Z" fill="#F1F6E2"/>
<path d="M129.273 47.465L128.612 47.6415C125.46 48.4857 123.592 51.7207 124.433 54.8726L126.094 61.0831C126.938 64.235 130.173 66.1033 133.325 65.2626L133.986 65.0861C137.137 64.2419 139.006 61.0069 138.165 57.855L136.504 51.6446C135.66 48.4926 132.425 46.6243 129.273 47.465ZM135.093 58.6646C135.508 60.2146 134.588 61.8062 133.037 62.2179L132.712 62.3044C131.162 62.7196 129.571 61.7992 129.159 60.2492L127.505 54.0595C127.09 52.5095 128.01 50.918 129.56 50.5063L129.886 50.4198C131.436 50.0046 133.027 50.9249 133.439 52.4749L135.093 58.6646Z" fill="#F1F6E2"/>
<path d="M225.797 66.1445H144.639C143.11 66.1445 141.871 67.3838 141.871 68.9124V122.443C141.871 123.972 143.11 125.211 144.639 125.211H225.797C227.326 125.211 228.565 123.972 228.565 122.443V68.9124C228.565 67.3838 227.326 66.1445 225.797 66.1445Z" fill="#F1F6E2"/>
<path d="M242.398 27.2355L225.266 31.8197C223.789 32.2148 222.912 33.7323 223.307 35.209L246.801 123.011C247.196 124.487 248.713 125.364 250.19 124.969L267.323 120.385C268.799 119.99 269.676 118.472 269.281 116.996L245.787 29.1938C245.392 27.7171 243.875 26.8403 242.398 27.2355Z" fill="#F1F6E2"/>
<path d="M216.922 22.4003L148.261 32.4168C146.748 32.6375 145.701 34.0427 145.922 35.5553L149.755 61.8316C149.976 63.3442 151.381 64.3916 152.893 64.1709L221.554 54.1544C223.067 53.9337 224.114 52.5286 223.893 51.016L220.06 24.7397C219.839 23.227 218.434 22.1797 216.922 22.4003Z" fill="#F1F6E2"/>
<path d="M102.305 81.4627L92.7155 109.794C92.2254 111.242 93.0019 112.813 94.4499 113.303L126.39 124.114C127.838 124.605 129.409 123.828 129.899 122.38L139.489 94.0486C139.979 92.6006 139.202 91.0295 137.754 90.5394L105.814 79.7284C104.366 79.2382 102.795 80.0147 102.305 81.4627Z" fill="#F1F6E2"/>
</svg>
