<svg width="49" height="47" viewBox="0 0 49 47" fill="none" xmlns="http://www.w3.org/2000/svg">
<rect x="0.103516" width="48.4762" height="46.875" rx="23.4375" fill="#E9E3F8"/>
<path d="M32.0202 18.9583H30.7404V16.3988C30.7404 12.8667 27.8738 10 24.3416 10C20.8095 10 17.9428 12.8667 17.9428 16.3988V18.9583H16.663C15.2553 18.9583 14.1035 20.1101 14.1035 21.5179V34.3155C14.1035 35.7232 15.2553 36.875 16.663 36.875H32.0202C33.4279 36.875 34.5797 35.7232 34.5797 34.3155V21.5179C34.5797 20.1101 33.4279 18.9583 32.0202 18.9583ZM24.3416 30.4762C22.9339 30.4762 21.7821 29.3244 21.7821 27.9167C21.7821 26.5089 22.9339 25.3571 24.3416 25.3571C25.7493 25.3571 26.9011 26.5089 26.9011 27.9167C26.9011 29.3244 25.7493 30.4762 24.3416 30.4762ZM20.5023 18.9583V16.3988C20.5023 14.2744 22.2172 12.5595 24.3416 12.5595C26.466 12.5595 28.1809 14.2744 28.1809 16.3988V18.9583H20.5023Z" fill="#F7F5FC"/>
</svg>
