<svg width="100" height="100" viewBox="0 0 100 100" fill="none" xmlns="http://www.w3.org/2000/svg">
<path d="M41.8325 67.8694V65.635C41.8325 58.5036 42.3882 54.0002 43.5111 52.1479C44.6225 50.284 47.5746 47.5866 52.3559 44.0672C54.8681 42.2265 56.6046 40.5131 57.5887 38.9271C58.5727 37.341 59.0589 35.373 59.0589 33.0228C59.0589 30.1286 58.1328 27.8364 56.2921 26.1693C54.4513 24.5022 52.217 23.6687 49.589 23.6687C42.6544 23.6687 38.753 28.5657 37.8848 38.3714L21.7812 36.0791C22.9968 27.2112 26.2384 20.5082 31.5059 15.9585C36.7849 11.4087 43.2217 9.13965 50.8278 9.13965C58.4338 9.13965 65.0905 11.374 70.3464 15.8427C75.6024 20.3114 78.2188 25.9725 78.2188 32.8376C78.2188 41.3466 73.8427 48.4549 65.1137 54.1739C61.3164 56.6861 59.0126 58.6426 58.2022 60.055C57.4034 61.4673 56.9982 64.0721 56.9982 67.8694H41.8325ZM59.9388 90.8611H41.4736V73.1021H59.9388V90.8611Z" fill="#E9E3F8"/>
</svg>
