<svg width="50" height="50" viewBox="0 0 50 50" fill="none" xmlns="http://www.w3.org/2000/svg">
<rect width="50" height="50" rx="25" fill="#E9E3F8"/>
<path d="M25 26C23.9 26 23 26.9 23 28C23 29.1 23.9 30 25 30C26.1 30 27 29.1 27 28C27 26.9 26.1 26 25 26ZM31 21H30V19C30 16.24 27.76 14 25 14C22.72 14 20.73 15.54 20.16 17.75C20.02 18.29 20.34 18.83 20.88 18.97C21.0074 19.0031 21.14 19.0107 21.2704 18.9923C21.4007 18.974 21.5261 18.9302 21.6395 18.8633C21.7528 18.7964 21.8518 18.7078 21.9309 18.6025C22.0099 18.4973 22.0674 18.3775 22.1 18.25C22.2654 17.6065 22.6401 17.0362 23.1651 16.6289C23.6901 16.2216 24.3355 16.0004 25 16C26.65 16 28 17.35 28 19V21H19C17.9 21 17 21.9 17 23V33C17 34.1 17.9 35 19 35H31C32.1 35 33 34.1 33 33V23C33 21.9 32.1 21 31 21ZM31 32C31 32.55 30.55 33 30 33H20C19.45 33 19 32.55 19 32V24C19 23.45 19.45 23 20 23H30C30.55 23 31 23.45 31 24V32Z" fill="#A29CAF"/>
</svg>
