<svg width="16" height="16" viewBox="0 0 16 16" fill="none" xmlns="http://www.w3.org/2000/svg">
<g id="groupCuriousIcn">
<mask id="mask0_7520_2002" style="mask-type:alpha" maskUnits="userSpaceOnUse" x="0" y="0" width="16" height="16">
<rect id="Bounding box" width="16" height="16" rx="0.833333" fill="#D9D9D9"/>
</mask>
<g mask="url(#mask0_7520_2002)">
<path id="favorite" d="M8.55694 13.6179C8.24038 13.9017 7.76092 13.9017 7.44436 13.6179L7.03398 13.25C5.91176 12.2389 4.98398 11.3666 4.25065 10.6333C3.51732 9.89997 2.93398 9.24163 2.50065 8.6583C2.06732 8.07497 1.76454 7.53886 1.59232 7.04997C1.4201 6.56108 1.33398 6.06108 1.33398 5.54997C1.33398 4.50552 1.68398 3.6333 2.38398 2.9333C3.08398 2.2333 3.95621 1.8833 5.00065 1.8833C5.57843 1.8833 6.12843 2.00552 6.65065 2.24997C6.87454 2.35476 7.08515 2.47794 7.28249 2.6195C7.7 2.919 8.30131 2.919 8.71882 2.6195C8.91615 2.47794 9.12677 2.35477 9.35065 2.24997C9.87287 2.00552 10.4229 1.8833 11.0007 1.8833C12.0451 1.8833 12.9173 2.2333 13.6173 2.9333C14.3173 3.6333 14.6673 4.50552 14.6673 5.54997C14.6673 6.06108 14.5812 6.56108 14.409 7.04997C14.2368 7.53886 13.934 8.07497 13.5007 8.6583C13.0673 9.24163 12.484 9.89997 11.7507 10.6333C11.0173 11.3666 10.0895 12.2389 8.96732 13.25L8.55694 13.6179Z" fill="#BCBCBC"/>
</g>
</g>
</svg>
