<svg width="24" height="24" viewBox="0 0 24 24" fill="none" xmlns="http://www.w3.org/2000/svg">
<mask id="mask0_708_83786" style="mask-type:alpha" maskUnits="userSpaceOnUse" x="0" y="0" width="24" height="24">
<rect width="24" height="24" fill="#D9D9D9"/>
</mask>
<g mask="url(#mask0_708_83786)">
<path d="M12 2C12.8333 2 13.5417 2.29167 14.125 2.875C14.7083 3.45833 15 4.16667 15 5C15 5.83333 14.7083 6.54167 14.125 7.125C13.5417 7.70833 12.8333 8 12 8C11.1667 8 10.4583 7.70833 9.875 7.125C9.29167 6.54167 9 5.83333 9 5C9 4.16667 9.29167 3.45833 9.875 2.875C10.4583 2.29167 11.1667 2 12 2ZM12 9C12.7833 9 13.5583 9.09167 14.325 9.275C15.0917 9.45833 15.7833 9.71667 16.4 10.05C17.0333 10.3667 17.5417 10.7417 17.925 11.175C18.3083 11.6083 18.5 12.0833 18.5 12.6V18.4C18.5 18.6833 18.4333 18.9625 18.3 19.2375C18.1667 19.5125 17.9833 19.7667 17.75 20C17.5167 20.2333 17.2458 20.45 16.9375 20.65C16.6292 20.85 16.2833 21.0333 15.9 21.2V18.95C15.9 18.3167 15.4625 17.8 14.5875 17.4C13.7125 17 12.85 16.8 12 16.8C11.1667 16.8 10.3625 16.9708 9.5875 17.3125C8.8125 17.6542 8.33333 18.1 8.15 18.65C8.78333 18.9 9.43333 19.075 10.1 19.175C10.7667 19.275 11.45 19.3333 12.15 19.35H13V21.95C12.8833 21.9833 12.7625 22 12.6375 22H12.25C11.65 22 10.9625 21.9333 10.1875 21.8C9.4125 21.6667 8.675 21.4583 7.975 21.175C7.275 20.8917 6.6875 20.5208 6.2125 20.0625C5.7375 19.6042 5.5 19.05 5.5 18.4V12.6C5.5 12.0833 5.69167 11.6083 6.075 11.175C6.45833 10.7417 6.95833 10.3667 7.575 10.05C8.20833 9.71667 8.90833 9.45833 9.675 9.275C10.4417 9.09167 11.2167 9 12 9ZM12 15C12.55 15 13.0208 14.8042 13.4125 14.4125C13.8042 14.0208 14 13.55 14 13C14 12.45 13.8042 11.9792 13.4125 11.5875C13.0208 11.1958 12.55 11 12 11C11.45 11 10.9792 11.1958 10.5875 11.5875C10.1958 11.9792 10 12.45 10 13C10 13.55 10.1958 14.0208 10.5875 14.4125C10.9792 14.8042 11.45 15 12 15Z" fill="#505050"/>
</g>
</svg>
