<svg width="1366" height="371" viewBox="0 0 1366 371" fill="none" xmlns="http://www.w3.org/2000/svg">
<path d="M1366 0H0V371H1366V0Z" fill="#C5DB8F"/>
<path d="M777.441 163.85H588.551C581.923 163.85 576.551 169.222 576.551 175.85V323.77C576.551 330.397 581.923 335.77 588.551 335.77H777.441C784.068 335.77 789.441 330.397 789.441 323.77V175.85C789.441 169.222 784.068 163.85 777.441 163.85Z" fill="#F1F6E2"/>
<path d="M674.151 52.6204C679.021 48.1604 686.981 48.1604 691.851 52.6204L749.021 104.98C753.891 109.44 761.851 116.73 766.721 121.19L823.891 173.55C828.761 178.01 827.341 181.65 820.741 181.65H545.261C538.661 181.65 537.241 178 542.111 173.55L599.281 121.19C604.151 116.73 612.111 109.44 616.981 104.98L674.151 52.6204Z" fill="#F1F6E2"/>
<path d="M528.51 48.5605H472.29C455.798 48.5605 442.43 61.9271 442.43 78.4156C442.43 94.904 455.798 108.271 472.29 108.271H528.51C545.001 108.271 558.37 94.904 558.37 78.4156C558.37 61.9271 545.001 48.5605 528.51 48.5605Z" fill="#F1F6E2"/>
<path d="M515.04 108.27L522.15 119.93C523.47 122.1 526.76 121.57 527.34 119.1L531.21 102.67H515.04V108.27Z" fill="#F1F6E2"/>
<path d="M501.529 244.17H445.309C428.818 244.17 415.449 257.537 415.449 274.025C415.449 290.513 428.818 303.88 445.309 303.88H501.529C518.02 303.88 531.389 290.513 531.389 274.025C531.389 257.537 518.02 244.17 501.529 244.17Z" fill="#F1F6E2"/>
<path d="M488.059 303.889L495.169 315.549C496.489 317.719 499.779 317.189 500.359 314.719L504.229 298.289H488.059V303.889Z" fill="#F1F6E2"/>
<path d="M382.522 119.15H265.922C237.578 119.15 214.602 142.127 214.602 170.47C214.602 198.814 237.578 221.79 265.922 221.79H382.522C410.865 221.79 433.842 198.814 433.842 170.47C433.842 142.127 410.865 119.15 382.522 119.15Z" fill="#F1F6E2"/>
<path d="M363.751 221.79L375.261 241.83C377.401 245.56 382.711 244.66 383.651 240.41L389.911 212.17H363.751V221.79Z" fill="#F1F6E2"/>
<path d="M878.501 104.23L934.721 104.23C951.212 104.23 964.581 90.8639 964.581 74.3755C964.581 57.887 951.212 44.5205 934.721 44.5205H878.501C862.01 44.5205 848.641 57.887 848.641 74.3755C848.641 90.8639 862.01 104.23 878.501 104.23Z" fill="#F1F6E2"/>
<path d="M891.971 104.229L884.861 115.889C883.541 118.059 880.251 117.529 879.671 115.059L875.801 98.6289H891.971V104.229Z" fill="#F1F6E2"/>
<path d="M870.829 311.68H927.049C943.54 311.68 956.909 298.313 956.909 281.825C956.909 265.336 943.54 251.97 927.049 251.97H870.829C854.338 251.97 840.969 265.336 840.969 281.825C840.969 298.313 854.338 311.68 870.829 311.68Z" fill="#F1F6E2"/>
<path d="M884.299 311.678L877.189 323.338C875.869 325.508 872.579 324.978 871.999 322.508L868.129 306.078H884.299V311.678Z" fill="#F1F6E2"/>
<path d="M997.302 211.98L1089.45 211.98C1115.61 211.98 1136.81 190.777 1136.81 164.62C1136.81 138.464 1115.61 117.26 1089.45 117.26L997.302 117.26C971.145 117.26 949.941 138.464 949.941 164.62C949.941 190.777 971.145 211.98 997.302 211.98Z" fill="#F1F6E2"/>
<path d="M1019.78 211.97L1008.32 230.47C1006.19 233.91 1000.89 233.08 999.952 229.16L993.722 203.1H1019.78V211.98V211.97Z" fill="#F1F6E2"/>
</svg>
