<svg width="93" height="23" viewBox="0 0 93 23" fill="none" xmlns="http://www.w3.org/2000/svg">
<path d="M32.1917 18.7822C32.1917 16.8757 30.6424 15.3301 28.7313 15.3301C26.8202 15.3301 25.271 16.8757 25.271 18.7822C25.271 20.6888 26.8202 22.2344 28.7313 22.2344C30.6424 22.2344 32.1917 20.6888 32.1917 18.7822Z" fill="black"/>
<path d="M7.8637 2.35018V7.44725C7.8637 7.95456 7.45149 8.36579 6.94298 8.36579H1.83381C1.3253 8.36579 0.913086 8.77703 0.913086 9.28433V21.3161C0.913086 21.8235 1.3253 22.2347 1.83381 22.2347H24.3204C24.8289 22.2347 25.2411 21.8235 25.2411 21.3161V16.2191C25.2411 15.7118 25.6533 15.3005 26.1618 15.3005H31.271C31.7795 15.3005 32.1917 14.8893 32.1917 14.382V2.35018C32.1917 1.84287 31.7795 1.43164 31.271 1.43164H8.78442C8.27591 1.43164 7.8637 1.84287 7.8637 2.35018Z" fill="black"/>
<path d="M37.6489 1.13281H44.0452C44.215 1.13281 44.3652 1.24221 44.4162 1.40257L49.007 15.403C49.0566 15.5813 49.1032 15.7507 49.1467 15.9155L49.5597 15.911C49.6017 15.7477 49.6468 15.5798 49.6949 15.403L54.0828 1.40706C54.1339 1.24371 54.2841 1.13281 54.4554 1.13281H60.8172C61.0335 1.13281 61.2077 1.30665 61.2077 1.52246V21.3164C61.2077 21.5322 61.0335 21.7061 60.8172 21.7061H57.2375C57.0211 21.7061 56.8469 21.5322 56.8469 21.3164V8.48061C56.8469 8.47012 56.8469 7.9518 56.8469 7.9518H56.2795L52.1285 21.4288C52.0789 21.5937 51.9272 21.7061 51.7545 21.7061H46.967C46.7972 21.7061 46.647 21.5966 46.5959 21.4363L42.0592 8.05143H41.5861C41.5861 8.0919 41.5861 8.47012 41.5861 8.51058V21.3164C41.5861 21.5322 41.4119 21.7061 41.1955 21.7061H37.6489C37.4326 21.7061 37.2583 21.5322 37.2583 21.3164V1.52246C37.2583 1.30665 37.4326 1.13281 37.6489 1.13281Z" fill="black"/>
<path d="M64.8594 7.30343H68.3505C68.5668 7.30343 68.7411 7.47727 68.7411 7.69307V21.3141C68.7411 21.53 68.5668 21.7038 68.3505 21.7038H64.8594C64.6431 21.7038 64.4689 21.53 64.4689 21.3141V7.69307C64.4689 7.47727 64.6431 7.30343 64.8594 7.30343ZM64.1895 2.55576C64.1895 1.17402 65.1614 0.234375 66.605 0.234375C68.367 0.234375 69.4892 1.69554 68.8297 3.64976C68.666 4.13382 68.1177 4.63136 67.6235 4.76474C65.6376 5.29826 64.1895 4.27769 64.1895 2.55576Z" fill="black"/>
<path d="M72.309 1.13281H75.8001C76.0164 1.13281 76.1907 1.30665 76.1907 1.52246V21.3164C76.1907 21.5322 76.0164 21.7061 75.8001 21.7061H72.309C72.0927 21.7061 71.9185 21.5322 71.9185 21.3164V1.52246C71.9185 1.30665 72.0927 1.13281 72.309 1.13281Z" fill="black"/>
<path d="M78.3311 14.4747C78.3311 9.8604 81.3941 6.80469 85.7549 6.80469C90.1158 6.80469 92.9129 9.92035 92.9129 14.6815V15.1146C92.9129 15.3304 92.7386 15.5043 92.5223 15.5043H83.075C82.8467 15.5043 82.6619 15.6991 82.6859 15.9269C82.8797 17.7327 84.1446 19.0021 85.8421 19.0021C87.0934 19.0021 88.1434 18.3756 88.4589 17.2382C88.5069 17.0658 88.6587 16.9444 88.8374 16.9444H92.3751C92.6154 16.9444 92.8032 17.1617 92.7611 17.3985C92.2579 20.171 89.7012 22.2346 85.8421 22.2346C81.4827 22.2346 78.3296 19.4726 78.3296 14.4762L78.3311 14.4747ZM88.1314 12.7108C88.3687 12.7108 88.519 12.5279 88.519 12.2672C88.4454 10.8374 87.2395 9.8604 85.7249 9.8604C83.6199 9.8604 82.6551 11.2048 82.6551 12.2543C82.6551 12.4834 82.8452 12.7108 83.096 12.7108H88.1314Z" fill="black"/>
</svg>
