<svg width="98" height="22" viewBox="0 0 98 22" fill="none" xmlns="http://www.w3.org/2000/svg">
<g id="headerLogoSvg" clip-path="url(#clip0_2947_31182)">
<path id="Vector" d="M34.1594 18.3445C34.1594 16.6888 32.8172 15.3467 31.1616 15.3467C29.506 15.3467 28.1638 16.6888 28.1638 18.3445C28.1638 20.0001 29.506 21.3422 31.1616 21.3422C32.8172 21.3422 34.1594 20.0001 34.1594 18.3445Z" fill="black"/>
<path id="Vector_2" d="M6.85739 1.80572V6.84659C6.85739 7.3481 6.45064 7.75485 5.94913 7.75485H0.90826C0.406751 7.75485 0 8.1616 0 8.66311V20.5614C0 21.0629 0.406751 21.4696 0.90826 21.4696H26.522C27.0235 21.4696 27.4302 21.0629 27.4302 20.5614V15.5205C27.4302 15.019 27.837 14.6122 28.3385 14.6122H33.3794C33.8809 14.6122 34.2876 14.2055 34.2876 13.704V1.80572C34.2876 1.30421 33.8809 0.897461 33.3794 0.897461H7.7663C7.26479 0.897461 6.85804 1.30421 6.85804 1.80572H6.85739Z" fill="black"/>
<g id="Group">
<path id="Vector_3" d="M42.0842 0.897461H48.4652C48.6341 0.897461 48.7836 1.0064 48.8358 1.16691L53.245 14.7695C53.294 14.9474 53.3404 15.1176 53.3849 15.282C53.4887 15.6707 54.0392 15.6668 54.1391 15.2768C54.181 15.1144 54.2255 14.9455 54.2744 14.7695L58.4805 1.17207C58.5308 1.00898 58.6817 0.897461 58.8525 0.897461H65.2C65.4153 0.897461 65.5893 1.07215 65.5893 1.28681V21.0809C65.5893 21.2962 65.4147 21.4703 65.2 21.4703H61.6295C61.4142 21.4703 61.2401 21.2956 61.2401 21.0809V8.24476C61.2401 8.23445 61.2401 8.22413 61.2401 8.21382C61.2401 7.76452 60.6071 7.66912 60.4776 8.09972L56.5332 21.1931C56.4835 21.3575 56.3321 21.4703 56.1599 21.4703H51.384C51.2151 21.4703 51.0649 21.3613 51.0134 21.2002L46.775 8.03139C46.6384 7.60724 46.0131 7.70651 46.015 8.15258C46.015 8.19319 46.015 8.2338 46.015 8.27441V21.0809C46.015 21.2962 45.8403 21.4703 45.6257 21.4703H42.0842C41.8689 21.4703 41.6948 21.2956 41.6948 21.0809V1.28681C41.6948 1.07151 41.8695 0.897461 42.0842 0.897461Z" fill="black"/>
<path id="Vector_4" d="M69.2315 7.07012H72.7137C72.929 7.07012 73.103 7.24481 73.103 7.45946V21.0814C73.103 21.2967 72.9283 21.4708 72.7137 21.4708H69.2315C69.0162 21.4708 68.8421 21.2961 68.8421 21.0814V7.45946C68.8421 7.24416 69.0168 7.07012 69.2315 7.07012ZM68.563 2.3219C68.563 0.94049 69.5331 0 70.9732 0C72.7317 0 73.8507 1.46134 73.1919 3.41645C73.0289 3.90055 72.4816 4.39819 71.9885 4.53099C70.0076 5.06472 68.563 4.04366 68.563 2.3219Z" fill="black"/>
<path id="Vector_5" d="M76.6638 0.897461H80.146C80.3613 0.897461 80.5353 1.07215 80.5353 1.28681V21.0809C80.5353 21.2962 80.3606 21.4703 80.146 21.4703H76.6638C76.4485 21.4703 76.2744 21.2956 76.2744 21.0809V1.28681C76.2744 1.07151 76.4491 0.897461 76.6638 0.897461Z" fill="black"/>
<path id="Vector_6" d="M82.6721 14.2412C82.6721 9.62707 85.7289 6.57031 90.0787 6.57031C94.4286 6.57031 97.2204 9.68573 97.2204 14.4468V14.88C97.2204 15.0953 97.0457 15.2694 96.831 15.2694H87.4068C87.1786 15.2694 86.9942 15.4647 87.0187 15.6916C87.2128 17.4978 88.4743 18.767 90.1677 18.767C91.4157 18.767 92.4638 18.1411 92.779 17.004C92.8267 16.8326 92.9775 16.7101 93.1561 16.7101H96.6854C96.9258 16.7101 97.1134 16.9267 97.0702 17.1632C96.5687 19.9357 94.0167 21.9998 90.1677 21.9998C85.8178 21.9998 82.6734 19.237 82.6734 14.2406L82.6721 14.2412ZM92.4496 12.4775C92.6862 12.4775 92.8692 12.268 92.8364 12.0334C92.632 10.5766 91.5478 9.62642 90.0491 9.62642C88.5503 9.62642 87.3836 10.6043 87.0458 12.0012C86.9872 12.2442 87.176 12.4775 87.4261 12.4775H92.4496Z" fill="black"/>
</g>
</g>
<defs>
<clipPath id="clip0_2947_31182">
<rect width="97.2205" height="22" fill="white"/>
</clipPath>
</defs>
</svg>
