<svg width="25" height="24" viewBox="0 0 25 24" fill="none" xmlns="http://www.w3.org/2000/svg">
<path d="M6.08644 5.37288C6.72091 5.88829 6.95905 5.84916 8.15145 5.76922L19.3908 5.09477C19.6289 5.09477 19.4308 4.85663 19.3517 4.81751L17.484 3.46776C17.1268 3.1905 16.6496 2.87241 15.7362 2.95151L4.85406 3.74588C4.45773 3.785 4.37778 3.98402 4.53598 4.14221L6.08644 5.37288ZM6.76088 7.99242V19.8178C6.76088 20.4531 7.07812 20.6912 7.79339 20.6513L20.1452 19.9368C20.8605 19.8977 20.9404 19.4606 20.9404 18.9443V7.19806C20.9404 6.68265 20.7423 6.40454 20.3042 6.44366L7.39621 7.19806C6.91993 7.23803 6.76088 7.47702 6.76088 7.99242ZM18.9545 8.62604C19.0336 8.98325 18.9545 9.34046 18.5973 9.38129L18.0019 9.50036V18.2299C17.4848 18.508 17.0086 18.667 16.6114 18.667C15.9752 18.667 15.8162 18.468 15.3399 17.8735L11.4471 11.7618V17.6745L12.6787 17.9535C12.6787 17.9535 12.6787 18.6679 11.6853 18.6679L8.94497 18.8261C8.86587 18.6679 8.94497 18.2707 9.22308 18.1916L9.9375 17.9935V10.1748L8.94667 10.0949C8.86672 9.73765 9.06574 9.22225 9.62112 9.18227L12.5604 8.98411L16.6122 15.1749V9.69768L15.5789 9.57946C15.4998 9.1423 15.817 8.82506 16.2142 8.78594L18.9545 8.62604ZM3.94063 2.67425L15.2608 1.84076C16.6505 1.72169 17.0086 1.80078 17.882 2.43611L21.4958 4.9757C22.0911 5.41201 22.2902 5.53108 22.2902 6.00736V19.9368C22.2902 20.8095 21.9729 21.3266 20.8613 21.4048L7.7143 22.1992C6.88081 22.2391 6.48277 22.1201 6.04561 21.5639L3.3844 18.1108C2.90812 17.4755 2.70995 17.0001 2.70995 16.4438V4.06226C2.70995 3.34869 3.02804 2.75249 3.94063 2.67425Z" fill="#A29CAF"/>
</svg>
