<svg width="25" height="24" viewBox="0 0 25 24" fill="none" xmlns="http://www.w3.org/2000/svg">
<path d="M9.665 21.45C9.098 21.45 8.72 21.072 8.72 20.505V17.67H4.94C3.9005 17.67 3.05 16.8195 3.05 15.78V4.44005C3.05 3.40055 3.9005 2.55005 4.94 2.55005H20.06C21.0995 2.55005 21.95 3.40055 21.95 4.44005V15.78C21.95 16.8195 21.0995 17.67 20.06 17.67H14.2955L10.799 21.1665C10.61 21.3555 10.421 21.45 10.1375 21.45H9.665ZM10.61 15.78V18.7095L13.5395 15.78H20.06V4.44005H4.94V15.78H10.61ZM16.5635 6.33005L15.2405 9.16505H17.225V12.945H13.445V8.97605L14.6735 6.33005H16.5635ZM10.8935 6.33005L9.5705 9.16505H11.555V12.945H7.775V8.97605L9.0035 6.33005H10.8935Z" fill="#A29CAF"/>
</svg>
