<svg width="300" height="45" viewBox="0 0 300 45" fill="none" xmlns="http://www.w3.org/2000/svg">
<g clip-path="url(#clip0_644_39024)">
<path fill-rule="evenodd" clip-rule="evenodd" d="M6 0H294C297.314 0 299.1 2.686 299.1 6V38.1C299.1 42.314 297.314 45 294 45H6C2.686 45 0 42.314 0 38.1V6C0 2.686 2.686 0 6 0Z" fill="#FEE500"/>
<path opacity="0.902" fill-rule="evenodd" clip-rule="evenodd" d="M24 13.9766C19.029 13.9766 15 17.1066 15 20.9656C15 23.3656 16.558 25.4826 18.932 26.7406L17.933 30.4076C17.845 30.7316 18.213 30.9896 18.496 30.8016L22.873 27.8976C23.243 27.9336 23.618 27.9546 24 27.9546C28.97 27.9546 32.1 24.8256 32.1 20.9656C32.1 17.1066 28.97 13.9766 24 13.9766Z" fill="black"/>
<path d="M125.51 17.2387H126.725C126.725 21.1537 125.405 24.7537 120.545 27.1687L119.87 26.2087C124.16 24.0937 125.51 21.0637 125.51 17.3737V17.2387ZM120.605 17.2387H126.245V18.2437H120.605V17.2387ZM125.315 20.5987V21.5587L120.125 22.0687L119.93 20.9587L125.315 20.5987ZM128.915 15.8137H130.175V29.3888H128.915V15.8137ZM129.83 21.3187H132.335V22.3537H129.83V21.3187ZM139.309 17.2387H140.524C140.524 21.1537 139.204 24.7537 134.344 27.1687L133.669 26.2087C137.959 24.0937 139.309 21.0637 139.309 17.3737V17.2387ZM134.404 17.2387H140.044V18.2437H134.404V17.2387ZM139.114 20.5987V21.5587L133.924 22.0687L133.729 20.9587L139.114 20.5987ZM142.714 15.8137H143.974V29.3888H142.714V15.8137ZM143.629 21.3187H146.134V22.3537H143.629V21.3187ZM152.838 23.4937H154.083V26.8687H152.838V23.4937ZM153.468 16.7137C156.333 16.7137 158.388 18.1087 158.388 20.2687C158.388 22.4287 156.333 23.8237 153.468 23.8237C150.603 23.8237 148.533 22.4287 148.533 20.2687C148.533 18.1087 150.603 16.7137 153.468 16.7137ZM153.468 17.7037C151.308 17.7037 149.733 18.7237 149.733 20.2687C149.733 21.8137 151.308 22.8337 153.468 22.8337C155.613 22.8337 157.188 21.8137 157.188 20.2687C157.188 18.7237 155.613 17.7037 153.468 17.7037ZM147.348 26.6287H159.633V27.6637H147.348V26.6287ZM165.365 26.6887H177.65V27.7238H165.365V26.6887ZM170.855 23.7787H172.1V27.1237H170.855V23.7787ZM166.85 16.8337H176.135V20.9437H168.125V23.6587H166.895V19.9387H174.905V17.8387H166.85V16.8337ZM166.895 23.1337H176.45V24.1537H166.895V23.1337ZM180.484 17.2687H189.214V18.2737H180.484V17.2687ZM179.164 26.3737H191.419V27.4087H179.164V26.3737ZM188.554 17.2687H189.769V18.6187C189.769 20.3587 189.769 22.2937 189.259 25.2187L188.014 25.0987C188.554 22.3237 188.554 20.2988 188.554 18.6187V17.2687ZM202.818 15.8437H204.078V25.7437H202.818V15.8437ZM195.363 28.0687H204.483V29.0888H195.363V28.0687ZM195.363 24.7237H196.593V28.4138H195.363V24.7237ZM196.803 16.7737C198.828 16.7737 200.328 18.1537 200.328 20.1187C200.328 22.0687 198.828 23.4637 196.803 23.4637C194.778 23.4637 193.263 22.0687 193.263 20.1187C193.263 18.1537 194.778 16.7737 196.803 16.7737ZM196.803 17.8537C195.483 17.8537 194.478 18.7837 194.478 20.1187C194.478 21.4387 195.483 22.3687 196.803 22.3687C198.123 22.3687 199.128 21.4387 199.128 20.1187C199.128 18.7837 198.123 17.8537 196.803 17.8537Z" fill="#191919"/>
</g>
<defs>
<clipPath id="clip0_644_39024">
<rect width="300" height="45" fill="white"/>
</clipPath>
</defs>
</svg>
