<svg width="22" height="20" viewBox="0 0 22 20" fill="none" xmlns="http://www.w3.org/2000/svg">
<path id="Vector" d="M9.98585 15.6945C10.0907 15.799 10.1739 15.9232 10.2307 16.06C10.2875 16.1967 10.3167 16.3433 10.3167 16.4914C10.3167 16.6394 10.2875 16.7861 10.2307 16.9228C10.1739 17.0595 10.0907 17.1837 9.98585 17.2883L9.50585 17.7683C8.99631 18.2797 8.39045 18.685 7.72328 18.9608C7.05612 19.2366 6.3409 19.3775 5.61897 19.3751C4.53178 19.3755 3.46892 19.0534 2.56484 18.4495C1.66077 17.8457 0.956109 16.9872 0.540013 15.9828C0.123917 14.9784 0.015082 13.8732 0.227278 12.8069C0.439474 11.7406 0.963165 10.7612 1.7321 9.99263L4.98991 6.73482C5.68285 6.04198 6.54838 5.54695 7.49689 5.30096C8.44541 5.05498 9.44243 5.06698 10.3847 5.33574C11.3271 5.60449 12.1804 6.12023 12.8565 6.82955C13.5325 7.53887 14.0067 8.416 14.2299 9.37013C14.2669 9.5152 14.2745 9.66619 14.2524 9.81425C14.2303 9.96232 14.1788 10.1045 14.101 10.2324C14.0232 10.3603 13.9207 10.4714 13.7994 10.5592C13.6782 10.647 13.5406 10.7097 13.3948 10.7436C13.249 10.7776 13.0979 10.7821 12.9503 10.7569C12.8027 10.7317 12.6617 10.6772 12.5354 10.5968C12.4091 10.5164 12.3002 10.4116 12.2149 10.2885C12.1297 10.1655 12.0699 10.0266 12.039 9.88013C11.9065 9.31691 11.626 8.79928 11.2265 8.38077C10.827 7.96225 10.323 7.65803 9.76652 7.49956C9.21006 7.34109 8.62137 7.33412 8.06131 7.47937C7.50126 7.62462 6.99016 7.91682 6.58085 8.32575L3.32304 11.5836C2.86892 12.0373 2.55956 12.6155 2.43408 13.2451C2.30861 13.8747 2.37265 14.5273 2.6181 15.1205C2.86356 15.7137 3.27942 16.2207 3.81307 16.5776C4.34672 16.9344 4.9742 17.1249 5.61616 17.1251C6.04271 17.1264 6.46526 17.043 6.85937 16.8798C7.25347 16.7167 7.61128 16.4769 7.9121 16.1745L8.39116 15.6945C8.49569 15.5895 8.61995 15.5061 8.75678 15.4493C8.89361 15.3924 9.04033 15.3631 9.18851 15.3631C9.33668 15.3631 9.4834 15.3924 9.62023 15.4493C9.75706 15.5061 9.88132 15.5895 9.98585 15.6945ZM20.2655 2.23482C19.2344 1.20405 17.8362 0.625 16.3782 0.625C14.9202 0.625 13.522 1.20405 12.4908 2.23482L12.0118 2.71388C11.8004 2.92522 11.6817 3.21187 11.6817 3.51075C11.6817 3.80964 11.8004 4.09628 12.0118 4.30763C12.2231 4.51897 12.5098 4.6377 12.8087 4.6377C13.1075 4.6377 13.3942 4.51897 13.6055 4.30763L14.0855 3.82763C14.6947 3.21846 15.5209 2.87623 16.3824 2.87623C17.2439 2.87623 18.0701 3.21846 18.6793 3.82763C19.2885 4.4368 19.6307 5.26301 19.6307 6.1245C19.6307 6.986 19.2885 7.81221 18.6793 8.42138L15.4158 11.6745C15.115 11.9769 14.7572 12.2167 14.3631 12.3798C13.969 12.543 13.5465 12.6264 13.1199 12.6251C12.3882 12.6246 11.6781 12.3769 11.1048 11.9222C10.5315 11.4675 10.1286 10.8325 9.96147 10.1201C9.89384 9.82947 9.71352 9.57758 9.46017 9.41987C9.20682 9.26217 8.9012 9.21156 8.61054 9.27919C8.31988 9.34682 8.06799 9.52715 7.91028 9.78049C7.75257 10.0338 7.70197 10.3395 7.7696 10.6301C8.05189 11.8366 8.73345 12.9123 9.70375 13.6828C10.6741 14.4533 11.8762 14.8735 13.1152 14.8751H13.1199C13.8422 14.8771 14.5577 14.7359 15.225 14.4596C15.8923 14.1833 16.4982 13.7774 17.0077 13.2654L20.2655 10.0076C20.776 9.4973 21.1809 8.89141 21.4571 8.22458C21.7334 7.55774 21.8756 6.84302 21.8756 6.12122C21.8756 5.39943 21.7334 4.6847 21.4571 4.01787C21.1809 3.35103 20.776 2.74515 20.2655 2.23482Z" fill="#6139D1"/>
</svg>
