<?xml version="1.0" encoding="utf-8"?>
<!-- Generator: Adobe Illustrator 28.0.0, SVG Export Plug-In . SVG Version: 6.00 Build 0)  -->
<svg version="1.1" id="레이어_1" xmlns="http://www.w3.org/2000/svg" xmlns:xlink="http://www.w3.org/1999/xlink" x="0px"
	 y="0px" viewBox="0 0 84 84" style="enable-background:new 0 0 84 84;" xml:space="preserve">
<style type="text/css">
	.st0{fill:#6139D1;}
	.st1{fill:#E9E3F8;}
	.st2{fill:#F0EAFF;}
	.st3{fill:#D9CEF6;}
	.st4{fill:#A596E0;}
</style>
<g>
	<g>
		<path class="st0" d="M42.01,83.5c-22.88,0-41.49-18.61-41.49-41.49S19.13,0.51,42.01,0.51S83.5,19.13,83.5,42.01
			S64.89,83.5,42.01,83.5z M42.01,12.68c-16.17,0-29.33,13.16-29.33,29.33c0,16.17,13.16,29.33,29.33,29.33s29.33-13.16,29.33-29.33
			C71.34,25.83,58.18,12.68,42.01,12.68z"/>
	</g>
	<g>
		<path class="st1" d="M42.01,83.5c-22.88,0-41.49-18.61-41.49-41.49S19.13,0.51,42.01,0.51S83.5,19.13,83.5,42.01
			S64.89,83.5,42.01,83.5z M42.01,12.68c-16.17,0-29.33,13.16-29.33,29.33c0,16.17,13.16,29.33,29.33,29.33s29.33-13.16,29.33-29.33
			C71.34,25.83,58.18,12.68,42.01,12.68z"/>
	</g>
	<g>
		<path class="st2" d="M42.01,83.5c-22.88,0-41.49-18.61-41.49-41.49S19.13,0.51,42.01,0.51S83.5,19.13,83.5,42.01
			S64.89,83.5,42.01,83.5z M42.01,12.68c-16.17,0-29.33,13.16-29.33,29.33c0,16.17,13.16,29.33,29.33,29.33s29.33-13.16,29.33-29.33
			C71.34,25.83,58.18,12.68,42.01,12.68z"/>
	</g>
	<g>
		<path class="st3" d="M42.01,83.5C42.01,83.5,42,83.5,42.01,83.5c-14.78-0.01-28.55-7.97-35.93-20.75
			c-5.54-9.6-7.01-20.78-4.14-31.48s9.73-19.65,19.33-25.19c9.6-5.54,20.78-7.01,31.48-4.15C63.45,4.8,72.4,11.66,77.94,21.26
			c1.68,2.91,0.68,6.63-2.23,8.31c-2.91,1.68-6.63,0.68-8.31-2.23C63.49,20.56,57.17,15.7,49.6,13.68
			c-7.57-2.03-15.47-0.99-22.26,2.93c-6.78,3.92-11.64,10.24-13.67,17.81c-2.03,7.57-0.99,15.47,2.93,22.26
			c5.22,9.04,14.95,14.66,25.4,14.67c3.36,0,6.08,2.73,6.08,6.09C48.09,80.78,45.36,83.5,42.01,83.5z"/>
	</g>
	<g>
		<path class="st4" d="M72.7,30.41c-2.11,0-4.15-1.1-5.28-3.05c-2.56-4.45-6.28-8.17-10.75-10.75c-6.78-3.92-14.69-4.96-22.26-2.93
			c-7.57,2.03-13.89,6.88-17.81,13.67c-1.68,2.91-5.4,3.9-8.31,2.23c-2.91-1.68-3.91-5.4-2.23-8.31
			c5.54-9.6,14.49-16.46,25.19-19.33s21.89-1.4,31.48,4.15c6.33,3.65,11.59,8.92,15.22,15.23c1.67,2.91,0.67,6.63-2.24,8.3
			C74.77,30.15,73.73,30.41,72.7,30.41z"/>
	</g>
</g>
</svg>
