<svg width="405" height="181" viewBox="0 0 405 181" fill="none" xmlns="http://www.w3.org/2000/svg">
<path d="M200.192 64.0234H115.941C109.567 64.0234 104.4 69.1906 104.4 75.5647V159.816C104.4 166.19 109.567 171.357 115.941 171.357H200.192C206.566 171.357 211.733 166.19 211.733 159.816V75.5647C211.733 69.1906 206.566 64.0234 200.192 64.0234Z" fill="#F3EEFF"/>
<path d="M181.171 110.129H134.949C134.949 110.129 127.92 110.371 127.92 117.4V134.435C127.92 137.297 128.555 140.136 129.813 142.71C132.456 148.088 138.272 155.924 149.721 155.924H166.375C177.824 155.924 183.641 148.088 186.284 142.71C187.553 140.136 188.177 137.297 188.177 134.435V117.4C188.177 110.371 181.148 110.129 181.148 110.129H181.171Z" fill="#D1C2F7"/>
<path d="M178.391 99.0847H178.368C177.999 88.1783 169.055 79.4531 158.067 79.4531C147.08 79.4531 138.124 88.1783 137.766 99.0847H137.743V113.257H146.468V99.7657C146.468 93.3603 151.662 88.1667 158.067 88.1667C164.473 88.1667 169.666 93.3603 169.666 99.7657V113.246H178.391V99.0732V99.0847Z" fill="#D1C2F7"/>
<path d="M289.059 10.3594H204.808C198.434 10.3594 193.267 15.5266 193.267 21.9006V106.151C193.267 112.526 198.434 117.693 204.808 117.693H289.059C295.433 117.693 300.6 112.526 300.6 106.151V21.9006C300.6 15.5266 295.433 10.3594 289.059 10.3594Z" fill="#EFE8FF"/>
<path d="M268.101 46.0203H268.09C267.732 35.4716 259.076 27.0234 248.447 27.0234C237.817 27.0234 229.461 35.1715 228.826 45.4432C228.803 45.6279 228.78 45.8241 228.78 46.0087C228.78 46.0895 228.78 46.1588 228.78 46.228C228.78 46.3781 228.78 46.5281 228.78 46.6781H228.838C229.161 48.6863 230.892 50.2328 233.004 50.2328C235.116 50.2328 236.848 48.6978 237.171 46.6781H237.228C237.228 40.4805 242.249 35.4601 248.447 35.4601C254.644 35.4601 259.665 40.4805 259.665 46.6781V59.7197H268.101V46.0087V46.0203Z" fill="#D1C2F7"/>
<path d="M270.791 56.707H226.08C226.08 56.707 219.283 56.9379 219.283 63.7356V80.2165C219.283 82.9864 219.894 85.7332 221.118 88.2261C223.68 93.4312 229.3 101.014 240.38 101.014H256.491C267.571 101.014 273.192 93.4312 275.754 88.2261C276.977 85.7332 277.589 82.9979 277.589 80.2165V63.7356C277.589 56.9379 270.791 56.707 270.791 56.707Z" fill="#D1C2F7"/>
</svg>
