<svg width="296" height="372" viewBox="0 0 296 372" fill="none" xmlns="http://www.w3.org/2000/svg">
<g clip-path="url(#clip0_1788_36625)">
<rect width="296" height="372" rx="8" fill="#E6F2CA"/>
<path d="M40.6367 30.9121V37.2422H39.3242V30.9121H40.6367ZM30.6562 35.834C31.1211 35.834 31.627 35.8271 32.1465 35.8203V32.7441H30.9844V31.7188H37.6426V32.7441H36.4668V35.6426C37.0615 35.6016 37.6494 35.5469 38.2031 35.4785L38.2578 36.4219C35.8105 36.791 32.96 36.8799 30.8066 36.873L30.6562 35.834ZM32.502 38.8281V37.8027H40.6367V40.8379H33.8145V42H41.0605V43.0391H32.543V39.8945H39.3516V38.8281H32.502ZM33.3906 35.793C33.9922 35.7725 34.6074 35.752 35.2227 35.7178V32.7441H33.3906V35.793ZM52.7637 30.9121V38.1445H51.4648V36.3262H48.7988V37.3242H43.1113V31.8281H48.7988V32.8398H51.4648V30.9121H52.7637ZM44.3965 36.2852H47.5273V32.8672H44.3965V36.2852ZM44.5195 40.8242C44.5127 39.3408 46.085 38.4795 48.6621 38.4863C51.2256 38.4795 52.7979 39.3408 52.8047 40.8242C52.7979 42.3008 51.2256 43.1416 48.6621 43.1348C46.085 43.1416 44.5127 42.3008 44.5195 40.8242ZM45.8047 40.8242C45.7979 41.6445 46.8643 42.1299 48.6621 42.1367C50.4463 42.1299 51.5127 41.6445 51.5195 40.8242C51.5127 39.9629 50.4463 39.4912 48.6621 39.4844C46.8643 39.4912 45.7979 39.9629 45.8047 40.8242ZM48.7988 35.2734H51.4648V33.8789H48.7988V35.2734ZM61.4727 32.2246V32.9766C61.4658 34.0088 61.4658 35.5879 61.1172 37.7754L59.832 37.6797C60.1465 35.7246 60.1807 34.2959 60.1875 33.2773H55.2109V32.2246H61.4727ZM54.5273 39.4707C55.293 39.4639 56.1475 39.457 57.043 39.4365V35.7246H58.3281V39.3955C59.627 39.3408 60.96 39.2588 62.1836 39.1016L62.252 40.0723C59.7021 40.4824 56.8516 40.5371 54.6777 40.5234L54.5273 39.4707ZM62.8809 43.1621V30.9121H64.1934V35.9707H66.0664V37.0781H64.1934V43.1621H62.8809ZM74.4473 33.1133C74.4404 34.6787 75.5273 36.1621 77.4004 36.791L76.7441 37.8027C75.3564 37.3242 74.3379 36.3672 73.8047 35.1641C73.2715 36.4834 72.2051 37.5293 70.7695 38.0352L70.0723 37.0234C71.9863 36.374 73.1416 34.7881 73.1484 33.0996V32.7715H70.4551V31.7188H77.0859V32.7715H74.4473V33.1133ZM71.6992 39.9492V38.8965H79.793V43.1621H78.4941V39.9492H71.6992ZM78.4941 38.2949V30.9121H79.793V34.0566H81.5703V35.1504H79.793V38.2949H78.4941ZM86.5332 34.5215C86.5264 36.4561 87.8047 38.6162 89.6641 39.498L88.9258 40.5098C87.5518 39.8535 86.458 38.4727 85.9043 36.873C85.3438 38.6162 84.1953 40.127 82.8008 40.8242L82.0352 39.7988C83.8945 38.9033 85.2412 36.5928 85.248 34.5215V33.2227H82.4863V32.1426H89.1992V33.2227H86.5332V34.5215ZM90.5117 43.1621V30.9121H91.8105V35.7656H93.7793V36.8594H91.8105V43.1621H90.5117ZM100.793 32.0879V40.1406H95.0508V32.0879H100.793ZM96.3359 39.0879H99.5352V33.1133H96.3359V39.0879ZM103.213 43.1895V30.9121H104.512V43.1895H103.213ZM110.691 32.8672C110.685 34.4736 111.819 35.9707 113.645 36.5723L112.947 37.5977C111.607 37.126 110.603 36.1689 110.069 34.959C109.536 36.333 108.497 37.4131 107.068 37.9395L106.371 36.9004C108.285 36.2236 109.393 34.5898 109.406 32.7578V31.5547H110.691V32.8672ZM108.025 40.8652C108.025 39.4297 109.591 38.5889 112.141 38.5957C114.656 38.5889 116.201 39.4297 116.201 40.8652C116.201 42.3145 114.656 43.1416 112.141 43.1348C109.591 43.1416 108.025 42.3145 108.025 40.8652ZM109.324 40.8652C109.317 41.6719 110.37 42.1094 112.141 42.123C113.897 42.1094 114.937 41.6719 114.93 40.8652C114.937 40.0859 113.897 39.6211 112.141 39.6211C110.37 39.6211 109.317 40.0859 109.324 40.8652ZM114.793 38.3086V30.9121H116.092V33.9883H117.869V35.082H116.092V38.3086H114.793Z" fill="#474747"/>
<path d="M50.2031 69.0156V71.6641H41.9766V78.25H38.625V71.6641H30.5391V69.0156H50.2031ZM32.7656 67.1172V57.5547H36.0938V59.875H44.5547V57.5547H47.9297V67.1172H32.7656ZM36.0938 64.4219H44.5547V62.5H36.0938V64.4219ZM68.4375 56.7344V61.4453H71.2266V64.2109H68.4375V68.7578H65.0625V56.7344H68.4375ZM52.0781 68.125V58.0469H61.6875V60.7188H55.4531V65.4297C59.2031 65.4062 61.2422 65.2539 63.4922 64.7969L63.8438 67.4453C61.2305 68.043 58.7812 68.125 53.9297 68.125H52.0781ZM54.2344 77.9922V69.6016H68.4375V77.9922H54.2344ZM57.5625 75.3672H65.1094V72.2734H57.5625V75.3672ZM77.5078 69.3203V71.2656H79.2891V69.3203H82.4062V75.5078C84.668 74.4531 85.5469 72.5781 85.5469 70.7266V69.1094H88.9453V70.7266C88.9336 72.8945 89.8828 74.875 92.5781 75.6953L90.8438 78.2031C89.0273 77.6055 87.8672 76.4805 87.1875 75.0156C86.4727 76.4219 85.3242 77.5703 83.6484 78.2031L82.4062 76.3281V78.0156H74.3906V69.3203H77.5078ZM72.3047 62.5938C72.2812 59.6406 74.7539 57.5078 78.0703 57.5078C80.7539 57.5078 82.9336 58.9961 83.5898 61.2109H86.9062V56.7344H90.2578V68.125H86.9062V63.9531H83.6016C82.9688 66.2383 80.7773 67.7383 78.0703 67.75C74.7539 67.7383 72.2812 65.6172 72.3047 62.5938ZM75.4922 62.5938C75.4922 64.1055 76.5586 64.9844 78.0703 64.9844C79.5352 64.9844 80.5781 64.1055 80.5781 62.5938C80.5781 61.1289 79.5352 60.2852 78.0703 60.2734C76.5586 60.2852 75.4922 61.1289 75.4922 62.5938ZM77.5078 75.4844H79.2891V73.7266H77.5078V75.4844ZM110.859 56.7344V78.2969H107.461V56.7344H110.859ZM93.3516 65.8984C93.3516 61.1875 95.8008 58.1992 99.1172 58.2109C102.387 58.1992 104.824 61.1875 104.836 65.8984C104.824 70.6797 102.387 73.6562 99.1172 73.6562C95.8008 73.6562 93.3516 70.6797 93.3516 65.8984ZM96.6328 65.8984C96.6094 69.0273 97.6055 70.5859 99.1172 70.5859C100.582 70.5859 101.566 69.0273 101.578 65.8984C101.566 62.8281 100.582 61.2461 99.1172 61.2578C97.6055 61.2461 96.6094 62.8281 96.6328 65.8984ZM136.312 57.6016V59.1016C136.324 60.4492 136.324 62.125 135.926 64.2109H138.562V66.8359H118.898V64.2109H132.504C132.82 62.6406 132.902 61.3633 132.926 60.25H121.266V57.6016H136.312ZM121.078 70.7266V68.1484H136.172V74.3359H124.453V75.5312H136.758V78.1094H121.102V71.8516H132.844V70.7266H121.078ZM149.438 57.0156C154.441 57.0273 157.324 58.3164 157.336 60.6719C157.324 63.0625 154.441 64.3398 149.438 64.3516C144.422 64.3398 141.527 63.0625 141.539 60.6719C141.527 58.3164 144.422 57.0273 149.438 57.0156ZM139.641 67.8906V65.2188H159.258V67.8906H139.641ZM141.867 78.1328V72.2734H153.562V71.3594H141.867V68.9219H156.914V74.6172H145.195V75.6016H157.43V78.1328H141.867ZM145.078 60.6719C145.066 61.5859 146.414 61.8672 149.438 61.8906C152.496 61.8672 153.844 61.5859 153.844 60.6719C153.844 59.875 152.496 59.4766 149.438 59.4766C146.414 59.4766 145.066 59.875 145.078 60.6719ZM40.2422 100.07C44.9648 100.07 47.9297 101.57 47.9531 104.172C47.9297 106.738 44.9648 108.273 40.2422 108.25C35.5547 108.273 32.5312 106.738 32.5312 104.172C32.5312 101.57 35.5547 100.07 40.2422 100.07ZM30.6328 98.9219V96.2031H37.6875V92.5469H41.0156V96.2031H50.1328V98.9219H30.6328ZM32.7891 90.2969V87.6719H47.8594V89.4062C47.8711 91.0938 47.8711 92.9688 47.25 95.1719L43.9219 94.8672C44.3789 93.0508 44.4609 91.668 44.4727 90.2969H32.7891ZM35.9062 104.172C35.8945 105.238 37.4297 105.707 40.2422 105.719C43.043 105.707 44.6016 105.238 44.6016 104.172C44.6016 103.094 43.043 102.566 40.2422 102.578C37.4297 102.566 35.8945 103.094 35.9062 104.172ZM70.9453 98.6172V101.312H66.5156V108.25H63.0938V101.312H59.0391V108.25H55.5938V101.312H51.2812V98.6172H70.9453ZM53.1797 92.3125C53.168 89.3359 56.4023 87.4141 61.0547 87.4141C65.707 87.4141 68.9766 89.3359 68.9766 92.3125C68.9766 95.2305 65.707 97.082 61.0547 97.0938C56.4023 97.082 53.168 95.2305 53.1797 92.3125ZM56.6484 92.3125C56.6367 93.707 58.3242 94.4336 61.0547 94.4453C63.8203 94.4336 65.4844 93.707 65.4844 92.3125C65.4844 90.8477 63.8203 90.0977 61.0547 90.0859C58.3242 90.0977 56.6367 90.8477 56.6484 92.3125ZM89.1797 86.7344V91.1875H91.9922V93.8828H89.1797V98.2891H85.8047V86.7344H89.1797ZM72.0234 90.7656V88.2344H76.7109V86.6172H80.0859V88.2344H84.7734V90.7656H72.0234ZM73.0312 94.6797C73.0195 92.5352 75.1641 91.1641 78.3984 91.1641C81.6445 91.1641 83.7305 92.5352 83.7422 94.6797C83.7305 96.8711 81.6445 98.1836 78.3984 98.1953C75.1641 98.1836 73.0195 96.8711 73.0312 94.6797ZM74.7422 101.477V99.0859H89.1797V104.711H78.0938V105.672H89.7422V108.133H74.7656V102.438H85.8047V101.477H74.7422ZM76.3125 94.6797C76.3125 95.4766 77.0977 95.793 78.3984 95.8047C79.7227 95.793 80.5195 95.4766 80.5312 94.6797C80.5195 93.8945 79.7227 93.5078 78.3984 93.5078C77.0977 93.5078 76.3125 93.8945 76.3125 94.6797ZM109.758 88.3047C109.758 90.6953 111.902 93.5664 117.164 94.1875L115.852 96.9062C112.008 96.3789 109.371 94.6914 107.977 92.4648C106.57 94.6914 103.945 96.3789 100.148 96.9062L98.8359 94.1875C104.051 93.5664 106.195 90.6836 106.195 88.3047V87.3203H109.758V88.3047ZM98.1562 101.031V98.2891H117.773V101.031H109.57V108.25H106.219V101.031H98.1562ZM132.258 100.328C132.27 102.004 132.902 103.715 134.555 104.898C136.219 103.668 136.91 101.91 136.922 100.328V99.7422H140.25V100.328C140.227 102.59 141.281 104.617 144.164 105.484L142.547 107.922C140.52 107.266 139.219 106 138.469 104.395C137.754 106.012 136.523 107.383 134.625 108.109C132.621 107.406 131.379 106.07 130.676 104.465C129.914 106.012 128.637 107.254 126.703 107.922L125.039 105.484C127.91 104.523 128.965 102.438 128.977 100.328V99.7422H132.258V100.328ZM124.547 93.0156C124.535 89.957 127.113 87.8008 130.5 87.7891C133.875 87.8008 136.453 89.957 136.453 93.0156C136.453 96.0273 133.875 98.207 130.5 98.1953C127.113 98.207 124.535 96.0273 124.547 93.0156ZM127.828 93.0156C127.828 94.5273 128.941 95.4062 130.5 95.4062C132.012 95.4062 133.113 94.5273 133.102 93.0156C133.113 91.4688 132.012 90.625 130.5 90.625C128.941 90.625 127.828 91.4688 127.828 93.0156ZM138.961 98.875V86.7578H142.336V98.875H138.961ZM150.984 88.2109C153.879 88.1992 156.07 90.5547 156.527 94.375H159.914V86.7344H163.242V108.297H159.914V97.0469H156.562C156.211 101.148 153.973 103.656 150.984 103.656C147.691 103.656 145.324 100.68 145.336 95.8984C145.324 91.1875 147.691 88.1992 150.984 88.2109ZM148.57 95.8984C148.559 99.0273 149.543 100.586 150.984 100.586C152.449 100.586 153.398 99.0273 153.398 95.8984C153.398 92.8281 152.449 91.2461 150.984 91.2578C149.543 91.2461 148.559 92.8281 148.57 95.8984ZM185.414 103.07V105.812H165.75V103.07H169.992V97.9609C168.375 96.9414 167.402 95.418 167.414 93.5312C167.402 90.0273 170.859 87.6953 175.547 87.6953C180.223 87.6953 183.715 90.0273 183.727 93.5312C183.715 95.3828 182.777 96.8828 181.219 97.8906V103.07H185.414ZM170.766 93.5312C170.754 95.5703 172.617 96.7656 175.547 96.7656C178.453 96.7656 180.375 95.5703 180.375 93.5312C180.375 91.4688 178.453 90.332 175.547 90.3438C172.617 90.332 170.754 91.4688 170.766 93.5312ZM173.32 103.07H177.797V99.1797C177.094 99.2969 176.332 99.3672 175.547 99.3672C174.762 99.3672 174.023 99.2969 173.32 99.1797V103.07Z" fill="#0B0B0B"/>
<g clip-path="url(#clip1_1788_36625)">
<path d="M-1 321.714H196.852C200.113 321.714 202.769 324.361 202.769 327.632C202.769 330.893 200.122 333.55 196.852 333.55H-1V321.724V321.714Z" fill="#C5DB8F"/>
<path d="M77.8395 283.94C89.722 295.822 106.142 303.177 124.273 303.177C160.544 303.177 189.943 273.778 189.943 237.507C189.943 219.376 182.588 202.956 170.706 191.073L77.8301 283.949L77.8395 283.94Z" fill="#8AAB54"/>
<path d="M174.154 241.222C191.612 241.222 205.765 227.069 205.765 209.611C205.765 192.153 191.612 178 174.154 178C156.696 178 142.543 192.153 142.543 209.611C142.543 227.069 156.696 241.222 174.154 241.222Z" fill="#C5DB8F"/>
<path d="M65.5491 279.478L53.8368 292.419C51.2372 295.293 54.0164 299.774 57.7503 298.724L84.7481 291.105L78.8116 279.487H65.5491V279.478Z" fill="#D5E59A"/>
<path d="M65.5488 279.403C76.5427 289.782 91.4879 295.974 107.804 295.501C140.417 294.565 166.101 267.378 165.165 234.765C164.702 218.459 157.669 203.882 146.675 193.503L65.5488 279.403Z" fill="#D5E59A"/>
<path d="M204.83 215.661L211.646 223.649C212.809 225.01 211.674 227.695 209.973 227.581L198.847 226.825L196.691 219.726L204.83 215.67V215.661Z" fill="#C5DB8F"/>
<path d="M138.906 299.831H126.977V321.714H138.906V299.831Z" fill="#8AAB54"/>
</g>
</g>
<defs>
<clipPath id="clip0_1788_36625">
<rect width="296" height="372" rx="8" fill="white"/>
</clipPath>
<clipPath id="clip1_1788_36625">
<rect width="213.128" height="155.54" fill="white" transform="translate(-1 178)"/>
</clipPath>
</defs>
</svg>
