<svg width="48" height="48" viewBox="0 0 48 48" fill="none" xmlns="http://www.w3.org/2000/svg">
<g id="mainBtnNext" clip-path="url(#clip0_786_1328)">
<path id="Vector" d="M24.0003 47.3334C36.8869 47.3334 47.3336 36.8867 47.3336 24C47.3336 11.1134 36.8869 0.666748 24.0003 0.666748C11.1137 0.666748 0.666992 11.1134 0.666992 24C0.666992 36.8867 11.1137 47.3334 24.0003 47.3334Z" fill="white" stroke="#D3D3D3" stroke-width="1.33333"/>
<path id="Vector_2" fill-rule="evenodd" clip-rule="evenodd" d="M21.9335 17.3627C22.2329 17.0633 22.7184 17.0633 23.0178 17.3627L29.113 23.458C29.4124 23.7574 29.4124 24.2428 29.113 24.5422L23.0178 30.6374C22.7184 30.9368 22.2329 30.9368 21.9335 30.6374C21.6341 30.338 21.6341 29.8526 21.9335 29.5532L27.4867 24.0001L21.9335 18.447C21.6341 18.1476 21.6341 17.6621 21.9335 17.3627Z" fill="#D3D3D3"/>
</g>
<defs>
<clipPath id="clip0_786_1328">
<rect width="48" height="48" fill="white"/>
</clipPath>
</defs>
</svg>
