<svg width="296" height="372" viewBox="0 0 296 372" fill="none" xmlns="http://www.w3.org/2000/svg">
<g clip-path="url(#clip0_1791_18816)">
<rect width="296" height="372" rx="8" fill="#E6F2CA"/>
<path d="M36.6445 32.1289V40.0859H30.916V32.1289H36.6445ZM32.1875 39.0332H35.3594V33.1543H32.1875V39.0332ZM38.6953 43.1621V30.9121H39.9941V35.7109H41.9629V36.8047H39.9941V43.1621H38.6953ZM46.0234 31.3223C47.8691 31.3359 49.2295 32.4639 49.2363 34.0703C49.2295 35.6836 47.8691 36.8047 46.0234 36.8047C44.1572 36.8047 42.8037 35.6836 42.7969 34.0703C42.8037 32.4639 44.1572 31.3359 46.0234 31.3223ZM44.0684 34.0703C44.0615 35.082 44.8955 35.752 46.0234 35.752C47.1445 35.752 47.9785 35.082 47.9785 34.0703C47.9785 33.0723 47.1445 32.4023 46.0234 32.416C44.8955 32.4023 44.0615 33.0723 44.0684 34.0703ZM44.6562 38.7461V37.707H52.709V40.7969H45.9551V41.9727H53.1191V43.0117H44.6973V39.8262H51.4238V38.7461H44.6562ZM51.4102 37.1465V30.9121H52.709V37.1465H51.4102ZM67.8711 39.4707V43.0117H59.4082V39.4707H67.8711ZM58.0684 38.6367V37.6113H63.0039V36.7773C60.8369 36.6885 59.6201 36.1074 59.627 35.0547C59.6201 33.9131 61.0762 33.3252 63.6465 33.3184C66.2305 33.3252 67.6729 33.9131 67.666 35.0547C67.6729 36.1074 66.4766 36.6885 64.3027 36.7773V37.6113H69.2383V38.6367H58.0684ZM58.6426 32.8809V31.8828H63.0039V30.748H64.3027V31.8828H68.6094V32.8809H58.6426ZM60.6934 42.0137H66.6133V40.4688H60.6934V42.0137ZM61.0078 35.0547C61.001 35.6084 61.9375 35.9023 63.6465 35.9023C65.3691 35.9023 66.2852 35.6084 66.2852 35.0547C66.2852 34.4941 65.3691 34.2207 63.6465 34.207C61.9375 34.2207 61.001 34.4941 61.0078 35.0547ZM80.709 30.9121V43.1621H79.4648V30.9121H80.709ZM70.3047 36.2031C70.3047 33.5508 71.3438 31.8896 72.9434 31.8965C74.4336 31.8896 75.4385 33.3047 75.5889 35.6016H76.9766V31.1445H78.2207V42.5605H76.9766V36.6543H75.5957C75.4795 39.0469 74.4609 40.5303 72.9434 40.5234C71.3438 40.5303 70.3047 38.8623 70.3047 36.2031ZM71.5078 36.2031C71.5078 38.1514 72.0615 39.2998 72.9434 39.293C73.8457 39.2998 74.4062 38.1514 74.4062 36.2031C74.4062 34.248 73.8457 33.1064 72.9434 33.1133C72.0615 33.1064 71.5078 34.248 71.5078 36.2031ZM86.6836 34.0293C86.6836 36.2715 87.9414 38.5068 89.8145 39.3477L89.0215 40.3867C87.6338 39.6895 86.5811 38.3086 86.041 36.6338C85.501 38.3975 84.4346 39.8877 83.0195 40.6191L82.1992 39.5664C84.0996 38.6572 85.3643 36.2988 85.3711 34.0293V31.9375H86.6836V34.0293ZM88.4609 36.0391V34.9863H91.1953V30.9121H92.4805V43.1895H91.1953V36.0391H88.4609ZM104.279 34.4941V35.5332H95.8438V31.3496H97.1289V34.4941H104.279ZM94.3535 38.1172V37.0781H105.564V38.1172H94.3535ZM95.748 42.875V39.2793H97.0469V41.8086H104.361V42.875H95.748Z" fill="#474747"/>
<path d="M47.625 52.7344V60.5625H50.6719V63.3047H47.625V74.2969H44.25V52.7344H47.625ZM31.3828 69.1406V54.7031H41.4844V57.4219H34.7578V66.3516C37.6406 66.3281 40.1484 66.1641 42.8672 65.6953L43.2188 68.5078C39.9023 69.0703 36.9375 69.1406 33.2344 69.1406H31.3828ZM71.1094 55.2422V57.9609H68.4375V59.9297H71.1094V62.6953H68.4375V65.25H65.0625V52.7344H68.4375V55.2422H71.1094ZM51.375 59.1328C51.3516 56.0625 53.9531 53.8828 57.3516 53.8828C60.6914 53.8828 63.2812 56.0625 63.2812 59.1328C63.2812 62.1797 60.6914 64.3945 57.3516 64.3828C53.9531 64.3945 51.3516 62.1797 51.375 59.1328ZM53.9062 69.9609C53.8945 67.2422 56.8125 65.6133 61.3359 65.625C65.7773 65.6133 68.6484 67.2422 68.6484 69.9609C68.6484 72.6445 65.7773 74.2734 61.3359 74.25C56.8125 74.2734 53.8945 72.6445 53.9062 69.9609ZM54.6797 59.1328C54.668 60.6914 55.8164 61.5469 57.3516 61.5469C58.8281 61.5469 59.9883 60.6914 60 59.1328C59.9883 57.5977 58.8281 56.6953 57.3516 56.6953C55.8164 56.6953 54.668 57.5977 54.6797 59.1328ZM57.2812 69.9609C57.2695 71.1211 58.6641 71.5898 61.3359 71.5781C63.9844 71.5898 65.3086 71.1211 65.3203 69.9609C65.3086 68.7891 63.9844 68.2734 61.3359 68.2734C58.6641 68.2734 57.2695 68.7891 57.2812 69.9609ZM89.1797 52.7578V59.2031H91.9688V61.9453H89.1797V68.8125H85.8047V52.7578H89.1797ZM72.0234 57.5391V54.9141H76.7109V52.7344H80.0859V54.9141H84.7734V57.5391H72.0234ZM73.0312 62.3672C73.0195 59.8594 75.2578 58.1602 78.3984 58.1484C81.5273 58.1602 83.7305 59.8594 83.7422 62.3672C83.7305 64.8633 81.5273 66.5273 78.3984 66.5156C75.2578 66.5273 73.0195 64.8633 73.0312 62.3672ZM75.0703 73.8984V67.5703H78.4453V71.2031H89.8828V73.8984H75.0703ZM76.3125 62.3672C76.3125 63.4453 77.1445 63.9727 78.3984 63.9844C79.6641 63.9727 80.5195 63.4453 80.5312 62.3672C80.5195 61.2891 79.6641 60.7266 78.3984 60.7266C77.1445 60.7266 76.3125 61.2891 76.3125 62.3672ZM115.57 53.6016V55.1016C115.582 56.4492 115.582 58.125 115.184 60.2109H117.82V62.8359H98.1562V60.2109H111.762C112.078 58.6406 112.16 57.3633 112.184 56.25H100.523V53.6016H115.57ZM100.336 66.7266V64.1484H115.43V70.3359H103.711V71.5312H116.016V74.1094H100.359V67.8516H112.102V66.7266H100.336ZM143.93 69.0703V71.8125H124.266V69.0703H132.398V64.9219H126.281V54.2578H141.82V64.9219H135.727V69.0703H143.93ZM129.609 62.2969H138.469V56.9531H129.609V62.2969ZM163.078 52.7578V64.875H159.703V52.7578H163.078ZM145.289 58.9219C145.277 55.8398 147.855 53.6953 151.242 53.6953C154.617 53.6953 157.195 55.8398 157.195 58.9219C157.195 61.8984 154.617 64.1016 151.242 64.1016C147.855 64.1016 145.277 61.8984 145.289 58.9219ZM148.547 74.0156V65.7891H163.078V74.0156H148.547ZM148.57 58.9219C148.57 60.4102 149.684 61.2773 151.242 61.2656C152.754 61.2773 153.855 60.4102 153.844 58.9219C153.855 57.3516 152.754 56.5195 151.242 56.5312C149.684 56.5195 148.57 57.3516 148.57 58.9219ZM151.852 71.3203H159.773V68.4375H151.852V71.3203ZM185.414 60.9375V63.5625H165.75V60.9375H185.414ZM167.977 74.0859V68.0625H179.672V67.1484H167.977V64.6172H183.023V70.4297H171.305V71.4844H183.539V74.0859H167.977ZM168.141 59.9297V53.0859H182.93V55.7578H171.516V57.3047H183.07V59.9297H168.141ZM196.289 53.0156C201.293 53.0273 204.176 54.3164 204.188 56.6719C204.176 59.0625 201.293 60.3398 196.289 60.3516C191.273 60.3398 188.379 59.0625 188.391 56.6719C188.379 54.3164 191.273 53.0273 196.289 53.0156ZM186.492 63.8906V61.2188H206.109V63.8906H186.492ZM188.719 74.1328V68.2734H200.414V67.3594H188.719V64.9219H203.766V70.6172H192.047V71.6016H204.281V74.1328H188.719ZM191.93 56.6719C191.918 57.5859 193.266 57.8672 196.289 57.8906C199.348 57.8672 200.695 57.5859 200.695 56.6719C200.695 55.875 199.348 55.4766 196.289 55.4766C193.266 55.4766 191.918 55.875 191.93 56.6719ZM47.8828 87.4453V90.0938H32.9531V83.4141H47.7422V86.0859H36.3281V87.4453H47.8828ZM30.5625 93.7031V91.0547H50.1797V93.7031H42.0234V94.875H47.8359V100.57H36.1172V101.578H48.3516V104.109H32.7891V98.25H44.4844V97.3359H32.7891V94.875H38.6484V93.7031H30.5625ZM69.5156 82.7344V104.297H66.1641V93.0703H62.9297V90.3281H66.1641V82.7344H69.5156ZM51.9844 87.1875V84.4922H61.7578V92.7188H55.4062V96.5625C58.1484 96.5508 60.5859 96.4453 63.2344 96L63.4922 98.7188C60.3164 99.2461 57.3516 99.3516 53.8594 99.3516H52.0547V90.0469H58.4531V87.1875H51.9844ZM83.2031 83.0625V84.375H91.1953V83.0625H94.5234V90.3047H88.8281V91.4766H97.0312V94.1016H77.4141V91.4766H85.4766V90.3047H79.8984V83.0625H83.2031ZM79.6406 104.133V98.3906H91.3359V97.4766H79.6406V95.0156H94.6875V100.688H82.9688V101.602H95.2031V104.133H79.6406ZM83.2031 87.8203H91.1953V86.7656H83.2031V87.8203ZM115.125 84.3047C115.125 86.6953 117.27 89.5664 122.531 90.1875L121.219 92.9062C117.375 92.3789 114.738 90.6914 113.344 88.4648C111.938 90.6914 109.312 92.3789 105.516 92.9062L104.203 90.1875C109.418 89.5664 111.562 86.6836 111.562 84.3047V83.3203H115.125V84.3047ZM103.523 97.0312V94.2891H123.141V97.0312H114.938V104.25H111.586V97.0312H103.523ZM137.625 96.3281C137.637 98.0039 138.27 99.7148 139.922 100.898C141.586 99.668 142.277 97.9102 142.289 96.3281V95.7422H145.617V96.3281C145.594 98.5898 146.648 100.617 149.531 101.484L147.914 103.922C145.887 103.266 144.586 102 143.836 100.395C143.121 102.012 141.891 103.383 139.992 104.109C137.988 103.406 136.746 102.07 136.043 100.465C135.281 102.012 134.004 103.254 132.07 103.922L130.406 101.484C133.277 100.523 134.332 98.4375 134.344 96.3281V95.7422H137.625V96.3281ZM129.914 89.0156C129.902 85.957 132.48 83.8008 135.867 83.7891C139.242 83.8008 141.82 85.957 141.82 89.0156C141.82 92.0273 139.242 94.207 135.867 94.1953C132.48 94.207 129.902 92.0273 129.914 89.0156ZM133.195 89.0156C133.195 90.5273 134.309 91.4062 135.867 91.4062C137.379 91.4062 138.48 90.5273 138.469 89.0156C138.48 87.4688 137.379 86.625 135.867 86.625C134.309 86.625 133.195 87.4688 133.195 89.0156ZM144.328 94.875V82.7578H147.703V94.875H144.328ZM156.352 84.2109C159.246 84.1992 161.438 86.5547 161.895 90.375H165.281V82.7344H168.609V104.297H165.281V93.0469H161.93C161.578 97.1484 159.34 99.6562 156.352 99.6562C153.059 99.6562 150.691 96.6797 150.703 91.8984C150.691 87.1875 153.059 84.1992 156.352 84.2109ZM153.938 91.8984C153.926 95.0273 154.91 96.5859 156.352 96.5859C157.816 96.5859 158.766 95.0273 158.766 91.8984C158.766 88.8281 157.816 87.2461 156.352 87.2578C154.91 87.2461 153.926 88.8281 153.938 91.8984ZM190.781 99.0703V101.812H171.117V99.0703H175.359V93.9609C173.742 92.9414 172.77 91.418 172.781 89.5312C172.77 86.0273 176.227 83.6953 180.914 83.6953C185.59 83.6953 189.082 86.0273 189.094 89.5312C189.082 91.3828 188.145 92.8828 186.586 93.8906V99.0703H190.781ZM176.133 89.5312C176.121 91.5703 177.984 92.7656 180.914 92.7656C183.82 92.7656 185.742 91.5703 185.742 89.5312C185.742 87.4688 183.82 86.332 180.914 86.3438C177.984 86.332 176.121 87.4688 176.133 89.5312ZM178.688 99.0703H183.164V95.1797C182.461 95.2969 181.699 95.3672 180.914 95.3672C180.129 95.3672 179.391 95.2969 178.688 95.1797V99.0703Z" fill="#0B0B0B"/>
<g clip-path="url(#clip1_1791_18816)">
<path d="M177.91 214.48H117.21L114.74 264.1H180.38L177.91 214.48Z" fill="#8AAB54"/>
<path d="M109 379.4H186.11L183.34 323.68H111.77L109 379.4Z" fill="#8AAB54"/>
<path d="M114.74 264.1L111.77 323.68H183.34L180.38 264.1H114.74Z" fill="#D5E59A"/>
<path d="M176.86 179.09H118.26V208.07H176.86V179.09Z" fill="#D5E59A"/>
<path d="M147.56 136C131.38 136 118.26 149.12 118.26 165.3H176.86C176.85 149.12 163.74 136 147.56 136Z" fill="#B5D074"/>
<path d="M147.561 189.69C151.891 189.69 155.411 193.21 155.411 197.54V207.21C155.411 207.69 155.021 208.07 154.551 208.07H140.581C140.101 208.07 139.721 207.68 139.721 207.21V197.54C139.721 193.21 143.241 189.69 147.571 189.69H147.561Z" fill="#B5D074"/>
<path d="M124.05 165.3H118.26V179.09H124.05V165.3Z" fill="#B5D074"/>
<path d="M141.261 165.3H135.471V179.09H141.261V165.3Z" fill="#B5D074"/>
<path d="M159.06 165.3H153.27V179.09H159.06V165.3Z" fill="#B5D074"/>
<path d="M176.86 165.3H171.07V179.09H176.86V165.3Z" fill="#B5D074"/>
<path d="M179.759 208.07H115.349C112.914 208.07 110.939 210.044 110.939 212.48V212.49C110.939 214.926 112.914 216.9 115.349 216.9H179.759C182.195 216.9 184.169 214.926 184.169 212.49V212.48C184.169 210.044 182.195 208.07 179.759 208.07Z" fill="#8AAB54"/>
<path d="M176.85 165.3L295.56 138.4V208.07L176.85 179.09V165.3Z" fill="#DBECB0"/>
</g>
</g>
<defs>
<clipPath id="clip0_1791_18816">
<rect width="296" height="372" rx="8" fill="white"/>
</clipPath>
<clipPath id="clip1_1791_18816">
<rect width="186.56" height="243.4" fill="white" transform="translate(109 136)"/>
</clipPath>
</defs>
</svg>
