<svg width="892" height="15" viewBox="0 0 892 15" fill="none" xmlns="http://www.w3.org/2000/svg">
<g clip-path="url(#clip0_1295_30925)">
<path fill-rule="evenodd" clip-rule="evenodd" d="M0 0V9H2V0H0ZM10 0V9H12V0H10ZM20 9V0H22V9H20ZM30 0V9H32V0H30ZM40 15V0H42V15H40ZM50 0V9H52V0H50ZM60 9V0H62V9H60ZM70 0V9H72V0H70ZM80 9V0H82V9H80ZM90 0V15H92V0H90ZM100 9V0H102V9H100ZM110 0V9H112V0H110ZM120 9V0H122V9H120ZM130 0V9H132V0H130ZM140 15V0H142V15H140ZM150 0V9H152V0H150ZM160 9V0H162V9H160ZM170 0V9H172V0H170ZM180 9V0H182V9H180ZM190 0V15H192V0H190ZM200 9V0H202V9H200ZM210 0V9H212V0H210ZM220 9V0H222V9H220ZM230 0V9H232V0H230ZM240 15V0H242V15H240ZM250 0V9H252V0H250ZM260 9V0H262V9H260ZM270 0V9H272V0H270ZM280 9V0H282V9H280ZM290 0V15H292V0H290ZM300 9V0H302V9H300ZM310 0V9H312V0H310ZM320 9V0H322V9H320ZM330 0V9H332V0H330ZM340 15V0H342V15H340ZM350 0V9H352V0H350ZM360 9V0H362V9H360ZM370 0V9H372V0H370ZM380 9V0H382V9H380ZM390 0V15H392V0H390ZM400 9V0H402V9H400ZM410 0V9H412V0H410ZM420 9V0H422V9H420ZM430 0V9H432V0H430ZM440 15V0H442V15H440ZM450 0V9H452V0H450ZM460 9V0H462V9H460ZM470 0V9H472V0H470ZM480 9V0H482V9H480ZM490 0V15H492V0H490ZM500 9V0H502V9H500ZM510 0V9H512V0H510ZM520 9V0H522V9H520ZM530 0V9H532V0H530ZM540 15V0H542V15H540ZM550 0V9H552V0H550ZM560 9V0H562V9H560ZM570 0V9H572V0H570ZM580 9V0H582V9H580ZM590 0V15H592V0H590ZM600 9V0H602V9H600ZM610 0V9H612V0H610ZM620 9V0H622V9H620ZM630 0V9H632V0H630ZM640 15V0H642V15H640ZM650 0V9H652V0H650ZM660 9V0H662V9H660ZM670 0V9H672V0H670ZM680 9V0H682V9H680ZM690 0V15H692V0H690ZM700 9V0H702V9H700ZM710 0V9H712V0H710ZM720 9V0H722V9H720ZM730 0V9H732V0H730ZM740 15V0H742V15H740ZM750 0V9H752V0H750ZM760 9V0H762V9H760ZM770 0V9H772V0H770ZM780 9V0H782V9H780ZM790 0V15H792V0H790ZM800 9V0H802V9H800ZM810 0V9H812V0H810ZM820 9V0H822V9H820ZM830 0V9H832V0H830ZM840 15V0H842V15H840ZM850 0V9H852V0H850ZM860 9V0H862V9H860ZM870 0V9H872V0H870ZM880 9V0H882V9H880ZM890 0V15H892V0H890Z" fill="#F1F6E2"/>
</g>
<defs>
<clipPath id="clip0_1295_30925">
<rect width="892" height="15" fill="white"/>
</clipPath>
</defs>
</svg>
