<svg width="62" height="14" viewBox="0 0 62 14" fill="none" xmlns="http://www.w3.org/2000/svg">
<g id="mainGraphicLogo" clip-path="url(#clip0_3363_163403)">
<path id="Vector" d="M21.784 11.6733C21.784 10.6197 20.928 9.76562 19.8722 9.76562C18.8164 9.76562 17.9604 10.6197 17.9604 11.6733C17.9604 12.7269 18.8164 13.581 19.8722 13.581C20.928 13.581 21.784 12.7269 21.784 11.6733Z" fill="#010101"/>
<path id="Vector_2" d="M4.37313 1.15025V4.35808C4.37313 4.67722 4.11374 4.93606 3.79391 4.93606H0.57922C0.259395 4.93606 0 5.1949 0 5.51405V13.0857C0 13.4048 0.259395 13.6637 0.57922 13.6637H16.9137C17.2336 13.6637 17.4929 13.4048 17.4929 13.0857V9.87784C17.4929 9.5587 17.7523 9.29986 18.0722 9.29986H21.2869C21.6067 9.29986 21.8661 9.04102 21.8661 8.72188V1.15025C21.8661 0.831107 21.6067 0.572266 21.2869 0.572266H4.95277C4.63294 0.572266 4.37354 0.831107 4.37354 1.15025H4.37313Z" fill="#010101"/>
<g id="Group">
<path id="Vector_3" d="M26.8381 0.572266H30.9075C31.0152 0.572266 31.1106 0.641591 31.1439 0.743733L33.9557 9.39995C33.9869 9.51317 34.0165 9.62146 34.0449 9.72606C34.1111 9.97342 34.4621 9.97096 34.5259 9.72278C34.5526 9.61941 34.5809 9.51194 34.6122 9.39995L37.2945 0.747014C37.3266 0.643232 37.4228 0.572266 37.5317 0.572266H41.5797C41.717 0.572266 41.828 0.683432 41.828 0.820031V13.4163C41.828 13.5533 41.7166 13.6641 41.5797 13.6641H39.3027C39.1654 13.6641 39.0544 13.5529 39.0544 13.4163V5.24782C39.0544 5.24126 39.0544 5.23469 39.0544 5.22813C39.0544 4.94221 38.6507 4.8815 38.5681 5.15552L36.0526 13.4877C36.021 13.5923 35.9244 13.6641 35.8146 13.6641H32.7689C32.6612 13.6641 32.5654 13.5947 32.5325 13.4922L29.8296 5.11204C29.7425 4.84212 29.3437 4.9053 29.3449 5.18916C29.3449 5.215 29.3449 5.24085 29.3449 5.26669V13.4163C29.3449 13.5533 29.2335 13.6641 29.0966 13.6641H26.8381C26.7008 13.6641 26.5898 13.5529 26.5898 13.4163V0.820031C26.5898 0.683022 26.7012 0.572266 26.8381 0.572266Z" fill="#010101"/>
<path id="Vector_4" d="M44.1504 4.49917H46.3711C46.5084 4.49917 46.6194 4.61033 46.6194 4.74693V13.4155C46.6194 13.5525 46.508 13.6632 46.3711 13.6632H44.1504C44.0131 13.6632 43.9021 13.5521 43.9021 13.4155V4.74693C43.9021 4.60992 44.0135 4.49917 44.1504 4.49917ZM43.7241 1.47757C43.7241 0.598494 44.3428 0 45.2612 0C46.3826 0 47.0963 0.929942 46.6761 2.1741C46.5721 2.48217 46.2231 2.79885 45.9086 2.88335C44.6454 3.22301 43.7241 2.57324 43.7241 1.47757Z" fill="#010101"/>
<path id="Vector_5" d="M48.8904 0.572266H51.1111C51.2484 0.572266 51.3594 0.683432 51.3594 0.820031V13.4163C51.3594 13.5533 51.248 13.6641 51.1111 13.6641H48.8904C48.7531 13.6641 48.6421 13.5529 48.6421 13.4163V0.820031C48.6421 0.683022 48.7535 0.572266 48.8904 0.572266Z" fill="#010101"/>
<path id="Vector_6" d="M52.7222 9.06312C52.7222 6.12685 54.6715 4.18164 57.4455 4.18164C60.2196 4.18164 62 6.16418 62 9.19398V9.46964C62 9.60665 61.8886 9.7174 61.7517 9.7174H55.7416C55.5961 9.7174 55.4785 9.84169 55.4941 9.98609C55.6179 11.1355 56.4224 11.9432 57.5023 11.9432C58.2981 11.9432 58.9666 11.5449 59.1676 10.8213C59.198 10.7122 59.2942 10.6342 59.4081 10.6342H61.6588C61.8121 10.6342 61.9317 10.772 61.9042 10.9226C61.5844 12.6869 59.9569 14.0004 57.5023 14.0004C54.7283 14.0004 52.723 12.2422 52.723 9.06271L52.7222 9.06312ZM58.9575 7.94079C59.1084 7.94079 59.2251 7.80747 59.2042 7.65816C59.0739 6.73109 58.3824 6.12644 57.4266 6.12644C56.4709 6.12644 55.7268 6.74872 55.5114 7.63765C55.474 7.79229 55.5944 7.94079 55.7539 7.94079H58.9575Z" fill="#010101"/>
</g>
</g>
<defs>
<clipPath id="clip0_3363_163403">
<rect width="62" height="14" fill="white"/>
</clipPath>
</defs>
</svg>
