<svg width="296" height="372" viewBox="0 0 296 372" fill="none" xmlns="http://www.w3.org/2000/svg">
<rect width="296" height="372" rx="8" fill="#E6F2CA"/>
<path d="M36.0293 31.6504C38.6475 31.6572 40.5547 32.9492 40.5547 34.9043C40.5547 36.7363 38.9551 37.96 36.6719 38.1445V40.5508H41.6621V41.6309H30.4512V40.5508H35.3867V38.1445C33.1172 37.96 31.5107 36.7363 31.5176 34.9043C31.5107 32.9492 33.4248 31.6572 36.0293 31.6504ZM32.7754 34.9043C32.7754 36.2783 34.1426 37.1328 36.0293 37.1465C37.9297 37.1328 39.29 36.2783 39.2969 34.9043C39.29 33.5781 37.9297 32.7031 36.0293 32.7168C34.1426 32.7031 32.7754 33.5781 32.7754 34.9043ZM52.4355 33.7012V34.7539H44.0273V31.0898H45.2988V33.7012H52.4355ZM42.5371 36.873V35.834H53.748V36.873H42.5371ZM43.9043 38.8691V37.8574H52.3398V40.8516H45.2305V41.9863H52.7637V43.0117H43.9316V39.8945H51.0547V38.8691H43.9043ZM58.6426 31.7871C60.5771 31.7803 61.9717 32.9766 61.9785 34.6992C61.9717 36.4219 60.5771 37.6182 58.6426 37.625C56.7148 37.6182 55.2998 36.4219 55.3066 34.6992C55.2998 32.9766 56.7148 31.7803 58.6426 31.7871ZM54.7188 39.4707C56.9473 39.4707 60.0371 39.4502 62.7168 39.0605L62.8125 40.0039C60.0439 40.5371 57.0703 40.5508 54.8828 40.5508L54.7188 39.4707ZM56.5918 34.6992C56.5781 35.7861 57.4531 36.4902 58.6426 36.4902C59.832 36.4902 60.707 35.7861 60.707 34.6992C60.707 33.626 59.832 32.9082 58.6426 32.9082C57.4531 32.9082 56.5781 33.626 56.5918 34.6992ZM63.4824 43.1895V30.9121H64.7812V43.1895H63.4824ZM79.957 31.4316V32.2383C79.9639 33.0449 79.9639 34.0771 79.6973 35.4102H81.3789V36.4492H70.168V35.4102H78.3916C78.6445 34.1729 78.6719 33.2363 78.6719 32.4707H71.5762V31.4316H79.957ZM71.4805 38.582V37.543H79.9707V40.7559H72.793V42H80.2852V43.0391H71.4941V39.7578H78.6855V38.582H71.4805ZM91.8926 30.9121V33.7969H93.6699V34.877H91.8926V37.8301H90.5938V30.9121H91.8926ZM82.2129 36.9688C85.1455 36.1963 86.8682 34.6582 87.1074 32.7441H82.7871V31.6777H88.5156C88.5088 34.8154 86.3828 37.0234 82.7324 38.0078L82.2129 36.9688ZM84.0449 42.998V38.3496H91.8926V42.998H84.0449ZM85.3438 41.959H90.6074V39.4297H85.3438V41.959Z" fill="#474747"/>
<path d="M47.9766 57.6016V59.1016C47.9883 60.4492 47.9883 62.125 47.5898 64.2109H50.2266V66.8359H30.5625V64.2109H44.168C44.4844 62.6406 44.5664 61.3633 44.5898 60.25H32.9297V57.6016H47.9766ZM32.7422 70.7266V68.1484H47.8359V74.3359H36.1172V75.5312H48.4219V78.1094H32.7656V71.8516H44.5078V70.7266H32.7422ZM68.4375 56.7344V61.2578H71.2266V64.0234H68.4375V68.6875H65.0625V56.7344H68.4375ZM51 66.6016C55.6641 65.4766 58.1602 63.25 58.6641 60.625H52.0781V57.9531H62.3672C62.3555 63.7305 58.8164 67.5859 52.3359 69.2734L51 66.6016ZM54.2344 77.9922V69.4609H68.4375V77.9922H54.2344ZM57.5859 75.3672H65.1094V72.1562H57.5859V75.3672ZM81.8438 57.0156C86.8477 57.0273 89.7305 58.3164 89.7422 60.6719C89.7305 63.0625 86.8477 64.3398 81.8438 64.3516C76.8281 64.3398 73.9336 63.0625 73.9453 60.6719C73.9336 58.3164 76.8281 57.0273 81.8438 57.0156ZM72.0469 67.8906V65.2188H91.6641V67.8906H72.0469ZM74.2734 78.1328V72.2734H85.9688V71.3594H74.2734V68.9219H89.3203V74.6172H77.6016V75.6016H89.8359V78.1328H74.2734ZM77.4844 60.6719C77.4727 61.5859 78.8203 61.8672 81.8438 61.8906C84.9023 61.8672 86.25 61.5859 86.25 60.6719C86.25 59.875 84.9023 59.4766 81.8438 59.4766C78.8203 59.4766 77.4727 59.875 77.4844 60.6719ZM116.367 56.7344V67.6328H113.016V62.3594H109.219V59.7109H113.016V56.7344H116.367ZM97.9453 65.1484C101.625 64.1289 103.008 61.5273 103.008 58.8672V57.4609H106.453V58.8672C106.441 61.3516 107.695 63.8008 111.211 64.8203L109.453 67.3984C107.191 66.6953 105.656 65.3477 104.73 63.6133C103.793 65.5586 102.164 67.082 99.6797 67.8438L97.9453 65.1484ZM101.953 71.0312V68.4531H116.367V74.4062H105.305V75.3906H116.93V78.0156H102V71.9688H113.016V71.0312H101.953ZM137.109 56.7344V69.5078H133.758V64.5859H130.711V61.8672H133.758V56.7344H137.109ZM118.688 66.9062C122.168 65.7695 123.598 63.1562 123.762 60.6484H119.648V57.9531H131.32V60.6484H127.242C127.406 62.9688 128.789 65.3125 132.047 66.3906L130.406 69.0391C128.062 68.2891 126.492 66.8125 125.555 64.9844C124.617 67.0586 122.965 68.7344 120.445 69.5781L118.688 66.9062ZM122.25 74.1016C122.25 71.4648 125.086 69.918 129.68 69.9062C134.332 69.918 137.168 71.4648 137.18 74.1016C137.168 76.7383 134.332 78.2852 129.68 78.2969C125.086 78.2852 122.25 76.7383 122.25 74.1016ZM125.602 74.1016C125.602 75.2148 126.996 75.7305 129.68 75.7188C132.422 75.7305 133.805 75.2148 133.828 74.1016C133.805 72.9648 132.422 72.4609 129.68 72.4609C126.996 72.4609 125.602 72.9648 125.602 74.1016ZM156.703 56.7344V65.0078H159.75V67.7969H156.703V78.25H153.375V56.7344H156.703ZM139.523 62.5469V59.875H144.188V57.0859H147.562V59.875H152.109V62.5469H139.523ZM140.297 68.7578C140.273 65.7227 142.652 63.5664 145.875 63.5781C149.016 63.5664 151.418 65.7227 151.43 68.7578C151.418 71.793 149.016 73.9375 145.875 73.9375C142.652 73.9375 140.273 71.793 140.297 68.7578ZM143.531 68.7578C143.508 70.3398 144.492 71.207 145.875 71.1953C147.211 71.207 148.184 70.3398 148.195 68.7578C148.184 67.2109 147.211 66.3086 145.875 66.2969C144.492 66.3086 143.508 67.2109 143.531 68.7578ZM178.242 58.4922V60.5078C178.242 63.2148 178.242 66.2617 177.375 70.9141L173.953 70.5625C174.773 66.6133 174.832 63.6367 174.867 61.1641H162.398V58.4922H178.242ZM160.383 75.7422V73.0234H167.203V65.7109H170.555V73.0234H180V75.7422H160.383ZM47.6953 86.7344V91.0234H50.4844V93.7656H47.6953V97.9609H44.3203V86.7344H47.6953ZM30.4219 95.6641C35.6719 94.8789 37.7461 92.9336 38.0508 90.8359H31.5234V88.1875H41.8359C41.8359 93.9531 38.4375 97.1875 31.8281 98.3125L30.4219 95.6641ZM33.3281 108.016V98.7344H47.7422V101.172H36.7266V102.18H47.5547V104.547H36.7266V105.555H48.2109V108.016H33.3281ZM69.375 86.7344V108.297H65.9766V86.7344H69.375ZM51.8672 95.8984C51.8672 91.1875 54.3164 88.1992 57.6328 88.2109C60.9023 88.1992 63.3398 91.1875 63.3516 95.8984C63.3398 100.68 60.9023 103.656 57.6328 103.656C54.3164 103.656 51.8672 100.68 51.8672 95.8984ZM55.1484 95.8984C55.125 99.0273 56.1211 100.586 57.6328 100.586C59.0977 100.586 60.082 99.0273 60.0938 95.8984C60.082 92.8281 59.0977 91.2461 57.6328 91.2578C56.1211 91.2461 55.125 92.8281 55.1484 95.8984ZM94.8281 87.6016V89.1016C94.8398 90.4492 94.8398 92.125 94.4414 94.2109H97.0781V96.8359H77.4141V94.2109H91.0195C91.3359 92.6406 91.418 91.3633 91.4414 90.25H79.7812V87.6016H94.8281ZM79.5938 100.727V98.1484H94.6875V104.336H82.9688V105.531H95.2734V108.109H79.6172V101.852H91.3594V100.727H79.5938ZM107.953 87.0156C112.957 87.0273 115.84 88.3164 115.852 90.6719C115.84 93.0625 112.957 94.3398 107.953 94.3516C102.938 94.3398 100.043 93.0625 100.055 90.6719C100.043 88.3164 102.938 87.0273 107.953 87.0156ZM98.1562 97.8906V95.2188H117.773V97.8906H98.1562ZM100.383 108.133V102.273H112.078V101.359H100.383V98.9219H115.43V104.617H103.711V105.602H115.945V108.133H100.383ZM103.594 90.6719C103.582 91.5859 104.93 91.8672 107.953 91.8906C111.012 91.8672 112.359 91.5859 112.359 90.6719C112.359 89.875 111.012 89.4766 107.953 89.4766C104.93 89.4766 103.582 89.875 103.594 90.6719ZM142.969 86.7344V108.25H139.547V96.7188H137.039V93.8359H139.547V86.7344H142.969ZM123.656 101.242C126.469 98.9688 126.762 95.2891 126.773 91.7266V88.375H129.938V91.7266C129.926 94.2227 130.09 96.918 131.262 99.1211C132.41 96.9297 132.562 94.2109 132.562 91.7266V88.375H135.773V91.7266C135.773 95.2891 136.066 99.0156 138.891 101.242L136.805 103.633C135.445 102.578 134.613 101.055 134.109 99.2734C133.57 101.125 132.68 102.73 131.25 103.797C129.832 102.766 128.953 101.195 128.402 99.3789C127.91 101.066 127.137 102.496 125.906 103.492L123.656 101.242ZM170.039 103.094V105.836H150.375V103.094H158.508V99.3203H152.391V88.0703H155.766V91.2344H164.555V88.0703H167.93V99.3203H161.836V103.094H170.039ZM155.766 96.6484H164.555V93.8828H155.766V96.6484ZM178.172 91.9141C178.172 95.4297 178.91 98.9922 181.898 100.938L180.07 103.539C178.301 102.473 177.199 100.773 176.531 98.7461C175.793 101.008 174.574 102.906 172.711 104.031L170.672 101.523C173.918 99.4961 174.891 95.7109 174.891 92.0781V88.5156H178.172V91.9141ZM179.648 96.5781V93.8359H182.156V87.0156H185.297V107.289H182.156V96.5781H179.648ZM186.586 108.25V86.7344H189.82V108.25H186.586ZM211.523 103.07V105.812H191.859V103.07H196.102V97.9609C194.484 96.9414 193.512 95.418 193.523 93.5312C193.512 90.0273 196.969 87.6953 201.656 87.6953C206.332 87.6953 209.824 90.0273 209.836 93.5312C209.824 95.3828 208.887 96.8828 207.328 97.8906V103.07H211.523ZM196.875 93.5312C196.863 95.5703 198.727 96.7656 201.656 96.7656C204.562 96.7656 206.484 95.5703 206.484 93.5312C206.484 91.4688 204.562 90.332 201.656 90.3438C198.727 90.332 196.863 91.4688 196.875 93.5312ZM199.43 103.07H203.906V99.1797C203.203 99.2969 202.441 99.3672 201.656 99.3672C200.871 99.3672 200.133 99.2969 199.43 99.1797V103.07Z" fill="#0B0B0B"/>
<path d="M152.118 172.137L52.3856 204.061C50.3184 204.723 49.179 206.935 49.8407 209.002L89.3406 332.4C90.0023 334.467 92.2146 335.607 94.2818 334.945L194.014 303.02C196.081 302.358 197.221 300.146 196.559 298.079L157.059 174.681C156.397 172.614 154.185 171.475 152.118 172.137Z" fill="#D5E59A"/>
<path d="M64.2203 219.006C66.4071 219.006 68.1799 217.233 68.1799 215.046C68.1799 212.859 66.4071 211.086 64.2203 211.086C62.0335 211.086 60.2607 212.859 60.2607 215.046C60.2607 217.233 62.0335 219.006 64.2203 219.006Z" fill="#E6F2CA"/>
<path d="M70.8785 239.826C73.0653 239.826 74.8381 238.053 74.8381 235.866C74.8381 233.679 73.0653 231.907 70.8785 231.907C68.6917 231.907 66.9189 233.679 66.9189 235.866C66.9189 238.053 68.6917 239.826 70.8785 239.826Z" fill="#E6F2CA"/>
<path d="M77.5426 260.635C79.7294 260.635 81.5022 258.863 81.5022 256.676C81.5022 254.489 79.7294 252.716 77.5426 252.716C75.3558 252.716 73.583 254.489 73.583 256.676C73.583 258.863 75.3558 260.635 77.5426 260.635Z" fill="#E6F2CA"/>
<path d="M84.2135 281.455C86.4003 281.455 88.1731 279.683 88.1731 277.496C88.1731 275.309 86.4003 273.536 84.2135 273.536C82.0267 273.536 80.2539 275.309 80.2539 277.496C80.2539 279.683 82.0267 281.455 84.2135 281.455Z" fill="#E6F2CA"/>
<path d="M90.8746 302.265C93.0614 302.265 94.8342 300.492 94.8342 298.305C94.8342 296.118 93.0614 294.346 90.8746 294.346C88.6878 294.346 86.915 296.118 86.915 298.305C86.915 300.492 88.6878 302.265 90.8746 302.265Z" fill="#E6F2CA"/>
<path d="M97.5367 323.085C99.7235 323.085 101.496 321.312 101.496 319.126C101.496 316.939 99.7235 315.166 97.5367 315.166C95.3499 315.166 93.5771 316.939 93.5771 319.126C93.5771 321.312 95.3499 323.085 97.5367 323.085Z" fill="#E6F2CA"/>
<path d="M60.7116 213.142L49.6318 216.655C48.1783 217.116 47.3736 218.668 47.8344 220.121C48.2952 221.575 49.847 222.379 51.3005 221.919L62.3803 218.406C63.8338 217.945 64.6386 216.393 64.1778 214.94C63.717 213.486 62.1651 212.682 60.7116 213.142Z" fill="#BDD682"/>
<path d="M67.3464 234.08L56.2666 237.593C54.8131 238.054 54.0083 239.606 54.4691 241.059C54.9299 242.513 56.4818 243.317 57.9353 242.856L69.0151 239.344C70.4686 238.883 71.2733 237.331 70.8125 235.878C70.3517 234.424 68.7999 233.62 67.3464 234.08Z" fill="#BDD682"/>
<path d="M73.9645 254.925L62.8847 258.437C61.4312 258.898 60.6265 260.45 61.0873 261.903C61.5481 263.357 63.0999 264.162 64.5534 263.701L75.6332 260.188C77.0867 259.727 77.8915 258.175 77.4307 256.722C76.9699 255.268 75.418 254.464 73.9645 254.925Z" fill="#BDD682"/>
<path d="M80.569 275.752L69.4892 279.265C68.0357 279.726 67.231 281.277 67.6918 282.731C68.1526 284.184 69.7044 284.989 71.1579 284.528L82.2377 281.016C83.6912 280.555 84.496 279.003 84.0352 277.55C83.5744 276.096 82.0225 275.291 80.569 275.752Z" fill="#BDD682"/>
<path d="M87.1667 296.598L76.0869 300.111C74.6334 300.572 73.8286 302.124 74.2894 303.577C74.7502 305.031 76.3021 305.835 77.7556 305.375L88.8354 301.862C90.2889 301.401 91.0936 299.849 90.6328 298.396C90.172 296.942 88.6202 296.138 87.1667 296.598Z" fill="#BDD682"/>
<path d="M93.7829 317.423L82.7031 320.936C81.2496 321.396 80.4448 322.948 80.9056 324.402C81.3664 325.855 82.9183 326.66 84.3718 326.199L95.4516 322.687C96.9051 322.226 97.7099 320.674 97.2491 319.221C96.7883 317.767 95.2364 316.962 93.7829 317.423Z" fill="#BDD682"/>
<path d="M227.306 169.497L232.225 170.922C238.175 172.645 241.602 178.868 239.882 184.807L213.424 177.143C215.144 171.203 221.367 167.776 227.306 169.497Z" fill="#BDD682"/>
<path d="M184.262 327.288L180.969 313.915L177.677 300.542L190.9 304.372L204.135 308.206L194.204 317.749L184.262 327.288Z" fill="#BDD682"/>
<mask id="mask0_1788_36592" style="mask-type:luminance" maskUnits="userSpaceOnUse" x="177" y="300" width="28" height="28">
<path d="M184.261 327.289L180.968 313.915L177.676 300.542L190.899 304.373L204.134 308.207L194.203 317.749L184.261 327.289Z" fill="white"/>
</mask>
<g mask="url(#mask0_1788_36592)">
<path d="M179.76 342.835C186.947 344.917 194.461 340.779 196.543 333.592C198.625 326.404 194.487 318.89 187.3 316.808C180.112 314.726 172.598 318.864 170.516 326.052C168.434 333.239 172.573 340.753 179.76 342.835Z" fill="#8AAB54"/>
</g>
<path d="M221.856 179.586L213.426 177.144L177.679 300.542L186.11 302.984L221.856 179.586Z" fill="#BDD682"/>
<path d="M231.454 182.366L221.856 179.585L186.11 302.984L195.707 305.764L231.454 182.366Z" fill="#8AAB54"/>
<path d="M239.884 184.809L231.454 182.367L195.708 305.765L204.138 308.208L239.884 184.809Z" fill="#BDD682"/>
</svg>
