<svg width="296" height="372" viewBox="0 0 296 372" fill="none" xmlns="http://www.w3.org/2000/svg">
<g clip-path="url(#clip0_1788_36578)">
<rect width="296" height="372" rx="8" fill="#E6F2CA"/>
<path d="M41.6621 40.5508V41.6309H30.4512V40.5508H35.3867V37.7207H31.7363V31.8965H40.3223V37.7207H36.6719V40.5508H41.6621ZM32.9941 36.6953H39.0508V32.9355H32.9941V36.6953ZM52.709 30.9258V37.8984H51.4102V30.9258H52.709ZM42.7969 34.4395C42.8037 32.71 44.1846 31.5342 46.0645 31.541C47.9375 31.5342 49.3184 32.71 49.3184 34.4395C49.3184 36.1211 47.9375 37.3105 46.0645 37.3105C44.1846 37.3105 42.8037 36.1211 42.7969 34.4395ZM44.0684 34.4395C44.0615 35.4922 44.9023 36.2168 46.0645 36.2168C47.2129 36.2168 48.0469 35.4922 48.0469 34.4395C48.0469 33.3525 47.2129 32.6279 46.0645 32.6348C44.9023 32.6279 44.0615 33.3525 44.0684 34.4395ZM44.6562 43.0117V38.5137H52.709V43.0117H44.6562ZM45.9414 41.959H51.4375V39.5527H45.9414V41.959ZM64.8359 30.9258V40.209H63.5371V39.0332H61.0762V38.1172H63.5371V30.9258H64.8359ZM54.5957 36.5176C56.8584 36.4971 59.9141 36.4766 62.5254 36.1484L62.6074 37.0781C61.5615 37.2559 60.4609 37.3652 59.3809 37.4404V39.8262H58.082V37.5088C56.8926 37.5566 55.751 37.5566 54.7598 37.5566L54.5957 36.5176ZM55.5527 33.5508C55.5459 32.252 56.7832 31.3906 58.6016 31.3906C60.3926 31.3906 61.6367 32.252 61.6367 33.5508C61.6367 34.8564 60.3926 35.6836 58.6016 35.6836C56.79 35.6836 55.5459 34.8564 55.5527 33.5508ZM56.291 42.9023V39.3066H57.5762V41.8496H65.1367V42.9023H56.291ZM56.7832 33.5508C56.7764 34.2754 57.5146 34.7266 58.6016 34.7266C59.6475 34.7266 60.3994 34.2754 60.4062 33.5508C60.3994 32.8193 59.6475 32.3477 58.6016 32.3613C57.5146 32.3477 56.7764 32.8193 56.7832 33.5508ZM76.8945 30.9121V43.1895H75.5957V30.9121H76.8945ZM67.1738 36.1211C67.1738 33.5029 68.4932 31.835 70.3457 31.8281C72.1641 31.835 73.5039 33.5029 73.5039 36.1211C73.5039 38.7666 72.1641 40.4346 70.3457 40.4277C68.4932 40.4346 67.1738 38.7666 67.1738 36.1211ZM68.4316 36.1211C68.4248 38.0693 69.2041 39.2656 70.3457 39.2656C71.4668 39.2656 72.2461 38.0693 72.2461 36.1211C72.2461 34.2002 71.4668 32.9971 70.3457 32.9902C69.2041 32.9971 68.4248 34.2002 68.4316 36.1211ZM88.3926 30.9121V35.6973H90.3613V36.791H88.3926V43.1895H87.1074V30.9121H88.3926ZM79.3281 33.0723V32.0195H84.9336V36.5176H80.6406V39.1699C82.7393 39.1631 84.3047 39.0879 86.0957 38.7598L86.2188 39.8125C84.3047 40.168 82.6504 40.25 80.3535 40.2637H79.3555V35.4648H83.6484V33.0723H79.3281ZM97.1973 31.9512V32.9902H99.8633V30.9258H101.162V39.8535H99.8633V36.6816H97.1973V37.748H91.5098V31.9512H97.1973ZM92.7949 36.7227H95.9258V33.0039H92.7949V36.7227ZM93.1641 42.9023V39.0332H94.4766V41.8496H101.436V42.9023H93.1641ZM97.1973 35.6152H99.8633V34.0566H97.1973V35.6152ZM105.059 39.0605C105.079 37.2695 105.605 36.7227 106.508 36.1621C107.082 35.8135 107.52 35.3076 107.52 34.5898C107.52 33.7354 106.863 33.1953 106.043 33.1953C105.305 33.1953 104.587 33.6465 104.525 34.6582H103.049C103.104 32.915 104.416 31.9648 106.043 31.9648C107.82 31.9648 109.01 33.0312 109.01 34.5898C109.01 35.6904 108.483 36.4219 107.615 36.9551C106.795 37.4541 106.474 37.9463 106.453 39.0605V39.1426H105.059V39.0605ZM104.84 41.125C104.833 40.5918 105.277 40.1543 105.811 40.1543C106.337 40.1543 106.774 40.5918 106.781 41.125C106.774 41.6582 106.337 42.0889 105.811 42.0957C105.277 42.0889 104.833 41.6582 104.84 41.125Z" fill="#474747"/>
<path d="M47.9766 57.6016V59.1016C47.9883 60.4492 47.9883 62.125 47.5898 64.2109H50.2266V66.8359H30.5625V64.2109H44.168C44.4844 62.6406 44.5664 61.3633 44.5898 60.25H32.9297V57.6016H47.9766ZM32.7422 70.7266V68.1484H47.8359V74.3359H36.1172V75.5312H48.4219V78.1094H32.7656V71.8516H44.5078V70.7266H32.7422ZM76.3359 73.0703V75.8125H56.6719V73.0703H64.8047V68.9219H58.6875V58.2578H74.2266V68.9219H68.1328V73.0703H76.3359ZM62.0156 66.2969H70.875V60.9531H62.0156V66.2969ZM95.4844 56.7578V68.875H92.1094V56.7578H95.4844ZM77.6953 62.9219C77.6836 59.8398 80.2617 57.6953 83.6484 57.6953C87.0234 57.6953 89.6016 59.8398 89.6016 62.9219C89.6016 65.8984 87.0234 68.1016 83.6484 68.1016C80.2617 68.1016 77.6836 65.8984 77.6953 62.9219ZM80.9531 78.0156V69.7891H95.4844V78.0156H80.9531ZM80.9766 62.9219C80.9766 64.4102 82.0898 65.2773 83.6484 65.2656C85.1602 65.2773 86.2617 64.4102 86.25 62.9219C86.2617 61.3516 85.1602 60.5195 83.6484 60.5312C82.0898 60.5195 80.9766 61.3516 80.9766 62.9219ZM84.2578 75.3203H92.1797V72.4375H84.2578V75.3203ZM116.859 56.7344V78.25H113.625V56.7344H116.859ZM98.3203 66.0625C98.3086 61.1758 100.16 58.1875 103.008 58.1875C105.598 58.1875 107.379 60.5664 107.73 64.5625H109.148V57.0156H112.336V77.2891H109.148V67.2344H107.754C107.473 71.4531 105.668 73.9844 103.008 73.9844C100.16 73.9844 98.3086 70.9844 98.3203 66.0625ZM101.414 66.0625C101.402 69.3086 101.977 70.75 103.008 70.75C104.086 70.75 104.695 69.3086 104.695 66.0625C104.695 62.8398 104.086 61.375 103.008 61.375C101.977 61.375 101.402 62.8398 101.414 66.0625ZM47.625 86.7344V94.8203H50.5078V97.5859H47.625V108.18H44.25V86.7344H47.625ZM30.2109 102.016C35.1445 99.5312 37.793 96.332 38.3789 91.6562H31.5V88.8906H41.8125C41.8125 95.4414 39.4102 101.008 32.1094 104.594L30.2109 102.016ZM69.375 86.7344V98.3125H66V86.7344H69.375ZM51.5859 92.7344C51.5742 89.6992 54.1523 87.5781 57.5391 87.5781C60.9141 87.5781 63.4922 89.6992 63.4922 92.7344C63.4922 95.6875 60.9141 97.8086 57.5391 97.8203C54.1523 97.8086 51.5742 95.6875 51.5859 92.7344ZM54.8672 108.016V99.2031H58.1719V101.008H66V99.2031H69.375V108.016H54.8672ZM54.8672 92.7344C54.8672 94.2344 55.9805 95.043 57.5391 95.0547C59.0508 95.043 60.1523 94.2344 60.1406 92.7344C60.1523 91.2461 59.0508 90.3906 57.5391 90.3906C55.9805 90.3906 54.8672 91.2461 54.8672 92.7344ZM58.1719 105.297H66V103.609H58.1719V105.297ZM82.2891 89.875V92.5469H72.0234V89.875H75.5391V87.3203H78.8672V89.875H82.2891ZM72.4453 98.5234C72.4336 95.5 74.4609 93.3672 77.2266 93.3672C79.9805 93.3672 81.9492 95.5 81.9609 98.5234C81.9492 101.57 79.9805 103.727 77.2266 103.727C74.4609 103.727 72.4336 101.57 72.4453 98.5234ZM75.3984 98.5234C75.3984 100.082 76.125 100.879 77.2266 100.867C78.2695 100.879 78.9961 100.082 79.0078 98.5234C78.9961 97 78.2695 96.1445 77.2266 96.1562C76.125 96.1445 75.3984 97 75.3984 98.5234ZM82.9922 107.359V87.1328H86.1328V95.3828H87.5156V86.7344H90.7266V108.25H87.5156V98.0781H86.1328V107.359H82.9922ZM117.82 103.094V105.836H98.1562V103.094H106.289V99.3203H100.172V88.0703H103.547V91.2344H112.336V88.0703H115.711V99.3203H109.617V103.094H117.82ZM103.547 96.6484H112.336V93.8828H103.547V96.6484ZM125.953 91.9141C125.953 95.4297 126.691 98.9922 129.68 100.938L127.852 103.539C126.082 102.473 124.98 100.773 124.312 98.7461C123.574 101.008 122.355 102.906 120.492 104.031L118.453 101.523C121.699 99.4961 122.672 95.7109 122.672 92.0781V88.5156H125.953V91.9141ZM127.43 96.5781V93.8359H129.938V87.0156H133.078V107.289H129.938V96.5781H127.43ZM134.367 108.25V86.7344H137.602V108.25H134.367ZM159.305 103.07V105.812H139.641V103.07H143.883V97.9609C142.266 96.9414 141.293 95.418 141.305 93.5312C141.293 90.0273 144.75 87.6953 149.438 87.6953C154.113 87.6953 157.605 90.0273 157.617 93.5312C157.605 95.3828 156.668 96.8828 155.109 97.8906V103.07H159.305ZM144.656 93.5312C144.645 95.5703 146.508 96.7656 149.438 96.7656C152.344 96.7656 154.266 95.5703 154.266 93.5312C154.266 91.4688 152.344 90.332 149.438 90.3438C146.508 90.332 144.645 91.4688 144.656 93.5312ZM147.211 103.07H151.688V99.1797C150.984 99.2969 150.223 99.3672 149.438 99.3672C148.652 99.3672 147.914 99.2969 147.211 99.1797V103.07Z" fill="#0B0B0B"/>
<path d="M278.13 291.59H208.09C206.15 291.59 204.57 290.02 204.57 288.07V245.57C204.57 214.33 179.24 189 148 189C116.76 189 91.43 214.33 91.43 245.57V288.07C91.43 290.01 89.86 291.59 87.91 291.59H0V372.27H17.87V372.41H278.14V372.27H296.01V291.59H278.14H278.13Z" fill="#C5DB8F"/>
<path d="M202.65 372.41H93.3496L110.96 291.59H185.04L202.65 372.41Z" fill="#F1F6E2"/>
<path d="M178.45 298.64H117.55C116.556 298.64 115.75 299.443 115.75 300.435C115.75 301.426 116.556 302.23 117.55 302.23H178.45C179.444 302.23 180.25 301.426 180.25 300.435C180.25 299.443 179.444 298.64 178.45 298.64Z" fill="#C5DB8F"/>
<path d="M180.02 309.63H115.98C114.986 309.63 114.18 310.434 114.18 311.425C114.18 312.416 114.986 313.22 115.98 313.22H180.02C181.014 313.22 181.82 312.416 181.82 311.425C181.82 310.434 181.014 309.63 180.02 309.63Z" fill="#C5DB8F"/>
<path d="M181.69 320.62H114.31C113.316 320.62 112.51 321.423 112.51 322.415C112.51 323.406 113.316 324.21 114.31 324.21H181.69C182.684 324.21 183.49 323.406 183.49 322.415C183.49 321.423 182.684 320.62 181.69 320.62Z" fill="#C5DB8F"/>
<path d="M183.239 331.61H112.759C111.765 331.61 110.959 332.414 110.959 333.405C110.959 334.396 111.765 335.2 112.759 335.2H183.239C184.233 335.2 185.039 334.396 185.039 333.405C185.039 332.414 184.233 331.61 183.239 331.61Z" fill="#C5DB8F"/>
<path d="M184.669 342.6H111.329C110.335 342.6 109.529 343.403 109.529 344.395C109.529 345.386 110.335 346.19 111.329 346.19H184.669C185.663 346.19 186.469 345.386 186.469 344.395C186.469 343.403 185.663 342.6 184.669 342.6Z" fill="#C5DB8F"/>
<path d="M186.7 353.59H109.31C108.316 353.59 107.51 354.394 107.51 355.385C107.51 356.376 108.316 357.18 109.31 357.18H186.7C187.694 357.18 188.5 356.376 188.5 355.385C188.5 354.394 187.694 353.59 186.7 353.59Z" fill="#C5DB8F"/>
</g>
<defs>
<clipPath id="clip0_1788_36578">
<rect width="296" height="372" rx="8" fill="white"/>
</clipPath>
</defs>
</svg>
