<svg width="62" height="14" viewBox="0 0 62 14" fill="none" xmlns="http://www.w3.org/2000/svg">
<g id="mainGraphicLogo" clip-path="url(#clip0_1349_44047)">
<path id="Vector" d="M21.784 11.6735C21.784 10.6199 20.928 9.76581 19.8722 9.76581C18.8164 9.76581 17.9604 10.6199 17.9604 11.6735C17.9604 12.7271 18.8164 13.5812 19.8722 13.5812C20.928 13.5812 21.784 12.7271 21.784 11.6735Z" fill="#6139D1"/>
<path id="Vector_2" d="M4.37313 1.14939V4.35722C4.37313 4.67637 4.11374 4.93521 3.79391 4.93521H0.57922C0.259395 4.93521 0 5.19405 0 5.51319V13.0848C0 13.404 0.259395 13.6628 0.57922 13.6628H16.9137C17.2336 13.6628 17.4929 13.404 17.4929 13.0848V9.87699C17.4929 9.55785 17.7523 9.299 18.0722 9.299H21.2869C21.6067 9.299 21.8661 9.04016 21.8661 8.72102V1.14939C21.8661 0.830253 21.6067 0.571411 21.2869 0.571411H4.95277C4.63294 0.571411 4.37354 0.830253 4.37354 1.14939H4.37313Z" fill="#6139D1"/>
<g id="Group">
<path id="Vector_3" d="M26.8381 0.571411H30.9075C31.0152 0.571411 31.1106 0.640736 31.1439 0.742878L33.9557 9.39909C33.9869 9.51231 34.0165 9.62061 34.0449 9.72521C34.1111 9.97256 34.4621 9.9701 34.5259 9.72193C34.5526 9.61856 34.5809 9.51108 34.6122 9.39909L37.2945 0.74616C37.3266 0.642377 37.4228 0.571411 37.5317 0.571411H41.5797C41.717 0.571411 41.828 0.682578 41.828 0.819177V13.4154C41.828 13.5525 41.7166 13.6632 41.5797 13.6632H39.3027C39.1654 13.6632 39.0544 13.552 39.0544 13.4154V5.24697C39.0544 5.2404 39.0544 5.23384 39.0544 5.22728C39.0544 4.94136 38.6507 4.88065 38.5681 5.15467L36.0526 13.4868C36.021 13.5914 35.9244 13.6632 35.8146 13.6632H32.7689C32.6612 13.6632 32.5654 13.5939 32.5325 13.4913L29.8296 5.11119C29.7425 4.84127 29.3437 4.90444 29.3449 5.18831C29.3449 5.21415 29.3449 5.23999 29.3449 5.26583V13.4154C29.3449 13.5525 29.2335 13.6632 29.0966 13.6632H26.8381C26.7008 13.6632 26.5898 13.552 26.5898 13.4154V0.819177C26.5898 0.682167 26.7012 0.571411 26.8381 0.571411Z" fill="#6139D1"/>
<path id="Vector_4" d="M44.1504 4.49916H46.3711C46.5084 4.49916 46.6194 4.61033 46.6194 4.74693V13.4155C46.6194 13.5525 46.508 13.6632 46.3711 13.6632H44.1504C44.0131 13.6632 43.9021 13.5521 43.9021 13.4155V4.74693C43.9021 4.60992 44.0135 4.49916 44.1504 4.49916ZM43.7241 1.47757C43.7241 0.598494 44.3428 0 45.2612 0C46.3826 0 47.0963 0.929942 46.6761 2.1741C46.5721 2.48217 46.2231 2.79885 45.9086 2.88335C44.6454 3.22301 43.7241 2.57324 43.7241 1.47757Z" fill="#6139D1"/>
<path id="Vector_5" d="M48.8904 0.571411H51.1111C51.2484 0.571411 51.3594 0.682578 51.3594 0.819177V13.4154C51.3594 13.5525 51.248 13.6632 51.1111 13.6632H48.8904C48.7531 13.6632 48.6421 13.552 48.6421 13.4154V0.819177C48.6421 0.682167 48.7535 0.571411 48.8904 0.571411Z" fill="#6139D1"/>
<path id="Vector_6" d="M52.7222 9.06226C52.7222 6.12599 54.6715 4.18079 57.4455 4.18079C60.2196 4.18079 62 6.16332 62 9.19312V9.46878C62 9.60579 61.8886 9.71655 61.7517 9.71655H55.7416C55.5961 9.71655 55.4785 9.84084 55.4941 9.98523C55.6179 11.1346 56.4224 11.9423 57.5023 11.9423C58.2981 11.9423 58.9666 11.544 59.1676 10.8204C59.198 10.7113 59.2942 10.6334 59.4081 10.6334H61.6588C61.8121 10.6334 61.9317 10.7712 61.9042 10.9217C61.5844 12.686 59.9569 13.9995 57.5023 13.9995C54.7283 13.9995 52.723 12.2414 52.723 9.06185L52.7222 9.06226ZM58.9575 7.93993C59.1084 7.93993 59.2251 7.80662 59.2042 7.6573C59.0739 6.73023 58.3824 6.12558 57.4266 6.12558C56.4709 6.12558 55.7268 6.74787 55.5114 7.63679C55.474 7.79144 55.5944 7.93993 55.7539 7.93993H58.9575Z" fill="#6139D1"/>
</g>
</g>
<defs>
<clipPath id="clip0_1349_44047">
<rect width="62" height="14" fill="white"/>
</clipPath>
</defs>
</svg>
