<svg width="48" height="48" viewBox="0 0 48 48" fill="none" xmlns="http://www.w3.org/2000/svg">
<g id="mainBtnBefore" clip-path="url(#clip0_786_1343)">
<path id="Vector" d="M23.9997 47.3334C11.1131 47.3334 0.666405 36.8867 0.666405 24C0.666405 11.1134 11.1131 0.666748 23.9997 0.666748C36.8863 0.666748 47.333 11.1134 47.333 24C47.333 36.8867 36.8863 47.3334 23.9997 47.3334Z" fill="white" stroke="#D3D3D3" stroke-width="1.33333"/>
<path id="Vector_2" fill-rule="evenodd" clip-rule="evenodd" d="M26.0662 17.3627C25.7668 17.0633 25.2813 17.0633 24.9819 17.3627L18.8867 23.458C18.5873 23.7574 18.5873 24.2428 18.8867 24.5422L24.9819 30.6374C25.2813 30.9368 25.7668 30.9368 26.0662 30.6374C26.3656 30.338 26.3656 29.8526 26.0662 29.5532L20.513 24.0001L26.0662 18.447C26.3656 18.1476 26.3656 17.6621 26.0662 17.3627Z" fill="#D3D3D3"/>
</g>
<defs>
<clipPath id="clip0_786_1343">
<rect width="48" height="48" fill="white"/>
</clipPath>
</defs>
</svg>
