<svg width="930" height="335" viewBox="0 0 930 335" fill="none" xmlns="http://www.w3.org/2000/svg">
<g clip-path="url(#clip0_1788_36800)">
<path d="M879.081 228.55H871.91C845.025 228.55 823.23 250.345 823.23 277.23V284.4C823.23 311.285 845.025 333.08 871.91 333.08H879.081C905.966 333.08 927.76 311.285 927.76 284.4V277.23C927.76 250.345 905.966 228.55 879.081 228.55Z" fill="#ABABDD"/>
<path d="M153.2 15.81V101.52C153.2 110.25 146.11 117.33 137.36 117.33H15.84C7.09 117.33 0 124.41 0 133.14V319.21C0 327.94 7.09 335.02 15.84 335.02H794.62C803.37 335.02 810.46 327.94 810.46 319.21V231.5C810.46 222.77 817.55 215.69 826.3 215.69H914.18C922.93 215.69 930.02 208.61 930.02 199.88V15.81C930.02 7.08 922.93 0 914.18 0H169.04C160.29 0 153.2 7.08 153.2 15.81Z" fill="#ABABDD"/>
<path d="M569.24 210.35H601.06C601.9 210.35 602.65 210.89 602.91 211.69L624.9 279.52C625.14 280.41 625.38 281.26 625.6 282.08C626.12 284.02 628.86 284 629.36 282.05C629.57 281.24 629.79 280.4 630.03 279.52L651 211.72C651.25 210.91 652 210.35 652.86 210.35H684.51C685.58 210.35 686.45 211.22 686.45 212.29V310.99C686.45 312.06 685.58 312.93 684.51 312.93H666.71C665.64 312.93 664.77 312.06 664.77 310.99V246.99C664.77 246.94 664.77 246.89 664.77 246.84C664.77 244.6 661.62 244.12 660.97 246.27L641.3 311.56C641.05 312.38 640.3 312.94 639.44 312.94H615.63C614.79 312.94 614.04 312.4 613.78 311.59L592.65 245.93C591.97 243.81 588.85 244.31 588.86 246.53C588.86 246.73 588.86 246.93 588.86 247.14V311C588.86 312.07 587.99 312.94 586.92 312.94H569.26C568.19 312.94 567.32 312.07 567.32 311V212.3C567.32 211.23 568.19 210.36 569.26 210.36L569.24 210.35Z" fill="#E8E3F6"/>
<path d="M555.47 179.9L569.77 186.95C570.65 187.39 571.02 188.46 570.58 189.34L543 245.29C542.56 246.17 541.49 246.54 540.61 246.1L526.31 239.05C525.43 238.61 525.06 237.54 525.5 236.66L553.08 180.71C553.52 179.83 554.59 179.46 555.47 179.9ZM562.34 159.04C565.14 153.37 571.02 151.47 576.94 154.38C584.16 157.94 585.8 166.21 579.14 172.9C577.49 174.56 574.23 175.49 571.94 175.04C562.72 173.22 558.86 166.1 562.34 159.03V159.04Z" fill="#E8E3F6"/>
<path d="M818.711 161.21L831.551 170.66C832.341 171.24 832.511 172.36 831.931 173.15L778.201 246.15C777.621 246.94 776.501 247.11 775.711 246.53L762.871 237.08C762.081 236.5 761.911 235.38 762.491 234.59L816.221 161.59C816.801 160.8 817.921 160.63 818.711 161.21Z" fill="#E8E3F6"/>
<path d="M478.221 296.72C465.961 279.51 469.241 259.99 485.461 248.43C502.341 236.4 520.371 241.07 533.021 258.83L534.171 260.45C534.741 261.25 534.551 262.37 533.751 262.94L498.601 287.98C497.751 288.59 497.581 289.81 498.271 290.59C503.791 296.81 511.871 298.19 518.181 293.69C522.831 290.37 525.081 285.25 523.231 280.18C522.951 279.41 523.191 278.56 523.851 278.08L537.011 268.7C537.911 268.06 539.181 268.37 539.651 269.37C545.151 281.04 541.111 295.52 526.761 305.75C510.541 317.31 491.471 315.36 478.191 296.73L478.221 296.72ZM510.001 264.16C510.881 263.53 511.011 262.26 510.261 261.48C505.631 256.59 499.061 255.93 493.471 259.91C487.881 263.89 486.131 270.64 488.581 276.75C489.011 277.81 490.331 278.18 491.261 277.52L510.001 264.17V264.16Z" fill="#E8E3F6"/>
<path d="M777.922 260.72H775.642C769.942 260.72 765.332 265.34 765.332 271.03V283.85C765.332 289.55 769.952 294.16 775.642 294.16H777.922C783.622 294.16 788.232 289.54 788.232 283.85V271.03C788.232 265.33 783.612 260.72 777.922 260.72ZM782.412 283.57C782.412 286.37 780.142 288.64 777.342 288.64H776.222C773.422 288.64 771.152 286.37 771.152 283.57V271.32C771.152 268.52 773.422 266.25 776.222 266.25H777.342C780.142 266.25 782.412 268.52 782.412 271.32V283.57Z" fill="#E8E3F6"/>
<path d="M723.472 255.39H761.272C766.722 255.39 771.142 259.81 771.142 265.26V284.16C771.142 300.04 758.252 312.93 742.372 312.93C726.492 312.93 713.602 300.04 713.602 284.16V265.26C713.602 259.81 718.022 255.39 723.472 255.39Z" fill="#E8E3F6"/>
<path d="M730.48 215.27C723.21 208.33 712.21 207.72 704.28 213.29C702.53 214.52 702.37 217.06 703.91 218.53L728.43 241.95C729.98 243.43 732.5 243.15 733.65 241.35C738.85 233.18 737.74 222.21 730.47 215.27H730.48Z" fill="#E8E3F6"/>
<path d="M745.581 199.47C752.911 206.48 764.061 207.03 772.001 201.3C773.621 200.13 773.791 197.78 772.341 196.4L747.441 172.61C745.991 171.23 743.651 171.5 742.561 173.17C737.191 181.36 738.261 192.47 745.591 199.47H745.581Z" fill="#E8E3F6"/>
<path d="M760.866 197.334L747.041 184.127L714.05 218.661L727.876 231.869L760.866 197.334Z" fill="#E8E3F6"/>
<path d="M693.591 255.03C692.861 255.65 691.851 254.69 692.441 253.93L700.961 242.95L713.701 226.54C713.991 226.17 714.541 226.13 714.881 226.45L717.441 228.9L720.001 231.35C720.341 231.68 720.331 232.23 719.971 232.53L704.161 246L693.581 255.02L693.591 255.03Z" fill="#E8E3F6"/>
<path d="M425.364 240.995L370.431 252.952C354.317 256.46 344.097 272.364 347.604 288.475C351.111 304.586 367.016 314.804 383.13 311.296L438.064 299.339C454.178 295.831 464.398 279.927 460.891 263.816C457.384 247.705 441.478 237.488 425.364 240.995Z" fill="#E8E3F6"/>
<path d="M424.92 302.17L434.35 312.05C436.1 313.89 439.2 312.68 439.25 310.14L439.53 293.26L423.73 296.7L424.92 302.17Z" fill="#E8E3F6"/>
<path d="M289.787 243.042L275.898 259.099C274.453 260.77 274.636 263.296 276.306 264.741L292.363 278.63C294.034 280.075 296.56 279.892 298.005 278.221L311.894 262.165C313.339 260.494 313.156 257.968 311.486 256.523L295.429 242.634C293.758 241.189 291.232 241.372 289.787 243.042Z" fill="#E8E3F6"/>
<path d="M288.681 269.77L284.401 274.72C281.641 277.91 276.811 278.26 273.611 275.5L269.291 271.76C268.721 271.27 267.861 271.33 267.371 271.9L260.921 279.35C260.431 279.92 260.491 280.78 261.061 281.27L265.381 285.01C273.831 292.32 286.601 291.39 293.911 282.94L298.191 277.99L288.681 269.76V269.77Z" fill="#E8E3F6"/>
<path d="M316.371 266.032L302.482 282.089C301.037 283.76 301.22 286.286 302.89 287.731L318.947 301.62C320.618 303.065 323.144 302.882 324.589 301.212L338.478 285.155C339.923 283.484 339.74 280.958 338.07 279.513L322.013 265.624C320.342 264.179 317.816 264.362 316.371 266.032Z" fill="#E8E3F6"/>
<path d="M315.261 292.76L310.981 297.71C308.221 300.9 303.391 301.25 300.191 298.49L295.871 294.75C295.301 294.26 294.441 294.32 293.951 294.89L287.501 302.34C287.011 302.91 287.071 303.77 287.641 304.26L291.961 308C300.411 315.31 313.181 314.38 320.491 305.93L324.771 300.98L315.261 292.75V292.76Z" fill="#E8E3F6"/>
<path d="M444.379 173.589L423.377 202.024C420.096 206.466 421.037 212.728 425.479 216.009L464.524 244.847C468.966 248.129 475.227 247.187 478.509 242.745L499.511 214.31C502.792 209.868 501.851 203.607 497.408 200.325L458.364 171.487C453.921 168.205 447.66 169.147 444.379 173.589Z" fill="#E8E3F6"/>
<path d="M502.26 210.6C500.5 212.98 495.44 212.26 491.01 208.99L451.96 180.15C447.54 176.88 445.36 172.26 447.12 169.87C448.88 167.48 453.94 168.21 458.37 171.48L497.42 200.32C501.84 203.59 504.02 208.21 502.26 210.6Z" fill="#E8E3F6"/>
<path d="M490.77 156.05C496.24 155.47 501.58 159.41 502.63 164.81L505.07 177.26C506.13 182.66 507.85 191.49 508.91 196.89L511.35 209.34C512.41 214.74 509.65 216.48 505.23 213.21L482.54 196.45C478.12 193.18 470.88 187.84 466.45 184.57L443.76 167.81C439.34 164.54 440.19 161.4 445.66 160.82L458.28 159.49C463.75 158.91 472.7 157.97 478.17 157.39L490.79 156.06L490.77 156.05Z" fill="#E8E3F6"/>
</g>
<defs>
<clipPath id="clip0_1788_36800">
<rect width="930" height="335" fill="white"/>
</clipPath>
</defs>
</svg>
