<svg width="296" height="372" viewBox="0 0 296 372" fill="none" xmlns="http://www.w3.org/2000/svg">
<g clip-path="url(#clip0_1788_36638)">
<rect width="296" height="372" rx="8" fill="#E6F2CA"/>
<path fill-rule="evenodd" clip-rule="evenodd" d="M40.3147 156H134.685C140.382 156 145 160.618 145 166.315V215.258C145 220.954 140.382 225.572 134.685 225.572H96.8992C96.8593 225.656 96.8167 225.739 96.7715 225.822L93.9951 230.858L90.7202 236.807H90.7116C89.216 239.523 85.7863 239.523 84.2907 236.807L81.0158 230.858L78.2394 225.822C78.1941 225.739 78.1516 225.656 78.1117 225.572H40.3147C34.618 225.572 30 220.954 30 215.258V166.315C30 160.618 34.618 156 40.3147 156Z" fill="#D0E797" fill-opacity="0.5"/>
<path fill-rule="evenodd" clip-rule="evenodd" d="M184.074 254H257.94C262.399 254 266.013 257.615 266.013 262.074V300.382C266.013 304.841 262.399 308.456 257.94 308.456H228.364C228.333 308.522 228.299 308.587 228.264 308.652L226.09 312.594L223.527 317.25H223.52C222.35 319.376 219.665 319.376 218.495 317.25L215.931 312.594L213.758 308.652C213.722 308.587 213.689 308.522 213.658 308.456H184.074C179.615 308.456 176 304.841 176 300.382V262.074C176 257.615 179.615 254 184.074 254Z" fill="#D0E797" fill-opacity="0.5"/>
<path d="M40.2402 32.2383V32.5869C40.2402 33.0563 40.222 33.5166 40.1855 33.9678C40.1536 34.4144 40.0853 34.8952 39.9805 35.4102H41.6621V36.4492H30.4512V35.4102H38.6748C38.7887 34.8542 38.8639 34.346 38.9004 33.8857C38.9368 33.4255 38.9551 32.9538 38.9551 32.4707H31.8594V31.4316H40.2402V32.2383ZM31.7637 37.543H40.2539V40.7559H33.0762V42H40.5684V43.0391H31.7773V39.7578H38.9688V38.582H31.7637V37.543ZM53.748 38.2539H42.5508V37.1875H53.748V38.2539ZM42.7969 35.3008C43.2936 35.1185 43.7152 34.8678 44.0615 34.5488C44.4124 34.2253 44.6745 33.8743 44.8477 33.4961C45.0254 33.1178 45.112 32.7487 45.1074 32.3887V31.3223H46.3926V32.3887C46.3971 32.6986 46.4655 33.0244 46.5977 33.3662C46.7298 33.7035 46.9258 34.027 47.1855 34.3369C47.4453 34.6468 47.762 34.9111 48.1357 35.1299C48.5049 34.9157 48.8171 34.6559 49.0723 34.3506C49.3275 34.0407 49.5189 33.7171 49.6465 33.3799C49.7786 33.0426 49.8424 32.7122 49.8379 32.3887V31.3223H51.1504V32.3887C51.1504 32.7852 51.237 33.1748 51.4102 33.5576C51.5833 33.9404 51.8431 34.2845 52.1895 34.5898C52.5404 34.8952 52.9688 35.1322 53.4746 35.3008L52.8594 36.2441C52.2897 36.0436 51.8066 35.7611 51.4102 35.3965C51.0182 35.0273 50.7152 34.599 50.501 34.1113C50.2868 34.6263 49.9814 35.082 49.585 35.4785C49.1885 35.875 48.7031 36.1758 48.1289 36.3809C47.5547 36.1712 47.0671 35.8636 46.666 35.458C46.2695 35.0524 45.9665 34.5876 45.7568 34.0635C45.5381 34.5511 45.2327 34.984 44.8408 35.3623C44.4489 35.736 43.9772 36.0208 43.4258 36.2168L42.7969 35.3008ZM43.9316 39.2656H45.2305V41.8496H52.5449V42.9023H43.9316V39.2656ZM64.7949 43.1895H63.4961V30.9121H64.7949V43.1895ZM55.0742 36.1211C55.0742 35.2643 55.2087 34.5124 55.4775 33.8652C55.7464 33.2135 56.1201 32.7122 56.5986 32.3613C57.0817 32.0059 57.6309 31.8281 58.2461 31.8281C58.8522 31.8281 59.3945 32.0059 59.873 32.3613C60.3516 32.7122 60.7253 33.2135 60.9941 33.8652C61.2676 34.5124 61.4043 35.2643 61.4043 36.1211C61.4043 36.987 61.2676 37.7458 60.9941 38.3975C60.7253 39.0492 60.3516 39.5505 59.873 39.9014C59.3945 40.2523 58.8522 40.4277 58.2461 40.4277C57.6309 40.4277 57.0817 40.2523 56.5986 39.9014C56.1201 39.5505 55.7464 39.0492 55.4775 38.3975C55.2087 37.7458 55.0742 36.987 55.0742 36.1211ZM56.332 36.1211C56.332 36.7591 56.4118 37.3151 56.5713 37.7891C56.7308 38.263 56.9541 38.6276 57.2412 38.8828C57.5329 39.138 57.8678 39.2656 58.2461 39.2656C58.6198 39.2656 58.9502 39.138 59.2373 38.8828C59.5244 38.6276 59.7477 38.263 59.9072 37.7891C60.0667 37.3151 60.1465 36.7591 60.1465 36.1211C60.1465 35.4922 60.0667 34.943 59.9072 34.4736C59.7477 33.9997 59.5244 33.6351 59.2373 33.3799C58.9502 33.1201 58.6198 32.9902 58.2461 32.9902C57.8678 32.9902 57.5329 33.1201 57.2412 33.3799C56.9541 33.6351 56.7308 33.9997 56.5713 34.4736C56.4118 34.943 56.332 35.4922 56.332 36.1211ZM76.293 35.793H78.1934V36.873H76.293V43.1484H74.9941V30.9121H76.293V35.793ZM66.7637 39.8809C68.2949 39.1152 69.4775 38.181 70.3115 37.0781C71.1501 35.9753 71.6354 34.7083 71.7676 33.2773H67.3789V32.1973H73.0938C73.0846 34.0658 72.6312 35.7451 71.7334 37.2354C70.8356 38.721 69.4206 39.9401 67.4883 40.8926L66.7637 39.8809ZM92.0566 32.3066V32.6826C92.0566 33.2021 92.0361 33.7057 91.9951 34.1934C91.9587 34.681 91.8835 35.2005 91.7695 35.752H93.4785V36.791H88.4883V38.5752C89.2493 38.6162 89.901 38.7324 90.4434 38.9238C90.9902 39.1152 91.4095 39.3727 91.7012 39.6963C91.9928 40.0199 92.1387 40.4004 92.1387 40.8379C92.1387 41.3255 91.9655 41.7425 91.6191 42.0889C91.2773 42.4352 90.7852 42.695 90.1426 42.8682C89.5 43.0459 88.7344 43.1348 87.8457 43.1348C86.9525 43.1348 86.1823 43.0459 85.5352 42.8682C84.8926 42.695 84.3981 42.4352 84.0518 42.0889C83.71 41.7425 83.5391 41.3255 83.5391 40.8379C83.5391 40.4004 83.6826 40.0199 83.9697 39.6963C84.2614 39.3727 84.6807 39.1152 85.2275 38.9238C85.779 38.7324 86.4375 38.6162 87.2031 38.5752V36.791H82.2676V35.752H90.4639C90.596 35.1367 90.6803 34.583 90.7168 34.0908C90.7533 33.5941 90.7715 33.0495 90.7715 32.457H83.6758V31.418H92.0566V32.3066ZM84.8516 40.8379C84.847 41.2435 85.1022 41.5557 85.6172 41.7744C86.1322 41.9886 86.8613 42.0957 87.8047 42.0957C88.7663 42.0957 89.5114 41.9886 90.04 41.7744C90.5687 41.5602 90.8353 41.248 90.8398 40.8379C90.8353 40.4414 90.571 40.1383 90.0469 39.9287C89.5228 39.7145 88.7891 39.6074 87.8457 39.6074C86.8887 39.6074 86.1481 39.7145 85.624 39.9287C85.1045 40.1383 84.847 40.4414 84.8516 40.8379ZM104.156 32.457V32.833C104.156 33.3662 104.136 33.8812 104.095 34.3779C104.054 34.8747 103.969 35.4147 103.842 35.998H105.578V37.0645H94.3672V35.998H102.529C102.675 35.36 102.769 34.7858 102.81 34.2754C102.851 33.765 102.871 33.2044 102.871 32.5938H95.7754V31.5273H104.156V32.457ZM95.7344 38.623H104.17V43.0117H95.7344V38.623ZM102.885 41.959V39.6484H97.0059V41.959H102.885ZM116.01 35.875H117.979V36.9551H116.01V43.1621H114.725V30.9121H116.01V35.875ZM106.398 32.8262H109.42V31.0762H110.719V32.8262H113.658V33.8926H106.398V32.8262ZM107.027 37.6387C107.027 37.0918 107.157 36.6019 107.417 36.1689C107.681 35.736 108.044 35.3988 108.504 35.1572C108.969 34.9157 109.493 34.7949 110.076 34.7949C110.655 34.7949 111.174 34.9157 111.635 35.1572C112.1 35.3988 112.464 35.736 112.729 36.1689C112.993 36.6019 113.125 37.0918 113.125 37.6387C113.125 38.1901 112.993 38.6823 112.729 39.1152C112.464 39.5482 112.1 39.8877 111.635 40.1338C111.174 40.3753 110.655 40.4961 110.076 40.4961C109.493 40.4961 108.969 40.3753 108.504 40.1338C108.044 39.8877 107.681 39.5482 107.417 39.1152C107.157 38.6823 107.027 38.1901 107.027 37.6387ZM108.271 37.6387C108.271 37.9896 108.347 38.2995 108.497 38.5684C108.652 38.8372 108.866 39.0446 109.14 39.1904C109.418 39.3363 109.73 39.4069 110.076 39.4023C110.418 39.4069 110.726 39.3363 110.999 39.1904C111.272 39.0446 111.487 38.8372 111.642 38.5684C111.801 38.2995 111.881 37.9896 111.881 37.6387C111.881 37.2969 111.801 36.9915 111.642 36.7227C111.487 36.4538 111.272 36.2441 110.999 36.0938C110.726 35.9388 110.418 35.8613 110.076 35.8613C109.73 35.8613 109.418 35.9388 109.14 36.0938C108.866 36.2441 108.652 36.4538 108.497 36.7227C108.347 36.9915 108.271 37.2969 108.271 37.6387ZM128.109 35.6562H130.078V36.7227H128.109V43.1895H126.811V30.9121H128.109V35.6562ZM119.086 32.0879H124.814V33.1406H120.385V39.0605C121.469 39.056 122.422 39.0241 123.242 38.9648C124.062 38.9056 124.892 38.8008 125.73 38.6504L125.895 39.7441C125.029 39.8991 124.179 40.0039 123.345 40.0586C122.515 40.1133 121.529 40.1406 120.385 40.1406H120.07H119.086V32.0879ZM136.914 32.9902H139.58V30.9258H140.879V39.8535H139.58V36.6816H136.914V37.748H131.227V31.9512H136.914V32.9902ZM135.643 36.7227V33.0039H132.512V36.7227H135.643ZM132.881 39.0332H134.193V41.8496H141.152V42.9023H132.881V39.0332ZM139.58 35.6152V34.0566H136.914V35.6152H139.58ZM144.775 39.0605C144.78 38.4863 144.837 38.0215 144.946 37.666C145.06 37.306 145.217 37.0189 145.418 36.8047C145.618 36.5859 145.887 36.3717 146.225 36.1621C146.899 35.752 147.236 35.2279 147.236 34.5898C147.236 34.3118 147.17 34.068 147.038 33.8584C146.91 33.6442 146.733 33.4801 146.505 33.3662C146.282 33.2523 146.033 33.1953 145.76 33.1953C145.505 33.1953 145.265 33.25 145.042 33.3594C144.819 33.4642 144.634 33.626 144.488 33.8447C144.342 34.0635 144.26 34.3346 144.242 34.6582H142.766C142.784 34.0931 142.925 33.6077 143.189 33.2021C143.458 32.7965 143.816 32.4889 144.263 32.2793C144.709 32.0697 145.208 31.9648 145.76 31.9648C146.343 31.9648 146.858 32.0765 147.305 32.2998C147.756 32.5186 148.104 32.8262 148.351 33.2227C148.601 33.6191 148.727 34.0749 148.727 34.5898C148.727 35.1185 148.608 35.5765 148.371 35.9639C148.134 36.3467 147.788 36.6771 147.332 36.9551C147.049 37.1283 146.826 37.306 146.662 37.4883C146.498 37.666 146.375 37.8802 146.293 38.1309C146.215 38.3815 146.174 38.6914 146.17 39.0605V39.1426H144.775V39.0605ZM144.557 41.1387C144.557 40.9609 144.6 40.7969 144.687 40.6465C144.773 40.4961 144.889 40.3776 145.035 40.291C145.186 40.1999 145.35 40.1543 145.527 40.1543C145.701 40.1543 145.86 40.1976 146.006 40.2842C146.156 40.3708 146.275 40.4893 146.361 40.6396C146.452 40.79 146.498 40.9518 146.498 41.125C146.498 41.2982 146.452 41.46 146.361 41.6104C146.275 41.7562 146.156 41.8747 146.006 41.9658C145.86 42.0524 145.701 42.0957 145.527 42.0957C145.354 42.0957 145.192 42.0524 145.042 41.9658C144.896 41.8792 144.778 41.763 144.687 41.6172C144.6 41.4714 144.557 41.3118 144.557 41.1387Z" fill="#474747"/>
<path d="M30.9141 65.8047L33 59.0312H35.7422L34.6172 65.8047H30.9141ZM54.6328 57.4609V59.1953C54.6445 60.8008 54.6445 62.6289 54.2344 64.8438H56.8828V67.5156H48.6797V69.9297C52.418 70.2578 54.6445 71.7227 54.6562 74.0312C54.6445 76.75 51.75 78.2734 47.0391 78.25C42.2812 78.2734 39.3516 76.75 39.375 74.0312C39.3516 71.7344 41.6016 70.2695 45.3516 69.9297V67.5156H37.2188V64.8438H50.8125C51.1758 62.9805 51.2461 61.4922 51.2578 60.1094H39.5859V57.4609H54.6328ZM42.75 74.0312C42.75 75.1445 44.168 75.5898 47.0391 75.5781C49.8398 75.5898 51.2578 75.1445 51.2578 74.0312C51.2578 72.9883 49.8398 72.543 47.0391 72.5312C44.168 72.543 42.75 72.9883 42.75 74.0312ZM75.375 57.6719V59.4297C75.3867 61.0938 75.3867 62.9102 74.8945 65.3125H77.625V68.0078H57.9609V65.3125H71.4844C71.9062 63.3438 71.9883 61.7734 72 60.3438H60.3281V57.6719H75.375ZM60.2578 78.0156V70.0938H75.2344V78.0156H60.2578ZM63.5625 75.3203H71.8828V72.7188H63.5625V75.3203ZM88.9453 59.875V62.5469H78.6797V59.875H82.1953V57.3203H85.5234V59.875H88.9453ZM79.1016 68.5234C79.0898 65.5 81.1172 63.3672 83.8828 63.3672C86.6367 63.3672 88.6055 65.5 88.6172 68.5234C88.6055 71.5703 86.6367 73.7266 83.8828 73.7266C81.1172 73.7266 79.0898 71.5703 79.1016 68.5234ZM82.0547 68.5234C82.0547 70.082 82.7812 70.8789 83.8828 70.8672C84.9258 70.8789 85.6523 70.082 85.6641 68.5234C85.6523 67 84.9258 66.1445 83.8828 66.1562C82.7812 66.1445 82.0547 67 82.0547 68.5234ZM89.6484 77.3594V57.1328H92.7891V65.3828H94.1719V56.7344H97.3828V78.25H94.1719V68.0781H92.7891V77.3594H89.6484ZM119.109 73.0703V75.8125H99.4453V73.0703H103.688V67.9609C102.07 66.9414 101.098 65.418 101.109 63.5312C101.098 60.0273 104.555 57.6953 109.242 57.6953C113.918 57.6953 117.41 60.0273 117.422 63.5312C117.41 65.3828 116.473 66.8828 114.914 67.8906V73.0703H119.109ZM104.461 63.5312C104.449 65.5703 106.312 66.7656 109.242 66.7656C112.148 66.7656 114.07 65.5703 114.07 63.5312C114.07 61.4688 112.148 60.332 109.242 60.3438C106.312 60.332 104.449 61.4688 104.461 63.5312ZM107.016 73.0703H111.492V69.1797C110.789 69.2969 110.027 69.3672 109.242 69.3672C108.457 69.3672 107.719 69.2969 107.016 69.1797V73.0703ZM125.367 59.0312L123.281 65.8047H120.539L121.664 59.0312H125.367ZM146.484 66.2734V68.7344H126.82V66.2734H146.484ZM129.023 71.8984V69.6016H144.164V74.8516H132.398V75.8125H144.773V78.0859H129.047V72.7422H140.812V71.8984H129.023ZM129.211 59.3125V57.0625H144.164V62.2891H132.586V63.2031H144.516V65.4531H129.234V60.1797H140.766V59.3125H129.211ZM170.625 63.2969V65.9922H155.344V57.6719H158.719V63.2969H170.625ZM152.953 70.9141V68.1719H172.617V70.9141H164.367V78.25H160.969V70.9141H152.953ZM193.359 73.1406V75.8828H173.695V73.1406H193.359ZM175.875 60.8125V58.1172H191.156V65.4766H179.273V67.6094H191.648V70.2344H175.898V62.8047H187.828V60.8125H175.875ZM212.297 58.4922V60.5078C212.297 63.2148 212.297 66.2617 211.43 70.9141L208.008 70.5625C208.828 66.6133 208.887 63.6367 208.922 61.1641H196.453V58.4922H212.297ZM194.438 75.7422V73.0234H201.258V65.7109H204.609V73.0234H214.055V75.7422H194.438ZM39.7734 88.4219V91.0938H34.5938V95.8633C36.75 95.8281 38.4375 95.6992 40.2422 95.3594L40.5703 98.0312C38.1445 98.4766 36 98.582 32.8125 98.5938H31.2422V88.4219H39.7734ZM33.0469 105.578C37.9219 104.934 39.8555 102.496 39.8672 100.352V99.7656H43.2422V100.352C43.2188 102.496 45.1406 104.934 50.0625 105.578L48.6797 108.18C45.2227 107.652 42.8555 106.211 41.5547 104.289C40.2422 106.211 37.8633 107.652 34.4062 108.18L33.0469 105.578ZM41.2734 98.9219V87.0859H44.4141V91.7734H45.8906V86.7344H49.1016V100.891H45.8906V94.5156H44.4141V98.9219H41.2734ZM68.7188 87.6016V89.1016C68.7305 90.4492 68.7305 92.125 68.332 94.2109H70.9688V96.8359H51.3047V94.2109H64.9102C65.2266 92.6406 65.3086 91.3633 65.332 90.25H53.6719V87.6016H68.7188ZM53.4844 100.727V98.1484H68.5781V104.336H56.8594V105.531H69.1641V108.109H53.5078V101.852H65.25V100.727H53.4844ZM81.8438 87.0156C86.8477 87.0273 89.7305 88.3164 89.7422 90.6719C89.7305 93.0625 86.8477 94.3398 81.8438 94.3516C76.8281 94.3398 73.9336 93.0625 73.9453 90.6719C73.9336 88.3164 76.8281 87.0273 81.8438 87.0156ZM72.0469 97.8906V95.2188H91.6641V97.8906H72.0469ZM74.2734 108.133V102.273H85.9688V101.359H74.2734V98.9219H89.3203V104.617H77.6016V105.602H89.8359V108.133H74.2734ZM77.4844 90.6719C77.4727 91.5859 78.8203 91.8672 81.8438 91.8906C84.9023 91.8672 86.25 91.5859 86.25 90.6719C86.25 89.875 84.9023 89.4766 81.8438 89.4766C78.8203 89.4766 77.4727 89.875 77.4844 90.6719ZM115.289 86.7578V91.1641H118.102V93.9062H115.289V98.875H111.914V86.7578H115.289ZM98.9531 97.8906V87.7656H102.352V95.125C104.824 95.0547 107.496 94.8086 110.297 94.2812L110.695 97.0234C107.203 97.7031 103.828 97.8906 100.852 97.8906H98.9531ZM101.062 107.992V99.7891H115.289V107.992H101.062ZM104.391 105.367H111.984V102.391H104.391V105.367ZM129.938 88.9609C129.938 90.0508 129.867 91.1172 129.727 92.1484H133.758V86.7344H137.109V108.25H133.758V100.703H128.836V98.0312H133.758V94.8203H129.164C127.992 98.793 125.344 102.156 120.328 104.641L118.594 101.992C123.551 99.4141 125.988 96.2266 126.504 91.5859H119.648V88.9609H129.938ZM159.305 103.094V105.836H139.641V103.094H147.773V99.3203H141.656V88.0703H145.031V91.2344H153.82V88.0703H157.195V99.3203H151.102V103.094H159.305ZM145.031 96.6484H153.82V93.8828H145.031V96.6484ZM167.438 91.9141C167.438 95.4297 168.176 98.9922 171.164 100.938L169.336 103.539C167.566 102.473 166.465 100.773 165.797 98.7461C165.059 101.008 163.84 102.906 161.977 104.031L159.938 101.523C163.184 99.4961 164.156 95.7109 164.156 92.0781V88.5156H167.438V91.9141ZM168.914 96.5781V93.8359H171.422V87.0156H174.562V107.289H171.422V96.5781H168.914ZM175.852 108.25V86.7344H179.086V108.25H175.852ZM200.789 103.07V105.812H181.125V103.07H185.367V97.9609C183.75 96.9414 182.777 95.418 182.789 93.5312C182.777 90.0273 186.234 87.6953 190.922 87.6953C195.598 87.6953 199.09 90.0273 199.102 93.5312C199.09 95.3828 198.152 96.8828 196.594 97.8906V103.07H200.789ZM186.141 93.5312C186.129 95.5703 187.992 96.7656 190.922 96.7656C193.828 96.7656 195.75 95.5703 195.75 93.5312C195.75 91.4688 193.828 90.332 190.922 90.3438C187.992 90.332 186.129 91.4688 186.141 93.5312ZM188.695 103.07H193.172V99.1797C192.469 99.2969 191.707 99.3672 190.922 99.3672C190.137 99.3672 189.398 99.2969 188.695 99.1797V103.07ZM204.797 106.234C203.637 106.234 202.664 105.285 202.688 104.102C202.664 102.953 203.637 102.016 204.797 102.016C205.922 102.016 206.918 102.953 206.93 104.102C206.918 105.285 205.922 106.234 204.797 106.234Z" fill="#0B0B0B"/>
<path d="M151.629 299.01C149.889 302.17 145.899 302.17 144.159 299.01L140.349 292.09L137.119 286.23C135.249 282.83 137.359 278.39 140.859 278.39H147.899H154.939C158.429 278.39 160.549 282.83 158.679 286.23L155.449 292.09L151.639 299.01H151.629Z" fill="#C5DB8F"/>
<path d="M202.79 205H93C86.3726 205 81 210.373 81 217V273.94C81 280.567 86.3726 285.94 93 285.94H202.79C209.417 285.94 214.79 280.567 214.79 273.94V217C214.79 210.373 209.417 205 202.79 205Z" fill="#C5DB8F"/>
<path d="M185.83 372.11H109.96L118.21 329.83C118.6 327.85 120.33 326.42 122.34 326.42H173.45C175.47 326.42 177.2 327.85 177.58 329.83L185.83 372.11Z" fill="#C5DB8F"/>
<path d="M184.77 363.08H111.02C108.529 363.08 106.51 365.099 106.51 367.59C106.51 370.081 108.529 372.1 111.02 372.1H184.77C187.261 372.1 189.28 370.081 189.28 367.59C189.28 365.099 187.261 363.08 184.77 363.08Z" fill="#8AAB54"/>
<path d="M113.55 252.1C117.167 252.1 120.1 249.167 120.1 245.55C120.1 241.933 117.167 239 113.55 239C109.933 239 107 241.933 107 245.55C107 249.167 109.933 252.1 113.55 252.1Z" fill="#F1F6E2"/>
<path d="M148.38 252.1C151.998 252.1 154.93 249.167 154.93 245.55C154.93 241.933 151.998 239 148.38 239C144.763 239 141.83 241.933 141.83 245.55C141.83 249.167 144.763 252.1 148.38 252.1Z" fill="#F1F6E2"/>
<path d="M183.21 252.1C186.828 252.1 189.76 249.167 189.76 245.55C189.76 241.933 186.828 239 183.21 239C179.593 239 176.66 241.933 176.66 245.55C176.66 249.167 179.593 252.1 183.21 252.1Z" fill="#F1F6E2"/>
</g>
<defs>
<clipPath id="clip0_1788_36638">
<rect width="296" height="372" rx="8" fill="white"/>
</clipPath>
</defs>
</svg>
