<svg width="930" height="335" viewBox="0 0 930 335" fill="none" xmlns="http://www.w3.org/2000/svg">
<g clip-path="url(#clip0_2038_37350)">
<path d="M875.5 228.55H875.49C846.628 228.55 823.23 251.948 823.23 280.81V280.82C823.23 309.682 846.628 333.08 875.49 333.08H875.5C904.363 333.08 927.76 309.682 927.76 280.82V280.81C927.76 251.948 904.363 228.55 875.5 228.55Z" fill="#ABABDD"/>
<path d="M153.2 15.81V101.52C153.2 110.25 146.11 117.33 137.36 117.33H15.84C7.09 117.33 0 124.41 0 133.14V319.21C0 327.94 7.09 335.02 15.84 335.02H794.62C803.37 335.02 810.46 327.94 810.46 319.21V231.5C810.46 222.77 817.55 215.69 826.3 215.69H914.18C922.93 215.69 930.02 208.61 930.02 199.88V15.81C930.02 7.08 922.93 0 914.18 0H169.04C160.29 0 153.2 7.08 153.2 15.81Z" fill="#ABABDD"/>
<path d="M569.24 210.35H601.06C601.9 210.35 602.65 210.89 602.91 211.69L624.9 279.52C625.14 280.41 625.38 281.26 625.6 282.08C626.12 284.02 628.86 284 629.36 282.05C629.57 281.24 629.79 280.4 630.03 279.52L651 211.72C651.25 210.91 652 210.35 652.86 210.35H684.51C685.58 210.35 686.45 211.22 686.45 212.29V310.99C686.45 312.06 685.58 312.93 684.51 312.93H666.71C665.64 312.93 664.77 312.06 664.77 310.99V246.99C664.77 246.94 664.77 246.89 664.77 246.84C664.77 244.6 661.62 244.12 660.97 246.27L641.3 311.56C641.05 312.38 640.3 312.94 639.44 312.94H615.63C614.79 312.94 614.04 312.4 613.78 311.59L592.65 245.93C591.97 243.81 588.85 244.31 588.86 246.53C588.86 246.73 588.86 246.93 588.86 247.14V311C588.86 312.07 587.99 312.94 586.92 312.94H569.26C568.19 312.94 567.32 312.07 567.32 311V212.3C567.32 211.23 568.19 210.36 569.26 210.36L569.24 210.35Z" fill="#E8E3F6"/>
<path d="M555.47 179.9L569.77 186.95C570.65 187.39 571.02 188.46 570.58 189.34L543 245.29C542.56 246.17 541.49 246.54 540.61 246.1L526.31 239.05C525.43 238.61 525.06 237.54 525.5 236.66L553.08 180.71C553.52 179.83 554.59 179.46 555.47 179.9ZM562.34 159.04C565.14 153.37 571.02 151.47 576.94 154.38C584.16 157.94 585.8 166.21 579.14 172.9C577.49 174.56 574.23 175.49 571.94 175.04C562.72 173.22 558.86 166.1 562.34 159.03V159.04Z" fill="#E8E3F6"/>
<path d="M818.711 161.21L831.551 170.66C832.341 171.24 832.511 172.36 831.931 173.15L778.201 246.15C777.621 246.94 776.501 247.11 775.711 246.53L762.871 237.08C762.081 236.5 761.911 235.38 762.491 234.59L816.221 161.59C816.801 160.8 817.921 160.63 818.711 161.21Z" fill="#E8E3F6"/>
<path d="M478.219 296.72C465.959 279.51 469.239 259.99 485.459 248.43C502.339 236.4 520.369 241.07 533.019 258.83L534.169 260.45C534.739 261.25 534.549 262.37 533.749 262.94L498.599 287.98C497.749 288.59 497.579 289.81 498.269 290.59C503.789 296.81 511.869 298.19 518.179 293.69C522.829 290.37 525.079 285.25 523.229 280.18C522.949 279.41 523.189 278.56 523.849 278.08L537.009 268.7C537.909 268.06 539.179 268.37 539.649 269.37C545.149 281.04 541.109 295.52 526.759 305.75C510.539 317.31 491.469 315.36 478.189 296.73L478.219 296.72ZM509.999 264.16C510.879 263.53 511.009 262.26 510.259 261.48C505.629 256.59 499.059 255.93 493.469 259.91C487.879 263.89 486.129 270.64 488.579 276.75C489.009 277.81 490.329 278.18 491.259 277.52L509.999 264.17V264.16Z" fill="#E8E3F6"/>
<path d="M777.92 260.72H775.64C769.94 260.72 765.33 265.34 765.33 271.03V283.85C765.33 289.55 769.95 294.16 775.64 294.16H777.92C783.62 294.16 788.23 289.54 788.23 283.85V271.03C788.23 265.33 783.61 260.72 777.92 260.72ZM782.41 283.57C782.41 286.37 780.14 288.64 777.34 288.64H776.22C773.42 288.64 771.15 286.37 771.15 283.57V271.32C771.15 268.52 773.42 266.25 776.22 266.25H777.34C780.14 266.25 782.41 268.52 782.41 271.32V283.57Z" fill="#E8E3F6"/>
<path d="M723.47 255.39H761.27C766.72 255.39 771.14 259.81 771.14 265.26V284.16C771.14 300.04 758.25 312.93 742.37 312.93C726.49 312.93 713.6 300.04 713.6 284.16V265.26C713.6 259.81 718.02 255.39 723.47 255.39Z" fill="#E8E3F6"/>
<path d="M730.478 215.27C723.208 208.33 712.208 207.72 704.278 213.29C702.528 214.52 702.368 217.06 703.908 218.53L728.428 241.95C729.978 243.43 732.498 243.15 733.648 241.35C738.848 233.18 737.738 222.21 730.468 215.27H730.478Z" fill="#E8E3F6"/>
<path d="M745.579 199.47C752.909 206.48 764.059 207.03 771.999 201.3C773.619 200.13 773.789 197.78 772.339 196.4L747.439 172.61C745.989 171.23 743.649 171.5 742.559 173.17C737.189 181.36 738.259 192.47 745.589 199.47H745.579Z" fill="#E8E3F6"/>
<path d="M760.864 197.334L747.039 184.127L714.049 218.661L727.874 231.869L760.864 197.334Z" fill="#E8E3F6"/>
<path d="M693.589 255.03C692.859 255.65 691.849 254.69 692.439 253.93L700.959 242.95L713.699 226.54C713.989 226.17 714.539 226.13 714.879 226.45L717.439 228.9L719.999 231.35C720.339 231.68 720.329 232.23 719.969 232.53L704.159 246L693.579 255.02L693.589 255.03Z" fill="#E8E3F6"/>
<path d="M425.364 240.995L370.431 252.952C354.317 256.46 344.097 272.364 347.604 288.475C351.111 304.586 367.016 314.804 383.13 311.296L438.064 299.339C454.178 295.831 464.398 279.927 460.891 263.816C457.384 247.705 441.478 237.488 425.364 240.995Z" fill="#E8E3F6"/>
<path d="M424.92 302.17L434.35 312.05C436.1 313.89 439.2 312.68 439.25 310.14L439.53 293.26L423.73 296.7L424.92 302.17Z" fill="#E8E3F6"/>
<path d="M289.787 243.042L275.898 259.099C274.453 260.77 274.636 263.296 276.306 264.741L292.363 278.63C294.034 280.075 296.56 279.892 298.005 278.221L311.894 262.165C313.339 260.494 313.156 257.968 311.486 256.523L295.429 242.634C293.758 241.189 291.232 241.372 289.787 243.042Z" fill="#E8E3F6"/>
<path d="M288.681 269.77L284.401 274.72C281.641 277.91 276.811 278.26 273.611 275.5L269.291 271.76C268.721 271.27 267.861 271.33 267.371 271.9L260.921 279.35C260.431 279.92 260.491 280.78 261.061 281.27L265.381 285.01C273.831 292.32 286.601 291.39 293.911 282.94L298.191 277.99L288.681 269.76V269.77Z" fill="#E8E3F6"/>
<path d="M316.371 266.032L302.482 282.089C301.037 283.76 301.22 286.286 302.89 287.731L318.947 301.62C320.618 303.065 323.144 302.882 324.589 301.211L338.478 285.155C339.923 283.484 339.74 280.958 338.07 279.513L322.013 265.624C320.342 264.179 317.816 264.362 316.371 266.032Z" fill="#E8E3F6"/>
<path d="M315.261 292.76L310.981 297.71C308.221 300.9 303.391 301.25 300.191 298.49L295.871 294.75C295.301 294.26 294.441 294.32 293.951 294.89L287.501 302.34C287.011 302.91 287.071 303.77 287.641 304.26L291.961 308C300.411 315.31 313.181 314.38 320.491 305.93L324.771 300.98L315.261 292.75V292.76Z" fill="#E8E3F6"/>
<path d="M444.379 173.589L423.377 202.024C420.096 206.466 421.037 212.728 425.479 216.009L464.524 244.848C468.966 248.129 475.227 247.187 478.509 242.745L499.511 214.31C502.792 209.868 501.851 203.607 497.408 200.325L458.364 171.487C453.921 168.206 447.66 169.147 444.379 173.589Z" fill="#E8E3F6"/>
<path d="M502.26 210.6C500.5 212.98 495.44 212.26 491.01 208.99L451.96 180.15C447.54 176.88 445.36 172.26 447.12 169.87C448.88 167.48 453.94 168.21 458.37 171.48L497.42 200.32C501.84 203.59 504.02 208.21 502.26 210.6Z" fill="#E8E3F6"/>
<path d="M490.77 156.05C496.24 155.47 501.58 159.41 502.63 164.81L505.07 177.26C506.13 182.66 507.85 191.49 508.91 196.89L511.35 209.34C512.41 214.74 509.65 216.48 505.23 213.21L482.54 196.45C478.12 193.18 470.88 187.84 466.45 184.57L443.76 167.81C439.34 164.54 440.19 161.4 445.66 160.82L458.28 159.49C463.75 158.91 472.7 157.97 478.17 157.39L490.79 156.06L490.77 156.05Z" fill="#E8E3F6"/>
</g>
<defs>
<clipPath id="clip0_2038_37350">
<rect width="930" height="335" fill="white"/>
</clipPath>
</defs>
</svg>
