<svg width="296" height="372" viewBox="0 0 296 372" fill="none" xmlns="http://www.w3.org/2000/svg">
<g clip-path="url(#clip0_1788_36550)">
<rect width="296" height="372" rx="8" fill="#E6F2CA"/>
<path d="M41.6621 40.5508V41.6309H30.4512V40.5508H35.3867V37.7207H31.7363V31.8965H40.3223V37.7207H36.6719V40.5508H41.6621ZM32.9941 36.6953H39.0508V32.9355H32.9941V36.6953ZM52.709 30.9258V37.8984H51.4102V30.9258H52.709ZM42.7969 34.4395C42.8037 32.71 44.1846 31.5342 46.0645 31.541C47.9375 31.5342 49.3184 32.71 49.3184 34.4395C49.3184 36.1211 47.9375 37.3105 46.0645 37.3105C44.1846 37.3105 42.8037 36.1211 42.7969 34.4395ZM44.0684 34.4395C44.0615 35.4922 44.9023 36.2168 46.0645 36.2168C47.2129 36.2168 48.0469 35.4922 48.0469 34.4395C48.0469 33.3525 47.2129 32.6279 46.0645 32.6348C44.9023 32.6279 44.0615 33.3525 44.0684 34.4395ZM44.6562 43.0117V38.5137H52.709V43.0117H44.6562ZM45.9414 41.959H51.4375V39.5527H45.9414V41.959ZM58.9297 33.168C58.9229 34.7266 60.0098 36.1484 61.8691 36.7363L61.2539 37.748C59.8594 37.3037 58.8408 36.3809 58.3008 35.2188C57.7676 36.5586 56.6943 37.6182 55.2246 38.1309L54.5547 37.0918C56.4688 36.4629 57.624 34.8838 57.6309 33.1816V32.8398H54.9375V31.7871H61.5684V32.8398H58.9297V33.168ZM56.209 40.8379C56.209 39.4023 57.7744 38.5615 60.3242 38.5684C62.8467 38.5615 64.3848 39.4023 64.3848 40.8379C64.3848 42.2939 62.8467 43.1416 60.3242 43.1348C57.7744 43.1416 56.209 42.2939 56.209 40.8379ZM57.5078 40.8379C57.501 41.6582 58.5537 42.1162 60.3242 42.1094C62.0811 42.1162 63.1201 41.6582 63.1133 40.8379C63.1201 40.0381 62.0811 39.5869 60.3242 39.5938C58.5537 39.5869 57.501 40.0381 57.5078 40.8379ZM62.9766 38.2676V30.9121H64.2754V33.9473H66.0527V35.0137H64.2754V38.2676H62.9766ZM76.8945 30.9121V43.1895H75.5957V30.9121H76.8945ZM67.1738 36.1211C67.1738 33.5029 68.4932 31.835 70.3457 31.8281C72.1641 31.835 73.5039 33.5029 73.5039 36.1211C73.5039 38.7666 72.1641 40.4346 70.3457 40.4277C68.4932 40.4346 67.1738 38.7666 67.1738 36.1211ZM68.4316 36.1211C68.4248 38.0693 69.2041 39.2656 70.3457 39.2656C71.4668 39.2656 72.2461 38.0693 72.2461 36.1211C72.2461 34.2002 71.4668 32.9971 70.3457 32.9902C69.2041 32.9971 68.4248 34.2002 68.4316 36.1211ZM88.3926 30.9121V35.6973H90.3613V36.791H88.3926V43.1895H87.1074V30.9121H88.3926ZM79.3281 33.0723V32.0195H84.9336V36.5176H80.6406V39.1699C82.7393 39.1631 84.3047 39.0879 86.0957 38.7598L86.2188 39.8125C84.3047 40.168 82.6504 40.25 80.3535 40.2637H79.3555V35.4648H83.6484V33.0723H79.3281ZM97.1973 31.9512V32.9902H99.8633V30.9258H101.162V39.8535H99.8633V36.6816H97.1973V37.748H91.5098V31.9512H97.1973ZM92.7949 36.7227H95.9258V33.0039H92.7949V36.7227ZM93.1641 42.9023V39.0332H94.4766V41.8496H101.436V42.9023H93.1641ZM97.1973 35.6152H99.8633V34.0566H97.1973V35.6152ZM105.059 39.0605C105.079 37.2695 105.605 36.7227 106.508 36.1621C107.082 35.8135 107.52 35.3076 107.52 34.5898C107.52 33.7354 106.863 33.1953 106.043 33.1953C105.305 33.1953 104.587 33.6465 104.525 34.6582H103.049C103.104 32.915 104.416 31.9648 106.043 31.9648C107.82 31.9648 109.01 33.0312 109.01 34.5898C109.01 35.6904 108.483 36.4219 107.615 36.9551C106.795 37.4541 106.474 37.9463 106.453 39.0605V39.1426H105.059V39.0605ZM104.84 41.125C104.833 40.5918 105.277 40.1543 105.811 40.1543C106.337 40.1543 106.774 40.5918 106.781 41.125C106.774 41.6582 106.337 42.0889 105.811 42.0957C105.277 42.0889 104.833 41.6582 104.84 41.125Z" fill="#474747"/>
<path d="M47.9766 57.6016V59.1016C47.9883 60.4492 47.9883 62.125 47.5898 64.2109H50.2266V66.8359H30.5625V64.2109H44.168C44.4844 62.6406 44.5664 61.3633 44.5898 60.25H32.9297V57.6016H47.9766ZM32.7422 70.7266V68.1484H47.8359V74.3359H36.1172V75.5312H48.4219V78.1094H32.7656V71.8516H44.5078V70.7266H32.7422ZM76.3359 73.0703V75.8125H56.6719V73.0703H64.8047V68.9219H58.6875V58.2578H74.2266V68.9219H68.1328V73.0703H76.3359ZM62.0156 66.2969H70.875V60.9531H62.0156V66.2969ZM95.4844 56.7578V68.875H92.1094V56.7578H95.4844ZM77.6953 62.9219C77.6836 59.8398 80.2617 57.6953 83.6484 57.6953C87.0234 57.6953 89.6016 59.8398 89.6016 62.9219C89.6016 65.8984 87.0234 68.1016 83.6484 68.1016C80.2617 68.1016 77.6836 65.8984 77.6953 62.9219ZM80.9531 78.0156V69.7891H95.4844V78.0156H80.9531ZM80.9766 62.9219C80.9766 64.4102 82.0898 65.2773 83.6484 65.2656C85.1602 65.2773 86.2617 64.4102 86.25 62.9219C86.2617 61.3516 85.1602 60.5195 83.6484 60.5312C82.0898 60.5195 80.9766 61.3516 80.9766 62.9219ZM84.2578 75.3203H92.1797V72.4375H84.2578V75.3203ZM107.953 57.0156C112.957 57.0273 115.84 58.3164 115.852 60.6719C115.84 63.0625 112.957 64.3398 107.953 64.3516C102.938 64.3398 100.043 63.0625 100.055 60.6719C100.043 58.3164 102.938 57.0273 107.953 57.0156ZM98.1562 67.8906V65.2188H117.773V67.8906H98.1562ZM100.383 78.1328V72.2734H112.078V71.3594H100.383V68.9219H115.43V74.6172H103.711V75.6016H115.945V78.1328H100.383ZM103.594 60.6719C103.582 61.5859 104.93 61.8672 107.953 61.8906C111.012 61.8672 112.359 61.5859 112.359 60.6719C112.359 59.875 111.012 59.4766 107.953 59.4766C104.93 59.4766 103.582 59.875 103.594 60.6719ZM41.5547 88.4688V98.9219H31.125V88.4688H41.5547ZM33.5859 107.898V100.844H36.9609V105.203H48.3984V107.898H33.5859ZM34.4531 96.2969H38.2266V91.1406H34.4531V96.2969ZM44.3203 102.414V86.7578H47.6953V92.8281H50.4844V95.5938H47.6953V102.414H44.3203ZM70.9688 94.9375V97.5625H51.3047V94.9375H70.9688ZM53.5312 108.086V102.062H65.2266V101.148H53.5312V98.6172H68.5781V104.43H56.8594V105.484H69.0938V108.086H53.5312ZM53.6953 93.9297V87.0859H68.4844V89.7578H57.0703V91.3047H68.625V93.9297H53.6953ZM78.0234 88.2109C80.918 88.1992 83.1094 90.5547 83.5664 94.375H86.9531V86.7344H90.2812V108.297H86.9531V97.0469H83.6016C83.25 101.148 81.0117 103.656 78.0234 103.656C74.7305 103.656 72.3633 100.68 72.375 95.8984C72.3633 91.1875 74.7305 88.1992 78.0234 88.2109ZM75.6094 95.8984C75.5977 99.0273 76.582 100.586 78.0234 100.586C79.4883 100.586 80.4375 99.0273 80.4375 95.8984C80.4375 92.8281 79.4883 91.2461 78.0234 91.2578C76.582 91.2461 75.5977 92.8281 75.6094 95.8984ZM112.453 103.094V105.836H92.7891V103.094H100.922V99.3203H94.8047V88.0703H98.1797V91.2344H106.969V88.0703H110.344V99.3203H104.25V103.094H112.453ZM98.1797 96.6484H106.969V93.8828H98.1797V96.6484ZM120.586 91.9141C120.586 95.4297 121.324 98.9922 124.312 100.938L122.484 103.539C120.715 102.473 119.613 100.773 118.945 98.7461C118.207 101.008 116.988 102.906 115.125 104.031L113.086 101.523C116.332 99.4961 117.305 95.7109 117.305 92.0781V88.5156H120.586V91.9141ZM122.062 96.5781V93.8359H124.57V87.0156H127.711V107.289H124.57V96.5781H122.062ZM129 108.25V86.7344H132.234V108.25H129ZM153.938 103.07V105.812H134.273V103.07H138.516V97.9609C136.898 96.9414 135.926 95.418 135.938 93.5312C135.926 90.0273 139.383 87.6953 144.07 87.6953C148.746 87.6953 152.238 90.0273 152.25 93.5312C152.238 95.3828 151.301 96.8828 149.742 97.8906V103.07H153.938ZM139.289 93.5312C139.277 95.5703 141.141 96.7656 144.07 96.7656C146.977 96.7656 148.898 95.5703 148.898 93.5312C148.898 91.4688 146.977 90.332 144.07 90.3438C141.141 90.332 139.277 91.4688 139.289 93.5312ZM141.844 103.07H146.32V99.1797C145.617 99.2969 144.855 99.3672 144.07 99.3672C143.285 99.3672 142.547 99.2969 141.844 99.1797V103.07Z" fill="#0B0B0B"/>
<g clip-path="url(#clip1_1788_36550)">
<path d="M296 341.75H0V372.39H296V341.75Z" fill="#C5DB8F"/>
<path d="M261.143 337.753H242.176C241.074 337.753 240.182 338.646 240.182 339.747C240.182 340.849 241.074 341.741 242.176 341.741H261.143C262.245 341.741 263.137 340.849 263.137 339.747C263.137 338.646 262.245 337.753 261.143 337.753Z" fill="#C5D785"/>
<path d="M240.182 331.3C235.113 331.3 231 335.98 231 341.75H249.365C249.365 335.98 245.252 331.3 240.182 331.3Z" fill="#D5E59A"/>
<path d="M106.652 230.277H189C203.164 230.277 214.659 241.773 214.659 255.936V299.552H81.002V255.936C81.002 241.773 92.4976 230.277 106.661 230.277H106.652Z" fill="#D5E59A"/>
<path d="M81.7307 289.714C89.8662 289.714 96.4614 283.119 96.4614 274.983C96.4614 266.848 89.8662 260.252 81.7307 260.252C73.5952 260.252 67 266.848 67 274.983C67 283.119 73.5952 289.714 81.7307 289.714Z" fill="#C5DB8F"/>
<path d="M96.4605 276.534H76.6777V322.561H96.4605V276.534Z" fill="#C5DB8F"/>
<path d="M199.487 274.815C199.487 266.678 206.082 260.084 214.218 260.084C222.355 260.084 228.949 266.678 228.949 274.815C228.949 281.178 224.907 286.576 219.261 288.641V322.384H199.479V276.357H199.558C199.505 275.852 199.479 275.329 199.479 274.806L199.487 274.815Z" fill="#C5DB8F"/>
<path d="M199.833 299.543H95.832V322.384H199.833V299.543Z" fill="#C5DB8F"/>
<path d="M221.441 322.393H73.3006C71.6363 322.393 70.2871 323.74 70.2871 325.402C70.2871 327.064 71.6363 328.411 73.3006 328.411H221.441C223.105 328.411 224.454 327.064 224.454 325.402C224.454 323.74 223.105 322.393 221.441 322.393Z" fill="#8AAB54"/>
<path d="M198.086 295.298H97.5682C95.9039 295.298 94.5547 296.645 94.5547 298.307C94.5547 299.969 95.9039 301.316 97.5682 301.316H198.086C199.75 301.316 201.1 299.969 201.1 298.307C201.1 296.645 199.75 295.298 198.086 295.298Z" fill="#8AAB54"/>
<path d="M84.2558 328.411H76.6777V341.75H84.2558V328.411Z" fill="#8AAB54"/>
<path d="M79.0176 328.411H76.6777V341.75H79.0176V328.411Z" fill="#7F994D"/>
<path d="M218.012 328.411H210.434V341.75H218.012V328.411Z" fill="#8AAB54"/>
<path d="M218.01 328.411H215.67V341.75H218.01V328.411Z" fill="#7F994D"/>
<path d="M115.233 268.141C118.65 268.141 121.42 265.371 121.42 261.954C121.42 258.537 118.65 255.768 115.233 255.768C111.817 255.768 109.047 258.537 109.047 261.954C109.047 265.371 111.817 268.141 115.233 268.141Z" fill="#F1F6E2"/>
<path d="M148.292 268.141C151.709 268.141 154.479 265.371 154.479 261.954C154.479 258.537 151.709 255.768 148.292 255.768C144.875 255.768 142.105 258.537 142.105 261.954C142.105 265.371 144.875 268.141 148.292 268.141Z" fill="#F1F6E2"/>
<path d="M180.433 268.141C183.849 268.141 186.619 265.371 186.619 261.954C186.619 258.537 183.849 255.768 180.433 255.768C177.016 255.768 174.246 258.537 174.246 261.954C174.246 265.371 177.016 268.141 180.433 268.141Z" fill="#F1F6E2"/>
<path d="M182.646 223.453C178.879 223.453 175.83 226.502 175.83 230.268H189.462C189.462 226.502 186.413 223.453 182.646 223.453Z" fill="#7F994D"/>
<path d="M163.751 217C155.482 217 148.781 222.938 148.781 230.268H178.721C178.721 222.938 172.021 217 163.751 217Z" fill="#7F994D"/>
<path d="M180.314 223.931L181.431 221.388C181.6 221.015 182.131 221.024 182.273 221.405L183.168 223.763L180.314 223.922V223.931Z" fill="#7F994D"/>
<path d="M184.676 224.33L187.317 222.274C187.645 222.017 188.124 222.292 188.07 222.708L187.672 225.739L184.685 224.339L184.676 224.33Z" fill="#7F994D"/>
<path fill-rule="evenodd" clip-rule="evenodd" d="M147.937 225.051C148.7 224.822 149.567 224.834 150.321 225.3C150.613 225.48 150.703 225.862 150.523 226.154C150.343 226.445 149.961 226.536 149.669 226.356C149.289 226.121 148.809 226.085 148.293 226.239C147.775 226.395 147.272 226.732 146.917 227.156C146.544 227.602 146.269 228.128 146.025 228.717C145.874 229.081 145.749 229.43 145.618 229.795C145.528 230.048 145.435 230.309 145.328 230.586C144.863 231.817 144.216 233.1 143.135 234.042C142.048 234.989 140.426 235.522 138.962 234.99C138.64 234.874 138.473 234.518 138.59 234.196C138.707 233.873 139.063 233.707 139.385 233.824C140.314 234.161 141.474 233.843 142.32 233.106C143.171 232.365 143.729 231.308 144.168 230.146L144.169 230.144C144.254 229.923 144.341 229.681 144.43 229.431C144.573 229.035 144.722 228.619 144.879 228.241C145.146 227.596 145.479 226.942 145.965 226.36C146.47 225.757 147.177 225.279 147.937 225.051Z" fill="#7F994D"/>
</g>
</g>
<defs>
<clipPath id="clip0_1788_36550">
<rect width="296" height="372" rx="8" fill="white"/>
</clipPath>
<clipPath id="clip1_1788_36550">
<rect width="296" height="171.38" fill="white" transform="translate(0 201)"/>
</clipPath>
</defs>
</svg>
