<svg width="70" height="17" viewBox="0 0 70 17" fill="none" xmlns="http://www.w3.org/2000/svg">
<g id="headerLogoImg">
<g id="Group 2">
<g id="Group 26">
<path id="Vector" d="M23.2353 14.206C23.2353 13.0419 22.2916 12.0981 21.1274 12.0981C19.9633 12.0981 19.0195 13.0419 19.0195 14.206C19.0195 15.3702 19.9633 16.3139 21.1274 16.3139C22.2916 16.3139 23.2353 15.3702 23.2353 14.206Z" fill="#010101"/>
<g id="Group 25">
<path id="Vector_2" d="M5.28851 1.6157V5.50306C5.28851 5.88997 4.97488 6.2036 4.58797 6.2036H0.700548C0.313638 6.2036 0 6.51723 0 6.90414V16.0804C0 16.4673 0.313638 16.7809 0.700548 16.7809H17.8099C18.1968 16.7809 18.5105 16.4673 18.5105 16.0804V12.193C18.5105 11.8061 18.8241 11.4925 19.211 11.4925H23.0984C23.4853 11.4925 23.799 11.1789 23.799 10.7919V1.6157C23.799 1.2288 23.4853 0.915161 23.0984 0.915161H5.98906C5.60215 0.915161 5.28851 1.2288 5.28851 1.6157Z" fill="#010101"/>
</g>
</g>
</g>
<g id="Group 17">
<path id="Vector_3" d="M27.9515 0.685425H32.8182C32.9474 0.685425 33.0617 0.768861 33.1006 0.891157L36.5936 11.5688C36.6313 11.7048 36.6667 11.834 36.6998 11.9597L37.014 11.9563C37.046 11.8317 37.0803 11.7037 37.1169 11.5688L40.4556 0.894586C40.4944 0.770004 40.6087 0.685425 40.739 0.685425H45.5795C45.7441 0.685425 45.8767 0.818008 45.8767 0.982593V16.0788C45.8767 16.2433 45.7441 16.3759 45.5795 16.3759H42.8558C42.6912 16.3759 42.5587 16.2433 42.5587 16.0788V6.28934C42.5587 6.28134 42.5587 5.88603 42.5587 5.88603H42.127L38.9686 16.1645C38.9309 16.2902 38.8154 16.3759 38.684 16.3759H35.0413C34.9122 16.3759 34.7979 16.2925 34.759 16.1702L31.3071 5.96202H30.9472C30.9472 5.99288 30.9472 6.28134 30.9472 6.3122V16.0788C30.9472 16.2433 30.8146 16.3759 30.65 16.3759H27.9515C27.7869 16.3759 27.6543 16.2433 27.6543 16.0788V0.982593C27.6543 0.818008 27.7869 0.685425 27.9515 0.685425Z" fill="#010101"/>
<path id="Vector_4" d="M48.6553 5.3912H51.3115C51.4761 5.3912 51.6087 5.52378 51.6087 5.68837V16.0767C51.6087 16.2413 51.4761 16.3739 51.3115 16.3739H48.6553C48.4907 16.3739 48.3581 16.2413 48.3581 16.0767V5.68837C48.3581 5.52378 48.4907 5.3912 48.6553 5.3912ZM48.1455 1.77032C48.1455 0.716511 48.885 -0.00012207 49.9834 -0.00012207C51.3241 -0.00012207 52.1779 1.11426 51.6761 2.60467C51.5516 2.97385 51.1344 3.35331 50.7583 3.45503C49.2473 3.86193 48.1455 3.08357 48.1455 1.77032Z" fill="#010101"/>
<path id="Vector_5" d="M54.3235 0.685425H56.9798C57.1444 0.685425 57.277 0.818008 57.277 0.982593V16.0788C57.277 16.2433 57.1444 16.3759 56.9798 16.3759H54.3235C54.159 16.3759 54.0264 16.2433 54.0264 16.0788V0.982593C54.0264 0.818008 54.159 0.685425 54.3235 0.685425Z" fill="#010101"/>
<path id="Vector_6" d="M58.9054 10.8612C58.9054 7.34208 61.236 5.0116 64.554 5.0116C67.8721 5.0116 70.0003 7.3878 70.0003 11.019V11.3493C70.0003 11.5139 69.8677 11.6465 69.7031 11.6465H62.5149C62.3412 11.6465 62.2006 11.795 62.2189 11.9688C62.3664 13.346 63.3287 14.3141 64.6203 14.3141C65.5724 14.3141 66.3713 13.8364 66.6114 12.9689C66.6479 12.8374 66.7634 12.7448 66.8994 12.7448H69.5911C69.774 12.7448 69.9168 12.9106 69.8848 13.0912C69.5019 15.2056 67.5566 16.7795 64.6203 16.7795C61.3034 16.7795 58.9043 14.673 58.9043 10.8624L58.9054 10.8612ZM66.3622 9.51599C66.5428 9.51599 66.6571 9.37649 66.6571 9.17767C66.6011 8.08719 65.6836 7.34208 64.5311 7.34208C62.9295 7.34208 62.1954 8.36742 62.1954 9.16785C62.1954 9.34258 62.3401 9.51599 62.5309 9.51599H66.3622Z" fill="#010101"/>
</g>
</g>
</svg>
