<svg width="21" height="21" viewBox="0 0 21 21" fill="none" xmlns="http://www.w3.org/2000/svg">
<mask id="mask0_1115_7804" style="mask-type:alpha" maskUnits="userSpaceOnUse" x="0" y="0" width="21" height="21">
<rect x="0.103516" y="0.5" width="20" height="20" fill="#D9D9D9"/>
</mask>
<g mask="url(#mask0_1115_7804)">
<path d="M10.0622 15.5001C10.3538 15.5001 10.6004 15.3994 10.8018 15.198C11.0031 14.9966 11.1038 14.7501 11.1038 14.4584C11.1038 14.1667 11.0031 13.9202 10.8018 13.7188C10.6004 13.5174 10.3538 13.4167 10.0622 13.4167C9.77051 13.4167 9.52398 13.5174 9.32259 13.7188C9.1212 13.9202 9.02051 14.1667 9.02051 14.4584C9.02051 14.7501 9.1212 14.9966 9.32259 15.198C9.52398 15.3994 9.77051 15.5001 10.0622 15.5001ZM9.31217 12.2917H10.8538C10.8538 11.8334 10.9059 11.4723 11.0101 11.2084C11.1143 10.9445 11.4094 10.5834 11.8955 10.1251C12.2566 9.76397 12.5413 9.42022 12.7497 9.09383C12.958 8.76744 13.0622 8.37508 13.0622 7.91675C13.0622 7.13897 12.7775 6.54175 12.208 6.12508C11.6386 5.70841 10.965 5.50008 10.1872 5.50008C9.39551 5.50008 8.75315 5.70841 8.26009 6.12508C7.76704 6.54175 7.42329 7.04175 7.22884 7.62508L8.60384 8.16675C8.67329 7.91675 8.82954 7.64591 9.07259 7.35425C9.31565 7.06258 9.68717 6.91675 10.1872 6.91675C10.6316 6.91675 10.965 7.03828 11.1872 7.28133C11.4094 7.52439 11.5205 7.79175 11.5205 8.08341C11.5205 8.36119 11.4372 8.62161 11.2705 8.86467C11.1038 9.10772 10.8955 9.33342 10.6455 9.54175C10.0344 10.0834 9.6594 10.4931 9.52051 10.7709C9.38162 11.0487 9.31217 11.5556 9.31217 12.2917ZM10.1038 18.8334C8.95106 18.8334 7.86773 18.6147 6.85384 18.1772C5.83995 17.7397 4.95801 17.1459 4.20801 16.3959C3.45801 15.6459 2.86426 14.764 2.42676 13.7501C1.98926 12.7362 1.77051 11.6529 1.77051 10.5001C1.77051 9.3473 1.98926 8.26397 2.42676 7.25008C2.86426 6.23619 3.45801 5.35425 4.20801 4.60425C4.95801 3.85425 5.83995 3.2605 6.85384 2.823C7.86773 2.3855 8.95106 2.16675 10.1038 2.16675C11.2566 2.16675 12.34 2.3855 13.3538 2.823C14.3677 3.2605 15.2497 3.85425 15.9997 4.60425C16.7497 5.35425 17.3434 6.23619 17.7809 7.25008C18.2184 8.26397 18.4372 9.3473 18.4372 10.5001C18.4372 11.6529 18.2184 12.7362 17.7809 13.7501C17.3434 14.764 16.7497 15.6459 15.9997 16.3959C15.2497 17.1459 14.3677 17.7397 13.3538 18.1772C12.34 18.6147 11.2566 18.8334 10.1038 18.8334ZM10.1038 17.1667C11.965 17.1667 13.5413 16.5209 14.833 15.2292C16.1247 13.9376 16.7705 12.3612 16.7705 10.5001C16.7705 8.63897 16.1247 7.06258 14.833 5.77091C13.5413 4.47925 11.965 3.83341 10.1038 3.83341C8.24273 3.83341 6.66634 4.47925 5.37467 5.77091C4.08301 7.06258 3.43717 8.63897 3.43717 10.5001C3.43717 12.3612 4.08301 13.9376 5.37467 15.2292C6.66634 16.5209 8.24273 17.1667 10.1038 17.1667Z" fill="white"/>
</g>
</svg>
