<svg width="12" height="15" viewBox="0 0 12 15" fill="none" xmlns="http://www.w3.org/2000/svg">
<path d="M0.0449219 1.86248C0.0449219 0.490127 0.849581 0 2.21607 0H5.55374C8.83189 0 10.2817 1.20527 10.2817 3.48213C10.2817 4.85671 9.53656 6.21124 7.96772 6.58775C9.69845 6.94643 11.1054 8.01802 11.1054 10.032C11.1054 12.4047 9.51752 14.08 6.11795 14.08H2.15656C0.628181 14.08 0.0449219 13.5342 0.0449219 12.066V1.86248ZM2.63983 5.83473H5.19426C6.62265 5.83473 7.72965 5.32678 7.72965 3.85863C7.72965 2.61549 6.82501 2.06967 5.17522 2.06967H3.24451C2.7422 2.06967 2.64221 2.25681 2.64221 2.61549V5.83473H2.63983ZM5.61564 12.0081C7.3059 12.0081 8.37243 11.2373 8.37243 9.86268C8.37243 8.39453 7.24638 7.75514 5.53708 7.75514H2.63983V11.3687C2.63983 11.8588 2.76124 12.0081 3.24213 12.0081H5.61564Z" />
</svg>
