<svg width="18" height="16" viewBox="0 0 18 16" fill="none" xmlns="http://www.w3.org/2000/svg">
<path d="M4.15137 7.98149V0.905066C4.15137 0.300875 4.68818 -0.0012207 5.29238 -0.0012207C5.86179 -0.0012207 6.39861 0.300875 6.39861 0.905066V7.57942C6.39861 10.1787 7.42226 10.8503 8.98055 10.8503C10.5388 10.8503 11.6798 10.1961 11.6798 7.59681V0.905066C11.6798 0.300875 12.1993 -0.0012207 12.7535 -0.0012207C13.3077 -0.0012207 13.8445 0.300875 13.8445 0.905066V7.91412C13.8445 11.3176 11.9167 12.8607 8.98055 12.8607C6.04435 12.8607 4.15137 11.3524 4.15137 7.98149Z" />
<path d="M16.8943 14.1016C17.4159 14.1016 17.6746 14.4655 17.6746 14.8665C17.6746 15.2675 17.4138 15.642 16.8943 15.642H1.11679C0.595151 15.642 0.321289 15.2657 0.321289 14.8771C0.321289 14.4655 0.595151 14.1016 1.11679 14.1016H16.8943Z" />
</svg>
