<svg width="18" height="14" viewBox="0 0 18 14" fill="none" xmlns="http://www.w3.org/2000/svg">
<path fill-rule="evenodd" clip-rule="evenodd" d="M0 0.953947C0 0.427097 0.427097 0 0.953947 0H16.5026C17.0295 0 17.4566 0.427097 17.4566 0.953947C17.4566 1.4808 17.0295 1.90789 16.5026 1.90789H0.953947C0.427097 1.90789 0 1.4808 0 0.953947Z" />
<path fill-rule="evenodd" clip-rule="evenodd" d="M0 12.5254C0 11.9985 0.427097 11.5714 0.953947 11.5714H16.5026C17.0295 11.5714 17.4566 11.9985 17.4566 12.5254C17.4566 13.0522 17.0295 13.4793 16.5026 13.4793H0.953947C0.427097 13.4793 0 13.0522 0 12.5254Z" />
<path fill-rule="evenodd" clip-rule="evenodd" d="M0 4.81113C0 4.28427 0.427097 3.85718 0.953947 3.85718H10.1462C10.673 3.85718 11.1001 4.28427 11.1001 4.81113C11.1001 5.33798 10.673 5.76507 10.1462 5.76507H0.953947C0.427097 5.76507 0 5.33798 0 4.81113Z" />
<path fill-rule="evenodd" clip-rule="evenodd" d="M0 8.66806C0 8.14121 0.427097 7.71411 0.953947 7.71411H10.1462C10.673 7.71411 11.1001 8.14121 11.1001 8.66806C11.1001 9.19491 10.673 9.62201 10.1462 9.62201H0.953947C0.427097 9.62201 0 9.19491 0 8.66806Z" />
<path d="M14.177 8.33914L15.0817 9.18795C16 10.0483 17.5028 9.39822 17.5028 8.14044V6.44282C17.5028 5.18504 16 4.533 15.0817 5.39531L14.177 6.24412C13.5712 6.81128 13.5712 7.77391 14.177 8.34107V8.33914Z" />
</svg>
