<svg width="18" height="15" viewBox="0 0 18 15" fill="none" xmlns="http://www.w3.org/2000/svg">
<path fill-rule="evenodd" clip-rule="evenodd" d="M6.15186 1.55374C6.15186 1.0131 6.59013 0.574829 7.13077 0.574829H16.5602C17.1008 0.574829 17.5391 1.0131 17.5391 1.55374C17.5391 2.09438 17.1008 2.53265 16.5602 2.53265H7.13077C6.59013 2.53265 6.15186 2.09438 6.15186 1.55374Z"/>
<path fill-rule="evenodd" clip-rule="evenodd" d="M6.15186 7.34121C6.15186 6.80058 6.59013 6.3623 7.13077 6.3623H16.5602C17.1008 6.3623 17.5391 6.80058 17.5391 7.34121C17.5391 7.88185 17.1008 8.32012 16.5602 8.32012H7.13077C6.59013 8.32012 6.15186 7.88185 6.15186 7.34121Z"/>
<path fill-rule="evenodd" clip-rule="evenodd" d="M6.15186 13.1275C6.15186 12.5868 6.59013 12.1486 7.13077 12.1486H16.5602C17.1008 12.1486 17.5391 12.5868 17.5391 13.1275C17.5391 13.6681 17.1008 14.1064 16.5602 14.1064H7.13077C6.59013 14.1064 6.15186 13.6681 6.15186 13.1275Z"/>
<path d="M3.81337 1.5539C3.81337 2.41291 3.11701 3.10927 2.258 3.10927C1.399 3.10927 0.702637 2.41291 0.702637 1.5539C0.702637 0.694897 1.399 -0.00146484 2.258 -0.00146484C3.11701 -0.00146484 3.81337 0.694897 3.81337 1.5539Z"/>
<path d="M3.81337 7.34052C3.81337 8.19953 3.11701 8.89589 2.258 8.89589C1.399 8.89589 0.702637 8.19953 0.702637 7.34052C0.702637 6.48152 1.399 5.78516 2.258 5.78516C3.11701 5.78516 3.81337 6.48152 3.81337 7.34052Z"/>
<path d="M3.81337 13.1258C3.81337 13.9848 3.11701 14.6812 2.258 14.6812C1.399 14.6812 0.702637 13.9848 0.702637 13.1258C0.702637 12.2668 1.399 11.5704 2.258 11.5704C3.11701 11.5704 3.81337 12.2668 3.81337 13.1258Z"/>
</svg>
