<svg width="18" height="15" viewBox="0 0 18 15" fill="none" xmlns="http://www.w3.org/2000/svg">
<path d="M8.22461 8.79675V13.2168C8.22461 13.8903 8.80509 14.2271 9.4609 14.2271C10.079 14.2271 10.6972 13.8903 10.6972 13.2168V8.79675H8.22683H8.22461Z" />
<path d="M4.30215 2.21014H8.2237V4.97517H10.6941V2.21014H14.6909C15.3268 2.21014 15.6636 1.68505 15.6636 1.12451C15.6636 0.563975 15.3069 0.0012207 14.6909 0.0012207H4.28221C3.64634 0.0012207 3.30957 0.526311 3.30957 1.08685C3.30957 1.64739 3.66406 2.21014 4.30215 2.21014Z" />
<path d="M17.026 6.11255H1.75662C1.253 6.11255 0.987305 6.48451 0.987305 6.90404C0.987305 7.29978 1.253 7.68363 1.75662 7.68363H17.026C17.5297 7.68363 17.7815 7.29978 17.7815 6.89215C17.7815 6.48451 17.5297 6.11255 17.026 6.11255Z" />
</svg>
