<svg width="20" height="14" viewBox="0 0 20 14" fill="none" xmlns="http://www.w3.org/2000/svg">
<path fill-rule="evenodd" clip-rule="evenodd" d="M0.874023 0.953812C0.874023 0.426631 1.30139 -0.000732422 1.82857 -0.000732422H17.38C17.9071 -0.000732422 18.3345 0.426631 18.3345 0.953812C18.3345 1.48099 17.9071 1.90836 17.38 1.90836H1.82857C1.30139 1.90836 0.874023 1.48099 0.874023 0.953812Z" />
<path fill-rule="evenodd" clip-rule="evenodd" d="M0.874023 12.5288C0.874023 12.0016 1.30139 11.5742 1.82857 11.5742H17.38C17.9071 11.5742 18.3345 12.0016 18.3345 12.5288C18.3345 13.0559 17.9071 13.4833 17.38 13.4833H1.82857C1.30139 13.4833 0.874023 13.0559 0.874023 12.5288Z" />
<path fill-rule="evenodd" clip-rule="evenodd" d="M4.05127 4.8138C4.05127 4.28662 4.47863 3.85925 5.00581 3.85925H14.1986C14.7258 3.85925 15.1532 4.28662 15.1532 4.8138C15.1532 5.34098 14.7258 5.76834 14.1986 5.76834H5.00581C4.47863 5.76834 4.05127 5.34098 4.05127 4.8138Z" />
<path fill-rule="evenodd" clip-rule="evenodd" d="M4.05127 8.67C4.05127 8.14282 4.47863 7.71545 5.00581 7.71545H14.1986C14.7258 7.71545 15.1532 8.14282 15.1532 8.67C15.1532 9.19718 14.7258 9.62454 14.1986 9.62454H5.00581C4.47863 9.62454 4.05127 9.19718 4.05127 8.67Z" />
<path d="M16.2199 7.85146L17.1868 8.75766C18.0892 9.60319 19.566 8.9643 19.566 7.72823V5.91393C19.566 4.67786 18.0892 4.03708 17.1868 4.88451L16.2199 5.79071C15.6246 6.34808 15.6246 7.29409 16.2199 7.85146Z" />
</svg>
