<svg width="16" height="16" viewBox="0 0 16 16" fill="none" xmlns="http://www.w3.org/2000/svg">
<path d="M1.20124 0.177117C1.37823 0.0701421 1.57468 0.00012207 1.75167 0.00012207C2.15234 0.00012207 2.3235 0.223797 2.3235 0.620577V3.90179C2.3235 4.18965 2.0512 4.33553 1.80419 4.33553C1.55717 4.33553 1.28098 4.1916 1.28098 3.90179V1.13795L0.788897 1.43748C0.736382 1.4686 0.633296 1.4861 0.586616 1.4861C0.341546 1.4861 0.164551 1.2352 0.164551 0.999852C0.164551 0.865647 0.259856 0.727552 0.405731 0.641972L1.20124 0.177117Z" />
<path d="M0.761667 9.79806C0.0945307 9.79806 0.0031155 9.23207 0.473806 8.76138L1.10982 8.11952C1.60191 7.6216 1.88004 7.35514 1.88004 6.87472C1.88004 6.61798 1.73028 6.4157 1.38796 6.4157C1.18957 6.4157 1.07287 6.55963 1.01452 6.69967C0.940607 6.87667 0.812237 6.96225 0.602176 6.96225C0.392116 6.96225 0.164551 6.83388 0.164551 6.53435C0.164551 6.42737 0.213176 6.25621 0.271526 6.1648C0.506871 5.80108 0.919212 5.5813 1.47937 5.5813C2.37796 5.5813 2.91284 6.07922 2.91284 6.81637C2.91284 7.55353 2.50633 7.93864 2.01036 8.44628L1.55134 8.91114H2.66777C2.92451 8.91114 3.05872 9.14065 3.05872 9.37016C3.05872 9.58411 2.93618 9.79806 2.6736 9.79806H0.761667Z" />
<path d="M0.888752 14.1213C1.00156 14.3197 1.16105 14.4578 1.47614 14.4578C1.79123 14.4578 2.03241 14.3139 2.03241 14.0027C2.03241 13.6915 1.75428 13.5378 1.30109 13.5378H1.02296C0.793447 13.5378 0.692306 13.3025 0.692306 13.1099C0.692306 12.9173 0.793447 12.6937 1.02296 12.6937H1.2797C1.65897 12.6937 1.91571 12.5809 1.91571 12.2385C1.91571 11.9721 1.6862 11.8534 1.47225 11.8534C1.2583 11.8534 1.08131 11.9604 0.970442 12.1257C0.884862 12.2541 0.772052 12.2755 0.665076 12.2755C0.414171 12.2755 0.200221 12.1102 0.200221 11.8593C0.200221 11.7465 0.248846 11.6142 0.316921 11.5169C0.546431 11.196 0.984057 11.0151 1.50921 11.0151C2.29499 11.0151 2.91544 11.4158 2.91544 12.1218C2.91544 12.5128 2.70733 12.8707 2.32222 13.0457C2.78707 13.1955 3.05549 13.565 3.05549 14.061C3.05549 14.841 2.36112 15.3116 1.49948 15.3116C0.805117 15.3116 0.318866 15.0452 0.126311 14.5959C0.110751 14.5531 0.0893555 14.452 0.0893555 14.4092C0.0893555 14.1252 0.297471 13.9599 0.560046 13.9599C0.672856 13.9599 0.822622 13.9929 0.890697 14.1194L0.888752 14.1213Z" />
<path d="M14.939 2.93043H5.50763C4.96692 2.93043 4.5293 2.4928 4.5293 1.95209C4.5293 1.41138 4.96692 0.973755 5.50763 0.973755H14.939C15.4797 0.973755 15.9173 1.41138 15.9173 1.95209C15.9173 2.4928 15.4797 2.93043 14.939 2.93043Z" />
<path d="M14.939 8.71937H5.50763C4.96692 8.71937 4.5293 8.28174 4.5293 7.74103C4.5293 7.20032 4.96692 6.7627 5.50763 6.7627H14.939C15.4797 6.7627 15.9173 7.20032 15.9173 7.74103C15.9173 8.28174 15.4797 8.71937 14.939 8.71937Z" />
<path d="M14.939 14.5072H5.50763C4.96692 14.5072 4.5293 14.0696 4.5293 13.5289C4.5293 12.9882 4.96692 12.5505 5.50763 12.5505H14.939C15.4797 12.5505 15.9173 12.9882 15.9173 13.5289C15.9173 14.0696 15.4797 14.5072 14.939 14.5072Z" />
</svg>
