<svg width="32" height="32" viewBox="0 0 32 32" fill="none" xmlns="http://www.w3.org/2000/svg">
<rect x="0.666667" y="0.666667" width="30.6667" height="30.6667" rx="4.66667" fill="white"/>
<rect x="0.666667" y="0.666667" width="30.6667" height="30.6667" rx="4.66667" stroke="#D3D3D3" stroke-width="1.33333"/>
<mask id="mask0_4296_150155" style="mask-type:alpha" maskUnits="userSpaceOnUse" x="5" y="5" width="22" height="22">
<rect x="5.33301" y="5.33337" width="21.3333" height="21.3322" fill="#D9D9D9"/>
</mask>
<g mask="url(#mask0_4296_150155)">
<path d="M10.151 9.60093V13.0399C10.151 13.3821 9.87359 13.6596 9.53132 13.6596H6.09238C5.75011 13.6596 5.47266 13.937 5.47266 14.2793V22.397C5.47266 22.7393 5.75011 23.0168 6.09238 23.0168H21.2279C21.5701 23.0168 21.8476 22.7393 21.8476 22.397V18.9581C21.8476 18.6158 22.1251 18.3384 22.4673 18.3384H25.9063C26.2485 18.3384 26.526 18.0609 26.526 17.7186V9.60093C26.526 9.25866 26.2485 8.9812 25.9063 8.9812H10.7708C10.4285 8.9812 10.151 9.25866 10.151 9.60093Z" fill="#6139D1"/>
</g>
</svg>
