<svg width="14" height="14" viewBox="0 0 14 14" fill="none" xmlns="http://www.w3.org/2000/svg">
<path d="M1.95156 13.184C1.30144 13.184 0.774414 12.657 0.774414 12.0069V12.0069C0.774414 11.3567 1.30144 10.8297 1.95156 10.8297H4.54137L7.36658 2.35429H4.77677C4.12666 2.35429 3.59963 1.82726 3.59963 1.17714V1.17714C3.59963 0.527025 4.12665 0 4.77677 0H11.8399C12.49 0 13.017 0.527025 13.017 1.17714V1.17714C13.017 1.82726 12.49 2.35429 11.8399 2.35429H9.72093L6.89571 10.8297H9.01466C9.66477 10.8297 10.1918 11.3567 10.1918 12.0069V12.0069C10.1918 12.657 9.66477 13.184 9.01466 13.184H1.95156Z"/>
</svg>
