<svg width="13" height="10" viewBox="0 0 13 10" fill="none" xmlns="http://www.w3.org/2000/svg">
<path d="M2.9625 9.85915C1.2027 9.85915 0 8.46941 0 6.80414V6.27921C0 3.99449 1.29722 1.30753 3.91983 0.134996C5.46242 -0.544789 6.07986 1.52474 4.99984 2.11C4.38241 2.41972 3.6101 3.25236 3.30239 4.11717C4.84498 4.23986 5.83248 5.44457 5.83248 6.89464C5.83248 8.52975 4.53526 9.85714 2.9625 9.85714V9.85915ZM9.96952 9.85915C8.20972 9.85915 7.00702 8.46941 7.00702 6.80414V6.27921C7.00702 3.99449 8.30425 1.30954 10.9269 0.137008C12.4694 -0.542778 13.0869 1.52675 12.0069 2.11201C11.3894 2.42173 10.6171 3.25437 10.3094 4.11918C11.852 4.24187 12.8395 5.44658 12.8395 6.89665C12.8395 8.53176 11.5423 9.85915 9.96952 9.85915Z" />
</svg>
