<svg width="49" height="49" viewBox="0 0 49 49" fill="none" xmlns="http://www.w3.org/2000/svg">
<g clip-path="url(#clip0_349_20556)">
<rect x="0.913086" y="0.0927734" width="48" height="48" rx="24" fill="#E9E3F8"/>
<mask id="mask0_349_20556" style="mask-type:alpha" maskUnits="userSpaceOnUse" x="9" y="7" width="57" height="57">
<rect x="9.75488" y="7.67188" width="55.5789" height="55.5789" fill="#D9D9D9"/>
</mask>
<g mask="url(#mask0_349_20556)">
<path d="M24.4991 23.2088C23.0653 23.2088 21.8379 22.6848 20.8169 21.637C19.7958 20.589 19.2853 19.3293 19.2853 17.8578C19.2853 16.3863 19.7958 15.1266 20.8169 14.0787C21.8379 13.0308 23.0653 12.5068 24.4991 12.5068C25.9328 12.5068 27.1603 13.0308 28.1813 14.0787C29.2023 15.1266 29.7128 16.3863 29.7128 17.8578C29.7128 19.3293 29.2023 20.589 28.1813 21.637C27.1603 22.6848 25.9328 23.2088 24.4991 23.2088ZM13.3267 34.8517V31.4529C13.3267 30.7042 13.5248 30.0108 13.9211 29.3728C14.3174 28.7348 14.8469 28.2443 15.5096 27.9013C16.982 27.1604 18.4674 26.6047 19.9657 26.2343C21.4639 25.8638 22.9751 25.6786 24.4991 25.6786C26.0231 25.6786 27.5342 25.8638 29.0325 26.2343C30.5307 26.6047 32.0161 27.1604 33.4886 27.9013C34.1513 28.2443 34.6808 28.7348 35.077 29.3728C35.4733 30.0108 35.6715 30.7042 35.6715 31.4529V34.8517H13.3267Z" fill="#F7F5FC"/>
</g>
</g>
<defs>
<clipPath id="clip0_349_20556">
<rect x="0.913086" y="0.0927734" width="48" height="48" rx="24" fill="white"/>
</clipPath>
</defs>
</svg>
